<svg width="72" height="72" viewBox="0 0 72 72" fill="none" xmlns="http://www.w3.org/2000/svg">
<path d="M67.7018 41.6166C65.2486 39.1415 62.0065 37.6341 58.5651 37.3157C61.5359 34.6429 63.4103 30.7843 63.4103 26.4739C63.4103 18.41 56.8758 11.8755 48.8103 11.8755C41.1072 11.8755 34.8001 17.8422 34.2527 25.4042C41.1056 28.3687 45.9148 35.1981 45.9148 43.1271C45.9148 46.0226 45.256 48.8523 44.031 51.42C45.7956 52.3423 47.4222 53.5344 48.8401 54.9649C52.476 58.6259 54.5418 63.6876 54.5026 68.8481L54.4994 68.9532L54.4963 69.0426L54.3677 71.4848H71.8554L71.9997 52.1447C72.0295 48.1998 70.4844 44.4165 67.7018 41.6166Z" fill="white"/>
<path d="M36.3655 53.9721C39.3348 51.3009 41.2155 47.4407 41.2155 43.1304C41.2155 35.0649 34.6778 28.5288 26.6139 28.5288C18.5485 28.5288 12.0124 35.0649 12.0124 43.1304C12.0124 47.4329 13.8852 51.2899 16.8497 53.9627C9.258 54.5509 3.26146 60.8376 3.20656 68.5784L3.06226 71.4849H25.2618H49.6574L49.8017 68.7964C49.8299 64.8531 48.2833 61.0698 45.5023 58.2699C43.046 55.7932 39.8054 54.2905 36.3655 53.9721Z" fill="white"/>
<path d="M9.41777 17.6072V23.0312C9.41777 25.2774 11.2436 27.1016 13.4913 27.1016C15.7421 27.1016 17.5648 25.2774 17.5648 23.0312V17.6072H22.9825C25.2302 17.6072 27.0545 15.7814 27.0545 13.5337C27.0545 11.2875 25.2302 9.46175 22.9825 9.46175H17.5648V4.11773C17.5648 1.87001 15.7421 0.0473633 13.4913 0.0473633C11.2436 0.0473633 9.41777 1.87001 9.41777 4.11773V9.46018H4.07218C1.82132 9.46018 0.000244141 11.286 0.000244141 13.5321C0.000244141 15.7798 1.82132 17.6056 4.07218 17.6056L9.41777 17.6072Z" fill="white"/>
</svg>
