<svg width="1540" height="994" viewBox="0 0 1540 994" fill="none" xmlns="http://www.w3.org/2000/svg">
<g clip-path="url(#clip0_1899_2952)">
<rect width="1540" height="994" fill="url(#paint0_radial_1899_2952)"/>
<g opacity="0.06">
<path d="M307.852 656.781L307.852 579.213" stroke="white" stroke-opacity="0.08" stroke-width="3" stroke-linecap="round"/>
<g filter="url(#filter0_f_1899_2952)">
<path d="M306.662 656.781L306.662 579.213" stroke="white" stroke-opacity="0.08" stroke-width="3" stroke-linecap="round"/>
</g>
<g filter="url(#filter1_f_1899_2952)">
<path d="M294.219 656.781L294.219 579.213" stroke="white" stroke-opacity="0.08" stroke-width="3" stroke-linecap="round"/>
</g>
<path d="M340.863 643.666L340.863 573.513" stroke="white" stroke-opacity="0.08" stroke-width="3" stroke-linecap="round"/>
<path d="M272.289 643.666L272.289 573.513" stroke="white" stroke-opacity="0.08" stroke-width="3" stroke-linecap="round"/>
<g filter="url(#filter2_f_1899_2952)">
<path d="M352.895 643.666L352.895 609.058L352.895 573.513" stroke="white" stroke-opacity="0.08" stroke-width="3" stroke-linecap="round"/>
</g>
<ellipse cx="85.7733" cy="83.4826" rx="85.7733" ry="83.4826" transform="matrix(0.928656 0.370941 -0.396018 0.918243 267.121 396.089)" fill="url(#paint1_radial_1899_2952)"/>
<g filter="url(#filter3_d_1899_2952)">
<path d="M296.461 411.834L286.846 429.547C285.571 433.432 293.247 446.692 334.144 468.642C375.042 490.591 393.58 489.045 397.737 485.528L407.352 467.816C407.352 467.816 385.081 469.29 345.093 448.473C314.817 432.713 301.18 418.875 296.461 411.834Z" fill="url(#paint2_linear_1899_2952)" shape-rendering="crispEdges"/>
<path d="M389.837 471.743C392.8 472.37 395.41 472.806 397.655 473.108L393.251 481.221C392.836 481.337 392.2 481.473 391.28 481.565C389.057 481.788 385.683 481.696 380.958 480.814C371.508 479.049 357.253 474.232 337.14 463.438C316.937 452.595 305.301 444.084 298.96 438.045C295.781 435.017 294.102 432.771 293.303 431.325C293.18 431.104 293.086 430.915 293.013 430.757L297.468 422.55C305.345 430.768 319.268 441.794 342.164 453.712C362.619 464.361 378.702 469.39 389.837 471.743ZM292.778 430.125C292.778 430.125 292.781 430.135 292.783 430.153C292.779 430.134 292.777 430.125 292.778 430.125Z" stroke="url(#paint3_linear_1899_2952)" stroke-opacity="0.27" stroke-width="12" stroke-linejoin="round" shape-rendering="crispEdges"/>
</g>
<path d="M387.027 423.315C389.168 426.021 392.001 428.236 393.593 429.382C397.88 432.47 401.858 432.336 406.158 431.68C406.158 431.68 408.791 431.27 409.756 430.859C410.722 430.449 390.976 419.215 384.307 414.951C384.307 415.295 385.211 421.019 387.027 423.315Z" fill="url(#paint4_linear_1899_2952)" fill-opacity="0.5"/>
<path d="M351.141 401.729C348.036 402.974 345.958 402.984 343.983 402.974C338.664 402.947 334.41 400.816 331.909 396.002C331.909 396.002 330.092 393.228 329.321 392.019C328.861 391.297 342.948 395.089 354.418 400.069C354.196 400.344 353.418 400.816 351.141 401.729Z" fill="url(#paint5_linear_1899_2952)" fill-opacity="0.5"/>
<g filter="url(#filter4_d_1899_2952)">
<path d="M298.213 409.072C299.605 415.204 311.961 428.568 347.826 447.635C362.676 455.058 403.303 469.966 408.84 464.921C414.378 459.875 432.243 431.413 452.107 418.79C454.248 417.429 451.245 411.587 439.999 412.678C438.329 411.07 433.642 408.292 431.799 408.538C430.362 408.73 427.203 410.446 424.888 411.391C428.818 414.319 436.255 424.229 427.28 426.19C418.845 428.033 403.351 434.653 396.056 430.971C389.197 427.508 382.895 420.573 385.672 412.434C388.45 404.294 390.225 390.219 390.766 384.199L395.472 380.842C394.398 377.507 394.405 369.781 398.999 369.032C405.117 368.034 406.678 368.544 411.69 371.352C412.624 371.876 413.812 366.265 412.956 362.173C412.481 359.9 406.517 358.922 406.383 358.854C406.248 358.786 405.712 353.675 404.694 352.047C403.831 350.668 402.136 349.813 401.186 349.334L401.138 349.309C400.198 348.835 398.774 348.116 396.912 348.119C394.624 348.124 390.301 350.736 389.898 350.532C389.496 350.329 385.214 346.262 383.057 347.078C379.176 348.546 375.343 353.101 376.223 353.447C380.394 355.091 382.951 355.697 385.148 362.039C386.786 366.77 381.542 370.648 377.73 371.886L377.753 377.629C373.293 381.017 362.78 389.767 356.41 397.661C350.04 405.554 339.929 402.833 335.669 400.486C329.64 394.878 323.659 381.127 320.727 372.399C318.768 366.564 330.577 362.245 335.02 366.023C334.782 364.849 334.11 361.766 333.329 358.827C332.548 355.889 327.137 355.553 324.529 355.753C319.887 347.918 312.365 344.62 312.921 348.524C315.038 363.406 296.821 402.941 298.213 409.072Z" fill="url(#paint6_linear_1899_2952)" shape-rendering="crispEdges"/>
<path d="M319.139 360.571L319.419 361.043C319.275 361.14 319.131 361.24 318.989 361.342C319.04 361.085 319.09 360.828 319.139 360.571ZM314.832 377.064C316.336 381.232 318.348 386.108 320.659 390.729C323.339 396.088 326.781 401.851 330.735 405.528L331.357 406.107L332.106 406.519C335.065 408.15 339.841 409.845 345.152 409.827C350.731 409.808 357.131 407.85 361.948 401.881C367.771 394.665 377.734 386.333 382.046 383.057L383.892 381.654L383.708 383.712C383.168 389.721 381.439 403.066 378.954 410.35C376.761 416.774 378.271 422.684 381.262 427.249C384.153 431.663 388.485 434.987 392.716 437.123C396.111 438.836 399.884 439.102 403.072 438.941C406.343 438.776 409.735 438.118 412.849 437.358C415.91 436.611 418.975 435.695 421.649 434.896L421.837 434.84C423.054 434.477 424.166 434.146 425.179 433.856C423.21 436.089 421.344 438.304 419.597 440.435C416.275 444.49 413.277 448.376 410.776 451.62C410.34 452.186 409.919 452.732 409.514 453.256C407.344 456.062 405.849 457.939 404.889 459.027C403.906 459.041 402.412 458.918 400.368 458.577C396.034 457.854 390.34 456.346 384.116 454.374C371.724 450.449 358.265 445.022 351.218 441.509C333.595 432.135 322.009 424.3 314.76 418.225C311.129 415.183 308.69 412.668 307.139 410.713C306.367 409.74 305.858 408.96 305.537 408.373C305.41 408.142 305.32 407.952 305.256 407.804C305.291 407.532 305.357 407.142 305.469 406.615C305.765 405.219 306.283 403.345 307.004 401.004C307.931 397.995 309.08 394.573 310.338 390.824C311.057 388.681 311.812 386.431 312.582 384.091C313.337 381.795 314.098 379.436 314.832 377.064ZM305.221 408.183C305.221 408.183 305.221 408.17 305.222 408.141C305.223 408.168 305.222 408.182 305.221 408.183ZM405.737 458.957C405.74 458.96 405.7 458.97 405.608 458.983C405.689 458.961 405.735 458.955 405.737 458.957ZM439.382 419.673C439.098 419.916 438.814 420.16 438.532 420.405C438.507 420.188 438.477 419.974 438.442 419.765L439.382 419.673ZM399.973 361.914C399.305 361.999 398.63 362.102 397.946 362.213C395.656 362.587 393.883 363.503 392.512 364.676C392.64 363.127 392.466 361.466 391.864 359.726C391.58 358.906 391.276 358.122 390.948 357.376C390.95 357.376 390.953 357.376 390.955 357.375C391.589 357.282 392.096 357.127 392.342 357.048C392.865 356.879 393.352 356.671 393.634 356.549C393.847 356.456 394.372 356.218 394.826 356.012C395.137 355.87 395.416 355.744 395.537 355.69C396.137 355.424 396.626 355.225 397.009 355.094C397.154 355.151 397.396 355.258 397.798 355.461L397.799 355.462L397.848 355.486L397.848 355.487C398.092 355.609 398.267 355.698 398.443 355.796C398.489 355.821 398.532 355.845 398.572 355.869C398.68 356.289 398.79 356.807 398.898 357.387C399.002 357.94 399.087 358.457 399.166 358.937C399.181 359.028 399.195 359.118 399.21 359.206C399.25 359.447 399.302 359.76 399.355 360.028C399.378 360.141 399.43 360.404 399.512 360.699C399.547 360.824 399.644 361.166 399.818 361.576C399.853 361.657 399.903 361.773 399.973 361.914ZM397.375 354.985C397.375 354.985 397.368 354.986 397.354 354.989C397.368 354.986 397.375 354.984 397.375 354.985ZM396.817 355.033C396.813 355.033 396.809 355.033 396.806 355.033C396.805 355.033 396.804 355.032 396.806 355.032C396.807 355.032 396.811 355.032 396.817 355.033ZM384.847 379.926L384.838 377.485L384.832 376.071C385.949 375.355 387.034 374.516 388.023 373.557C387.82 374.962 387.764 376.408 387.828 377.8L386.649 378.641L384.847 379.926Z" stroke="url(#paint7_linear_1899_2952)" stroke-opacity="0.27" stroke-width="14" shape-rendering="crispEdges"/>
</g>
<g filter="url(#filter5_d_1899_2952)">
<path d="M366.816 431.118C362.067 435.508 358.725 435.48 353.99 437.129C352.387 433.092 350.424 428.818 351.522 423.398C356.762 419.201 360.952 417.775 364.73 417.23C366.54 421.002 367.648 424.696 366.816 431.118Z" fill="black"/>
</g>
<ellipse cx="3.51654" cy="4.27317" rx="3.51654" ry="4.27317" transform="matrix(0.892687 0.450677 -0.474985 0.879994 385.293 371.1)" fill="black"/>
</g>
<g opacity="0.06">
<path d="M1296.05 670.781L1296.05 593.213" stroke="white" stroke-opacity="0.08" stroke-width="3" stroke-linecap="round"/>
<g filter="url(#filter6_f_1899_2952)">
<path d="M1297.24 670.781L1297.24 593.213" stroke="white" stroke-opacity="0.08" stroke-width="3" stroke-linecap="round"/>
</g>
<g filter="url(#filter7_f_1899_2952)">
<path d="M1309.68 670.781L1309.68 593.213" stroke="white" stroke-opacity="0.08" stroke-width="3" stroke-linecap="round"/>
</g>
<path d="M1263.04 657.666L1263.04 587.513" stroke="white" stroke-opacity="0.08" stroke-width="3" stroke-linecap="round"/>
<path d="M1331.61 657.666L1331.61 587.513" stroke="white" stroke-opacity="0.08" stroke-width="3" stroke-linecap="round"/>
<g filter="url(#filter8_f_1899_2952)">
<path d="M1251.01 657.666L1251.01 623.058L1251.01 587.513" stroke="white" stroke-opacity="0.08" stroke-width="3" stroke-linecap="round"/>
</g>
<ellipse cx="85.7733" cy="83.4826" rx="85.7733" ry="83.4826" transform="matrix(-0.928656 0.370941 0.396018 0.918243 1336.78 410.089)" fill="url(#paint8_radial_1899_2952)"/>
<g filter="url(#filter9_d_1899_2952)">
<path d="M1307.44 425.834L1317.06 443.547C1318.33 447.432 1310.66 460.692 1269.76 482.642C1228.86 504.591 1210.32 503.045 1206.17 499.528L1196.55 481.816C1196.55 481.816 1218.82 483.29 1258.81 462.473C1289.09 446.713 1302.72 432.875 1307.44 425.834Z" fill="url(#paint9_linear_1899_2952)" shape-rendering="crispEdges"/>
<path d="M1214.07 485.743C1211.1 486.37 1208.49 486.806 1206.25 487.108L1210.65 495.221C1211.07 495.337 1211.7 495.473 1212.62 495.565C1214.85 495.788 1218.22 495.696 1222.94 494.814C1232.39 493.049 1246.65 488.232 1266.76 477.438C1286.97 466.595 1298.6 458.084 1304.94 452.045C1308.12 449.017 1309.8 446.771 1310.6 445.325C1310.72 445.104 1310.82 444.915 1310.89 444.757L1306.43 436.55C1298.56 444.768 1284.63 455.794 1261.74 467.712C1241.28 478.361 1225.2 483.39 1214.07 485.743ZM1311.12 444.125C1311.12 444.125 1311.12 444.135 1311.12 444.153C1311.12 444.134 1311.12 444.125 1311.12 444.125Z" stroke="url(#paint10_linear_1899_2952)" stroke-opacity="0.27" stroke-width="12" stroke-linejoin="round" shape-rendering="crispEdges"/>
</g>
<path d="M1216.88 437.315C1214.73 440.021 1211.9 442.236 1210.31 443.382C1206.02 446.47 1202.04 446.336 1197.74 445.68C1197.74 445.68 1195.11 445.27 1194.15 444.859C1193.18 444.449 1212.93 433.215 1219.6 428.951C1219.6 429.295 1218.69 435.019 1216.88 437.315Z" fill="url(#paint11_linear_1899_2952)" fill-opacity="0.5"/>
<path d="M1252.76 415.729C1255.87 416.974 1257.94 416.984 1259.92 416.974C1265.24 416.947 1269.49 414.816 1271.99 410.002C1271.99 410.002 1273.81 407.228 1274.58 406.019C1275.04 405.297 1260.95 409.089 1249.48 414.069C1249.71 414.344 1250.48 414.816 1252.76 415.729Z" fill="url(#paint12_linear_1899_2952)" fill-opacity="0.5"/>
<g filter="url(#filter10_d_1899_2952)">
<path d="M1305.69 423.072C1304.3 429.204 1291.94 442.568 1256.08 461.635C1241.23 469.058 1200.6 483.966 1195.06 478.921C1189.52 473.875 1171.66 445.413 1151.8 432.79C1149.65 431.429 1152.66 425.587 1163.9 426.678C1165.57 425.07 1170.26 422.292 1172.1 422.538C1173.54 422.73 1176.7 424.446 1179.01 425.391C1175.08 428.319 1167.65 438.229 1176.62 440.19C1185.06 442.033 1200.55 448.653 1207.85 444.971C1214.7 441.508 1221.01 434.573 1218.23 426.434C1215.45 418.294 1213.68 404.219 1213.14 398.199L1208.43 394.842C1209.5 391.507 1209.5 383.781 1204.9 383.032C1198.79 382.034 1197.22 382.544 1192.21 385.352C1191.28 385.876 1190.09 380.265 1190.95 376.173C1191.42 373.9 1197.39 372.922 1197.52 372.854C1197.65 372.786 1198.19 367.675 1199.21 366.047C1200.07 364.668 1201.77 363.813 1202.72 363.334L1202.76 363.309C1203.7 362.835 1205.13 362.116 1206.99 362.119C1209.28 362.124 1213.6 364.736 1214 364.532C1214.41 364.329 1218.69 360.262 1220.85 361.078C1224.73 362.546 1228.56 367.101 1227.68 367.447C1223.51 369.091 1220.95 369.697 1218.75 376.039C1217.12 380.77 1222.36 384.648 1226.17 385.886L1226.15 391.629C1230.61 395.017 1241.12 403.767 1247.49 411.661C1253.86 419.554 1263.97 416.833 1268.23 414.486C1274.26 408.878 1280.24 395.127 1283.17 386.399C1285.13 380.564 1273.33 376.245 1268.88 380.023C1269.12 378.849 1269.79 375.766 1270.57 372.827C1271.35 369.889 1276.77 369.553 1279.37 369.753C1284.01 361.918 1291.54 358.62 1290.98 362.524C1288.86 377.406 1307.08 416.941 1305.69 423.072Z" fill="url(#paint13_linear_1899_2952)" shape-rendering="crispEdges"/>
<path d="M1284.76 374.571L1284.48 375.043C1284.63 375.14 1284.77 375.24 1284.91 375.342C1284.86 375.085 1284.81 374.828 1284.76 374.571ZM1289.07 391.064C1287.57 395.232 1285.55 400.108 1283.24 404.729C1280.56 410.088 1277.12 415.851 1273.17 419.528L1272.55 420.107L1271.8 420.519C1268.84 422.15 1264.06 423.845 1258.75 423.827C1253.17 423.808 1246.77 421.85 1241.95 415.881C1236.13 408.665 1226.17 400.333 1221.86 397.057L1220.01 395.654L1220.19 397.712C1220.73 403.721 1222.46 417.066 1224.95 424.35C1227.14 430.774 1225.63 436.684 1222.64 441.249C1219.75 445.663 1215.42 448.987 1211.19 451.123C1207.79 452.836 1204.02 453.102 1200.83 452.941C1197.56 452.776 1194.17 452.118 1191.05 451.358C1187.99 450.611 1184.93 449.695 1182.25 448.896L1182.07 448.84C1180.85 448.477 1179.74 448.146 1178.72 447.856C1180.69 450.089 1182.56 452.304 1184.31 454.435C1187.63 458.49 1190.62 462.376 1193.13 465.62C1193.56 466.186 1193.98 466.732 1194.39 467.256C1196.56 470.062 1198.05 471.939 1199.01 473.027C1200 473.041 1201.49 472.918 1203.53 472.577C1207.87 471.854 1213.56 470.346 1219.79 468.374C1232.18 464.449 1245.64 459.022 1252.68 455.509C1270.31 446.135 1281.89 438.3 1289.14 432.225C1292.77 429.183 1295.21 426.668 1296.76 424.713C1297.54 423.74 1298.04 422.96 1298.37 422.373C1298.49 422.142 1298.58 421.952 1298.65 421.804C1298.61 421.532 1298.55 421.142 1298.43 420.615C1298.14 419.219 1297.62 417.345 1296.9 415.004C1295.97 411.995 1294.82 408.573 1293.56 404.824C1292.85 402.681 1292.09 400.431 1291.32 398.091C1290.57 395.795 1289.8 393.436 1289.07 391.064ZM1298.68 422.183C1298.68 422.183 1298.68 422.17 1298.68 422.141C1298.68 422.168 1298.68 422.182 1298.68 422.183ZM1198.17 472.957C1198.16 472.96 1198.2 472.97 1198.29 472.983C1198.21 472.961 1198.17 472.955 1198.17 472.957ZM1164.52 433.673C1164.8 433.916 1165.09 434.16 1165.37 434.405C1165.4 434.188 1165.43 433.974 1165.46 433.765L1164.52 433.673ZM1203.93 375.914C1204.6 375.999 1205.27 376.102 1205.96 376.213C1208.25 376.587 1210.02 377.503 1211.39 378.676C1211.26 377.127 1211.44 375.466 1212.04 373.726C1212.32 372.906 1212.63 372.122 1212.95 371.376C1212.95 371.376 1212.95 371.376 1212.95 371.375C1212.31 371.282 1211.81 371.127 1211.56 371.048C1211.04 370.879 1210.55 370.671 1210.27 370.549C1210.06 370.456 1209.53 370.218 1209.08 370.012C1208.76 369.87 1208.49 369.744 1208.37 369.69C1207.77 369.424 1207.28 369.225 1206.89 369.094C1206.75 369.151 1206.51 369.258 1206.1 369.461L1206.1 369.462L1206.05 369.486L1206.05 369.487C1205.81 369.609 1205.64 369.698 1205.46 369.796C1205.41 369.821 1205.37 369.845 1205.33 369.869C1205.22 370.289 1205.11 370.807 1205 371.387C1204.9 371.94 1204.82 372.457 1204.74 372.937C1204.72 373.028 1204.71 373.118 1204.69 373.206C1204.65 373.447 1204.6 373.76 1204.55 374.028C1204.52 374.141 1204.47 374.404 1204.39 374.699C1204.36 374.824 1204.26 375.166 1204.08 375.576C1204.05 375.657 1204 375.773 1203.93 375.914ZM1206.53 368.985C1206.53 368.985 1206.53 368.986 1206.55 368.989C1206.53 368.986 1206.53 368.984 1206.53 368.985ZM1207.09 369.033C1207.09 369.033 1207.09 369.033 1207.1 369.033C1207.1 369.033 1207.1 369.032 1207.1 369.032C1207.09 369.032 1207.09 369.032 1207.09 369.033ZM1219.05 393.926L1219.06 391.485L1219.07 390.071C1217.95 389.355 1216.87 388.516 1215.88 387.557C1216.08 388.962 1216.14 390.408 1216.07 391.8L1217.25 392.641L1219.05 393.926Z" stroke="url(#paint14_linear_1899_2952)" stroke-opacity="0.27" stroke-width="14" shape-rendering="crispEdges"/>
</g>
<g filter="url(#filter11_d_1899_2952)">
<path d="M1237.09 445.118C1241.84 449.508 1245.18 449.48 1249.91 451.129C1251.52 447.092 1253.48 442.818 1252.38 437.398C1247.14 433.201 1242.95 431.775 1239.17 431.23C1237.36 435.002 1236.25 438.696 1237.09 445.118Z" fill="black"/>
</g>
<ellipse cx="3.51654" cy="4.27317" rx="3.51654" ry="4.27317" transform="matrix(-0.892687 0.450677 0.474985 0.879994 1218.61 385.1)" fill="black"/>
</g>
<path d="M181.501 592.134L58.5608 624.776L98.7282 776.06C100.919 784.312 96.9157 791.264 88.7197 793.44C80.5237 795.616 73.599 791.566 71.4081 783.314L31.2407 632.029L-91.6998 664.671C-129.948 674.827 -151.967 713.063 -141.742 751.571L-68.7105 1026.63C-58.486 1065.14 -20.4005 1087.42 17.8477 1077.26L140.788 1044.62L115.227 948.351C113.036 940.099 117.039 933.147 125.236 930.971C133.432 928.795 140.356 932.846 142.547 941.098L168.108 1037.37L291.049 1004.73C329.297 994.572 351.315 956.336 341.091 917.828L268.059 642.765C257.835 604.256 219.749 581.979 181.501 592.134ZM38.7441 990.742C43.8563 1010 32.847 1029.11 13.723 1034.19C-5.40111 1039.27 -24.4439 1028.13 -29.5561 1008.88L-55.1172 912.605C-60.2294 893.35 -49.2201 874.232 -30.096 869.155C-10.972 864.077 8.07084 875.216 13.1831 894.47L38.7441 990.742ZM104.272 907.092C81.0502 913.258 58.5451 900.093 52.3374 876.713C46.1297 853.333 59.1407 830.739 82.3628 824.573C105.585 818.407 128.09 831.572 134.298 854.952C140.505 878.332 127.494 900.926 104.272 907.092ZM254.466 756.794C259.578 776.049 248.569 795.167 229.445 800.244C210.321 805.322 191.278 794.183 186.166 774.929L160.605 678.657C155.493 659.402 166.502 640.284 185.626 635.207C204.75 630.129 223.793 641.268 228.905 660.522L254.466 756.794Z" fill="#4F1754"/>
<path d="M1491.5 -174.866L1368.56 -142.224L1408.73 9.06007C1410.92 17.3119 1406.92 24.2639 1398.72 26.4401C1390.52 28.6162 1383.6 24.5657 1381.41 16.3138L1341.24 -134.971L1218.3 -102.329C1180.05 -92.1734 1158.03 -53.9375 1168.26 -15.4287L1241.29 259.634C1251.51 298.142 1289.6 320.42 1327.85 310.265L1450.79 277.623L1425.23 181.351C1423.04 173.099 1427.04 166.147 1435.24 163.971C1443.43 161.795 1450.36 165.846 1452.55 174.098L1478.11 270.369L1601.05 237.728C1639.3 227.572 1661.32 189.336 1651.09 150.828L1578.06 -124.235C1567.83 -162.744 1529.75 -185.021 1491.5 -174.866ZM1348.74 223.742C1353.86 242.997 1342.85 262.115 1323.72 267.192C1304.6 272.27 1285.56 261.131 1280.44 241.876L1254.88 145.605C1249.77 126.35 1260.78 107.232 1279.9 102.155C1299.03 97.0771 1318.07 108.216 1323.18 127.47L1348.74 223.742ZM1414.27 140.092C1391.05 146.258 1368.55 133.093 1362.34 109.713C1356.13 86.3328 1369.14 63.7388 1392.36 57.5732C1415.58 51.4075 1438.09 64.5716 1444.3 87.9519C1450.51 111.332 1437.49 133.926 1414.27 140.092ZM1564.47 -10.2058C1569.58 9.04855 1558.57 28.1665 1539.44 33.2442C1520.32 38.3218 1501.28 27.1829 1496.17 7.92853L1470.6 -88.3433C1465.49 -107.598 1476.5 -126.716 1495.63 -131.793C1514.75 -136.871 1533.79 -125.732 1538.9 -106.478L1564.47 -10.2058Z" fill="#4F1754"/>
</g>
<defs>
<filter id="filter0_f_1899_2952" x="290.162" y="562.714" width="33" height="110.567" filterUnits="userSpaceOnUse" color-interpolation-filters="sRGB">
<feFlood flood-opacity="0" result="BackgroundImageFix"/>
<feBlend mode="normal" in="SourceGraphic" in2="BackgroundImageFix" result="shape"/>
<feGaussianBlur stdDeviation="7.5" result="effect1_foregroundBlur_1899_2952"/>
</filter>
<filter id="filter1_f_1899_2952" x="277.719" y="562.714" width="33" height="110.567" filterUnits="userSpaceOnUse" color-interpolation-filters="sRGB">
<feFlood flood-opacity="0" result="BackgroundImageFix"/>
<feBlend mode="normal" in="SourceGraphic" in2="BackgroundImageFix" result="shape"/>
<feGaussianBlur stdDeviation="7.5" result="effect1_foregroundBlur_1899_2952"/>
</filter>
<filter id="filter2_f_1899_2952" x="336.395" y="557.013" width="33" height="103.153" filterUnits="userSpaceOnUse" color-interpolation-filters="sRGB">
<feFlood flood-opacity="0" result="BackgroundImageFix"/>
<feBlend mode="normal" in="SourceGraphic" in2="BackgroundImageFix" result="shape"/>
<feGaussianBlur stdDeviation="7.5" result="effect1_foregroundBlur_1899_2952"/>
</filter>
<filter id="filter3_d_1899_2952" x="264.717" y="406.834" width="144.635" height="99.7598" filterUnits="userSpaceOnUse" color-interpolation-filters="sRGB">
<feFlood flood-opacity="0" result="BackgroundImageFix"/>
<feColorMatrix in="SourceAlpha" type="matrix" values="0 0 0 0 0 0 0 0 0 0 0 0 0 0 0 0 0 0 127 0" result="hardAlpha"/>
<feOffset dx="-10" dy="7"/>
<feGaussianBlur stdDeviation="6"/>
<feComposite in2="hardAlpha" operator="out"/>
<feColorMatrix type="matrix" values="0 0 0 0 0 0 0 0 0 0 0 0 0 0 0 0 0 0 0.25 0"/>
<feBlend mode="normal" in2="BackgroundImageFix" result="effect1_dropShadow_1899_2952"/>
<feBlend mode="normal" in="SourceGraphic" in2="effect1_dropShadow_1899_2952" result="shape"/>
</filter>
<filter id="filter4_d_1899_2952" x="278.137" y="335.879" width="192.613" height="157.063" filterUnits="userSpaceOnUse" color-interpolation-filters="sRGB">
<feFlood flood-opacity="0" result="BackgroundImageFix"/>
<feColorMatrix in="SourceAlpha" type="matrix" values="0 0 0 0 0 0 0 0 0 0 0 0 0 0 0 0 0 0 127 0" result="hardAlpha"/>
<feOffset dx="-1" dy="8"/>
<feGaussianBlur stdDeviation="9.5"/>
<feComposite in2="hardAlpha" operator="out"/>
<feColorMatrix type="matrix" values="0 0 0 0 0 0 0 0 0 0 0 0 0 0 0 0 0 0 0.25 0"/>
<feBlend mode="normal" in2="BackgroundImageFix" result="effect1_dropShadow_1899_2952"/>
<feBlend mode="normal" in="SourceGraphic" in2="effect1_dropShadow_1899_2952" result="shape"/>
</filter>
<filter id="filter5_d_1899_2952" x="311.203" y="383.23" width="87.8945" height="91.8984" filterUnits="userSpaceOnUse" color-interpolation-filters="sRGB">
<feFlood flood-opacity="0" result="BackgroundImageFix"/>
<feColorMatrix in="SourceAlpha" type="matrix" values="0 0 0 0 0 0 0 0 0 0 0 0 0 0 0 0 0 0 127 0" result="hardAlpha"/>
<feOffset dx="-4" dy="2"/>
<feGaussianBlur stdDeviation="18"/>
<feComposite in2="hardAlpha" operator="out"/>
<feColorMatrix type="matrix" values="0 0 0 0 0 0 0 0 0 0 0 0 0 0 0 0 0 0 0.25 0"/>
<feBlend mode="normal" in2="BackgroundImageFix" result="effect1_dropShadow_1899_2952"/>
<feBlend mode="normal" in="SourceGraphic" in2="effect1_dropShadow_1899_2952" result="shape"/>
</filter>
<filter id="filter6_f_1899_2952" x="1280.74" y="576.714" width="33" height="110.567" filterUnits="userSpaceOnUse" color-interpolation-filters="sRGB">
<feFlood flood-opacity="0" result="BackgroundImageFix"/>
<feBlend mode="normal" in="SourceGraphic" in2="BackgroundImageFix" result="shape"/>
<feGaussianBlur stdDeviation="7.5" result="effect1_foregroundBlur_1899_2952"/>
</filter>
<filter id="filter7_f_1899_2952" x="1293.18" y="576.714" width="33" height="110.567" filterUnits="userSpaceOnUse" color-interpolation-filters="sRGB">
<feFlood flood-opacity="0" result="BackgroundImageFix"/>
<feBlend mode="normal" in="SourceGraphic" in2="BackgroundImageFix" result="shape"/>
<feGaussianBlur stdDeviation="7.5" result="effect1_foregroundBlur_1899_2952"/>
</filter>
<filter id="filter8_f_1899_2952" x="1234.51" y="571.013" width="33" height="103.153" filterUnits="userSpaceOnUse" color-interpolation-filters="sRGB">
<feFlood flood-opacity="0" result="BackgroundImageFix"/>
<feBlend mode="normal" in="SourceGraphic" in2="BackgroundImageFix" result="shape"/>
<feGaussianBlur stdDeviation="7.5" result="effect1_foregroundBlur_1899_2952"/>
</filter>
<filter id="filter9_d_1899_2952" x="1174.55" y="420.834" width="144.635" height="99.7598" filterUnits="userSpaceOnUse" color-interpolation-filters="sRGB">
<feFlood flood-opacity="0" result="BackgroundImageFix"/>
<feColorMatrix in="SourceAlpha" type="matrix" values="0 0 0 0 0 0 0 0 0 0 0 0 0 0 0 0 0 0 127 0" result="hardAlpha"/>
<feOffset dx="-10" dy="7"/>
<feGaussianBlur stdDeviation="6"/>
<feComposite in2="hardAlpha" operator="out"/>
<feColorMatrix type="matrix" values="0 0 0 0 0 0 0 0 0 0 0 0 0 0 0 0 0 0 0.25 0"/>
<feBlend mode="normal" in2="BackgroundImageFix" result="effect1_dropShadow_1899_2952"/>
<feBlend mode="normal" in="SourceGraphic" in2="effect1_dropShadow_1899_2952" result="shape"/>
</filter>
<filter id="filter10_d_1899_2952" x="1131.15" y="349.879" width="192.613" height="157.063" filterUnits="userSpaceOnUse" color-interpolation-filters="sRGB">
<feFlood flood-opacity="0" result="BackgroundImageFix"/>
<feColorMatrix in="SourceAlpha" type="matrix" values="0 0 0 0 0 0 0 0 0 0 0 0 0 0 0 0 0 0 127 0" result="hardAlpha"/>
<feOffset dx="-1" dy="8"/>
<feGaussianBlur stdDeviation="9.5"/>
<feComposite in2="hardAlpha" operator="out"/>
<feColorMatrix type="matrix" values="0 0 0 0 0 0 0 0 0 0 0 0 0 0 0 0 0 0 0.25 0"/>
<feBlend mode="normal" in2="BackgroundImageFix" result="effect1_dropShadow_1899_2952"/>
<feBlend mode="normal" in="SourceGraphic" in2="effect1_dropShadow_1899_2952" result="shape"/>
</filter>
<filter id="filter11_d_1899_2952" x="1196.8" y="397.23" width="87.8945" height="91.8984" filterUnits="userSpaceOnUse" color-interpolation-filters="sRGB">
<feFlood flood-opacity="0" result="BackgroundImageFix"/>
<feColorMatrix in="SourceAlpha" type="matrix" values="0 0 0 0 0 0 0 0 0 0 0 0 0 0 0 0 0 0 127 0" result="hardAlpha"/>
<feOffset dx="-4" dy="2"/>
<feGaussianBlur stdDeviation="18"/>
<feComposite in2="hardAlpha" operator="out"/>
<feColorMatrix type="matrix" values="0 0 0 0 0 0 0 0 0 0 0 0 0 0 0 0 0 0 0.25 0"/>
<feBlend mode="normal" in2="BackgroundImageFix" result="effect1_dropShadow_1899_2952"/>
<feBlend mode="normal" in="SourceGraphic" in2="effect1_dropShadow_1899_2952" result="shape"/>
</filter>
<radialGradient id="paint0_radial_1899_2952" cx="0" cy="0" r="1" gradientUnits="userSpaceOnUse" gradientTransform="translate(770 497) rotate(90) scale(844 1307.61)">
<stop stop-color="#250A3B"/>
<stop offset="0.645833" stop-color="#250A3B" stop-opacity="0.89"/>
</radialGradient>
<radialGradient id="paint1_radial_1899_2952" cx="0" cy="0" r="1" gradientUnits="userSpaceOnUse" gradientTransform="translate(130.89 83.4826) rotate(122.581) scale(99.0741 92.1412)">
<stop offset="0.203125" stop-color="#B9B9B9" stop-opacity="0.95"/>
<stop offset="0.552083" stop-color="#999999"/>
<stop offset="1" stop-color="#545454" stop-opacity="0.9"/>
</radialGradient>
<linearGradient id="paint2_linear_1899_2952" x1="299.14" y1="438.078" x2="412.239" y2="476.934" gradientUnits="userSpaceOnUse">
<stop offset="0.0315335" stop-color="#B08743"/>
<stop offset="0.390961" stop-color="#FFC82D" stop-opacity="0.95"/>
<stop offset="0.64796" stop-color="#FFE72D" stop-opacity="0.95"/>
<stop offset="0.904958" stop-color="#FFC82D"/>
</linearGradient>
<linearGradient id="paint3_linear_1899_2952" x1="410.333" y1="475.666" x2="357.333" y2="512.102" gradientUnits="userSpaceOnUse">
<stop stop-color="#FF650B" stop-opacity="0.18"/>
<stop offset="1" stop-color="#FF650B" stop-opacity="0"/>
</linearGradient>
<linearGradient id="paint4_linear_1899_2952" x1="394.925" y1="433.32" x2="402.543" y2="418.363" gradientUnits="userSpaceOnUse">
<stop stop-color="#635E5E" stop-opacity="0.6"/>
<stop offset="0.410259" stop-color="#6E592D" stop-opacity="0.7"/>
<stop offset="0.657617" stop-color="#FFB928"/>
<stop offset="0.989583" stop-color="#F9DD2E"/>
</linearGradient>
<linearGradient id="paint5_linear_1899_2952" x1="338.518" y1="402.682" x2="343.688" y2="392.227" gradientUnits="userSpaceOnUse">
<stop stop-color="#635E5E" stop-opacity="0.6"/>
<stop offset="0.380177" stop-color="#6E592D" stop-opacity="0.8"/>
<stop offset="0.822917" stop-color="#FFB928"/>
<stop offset="0.989583" stop-color="#F9DD2E"/>
</linearGradient>
<linearGradient id="paint6_linear_1899_2952" x1="323.887" y1="391.686" x2="428.175" y2="432.068" gradientUnits="userSpaceOnUse">
<stop stop-color="#B08743"/>
<stop offset="0.310258" stop-color="#FFC82D" stop-opacity="0.95"/>
<stop offset="0.566289" stop-color="#FFE72D" stop-opacity="0.95"/>
<stop offset="0.886839" stop-color="#FFC82D"/>
</linearGradient>
<linearGradient id="paint7_linear_1899_2952" x1="454.179" y1="426.253" x2="331.674" y2="431.213" gradientUnits="userSpaceOnUse">
<stop stop-color="#FF650B" stop-opacity="0.68"/>
<stop offset="1" stop-color="#FF650B" stop-opacity="0"/>
</linearGradient>
<radialGradient id="paint8_radial_1899_2952" cx="0" cy="0" r="1" gradientUnits="userSpaceOnUse" gradientTransform="translate(130.89 83.4826) rotate(122.581) scale(99.0741 92.1412)">
<stop offset="0.203125" stop-color="#B9B9B9" stop-opacity="0.95"/>
<stop offset="0.552083" stop-color="#999999"/>
<stop offset="1" stop-color="#545454" stop-opacity="0.9"/>
</radialGradient>
<linearGradient id="paint9_linear_1899_2952" x1="1304.76" y1="452.078" x2="1191.66" y2="490.934" gradientUnits="userSpaceOnUse">
<stop offset="0.0315335" stop-color="#B08743"/>
<stop offset="0.390961" stop-color="#FFC82D" stop-opacity="0.95"/>
<stop offset="0.64796" stop-color="#FFE72D" stop-opacity="0.95"/>
<stop offset="0.904958" stop-color="#FFC82D"/>
</linearGradient>
<linearGradient id="paint10_linear_1899_2952" x1="1193.57" y1="489.666" x2="1246.57" y2="526.102" gradientUnits="userSpaceOnUse">
<stop stop-color="#FF650B" stop-opacity="0.18"/>
<stop offset="1" stop-color="#FF650B" stop-opacity="0"/>
</linearGradient>
<linearGradient id="paint11_linear_1899_2952" x1="1208.98" y1="447.32" x2="1201.36" y2="432.363" gradientUnits="userSpaceOnUse">
<stop stop-color="#635E5E" stop-opacity="0.6"/>
<stop offset="0.410259" stop-color="#6E592D" stop-opacity="0.7"/>
<stop offset="0.657617" stop-color="#FFB928"/>
<stop offset="0.989583" stop-color="#F9DD2E"/>
</linearGradient>
<linearGradient id="paint12_linear_1899_2952" x1="1265.38" y1="416.682" x2="1260.21" y2="406.227" gradientUnits="userSpaceOnUse">
<stop stop-color="#635E5E" stop-opacity="0.6"/>
<stop offset="0.380177" stop-color="#6E592D" stop-opacity="0.8"/>
<stop offset="0.822917" stop-color="#FFB928"/>
<stop offset="0.989583" stop-color="#F9DD2E"/>
</linearGradient>
<linearGradient id="paint13_linear_1899_2952" x1="1280.02" y1="405.686" x2="1175.73" y2="446.068" gradientUnits="userSpaceOnUse">
<stop stop-color="#B08743"/>
<stop offset="0.310258" stop-color="#FFC82D" stop-opacity="0.95"/>
<stop offset="0.566289" stop-color="#FFE72D" stop-opacity="0.95"/>
<stop offset="0.886839" stop-color="#FFC82D"/>
</linearGradient>
<linearGradient id="paint14_linear_1899_2952" x1="1149.72" y1="440.253" x2="1272.23" y2="445.213" gradientUnits="userSpaceOnUse">
<stop stop-color="#FF650B" stop-opacity="0.68"/>
<stop offset="1" stop-color="#FF650B" stop-opacity="0"/>
</linearGradient>
<clipPath id="clip0_1899_2952">
<rect width="1540" height="994" fill="white"/>
</clipPath>
</defs>
</svg>
