<svg width="24" height="32" viewBox="0 0 24 32" fill="none" xmlns="http://www.w3.org/2000/svg">
<path d="M11.927 31.5L0 25.3465V0H12H24V25.3465L11.927 31.5ZM1.16859 24.633L11.927 30.1814L22.8314 24.6315V1.17209H1.16859V24.633ZM11.8634 19.8157L19.0408 16.161V12.5055L11.8729 16.1551L4.95922 12.5883V16.2511L11.8634 19.8157ZM11.8729 22.2082L4.95922 18.6414V22.3042L11.8642 25.8659L19.0415 22.2112V18.5557L11.8729 22.2082Z" fill="#CD7F32"/>
<path d="M13.8539 10.7232L13.17 8.5471L15 7.18796L12.7233 7.16762L11.9998 5L11.2767 7.16573L9 7.18607L10.83 8.54521L10.1461 10.7213L12.0002 9.39674L13.8539 10.7232Z" fill="#CD7F32"/>
</svg>
