<svg width="301" height="165" viewBox="0 0 301 165" fill="none" xmlns="http://www.w3.org/2000/svg">
<rect x="1" y="14.8497" width="300" height="150" rx="24" fill="#6A6A6A"/>
<mask id="path-2-inside-1_1832_2956" fill="white">
<path fill-rule="evenodd" clip-rule="evenodd" d="M1 101.549L237.046 14.8497H277C290.255 14.8497 301 25.5949 301 38.8497V140.85C301 154.105 290.255 164.85 277 164.85H25C11.7452 164.85 1 154.105 1 140.85V101.549Z"/>
</mask>
<path fill-rule="evenodd" clip-rule="evenodd" d="M1 101.549L237.046 14.8497H277C290.255 14.8497 301 25.5949 301 38.8497V140.85C301 154.105 290.255 164.85 277 164.85H25C11.7452 164.85 1 154.105 1 140.85V101.549Z" fill="url(#paint0_radial_1832_2956)"/>
<path d="M1 101.549L0.310448 99.6714C-0.476777 99.9605 -1 100.71 -1 101.549H1ZM237.046 14.8497V12.8497C236.811 12.8497 236.578 12.8912 236.357 12.9724L237.046 14.8497ZM1.68955 103.426L237.736 16.7271L236.357 12.9724L0.310448 99.6714L1.68955 103.426ZM237.046 16.8497H277V12.8497H237.046V16.8497ZM277 16.8497C289.15 16.8497 299 26.6995 299 38.8497H303C303 24.4903 291.359 12.8497 277 12.8497V16.8497ZM299 38.8497V140.85H303V38.8497H299ZM299 140.85C299 153 289.15 162.85 277 162.85V166.85C291.359 166.85 303 155.209 303 140.85H299ZM277 162.85H25V166.85H277V162.85ZM25 162.85C12.8497 162.85 3 153 3 140.85H-1C-1 155.209 10.6406 166.85 25 166.85V162.85ZM3 140.85V101.549H-1V140.85H3Z" fill="url(#paint1_linear_1832_2956)" mask="url(#path-2-inside-1_1832_2956)"/>
<path fill-rule="evenodd" clip-rule="evenodd" d="M101.233 164.85H25C24.2173 164.85 23.4435 164.812 22.68 164.739C15.9904 156.235 12 145.509 12 133.85C12 106.236 34.3858 83.8497 62 83.8497C89.6142 83.8497 112 106.236 112 133.85C112 145.559 107.975 156.329 101.233 164.85Z" fill="url(#paint2_radial_1832_2956)"/>
<circle cx="277" cy="40.8497" r="20" fill="url(#paint3_radial_1832_2956)"/>
<g filter="url(#filter0_d_1832_2956)">
<path d="M29.624 90.0121L27.6855 101.854C27.7296 104.288 34.6409 110.24 61.9334 114.575C89.2258 118.91 99.3462 114.411 100.995 111.62L102.933 99.7786C102.933 99.7786 90.7001 104.968 64.1407 101.092C44.0326 98.1578 33.6557 93.0472 29.624 90.0121Z" fill="url(#paint4_linear_1832_2956)" shape-rendering="crispEdges"/>
<path d="M94.0968 107.814C94.6072 107.749 95.0997 107.68 95.5742 107.61L95.4193 108.556C94.456 108.976 92.8312 109.487 90.3367 109.865C85.0098 110.672 76.3208 110.783 63.0514 108.676C49.6804 106.552 41.7052 104.089 37.227 102.057C35.6942 101.362 34.6697 100.761 34.0157 100.308L34.1597 99.428C40.5793 102.236 49.9798 105.089 63.0973 107.003C76.8913 109.016 87.1429 108.7 94.0968 107.814ZM96.3149 108.076C96.315 108.076 96.3111 108.08 96.3027 108.086C96.3105 108.079 96.3147 108.076 96.3149 108.076ZM33.0733 99.5145C33.0774 99.5144 33.1096 99.5475 33.1575 99.614C33.0931 99.5479 33.0692 99.5146 33.0733 99.5145Z" stroke="url(#paint5_linear_1832_2956)" stroke-opacity="0.27" stroke-width="12" stroke-linejoin="round" shape-rendering="crispEdges"/>
</g>
<g filter="url(#filter1_d_1832_2956)">
<mask id="path-8-inside-2_1832_2956" fill="white">
<path d="M30.071 88.1132C32.054 91.2882 41.6174 96.383 65.5162 100.082C75.3189 101.349 101.08 101.777 103.206 97.8565C105.332 93.9355 109.804 74.4347 118.502 63.4485C119.439 62.2643 116.607 59.5672 110.497 62.3821C109.244 61.8051 106.064 61.1607 105.076 61.6599C104.306 62.0493 102.865 63.6325 101.749 64.6173C104.532 65.4938 110.654 69.61 105.991 72.4696C101.609 75.1573 94.1937 81.913 89.3712 81.2705C84.8371 80.6665 79.9356 78.0011 79.9039 72.8807C79.8722 67.7603 78.1148 59.4989 77.24 56.0083L79.2291 53.1998C77.9723 51.5349 76.4635 47.1895 78.8999 45.8687C82.1444 44.1099 83.1218 44.091 86.4902 44.6888C87.1177 44.8002 86.687 41.4132 85.4047 39.2796C84.6925 38.0947 81.1476 38.7125 81.0589 38.7007C80.9702 38.6889 79.6678 35.9201 78.7767 35.2042C78.0216 34.5975 76.9013 34.4485 76.2735 34.365L76.2413 34.3607C75.6202 34.278 74.6783 34.1525 73.6326 34.5189C72.3467 34.9693 70.4275 37.2843 70.1614 37.2489C69.8953 37.2134 66.6915 35.7651 65.6383 36.6463C63.7438 38.2314 62.4805 41.5425 63.043 41.5651C65.7101 41.6726 67.266 41.5127 69.7429 44.6488C71.5905 46.9881 69.4012 50.1947 67.4998 51.6372L68.6371 54.8621C66.7927 57.6404 62.5949 64.6181 60.5586 70.3035C58.5222 75.9888 52.3044 76.4381 49.4501 75.9521C44.9625 73.9794 38.9076 67.4191 35.5502 63.0853C33.3059 60.1884 39.1002 55.4478 42.3383 56.7025C41.9744 56.0889 40.9928 54.4868 39.9786 52.9874C38.9644 51.4881 35.8562 52.3589 34.4289 52.9818C30.2852 49.4851 25.41 49.1033 26.4869 51.19C30.5909 59.1426 28.0879 84.9382 30.071 88.1132Z"/>
</mask>
<path d="M30.071 88.1132C32.054 91.2882 41.6174 96.383 65.5162 100.082C75.3189 101.349 101.08 101.777 103.206 97.8565C105.332 93.9355 109.804 74.4347 118.502 63.4485C119.439 62.2643 116.607 59.5672 110.497 62.3821C109.244 61.8051 106.064 61.1607 105.076 61.6599C104.306 62.0493 102.865 63.6325 101.749 64.6173C104.532 65.4938 110.654 69.61 105.991 72.4696C101.609 75.1573 94.1937 81.913 89.3712 81.2705C84.8371 80.6665 79.9356 78.0011 79.9039 72.8807C79.8722 67.7603 78.1148 59.4989 77.24 56.0083L79.2291 53.1998C77.9723 51.5349 76.4635 47.1895 78.8999 45.8687C82.1444 44.1099 83.1218 44.091 86.4902 44.6888C87.1177 44.8002 86.687 41.4132 85.4047 39.2796C84.6925 38.0947 81.1476 38.7125 81.0589 38.7007C80.9702 38.6889 79.6678 35.9201 78.7767 35.2042C78.0216 34.5975 76.9013 34.4485 76.2735 34.365L76.2413 34.3607C75.6202 34.278 74.6783 34.1525 73.6326 34.5189C72.3467 34.9693 70.4275 37.2843 70.1614 37.2489C69.8953 37.2134 66.6915 35.7651 65.6383 36.6463C63.7438 38.2314 62.4805 41.5425 63.043 41.5651C65.7101 41.6726 67.266 41.5127 69.7429 44.6488C71.5905 46.9881 69.4012 50.1947 67.4998 51.6372L68.6371 54.8621C66.7927 57.6404 62.5949 64.6181 60.5586 70.3035C58.5222 75.9888 52.3044 76.4381 49.4501 75.9521C44.9625 73.9794 38.9076 67.4191 35.5502 63.0853C33.3059 60.1884 39.1002 55.4478 42.3383 56.7025C41.9744 56.0889 40.9928 54.4868 39.9786 52.9874C38.9644 51.4881 35.8562 52.3589 34.4289 52.9818C30.2852 49.4851 25.41 49.1033 26.4869 51.19C30.5909 59.1426 28.0879 84.9382 30.071 88.1132Z" fill="url(#paint6_linear_1832_2956)"/>
<path d="M65.5162 100.082L62.9617 113.856L63.1352 113.883L63.3093 113.906L65.5162 100.082ZM30.071 88.1132L42.0841 80.533L42.084 80.5329L30.071 88.1132ZM26.4869 51.19L13.9312 57.8168L13.9312 57.8168L26.4869 51.19ZM34.4289 52.9818L25.1397 63.7043L31.7009 69.2409L39.7828 65.7142L34.4289 52.9818ZM39.9786 52.9874L28.2314 60.9766L28.2314 60.9766L39.9786 52.9874ZM42.3383 56.7025L36.8987 69.705L75.4179 84.6296L54.511 49.3843L42.3383 56.7025ZM35.5502 63.0853L46.7919 54.3983L46.7919 54.3983L35.5502 63.0853ZM49.4501 75.9521L43.4471 88.7218L45.0019 89.4052L46.6877 89.6923L49.4501 75.9521ZM60.5586 70.3035L47.3232 65.9749L47.3232 65.9749L60.5586 70.3035ZM68.6371 54.8621L80.3156 62.2911L84.2132 56.42L81.9247 49.9302L68.6371 54.8621ZM67.4998 51.6372L59.1579 40.6568L50.8292 46.9753L54.2122 56.5691L67.4998 51.6372ZM69.7429 44.6488L58.5785 53.4346L58.5785 53.4346L69.7429 44.6488ZM63.043 41.5651L64.0137 27.6374L64.0137 27.6374L63.043 41.5651ZM65.6383 36.6463L56.7504 26.101L56.7504 26.101L65.6383 36.6463ZM73.6326 34.5189L77.978 47.6474L77.978 47.6474L73.6326 34.5189ZM76.2413 34.3607L73.9795 48.1768L73.9818 48.1771L76.2413 34.3607ZM118.502 63.4485L107.535 55.0381L107.535 55.0381L118.502 63.4485ZM110.497 62.3821L104.279 75.055L110.136 77.751L116.121 74.9936L110.497 62.3821ZM105.076 61.6599L111.175 74.0422L111.175 74.0422L105.076 61.6599ZM101.749 64.6173L92.5717 54.3206L74.0652 70.6437L97.1469 77.9136L101.749 64.6173ZM105.991 72.4696L113.14 84.266L113.14 84.266L105.991 72.4696ZM79.9039 72.8807L93.9641 72.3974L93.9641 72.3974L79.9039 72.8807ZM77.24 56.0083L65.8089 48.2185L62.0379 53.5429L63.5884 59.7304L77.24 56.0083ZM79.2291 53.1998L90.6602 60.9896L96.5901 52.6171L90.5725 44.6456L79.2291 53.1998ZM78.8999 45.8687L72.4279 33.6821L72.4279 33.6822L78.8999 45.8687ZM86.4902 44.6888L89.3488 30.9654L89.3488 30.9654L86.4902 44.6888ZM85.4047 39.2796L97.5377 31.895L97.5377 31.895L85.4047 39.2796ZM78.7767 35.2042L69.7376 46.1326L69.7376 46.1326L78.7767 35.2042ZM76.2735 34.365L74.014 48.1814L74.0151 48.1816L76.2735 34.365ZM68.0707 86.3085C56.7159 84.5508 49.3617 82.5463 44.9217 80.863C42.7 80.0207 41.4587 79.3526 40.8976 78.9969C40.1321 78.5116 41.0611 78.8951 42.0841 80.533L18.0579 95.6935C20.0724 98.9188 22.9404 101.13 25.2726 102.608C27.8093 104.217 30.8243 105.649 34.2287 106.939C41.0408 109.522 50.4177 111.915 62.9617 113.856L68.0707 86.3085ZM42.084 80.5329C43.0488 82.0775 43.3567 83.3657 43.4 83.5384C43.4878 83.8885 43.4943 84.0276 43.4684 83.8231C43.4164 83.4107 43.3526 82.5952 43.3029 81.2257C43.2001 78.3878 43.2068 75.1047 43.1327 70.8076C43.064 66.8185 42.9243 62.254 42.4861 58.0459C42.0962 54.3017 41.3182 48.9729 39.0425 44.5632L13.9312 57.8168C13.7075 57.3834 14.1557 58.2613 14.5128 61.6896C14.8215 64.654 14.9495 68.228 15.0158 72.0788C15.0769 75.6215 15.0862 79.8797 15.2 83.02C15.2587 84.6396 15.3567 86.4224 15.5634 88.0595C15.6669 88.8797 15.8269 89.9063 16.0979 90.987C16.3245 91.8903 16.8453 93.7521 18.0579 95.6935L42.084 80.5329ZM39.0425 44.5632C39.6921 45.8219 40.9705 48.9011 40.1107 52.9921C39.127 57.6733 35.9972 60.7311 33.2227 62.2519C30.8305 63.5632 28.7389 63.7812 27.8697 63.8325C26.8436 63.8931 26.1027 63.7942 25.747 63.7339C24.6004 63.5394 24.6597 63.2993 25.1397 63.7043L43.7181 42.2592C40.0543 39.1676 35.6042 36.9882 31.2533 36.2504C29.821 36.0075 25.0367 35.2702 20.1589 37.944C17.014 39.6678 13.6476 43.0108 12.5872 48.0568C11.6508 52.5128 13.0124 56.0365 13.9312 57.8168L39.0425 44.5632ZM39.7828 65.7142C39.5662 65.8087 39.2026 65.9744 38.3725 66.0574C37.9412 66.1005 36.6464 66.1988 34.9339 65.7505C33.0607 65.26 30.2542 63.9671 28.2314 60.9766L51.7259 44.9983C46.6624 37.5127 38.2068 38.1341 36.3449 38.3202C33.3503 38.6194 30.719 39.5319 29.075 40.2493L39.7828 65.7142ZM28.2314 60.9766C29.0597 62.2011 29.8977 63.5689 30.1657 64.0206L54.511 49.3843C54.051 48.6088 52.926 46.7725 51.7259 44.9983L28.2314 60.9766ZM47.778 43.7C42.9914 41.8454 38.4588 42.5877 35.5615 43.5296C32.5349 44.5136 29.8492 46.1502 27.6987 48.0513C25.638 49.873 23.1842 52.7286 21.8742 56.6472C20.403 61.0481 20.4906 66.8441 24.3085 71.7723L46.7919 54.3983C49.4876 57.878 49.458 61.9951 48.5432 64.7316C47.7896 66.9858 46.5659 68.1915 46.078 68.6228C45.5004 69.1335 44.7302 69.6391 43.6305 69.9966C42.6603 70.312 40.0662 70.9323 36.8987 69.705L47.778 43.7ZM24.3085 71.7723C26.3126 74.3593 29.0766 77.5616 32.0799 80.4855C34.7809 83.1151 38.854 86.7027 43.4471 88.7218L55.4531 63.1824C55.7087 63.2948 55.453 63.2134 54.6603 62.6052C53.9377 62.0507 53.0581 61.282 52.0727 60.3227C50.0873 58.3898 48.1452 56.1451 46.7919 54.3983L24.3085 71.7723ZM46.6877 89.6923C49.9825 90.2533 54.7661 90.2918 59.6764 88.5636C65.0921 86.6575 71.0231 82.368 73.7939 74.632L47.3232 65.9749C47.6033 65.193 48.1613 64.2903 49.0034 63.5218C49.7871 62.8066 50.5279 62.4676 50.9457 62.3205C51.3423 62.181 51.5776 62.165 51.631 62.1617C51.6712 62.1593 51.8338 62.1475 52.2125 62.212L46.6877 89.6923ZM73.7939 74.632C74.4494 72.8019 75.6077 70.383 76.9837 67.8701C78.3237 65.4231 79.6226 63.3351 80.3156 62.2911L56.9586 47.4332C54.908 50.5219 49.9471 58.649 47.3232 65.9749L73.7939 74.632ZM81.9247 49.9302L80.7875 46.7053L54.2122 56.5691L55.3495 59.794L81.9247 49.9302ZM75.8417 62.6176C78.4332 60.6515 81.2128 57.6009 82.915 53.6856C84.7375 49.4937 85.9611 42.2618 80.9074 35.8631L58.5785 53.4346C57.2025 51.6925 56.4692 49.557 56.3888 47.4477C56.3152 45.5171 56.7959 44.0632 57.1395 43.273C57.7336 41.9065 58.4678 41.1803 59.1579 40.6568L75.8417 62.6176ZM80.9074 35.8631C78.7706 33.1576 75.836 30.355 71.5266 28.8289C67.9921 27.5771 64.1674 27.6436 64.0137 27.6374L62.0723 55.4929C62.2834 55.5014 62.4824 55.5083 62.6389 55.5138C62.808 55.5196 62.9235 55.5236 63.0316 55.5279C63.2519 55.5367 63.2818 55.541 63.2311 55.5365C63.093 55.5244 62.3597 55.4528 61.4019 55.1136C60.3849 54.7534 59.5778 54.2591 59.0206 53.8144C58.5367 53.4281 58.3926 53.1993 58.5785 53.4346L80.9074 35.8631ZM64.0137 27.6374C67.9717 27.7968 71.5728 29.6184 73.9774 32.5567C76.0125 35.0434 76.5985 37.5845 76.7981 38.8115C77.187 41.2012 76.7955 43.0425 76.7241 43.3928C76.4878 44.5526 76.1654 45.2136 76.1402 45.2673C76.1247 45.3003 75.8015 46.1245 74.5261 47.1916L56.7504 26.101C53.5806 28.7532 51.6784 32.0255 50.6984 34.1159C50.1909 35.1984 49.5397 36.7905 49.1655 38.627C49.0252 39.3157 48.6125 41.4318 49.0325 44.0131C49.2477 45.3358 49.8624 47.952 51.9398 50.4905C54.3868 53.4805 58.044 55.3306 62.0723 55.4929L64.0137 27.6374ZM74.5261 47.1916C72.4808 48.9029 70.3996 49.6445 69.014 49.972C67.6449 50.2957 66.5537 50.3138 65.9626 50.2976C65.3346 50.2804 64.8762 50.2113 64.6481 50.1716C64.4038 50.1291 64.2478 50.0888 64.1994 50.076C64.1232 50.0558 64.1569 50.061 64.3778 50.1403C64.428 50.1582 64.4797 50.177 64.5507 50.2029C64.605 50.2228 64.7179 50.2641 64.8212 50.3011C64.9064 50.3316 65.1302 50.4118 65.3938 50.4966C65.5267 50.5394 65.7702 50.616 66.0745 50.6982C66.2822 50.7543 66.9831 50.9429 67.8996 51.065L72.4232 23.4328C73.3231 23.5527 74.0016 23.7363 74.1815 23.7849C74.458 23.8595 74.6683 23.9261 74.7629 23.9566C74.8712 23.9914 74.9513 24.019 74.986 24.031C75.0063 24.038 75.0216 24.0434 75.0308 24.0467C75.0401 24.05 75.0457 24.052 75.0465 24.0523C75.0468 24.0523 75.0384 24.0493 75.0142 24.0405C74.9887 24.0312 74.9631 24.0219 74.9202 24.0062C74.8425 23.9779 74.7301 23.9369 74.6032 23.8914C74.1157 23.7167 73.2327 23.4083 72.1907 23.1317C71.2619 22.8852 69.5639 22.4853 67.5412 22.4298C66.0249 22.3882 61.169 22.404 56.7504 26.101L74.5261 47.1916ZM67.8996 51.065C70.5445 51.4173 72.6794 50.9377 73.8115 50.6068C75.0226 50.2527 75.9502 49.8099 76.4957 49.5254C77.5629 48.9688 78.3361 48.3975 78.6532 48.1579C79.3417 47.6378 79.8845 47.1358 80.0559 46.9776C80.2946 46.7574 80.5343 46.5272 80.6578 46.4089C80.8172 46.2562 80.9156 46.1621 81.0112 46.0726C81.2321 45.8658 81.1914 45.9184 80.9871 46.0751C80.9799 46.0806 79.8669 46.9857 77.978 47.6474L69.2873 21.3903C67.8948 21.8781 66.7931 22.4773 66.0622 22.9188C65.3002 23.379 64.6631 23.8379 64.1832 24.2059C63.249 24.9222 62.4708 25.6357 62.0179 26.0596C61.7766 26.2854 61.5541 26.499 61.4173 26.63C61.2448 26.7953 61.2132 26.8248 61.2144 26.8236C61.2233 26.8154 61.2887 26.7551 61.3922 26.6654C61.4825 26.5871 61.704 26.3976 62.0152 26.1625C62.2518 25.9837 62.9553 25.459 63.9645 24.9326C64.481 24.6632 65.3826 24.2315 66.5708 23.8841C67.6799 23.5598 69.7949 23.0826 72.4232 23.4328L67.8996 51.065ZM77.978 47.6474C75.4875 48.5199 73.3941 48.0988 73.9795 48.1768L78.503 20.5447C77.8464 20.4572 73.8692 19.7852 69.2873 21.3903L77.978 47.6474ZM63.3093 113.906C69.0976 114.654 78.7477 115.089 87.2405 114.848C91.4766 114.728 95.9704 114.428 99.8082 113.77C101.677 113.45 103.969 112.951 106.193 112.085C107.653 111.516 112.661 109.507 115.549 104.181L90.8634 91.5317C92.1717 89.1186 93.8765 87.7637 94.7448 87.1659C95.6568 86.5381 96.3643 86.2524 96.5632 86.1749C96.9331 86.0308 96.7873 86.1318 95.789 86.3029C93.8924 86.6279 90.9346 86.8765 87.2394 86.9812C79.8694 87.19 71.7376 86.7778 67.7231 86.2592L63.3093 113.906ZM115.549 104.181C116.826 101.824 117.944 98.3866 118.602 96.4191C119.493 93.7578 120.441 90.8596 121.588 87.7313C123.983 81.1995 126.642 75.4286 129.468 71.8588L107.535 55.0381C101.664 62.4545 97.7375 71.9271 95.1907 78.8726C93.8668 82.4829 92.7545 85.8818 91.9372 88.3229C90.8876 91.4579 90.6484 91.9281 90.8634 91.5317L115.549 104.181ZM129.468 71.8588C134.295 65.7608 132.986 58.8473 130.591 54.9233C128.314 51.1935 124.898 49.2086 122.125 48.2455C116.288 46.2182 110.103 47.3612 104.874 49.7706L116.121 74.9936C117.001 74.5882 115.287 75.6722 112.159 74.5858C110.74 74.0931 108.238 72.8285 106.42 69.8495C104.483 66.6763 103.177 60.544 107.535 55.0381L129.468 71.8588ZM116.715 49.7092C114.531 48.7037 112.069 48.1337 110.297 47.8522C109.298 47.6934 107.983 47.5394 106.541 47.5418C105.665 47.5433 102.413 47.5422 98.978 49.2776L111.175 74.0422C109.466 74.9055 108.017 75.1854 107.364 75.2884C106.617 75.4063 106.057 75.4198 105.787 75.4202C105.489 75.4207 105.288 75.4048 105.205 75.3973C105.157 75.3928 105.124 75.3889 105.105 75.3865C105.095 75.3853 105.089 75.3843 105.084 75.3837C105.08 75.3831 105.078 75.3827 105.078 75.3827C105.077 75.3827 105.079 75.3829 105.082 75.3834C105.085 75.3839 105.089 75.3846 105.094 75.3856C105.104 75.3875 105.116 75.3899 105.129 75.3928C105.158 75.399 105.174 75.4034 105.169 75.4021C105.169 75.4019 105.111 75.3863 104.999 75.3477C104.905 75.3156 104.646 75.2237 104.279 75.055L116.715 49.7092ZM98.978 49.2776C97.9904 49.7767 97.2219 50.2945 96.7474 50.6339C96.2406 50.9964 95.8124 51.3411 95.4923 51.6094C94.8696 52.1311 94.3153 52.6513 93.9533 52.9961C93.6318 53.3023 93.1505 53.7708 92.9808 53.9343C92.8545 54.056 92.7594 54.1466 92.6832 54.2179C92.6465 54.2523 92.6187 54.2779 92.5988 54.2961C92.5787 54.3144 92.5701 54.3219 92.5717 54.3206L110.926 74.914C111.205 74.6685 111.46 74.4335 111.678 74.2291C111.898 74.0237 112.104 73.826 112.282 73.6547C112.453 73.49 112.635 73.3129 112.768 73.1842C112.915 73.0421 113.03 72.9314 113.131 72.8346C113.233 72.7381 113.296 72.6789 113.334 72.6451C113.373 72.6089 113.352 72.6293 113.284 72.6862C113.225 72.7359 113.045 72.8854 112.768 73.0829C112.625 73.1855 112.426 73.3224 112.178 73.4773C111.934 73.6299 111.596 73.8295 111.175 74.0422L98.978 49.2776ZM97.1469 77.9136C96.5155 77.7147 96.3807 77.5884 96.5391 77.6867C96.6978 77.7852 96.3947 77.6423 95.8834 77.0518C95.6105 76.7367 93.4353 74.2307 93.642 69.8982C93.8994 64.5004 97.4343 61.5374 98.8431 60.6733L113.14 84.266C116.88 81.9721 121.398 77.4221 121.732 70.4209C122.015 64.4849 119.009 60.3589 117.441 58.5477C114.226 54.8354 109.694 52.3738 106.351 51.321L97.1469 77.9136ZM98.8431 60.6733C97.1797 61.6935 95.4076 62.982 94.1605 63.8824C92.7136 64.9271 91.532 65.7778 90.3981 66.5117C89.2306 67.2673 88.5959 67.578 88.3818 67.6649C88.0117 67.815 89.3505 67.1503 91.633 67.4544L87.1094 95.0866C91.8032 95.7119 95.8774 94.4437 98.3909 93.4239C101.061 92.3407 103.458 90.915 105.295 89.726C107.165 88.5154 108.961 87.2133 110.287 86.2555C111.814 85.1534 112.612 84.5896 113.14 84.266L98.8431 60.6733ZM91.633 67.4544C91.4831 67.4344 91.3634 67.3992 91.3167 67.3816C91.2616 67.3608 91.4433 67.4177 91.7657 67.6658C92.1005 67.9234 92.6731 68.4576 93.1674 69.3628C93.6917 70.3229 93.9579 71.3965 93.9641 72.3974L65.8437 73.364C65.8904 80.9 69.7189 86.4768 74.1326 89.8727C78.2595 93.0478 83.0612 94.5473 87.1094 95.0866L91.633 67.4544ZM93.9641 72.3974C93.9212 65.4684 91.7715 55.7973 90.8916 52.2861L63.5884 59.7304C63.9529 61.1848 64.5418 63.8059 65.0345 66.6066C65.5559 69.5708 65.8352 71.9963 65.8437 73.364L93.9641 72.3974ZM88.6711 63.798L90.6602 60.9896L67.7981 45.41L65.8089 48.2185L88.6711 63.798ZM90.5725 44.6456C91.0653 45.2985 91.2488 45.7287 91.2948 45.8373C91.3579 45.9866 91.4854 46.3138 91.5735 46.8739C91.6425 47.312 91.8422 48.8197 91.2401 50.8732C90.5278 53.3025 88.7118 56.2448 85.372 58.0553L72.4279 33.6822C62.5767 39.0225 63.3614 49.2416 63.7856 51.9365C64.3598 55.5842 65.9229 59.1536 67.8858 61.7539L90.5725 44.6456ZM85.372 58.0554C85.9818 57.7248 86.0792 57.7006 85.9106 57.768C85.6495 57.8722 85.0461 58.0813 84.2225 58.1965C83.4149 58.3095 82.833 58.2704 82.6869 58.2574C82.6338 58.2527 82.6693 58.2539 82.8423 58.2799C83.0177 58.3061 83.2613 58.3465 83.6315 58.4123L89.3488 30.9654C87.833 30.6964 84.671 30.0904 81.0747 30.5936C77.3044 31.1211 74.332 32.6499 72.4279 33.6821L85.372 58.0554ZM83.6315 58.4123C86.8787 58.9886 90.5408 58.4509 93.8002 56.4314C96.7257 54.6188 98.3015 52.2516 99.0753 50.7957C100.497 48.1216 100.717 45.6866 100.779 44.9393C100.945 42.9406 100.71 41.168 100.525 40.0988C100.136 37.8392 99.26 34.7607 97.5377 31.895L73.2717 46.6642C72.8316 45.9321 72.8124 45.6139 72.802 45.5533C72.787 45.4668 72.7584 45.2828 72.7379 45.0072C72.7208 44.7762 72.6884 44.2168 72.7527 43.442C72.7869 43.0299 72.9475 40.8579 74.2773 38.3561C75.0054 36.9863 76.5273 34.6825 79.3908 32.9083C82.5881 30.9273 86.1801 30.403 89.3488 30.9654L83.6315 58.4123ZM97.5377 31.895C94.5962 27.001 89.8972 25.5849 88.2517 25.1719C86.1927 24.6551 84.3498 24.6062 83.3295 24.6112C82.1814 24.6168 81.1897 24.7046 80.5755 24.7697C80.2532 24.8039 79.9915 24.8368 79.8636 24.8529C79.7626 24.8656 79.8185 24.8584 79.8797 24.8513C79.9024 24.8487 80.067 24.8294 80.2842 24.8111C80.3868 24.8024 80.6286 24.7829 80.9387 24.7714C81.0035 24.769 82.0418 24.7142 83.3207 24.8846L78.7971 52.5168C79.5687 52.6195 80.1829 52.6345 80.4488 52.6385C80.7707 52.6433 81.032 52.6361 81.1924 52.6302C81.5086 52.6184 81.7582 52.5984 81.8702 52.589C82.106 52.5691 82.2956 52.5471 82.3493 52.5409C82.4726 52.5266 82.6144 52.5085 82.6202 52.5078C82.706 52.497 82.7413 52.4928 82.7749 52.4893C82.8726 52.4789 82.8283 52.4885 82.6665 52.4893C82.6325 52.4895 81.8149 52.509 80.6236 52.21C79.992 52.0514 78.8866 51.7137 77.6255 50.977C76.3324 50.2217 74.6051 48.8828 73.2717 46.6642L97.5377 31.895ZM83.3207 24.8846C85.3254 25.1517 86.8402 25.7952 87.7452 26.2546C88.6876 26.733 89.3978 27.2322 89.8534 27.5816C90.7368 28.2591 91.3391 28.8981 91.6157 29.2026C92.1927 29.8379 92.5737 30.3852 92.6893 30.552C92.9748 30.9639 93.164 31.291 93.1812 31.3203C93.2574 31.4504 93.2937 31.5203 93.2035 31.3548C93.0945 31.1548 92.8087 30.6244 92.4973 30.0801C92.1918 29.5462 91.7298 28.7645 91.1727 27.9574C90.8903 27.5483 90.5088 27.0234 90.0399 26.4648C89.6117 25.9547 88.8637 25.1176 87.8158 24.2757L69.7376 46.1326C68.9124 45.4697 68.4 44.8758 68.214 44.6541C67.9873 44.384 67.8544 44.193 67.8208 44.1443C67.7612 44.0581 67.7975 44.1036 67.9401 44.3528C68.0768 44.5917 68.1889 44.8004 68.3769 45.1453C68.4353 45.2522 68.5948 45.546 68.7627 45.8325C68.8257 45.94 69.0528 46.3286 69.3676 46.7827C69.4978 46.9705 69.8913 47.5341 70.4785 48.1807C70.7602 48.4908 71.367 49.1341 72.2543 49.8146C72.7119 50.1655 73.424 50.6659 74.368 51.1452C75.2747 51.6054 76.791 52.2495 78.7971 52.5168L83.3207 24.8846ZM87.8158 24.2757C85.4245 22.3545 82.9677 21.5235 81.5636 21.1406C80.1021 20.7421 78.8065 20.585 78.5319 20.5485L74.0151 48.1816C74.3683 48.2285 73.9468 48.1877 73.3911 48.0362C72.8929 47.9003 71.3737 47.4471 69.7376 46.1326L87.8158 24.2757ZM78.533 20.5486L78.5008 20.5444L73.9818 48.1771L74.014 48.1814L78.533 20.5486Z" fill="url(#paint7_linear_1832_2956)" fill-opacity="0.27" mask="url(#path-8-inside-2_1832_2956)"/>
</g>
<path d="M99.2145 99.7522L102.374 98.6521C105.285 94.8043 105.943 88.5533 108.002 84.2935C89.3839 76.606 35.3195 68.8611 29.0708 76.3506C29.1413 81.64 28.5912 80.0602 29.7617 88.5091C48.4506 101.486 80.1869 101.064 85.4762 100.993L85.4784 100.993C87.1565 100.971 96.0563 100.852 99.2145 99.7522Z" fill="url(#paint8_linear_1832_2956)"/>
<path d="M278.871 27.8497V31.6062" stroke="white" stroke-width="2" stroke-miterlimit="10"/>
<path d="M282.119 33.4845H256.9C254.544 33.4845 252.635 35.3941 252.635 37.7497V62.9692C252.635 65.3248 254.544 67.2344 256.9 67.2344H282.119C284.475 67.2344 286.385 65.3248 286.385 62.9692V37.7497C286.385 35.3941 284.475 33.4845 282.119 33.4845Z" stroke="white" stroke-width="2" stroke-miterlimit="10"/>
<path d="M275.116 40.978H263.885C261.811 40.978 260.129 42.6598 260.129 44.7345V55.9649C260.129 58.0395 261.811 59.7214 263.885 59.7214H275.116C277.19 59.7214 278.872 58.0395 278.872 55.9649V44.7345C278.872 42.6598 277.19 40.978 275.116 40.978Z" stroke="white" stroke-width="2" stroke-miterlimit="10"/>
<path d="M260.129 27.8497V31.6062" stroke="white" stroke-width="2" stroke-miterlimit="10"/>
<path d="M269.5 27.8497V31.6062" stroke="white" stroke-width="2" stroke-miterlimit="10"/>
<path d="M260.129 69.0931V72.8496" stroke="white" stroke-width="2" stroke-miterlimit="10"/>
<path d="M269.5 69.0931V72.8496" stroke="white" stroke-width="2" stroke-miterlimit="10"/>
<path d="M278.871 69.0931V72.8496" stroke="white" stroke-width="2" stroke-miterlimit="10"/>
<path d="M247 59.7214H250.757" stroke="white" stroke-width="2" stroke-miterlimit="10"/>
<path d="M247 50.3497H250.757" stroke="white" stroke-width="2" stroke-miterlimit="10"/>
<path d="M247 40.978H250.757" stroke="white" stroke-width="2" stroke-miterlimit="10"/>
<path d="M288.243 59.7214H292" stroke="white" stroke-width="2" stroke-miterlimit="10"/>
<path d="M288.243 50.3497H292" stroke="white" stroke-width="2" stroke-miterlimit="10"/>
<path d="M288.243 40.978H292" stroke="white" stroke-width="2" stroke-miterlimit="10"/>
<path d="M267.464 52.5288C267.464 52.3101 267.538 52.1265 267.687 51.978C267.843 51.8218 268.03 51.7437 268.249 51.7437H270.042L269.737 50.8765C269.612 50.5562 269.487 50.2554 269.362 49.9741C269.245 49.6851 269.108 49.4233 268.952 49.189C268.812 48.9546 268.651 48.8296 268.472 48.814C268.284 48.8296 268.116 48.9546 267.968 49.189C267.819 49.4233 267.683 49.6851 267.558 49.9741C267.44 50.2554 267.319 50.5562 267.194 50.8765L266.081 53.9233C266.003 54.0874 265.901 54.2241 265.776 54.3335C265.659 54.4351 265.479 54.4858 265.237 54.4858C265.011 54.4858 264.823 54.4077 264.675 54.2515C264.534 54.0952 264.472 53.9077 264.487 53.689C264.495 53.5874 264.519 53.4937 264.558 53.4077L265.847 50.0796C266.206 49.2046 266.565 48.4976 266.925 47.9585C267.276 47.4272 267.792 47.1577 268.472 47.1499C269.144 47.1577 269.655 47.4272 270.007 47.9585C270.366 48.4819 270.726 49.189 271.085 50.0796L272.374 53.4077C272.413 53.4937 272.437 53.5874 272.444 53.689C272.46 53.9077 272.394 54.0952 272.245 54.2515C272.104 54.4077 271.921 54.4858 271.694 54.4858C271.437 54.4858 271.245 54.4351 271.12 54.3335C271.003 54.2241 270.905 54.0874 270.827 53.9233L270.604 53.314H268.249C268.03 53.314 267.847 53.2358 267.698 53.0796C267.542 52.9312 267.464 52.7476 267.464 52.5288ZM274.425 48.9077C274.636 48.9155 274.815 48.9937 274.964 49.1421C275.112 49.2827 275.19 49.4585 275.198 49.6694V53.7241C275.151 54.1929 274.894 54.4468 274.425 54.4858C274.206 54.4858 274.015 54.4155 273.851 54.2749C273.694 54.1265 273.616 53.9429 273.616 53.7241V49.6694C273.624 49.4507 273.706 49.271 273.862 49.1304C274.019 48.9819 274.206 48.9077 274.425 48.9077ZM273.44 47.3843C273.44 47.1655 273.534 46.978 273.722 46.8218C273.909 46.6655 274.136 46.5874 274.401 46.5874C274.667 46.5874 274.894 46.6655 275.081 46.8218C275.269 46.978 275.362 47.1655 275.362 47.3843C275.362 47.6108 275.269 47.8022 275.081 47.9585C274.894 48.1147 274.667 48.1929 274.401 48.1929C274.136 48.1929 273.909 48.1147 273.722 47.9585C273.534 47.8022 273.44 47.6108 273.44 47.3843Z" fill="white"/>
<path fill-rule="evenodd" clip-rule="evenodd" d="M301 92.9709V95.0051L299.165 94.6641C298.622 94.5632 298.263 94.0412 298.364 93.4982C298.465 92.9552 298.987 92.5968 299.53 92.6977L301 92.9709ZM118.183 58.9973L117.199 58.8146L116.834 60.7809L117.817 60.9636L121.373 61.6244C121.916 61.7253 122.438 61.3669 122.539 60.8239C122.64 60.281 122.281 59.759 121.738 59.6581L118.183 58.9973ZM128.85 60.9797C128.307 60.8788 127.785 61.2371 127.684 61.7801C127.583 62.3231 127.942 62.8451 128.485 62.946L135.596 64.2676C136.139 64.3685 136.661 64.0101 136.762 63.4671C136.863 62.9241 136.505 62.4021 135.962 62.3012L128.85 60.9797ZM143.073 63.6228C142.53 63.5219 142.008 63.8803 141.908 64.4233C141.807 64.9663 142.165 65.4883 142.708 65.5892L149.82 66.9108C150.363 67.0117 150.885 66.6533 150.986 66.1103C151.086 65.5673 150.728 65.0453 150.185 64.9444L143.073 63.6228ZM157.297 66.266C156.754 66.1651 156.232 66.5235 156.131 67.0665C156.03 67.6095 156.388 68.1314 156.931 68.2323L164.043 69.5539C164.586 69.6548 165.108 69.2965 165.209 68.7535C165.31 68.2105 164.951 67.6885 164.408 67.5876L157.297 66.266ZM171.52 68.9092C170.977 68.8083 170.455 69.1667 170.354 69.7096C170.253 70.2526 170.612 70.7746 171.155 70.8755L178.266 72.1971C178.809 72.298 179.331 71.9396 179.432 71.3966C179.533 70.8536 179.175 70.3317 178.632 70.2308L171.52 68.9092ZM185.743 71.5523C185.2 71.4514 184.679 71.8098 184.578 72.3528C184.477 72.8958 184.835 73.4178 185.378 73.5187L192.49 74.8403C193.033 74.9412 193.555 74.5828 193.656 74.0398C193.757 73.4968 193.398 72.9748 192.855 72.8739L185.743 71.5523ZM199.967 74.1955C199.424 74.0946 198.902 74.453 198.801 74.996C198.7 75.539 199.058 76.061 199.601 76.1619L206.713 77.4834C207.256 77.5843 207.778 77.226 207.879 76.683C207.98 76.14 207.621 75.618 207.079 75.5171L199.967 74.1955ZM214.19 76.8387C213.647 76.7378 213.125 77.0962 213.024 77.6392C212.923 78.1821 213.282 78.7041 213.825 78.805L220.936 80.1266C221.479 80.2275 222.001 79.8691 222.102 79.3262C222.203 78.7832 221.845 78.2612 221.302 78.1603L214.19 76.8387ZM228.414 79.4819C227.871 79.381 227.349 79.7393 227.248 80.2823C227.147 80.8253 227.505 81.3473 228.048 81.4482L235.16 82.7698C235.703 82.8707 236.225 82.5123 236.326 81.9693C236.427 81.4263 236.068 80.9044 235.525 80.8035L228.414 79.4819ZM242.637 82.125C242.094 82.0241 241.572 82.3825 241.471 82.9255C241.37 83.4685 241.728 83.9905 242.271 84.0914L249.383 85.413C249.926 85.5139 250.448 85.1555 250.549 84.6125C250.65 84.0695 250.292 83.5475 249.749 83.4466L242.637 82.125ZM256.86 84.7682C256.317 84.6673 255.795 85.0257 255.694 85.5687C255.593 86.1117 255.952 86.6336 256.495 86.7345L263.606 88.0561C264.149 88.157 264.671 87.7987 264.772 87.2557C264.873 86.7127 264.515 86.1907 263.972 86.0898L256.86 84.7682ZM271.084 87.4114C270.541 87.3105 270.019 87.6689 269.918 88.2118C269.817 88.7548 270.175 89.2768 270.718 89.3777L277.83 90.6993C278.373 90.8002 278.895 90.4418 278.996 89.8988C279.097 89.3559 278.738 88.8339 278.195 88.733L271.084 87.4114ZM285.307 90.0546C284.764 89.9537 284.242 90.312 284.141 90.855C284.04 91.398 284.399 91.92 284.942 92.0209L292.053 93.3425C292.596 93.4434 293.118 93.085 293.219 92.542C293.32 91.999 292.962 91.477 292.419 91.3761L285.307 90.0546Z" fill="#FFE72D"/>
<defs>
<filter id="filter0_d_1832_2956" x="5.68555" y="85.0121" width="99.248" height="50.364" filterUnits="userSpaceOnUse" color-interpolation-filters="sRGB">
<feFlood flood-opacity="0" result="BackgroundImageFix"/>
<feColorMatrix in="SourceAlpha" type="matrix" values="0 0 0 0 0 0 0 0 0 0 0 0 0 0 0 0 0 0 127 0" result="hardAlpha"/>
<feOffset dx="-10" dy="7"/>
<feGaussianBlur stdDeviation="6"/>
<feComposite in2="hardAlpha" operator="out"/>
<feColorMatrix type="matrix" values="0 0 0 0 0 0 0 0 0 0 0 0 0 0 0 0 0 0 0.25 0"/>
<feBlend mode="normal" in2="BackgroundImageFix" result="effect1_dropShadow_1832_2956"/>
<feBlend mode="normal" in="SourceGraphic" in2="effect1_dropShadow_1832_2956" result="shape"/>
</filter>
<filter id="filter1_d_1832_2956" x="6.33496" y="23.2712" width="130.343" height="104.704" filterUnits="userSpaceOnUse" color-interpolation-filters="sRGB">
<feFlood flood-opacity="0" result="BackgroundImageFix"/>
<feColorMatrix in="SourceAlpha" type="matrix" values="0 0 0 0 0 0 0 0 0 0 0 0 0 0 0 0 0 0 127 0" result="hardAlpha"/>
<feOffset dx="-1" dy="8"/>
<feGaussianBlur stdDeviation="9.5"/>
<feComposite in2="hardAlpha" operator="out"/>
<feColorMatrix type="matrix" values="0 0 0 0 0 0 0 0 0 0 0 0 0 0 0 0 0 0 0.25 0"/>
<feBlend mode="normal" in2="BackgroundImageFix" result="effect1_dropShadow_1832_2956"/>
<feBlend mode="normal" in="SourceGraphic" in2="effect1_dropShadow_1832_2956" result="shape"/>
</filter>
<radialGradient id="paint0_radial_1832_2956" cx="0" cy="0" r="1" gradientUnits="userSpaceOnUse" gradientTransform="translate(200 94.3497) rotate(161.689) scale(146.414 100.761)">
<stop offset="0.229167" stop-color="#4F1754"/>
<stop offset="0.942708" stop-color="#2C0C3F"/>
</radialGradient>
<linearGradient id="paint1_linear_1832_2956" x1="149" y1="47.3497" x2="158.5" y2="72.8497" gradientUnits="userSpaceOnUse">
<stop stop-color="#FFE72D"/>
<stop offset="1" stop-color="#FFE72D" stop-opacity="0"/>
</linearGradient>
<radialGradient id="paint2_radial_1832_2956" cx="0" cy="0" r="1" gradientUnits="userSpaceOnUse" gradientTransform="translate(81 127.85) rotate(108.741) scale(59.1354 59.1354)">
<stop stop-color="#BBB9B9"/>
<stop offset="1" stop-color="#686868"/>
</radialGradient>
<radialGradient id="paint3_radial_1832_2956" cx="0" cy="0" r="1" gradientUnits="userSpaceOnUse" gradientTransform="translate(277 35.7069) rotate(90) scale(25.1429 18.7242)">
<stop stop-color="#BBB9B9"/>
<stop offset="1" stop-color="#414141"/>
</radialGradient>
<linearGradient id="paint4_linear_1832_2956" x1="36.2683" y1="104.243" x2="107.466" y2="103.949" gradientUnits="userSpaceOnUse">
<stop offset="0.0315335" stop-color="#B08743"/>
<stop offset="0.390961" stop-color="#FFC82D" stop-opacity="0.95"/>
<stop offset="0.64796" stop-color="#FFE72D" stop-opacity="0.95"/>
<stop offset="0.904958" stop-color="#FFC82D"/>
</linearGradient>
<linearGradient id="paint5_linear_1832_2956" x1="106.146" y1="103.609" x2="83.4799" y2="134.472" gradientUnits="userSpaceOnUse">
<stop stop-color="#FF650B" stop-opacity="0.18"/>
<stop offset="1" stop-color="#FF650B" stop-opacity="0"/>
</linearGradient>
<linearGradient id="paint6_linear_1832_2956" x1="41.1027" y1="73.3112" x2="107.645" y2="75.5993" gradientUnits="userSpaceOnUse">
<stop stop-color="#805C21"/>
<stop offset="0.310258" stop-color="#977B2D"/>
<stop offset="0.566289" stop-color="#8E8224"/>
<stop offset="0.947917" stop-color="#624D14"/>
</linearGradient>
<linearGradient id="paint7_linear_1832_2956" x1="121.128" y1="67.2389" x2="53.2192" y2="94.0113" gradientUnits="userSpaceOnUse">
<stop stop-color="#FF650B" stop-opacity="0.68"/>
<stop offset="1" stop-color="#FF650B" stop-opacity="0"/>
</linearGradient>
<linearGradient id="paint8_linear_1832_2956" x1="30.7211" y1="81.0901" x2="105.205" y2="87.0142" gradientUnits="userSpaceOnUse">
<stop offset="0.0208333" stop-color="#805C22"/>
<stop offset="0.241592" stop-color="#CF9535"/>
<stop offset="0.492831" stop-color="#E6BA3F"/>
<stop offset="0.772498" stop-color="#DEAC1E"/>
<stop offset="0.963542" stop-color="#775112"/>
</linearGradient>
</defs>
</svg>
