<svg width="302" height="177" viewBox="0 0 302 177" fill="none" xmlns="http://www.w3.org/2000/svg">
<rect width="302" height="149" rx="24" fill="#FF940D"/>
<mask id="path-2-inside-1_1948_3083" fill="white">
<path fill-rule="evenodd" clip-rule="evenodd" d="M0 86.1208L237.619 0H278C291.255 0 302 10.7452 302 24V125C302 138.255 291.255 149 278 149H24C10.7452 149 0 138.255 0 125V86.1208Z"/>
</mask>
<path fill-rule="evenodd" clip-rule="evenodd" d="M0 86.1208L237.619 0H278C291.255 0 302 10.7452 302 24V125C302 138.255 291.255 149 278 149H24C10.7452 149 0 138.255 0 125V86.1208Z" fill="url(#paint0_radial_1948_3083)"/>
<path d="M0 86.1208L-0.681486 84.2405C-1.4729 84.5273 -2 85.279 -2 86.1208H0ZM237.619 0V-2C237.387 -2 237.156 -1.9595 236.938 -1.88031L237.619 0ZM0.681486 88.0011L238.301 1.88031L236.938 -1.88031L-0.681486 84.2405L0.681486 88.0011ZM237.619 2H278V-2H237.619V2ZM278 2C290.15 2 300 11.8497 300 24H304C304 9.6406 292.359 -2 278 -2V2ZM300 24V125H304V24H300ZM300 125C300 137.15 290.15 147 278 147V151C292.359 151 304 139.359 304 125H300ZM278 147H24V151H278V147ZM24 147C11.8497 147 2 137.15 2 125H-2C-2 139.359 9.64059 151 24 151V147ZM2 125V86.1208H-2V125H2Z" fill="url(#paint1_linear_1948_3083)" mask="url(#path-2-inside-1_1948_3083)"/>
<path fill-rule="evenodd" clip-rule="evenodd" d="M100.901 149H24C23.2704 149 22.5484 148.967 21.8353 148.904C15.0946 140.455 11.0732 129.794 11.0732 118.207C11.0732 90.7765 33.6082 68.54 61.4066 68.54C89.2049 68.54 111.74 90.7765 111.74 118.207C111.74 129.838 107.688 140.536 100.901 149Z" fill="url(#paint2_radial_1948_3083)"/>
<ellipse cx="277.84" cy="25.8267" rx="20.1333" ry="19.8667" fill="url(#paint3_radial_1948_3083)"/>
<g filter="url(#filter0_d_1948_3083)">
<path d="M29.8057 80.4515L27.9398 90.9178C27.9609 93.066 34.2333 98.2659 59.154 101.879C84.0746 105.493 93.3637 101.443 94.8932 98.9671L96.7591 88.5008C96.7591 88.5008 85.5326 93.1761 61.2786 89.962C42.9159 87.5287 33.4681 83.0989 29.8057 80.4515Z" fill="url(#paint4_linear_1948_3083)" shape-rendering="crispEdges"/>
<path d="M89.8175 96.1437C92.2293 95.7839 94.1534 95.3635 95.6032 94.9845L96.7591 88.5008C96.7591 88.5008 94.6773 89.3678 90.3697 90.0984L89.348 95.8298M89.8175 96.1437L89.7416 96.1015C90.0183 95.6535 90.273 95.4232 90.3639 95.351M89.8175 96.1437L94.8932 98.9671L88.9167 98.2486L89.278 96.222M89.8175 96.1437C89.6403 96.1702 89.4605 96.1963 89.278 96.222M90.3639 95.351C90.3887 95.3346 90.3997 95.3259 90.399 95.3256C90.3983 95.3253 90.386 95.3335 90.3639 95.351ZM90.3639 95.351C90.2988 95.3941 90.1389 95.4897 89.8473 95.6224C89.7035 95.6878 89.5376 95.7574 89.348 95.8298M89.348 95.8298C88.7881 96.0435 88.0222 96.281 87.0144 96.5049C87.5661 96.4445 88.0985 96.3802 88.6115 96.3128C88.8375 96.2831 89.0596 96.2528 89.278 96.222M89.348 95.8298L89.278 96.222M34.3639 89.125L35.3685 83.4903C32.8217 82.3748 31.004 81.3177 29.8057 80.4515L28.6486 86.9415C30.0808 87.7503 31.8078 88.5932 33.857 89.4351M34.3639 89.125C33.9294 88.8588 33.6427 88.6444 33.4696 88.495C33.4279 88.459 33.3936 88.428 33.366 88.4019M34.3639 89.125L34.2781 89.6063M34.3639 89.125C34.9312 89.4726 35.7505 89.9084 36.8978 90.4031C38.161 90.9477 39.7388 91.5284 41.6854 92.1235C38.8631 91.3123 36.4036 90.461 34.2781 89.6063M33.366 88.4019C33.3124 88.3336 33.2765 88.2998 33.272 88.2999C33.2675 88.3001 33.2943 88.3342 33.366 88.4019ZM33.366 88.4019C33.4902 88.56 33.7098 88.9025 33.857 89.4351M33.857 89.4351C33.9422 89.7431 34.0031 90.1146 34.0074 90.5508L27.9398 90.9178L33.9162 91.6363L34.2781 89.6063M33.857 89.4351C33.9959 89.4922 34.1363 89.5493 34.2781 89.6063" stroke="url(#paint5_linear_1948_3083)" stroke-opacity="0.27" stroke-width="12" stroke-linejoin="round" shape-rendering="crispEdges"/>
</g>
<g filter="url(#filter1_d_1948_3083)">
<path d="M30.2303 78.7721C32.0184 81.5589 40.7225 85.9812 62.5452 89.0602C71.4984 90.1018 95.0497 90.2794 97.0244 86.8023C98.9991 83.3251 103.242 66.0789 111.281 56.3148C112.148 55.2623 109.58 52.904 103.971 55.4359C102.829 54.9364 99.9274 54.3924 99.0201 54.8407C98.3124 55.1904 96.983 56.5989 95.9543 57.4768C98.4919 58.2287 104.057 61.814 99.7714 64.3742C95.7436 66.7805 88.9099 72.8007 84.5054 72.2712C80.3644 71.7734 75.9038 69.4591 75.9152 64.9401C75.9265 60.4211 74.3848 53.1433 73.6125 50.0692L75.4534 47.575C74.3174 46.1153 72.9721 42.2919 75.2102 41.1072C78.1907 39.5296 79.0845 39.5053 82.1597 40.0067C82.7326 40.1002 82.3654 37.1141 81.2098 35.241C80.568 34.2008 77.3218 34.7736 77.2409 34.7639C77.1599 34.7541 75.9908 32.3206 75.1817 31.6956C74.496 31.1661 73.4729 31.0433 72.8995 30.9745L72.8701 30.971C72.3029 30.9028 71.4427 30.7994 70.4836 31.1308C69.3042 31.5384 67.5311 33.5966 67.2881 33.5673C67.0452 33.5381 64.1272 32.2847 63.1572 33.0707C61.4125 34.4845 60.2313 37.4166 60.7454 37.4323C63.1832 37.5064 64.6071 37.3531 66.8471 40.1018C68.518 42.1521 66.4909 44.9992 64.7411 46.2871L65.7555 49.1246C64.0472 51.591 60.1539 57.7823 58.2471 62.816C56.3403 67.8497 50.6515 68.2947 48.0455 67.8879C43.9578 66.1818 38.4733 60.4387 35.4376 56.6399C33.4084 54.1005 38.7438 49.8714 41.6947 50.9536C41.3667 50.4148 40.4819 49.0085 39.5664 47.6931C38.6509 46.3776 35.802 47.1704 34.4921 47.7313C30.7308 44.6774 26.2762 44.3783 27.2444 46.2117C30.9342 53.1986 28.4421 75.9853 30.2303 78.7721Z" fill="url(#paint6_linear_1948_3083)"/>
<path d="M90.558 77.9854C91.5682 77.5826 92.5509 77.1042 93.4801 76.6002C93.1796 77.4389 92.899 78.2332 92.6394 78.968C92.5141 79.3227 92.3937 79.6636 92.2783 79.989C92.0227 80.7095 91.7973 81.3381 91.5958 81.8832C91.4666 81.9081 91.3283 81.9334 91.1807 81.959C89.0359 82.3316 86.0064 82.5873 82.5125 82.7126C75.583 82.961 67.8886 82.6643 63.8255 82.1998C53.2545 80.7039 46.147 78.9219 41.6154 77.2968C39.3422 76.4816 37.8424 75.7501 36.9222 75.1918C36.8448 75.1448 36.7736 75.1003 36.7083 75.0585C36.6648 74.5119 36.6296 73.81 36.6047 72.9371C36.5655 71.5704 36.556 70.0555 36.5507 68.3851C38.8858 70.5532 41.8868 72.9807 44.9817 74.2724L45.7459 74.5914L46.5752 74.7208C48.793 75.0669 52.1085 75.0628 55.4638 73.8979C59.0612 72.6489 62.9766 69.9159 64.8713 64.9142C65.637 62.8927 66.842 60.5456 68.0646 58.3967C68.5011 60.8936 68.8406 63.4665 68.836 65.285C68.824 70.0649 71.2776 73.5517 74.1983 75.7103C76.9831 77.7684 80.3388 78.7843 83.2812 79.1381C86.0971 79.4766 88.6923 78.7294 90.558 77.9854ZM93.0627 81.5168C93.051 81.5213 93.0379 81.5261 93.0236 81.5312C93.2175 81.4331 93.2643 81.4395 93.0627 81.5168ZM72.6203 34.7887L72.2095 35.2847L72.6203 34.7887Z" stroke="url(#paint7_linear_1948_3083)" stroke-opacity="0.27" stroke-width="14"/>
</g>
<path d="M93.3589 88.5065L96.2565 87.5109C98.9489 84.0922 99.5994 78.57 101.516 74.7943C84.5529 68.1542 35.1802 61.7393 29.4077 68.3982C29.4304 73.0661 28.9399 71.6761 29.9435 79.1239C46.9293 90.432 75.9507 89.8121 80.7876 89.7087L80.7896 89.7086C82.3244 89.6758 90.4627 89.5017 93.3589 88.5065Z" fill="url(#paint8_linear_1948_3083)"/>
<path fill-rule="evenodd" clip-rule="evenodd" d="M302 77.5941V79.6271L300.406 79.3349C299.863 79.2353 299.506 78.7147 299.608 78.1721C299.711 77.6296 300.235 77.2705 300.778 77.3701L302 77.5941ZM117.966 43.8475L116.982 43.6671L116.61 45.6318L117.594 45.8122L120.918 46.4217C121.461 46.5214 121.985 46.1623 122.088 45.6198C122.19 45.0772 121.833 44.5566 121.29 44.457L117.966 43.8475ZM127.937 45.676C127.394 45.5763 126.87 45.9354 126.768 46.478C126.665 47.0205 127.022 47.5411 127.566 47.6408L134.213 48.8598C134.757 48.9594 135.28 48.6003 135.383 48.0578C135.486 47.5152 135.128 46.9946 134.585 46.895L127.937 45.676ZM141.233 48.114C140.69 48.0143 140.166 48.3734 140.063 48.916C139.961 49.4585 140.318 49.9791 140.861 50.0788L147.509 51.2978C148.052 51.3974 148.576 51.0383 148.679 50.4958C148.781 49.9532 148.424 49.4326 147.881 49.333L141.233 48.114ZM154.528 50.552C153.985 50.4524 153.461 50.8114 153.359 51.354C153.256 51.8965 153.613 52.4171 154.157 52.5168L160.804 53.7358C161.348 53.8354 161.871 53.4763 161.974 52.9338C162.077 52.3912 161.719 51.8706 161.176 51.771L154.528 50.552ZM167.824 52.99C167.28 52.8904 166.757 53.2494 166.654 53.792C166.551 54.3346 166.909 54.8552 167.452 54.9548L174.1 56.1738C174.643 56.2734 175.167 55.9144 175.269 55.3718C175.372 54.8292 175.015 54.3086 174.471 54.209L167.824 52.99ZM181.119 55.428C180.576 55.3284 180.052 55.6874 179.95 56.23C179.847 56.7726 180.204 57.2932 180.747 57.3928L187.395 58.6118C187.939 58.7114 188.462 58.3524 188.565 57.8098C188.667 57.2672 188.31 56.7466 187.767 56.647L181.119 55.428ZM194.415 57.866C193.871 57.7664 193.348 58.1255 193.245 58.668C193.142 59.2106 193.5 59.7312 194.043 59.8308L200.691 61.0498C201.234 61.1494 201.758 60.7904 201.86 60.2478C201.963 59.7053 201.606 59.1847 201.062 59.085L194.415 57.866ZM207.71 60.304C207.167 60.2044 206.643 60.5635 206.54 61.106C206.438 61.6486 206.795 62.1692 207.338 62.2688L213.986 63.4878C214.529 63.5875 215.053 63.2284 215.156 62.6858C215.258 62.1433 214.901 61.6227 214.358 61.523L207.71 60.304ZM221.005 62.742C220.462 62.6424 219.938 63.0015 219.836 63.544C219.733 64.0866 220.09 64.6072 220.634 64.7068L227.281 65.9258C227.825 66.0255 228.348 65.6664 228.451 65.1238C228.554 64.5813 228.196 64.0607 227.653 63.9611L221.005 62.742ZM234.301 65.1801C233.758 65.0804 233.234 65.4395 233.131 65.9821C233.029 66.5246 233.386 67.0452 233.929 67.1448L240.577 68.3638C241.12 68.4635 241.644 68.1044 241.747 67.5619C241.849 67.0193 241.492 66.4987 240.949 66.3991L234.301 65.1801ZM247.596 67.6181C247.053 67.5184 246.529 67.8775 246.427 68.4201C246.324 68.9626 246.681 69.4832 247.225 69.5829L253.872 70.8019C254.416 70.9015 254.939 70.5424 255.042 69.9999C255.145 69.4573 254.787 68.9367 254.244 68.8371L247.596 67.6181ZM260.892 70.0561C260.348 69.9564 259.825 70.3155 259.722 70.8581C259.62 71.4006 259.977 71.9212 260.52 72.0209L267.168 73.2399C267.711 73.3395 268.235 72.9804 268.337 72.4379C268.44 71.8953 268.083 71.3747 267.539 71.2751L260.892 70.0561ZM274.187 72.4941C273.644 72.3945 273.12 72.7535 273.018 73.2961C272.915 73.8386 273.272 74.3592 273.816 74.4589L280.463 75.6779C281.007 75.7775 281.53 75.4184 281.633 74.8759C281.735 74.3333 281.378 73.8127 280.835 73.7131L274.187 72.4941ZM287.483 74.9321C286.939 74.8325 286.416 75.1915 286.313 75.7341C286.21 76.2767 286.568 76.7973 287.111 76.8969L293.759 78.1159C294.302 78.2155 294.826 77.8565 294.928 77.3139C295.031 76.7713 294.674 76.2507 294.13 76.1511L287.483 74.9321Z" fill="#FFE72D" fill-opacity="0.3"/>
<path d="M279.723 12.9133V16.6448" stroke="white" stroke-width="2" stroke-miterlimit="10"/>
<path d="M282.992 18.5106H257.604C255.233 18.5106 253.311 20.4074 253.311 22.7473V47.7987C253.311 50.1386 255.233 52.0354 257.604 52.0354H282.992C285.363 52.0354 287.285 50.1386 287.285 47.7987V22.7473C287.285 20.4074 285.363 18.5106 282.992 18.5106Z" stroke="white" stroke-width="2" stroke-miterlimit="10"/>
<path d="M275.941 25.954H264.636C262.548 25.954 260.854 27.6247 260.854 29.6855V40.841C260.854 42.9019 262.548 44.5725 264.636 44.5725H275.941C278.03 44.5725 279.723 42.9019 279.723 40.841V29.6855C279.723 27.6247 278.03 25.954 275.941 25.954Z" stroke="white" stroke-width="2" stroke-miterlimit="10"/>
<path d="M260.854 12.9133V16.6448" stroke="white" stroke-width="2" stroke-miterlimit="10"/>
<path d="M270.289 12.9133V16.6448" stroke="white" stroke-width="2" stroke-miterlimit="10"/>
<path d="M260.854 53.8817V57.6132" stroke="white" stroke-width="2" stroke-miterlimit="10"/>
<path d="M270.289 53.8817V57.6132" stroke="white" stroke-width="2" stroke-miterlimit="10"/>
<path d="M279.723 53.8817V57.6132" stroke="white" stroke-width="2" stroke-miterlimit="10"/>
<path d="M247.639 44.5725H251.42" stroke="white" stroke-width="2" stroke-miterlimit="10"/>
<path d="M247.639 35.2633H251.42" stroke="white" stroke-width="2" stroke-miterlimit="10"/>
<path d="M247.639 25.954H251.42" stroke="white" stroke-width="2" stroke-miterlimit="10"/>
<path d="M289.157 44.5725H292.939" stroke="white" stroke-width="2" stroke-miterlimit="10"/>
<path d="M289.157 35.2633H292.939" stroke="white" stroke-width="2" stroke-miterlimit="10"/>
<path d="M289.157 25.954H292.939" stroke="white" stroke-width="2" stroke-miterlimit="10"/>
<path d="M268.216 37.4823C268.216 37.2635 268.29 37.08 268.438 36.9315C268.595 36.7753 268.782 36.6971 269.001 36.6971H270.794L270.489 35.83C270.364 35.5096 270.239 35.2089 270.114 34.9276C269.997 34.6385 269.86 34.3768 269.704 34.1425C269.563 33.9081 269.403 33.7831 269.224 33.7675C269.036 33.7831 268.868 33.9081 268.72 34.1425C268.571 34.3768 268.435 34.6385 268.31 34.9276C268.192 35.2089 268.071 35.5096 267.946 35.83L266.833 38.8768C266.755 39.0409 266.653 39.1776 266.528 39.287C266.411 39.3885 266.231 39.4393 265.989 39.4393C265.763 39.4393 265.575 39.3612 265.427 39.205C265.286 39.0487 265.224 38.8612 265.239 38.6425C265.247 38.5409 265.271 38.4471 265.31 38.3612L266.599 35.0331C266.958 34.1581 267.317 33.451 267.677 32.912C268.028 32.3807 268.544 32.1112 269.224 32.1034C269.896 32.1112 270.407 32.3807 270.759 32.912C271.118 33.4354 271.478 34.1425 271.837 35.0331L273.126 38.3612C273.165 38.4471 273.188 38.5409 273.196 38.6425C273.212 38.8612 273.146 39.0487 272.997 39.205C272.856 39.3612 272.673 39.4393 272.446 39.4393C272.188 39.4393 271.997 39.3885 271.872 39.287C271.755 39.1776 271.657 39.0409 271.579 38.8768L271.356 38.2675H269.001C268.782 38.2675 268.599 38.1893 268.45 38.0331C268.294 37.8846 268.216 37.701 268.216 37.4823ZM275.177 33.8612C275.388 33.869 275.567 33.9471 275.716 34.0956C275.864 34.2362 275.942 34.412 275.95 34.6229V38.6776C275.903 39.1464 275.646 39.4003 275.177 39.4393C274.958 39.4393 274.767 39.369 274.603 39.2284C274.446 39.08 274.368 38.8964 274.368 38.6776V34.6229C274.376 34.4042 274.458 34.2245 274.614 34.0839C274.771 33.9354 274.958 33.8612 275.177 33.8612ZM274.192 32.3378C274.192 32.119 274.286 31.9315 274.474 31.7753C274.661 31.619 274.888 31.5409 275.153 31.5409C275.419 31.5409 275.646 31.619 275.833 31.7753C276.021 31.9315 276.114 32.119 276.114 32.3378C276.114 32.5643 276.021 32.7557 275.833 32.912C275.646 33.0682 275.419 33.1464 275.153 33.1464C274.888 33.1464 274.661 33.0682 274.474 32.912C274.286 32.7557 274.192 32.5643 274.192 32.3378Z" fill="white"/>
<g filter="url(#filter2_d_1948_3083)">
<path d="M272.774 52.0653C274.991 52.0653 276.987 53.5909 277.867 55.9292L277.96 56.1923L286.941 83.2481H288.3C288.872 83.2481 289.335 83.7851 289.335 84.4474C289.335 85.1098 288.872 85.6468 288.3 85.6468H257.248C256.676 85.6468 256.213 85.1098 256.213 84.4474C256.213 83.7851 256.676 83.2481 257.248 83.2481H258.606L267.588 56.1923C268.384 53.7948 270.329 52.1836 272.529 52.0716L272.774 52.0653ZM280.02 72.4541H265.529C264.957 72.4541 264.494 72.991 264.494 73.6534C264.494 74.3158 264.957 74.8527 265.529 74.8527H280.02C280.591 74.8527 281.055 74.3158 281.055 73.6534C281.055 72.991 280.591 72.4541 280.02 72.4541ZM277.95 65.258H267.599C267.027 65.258 266.564 65.795 266.564 66.4574C266.564 67.1198 267.027 67.6567 267.599 67.6567H277.95C278.521 67.6567 278.985 67.1198 278.985 66.4574C278.985 65.795 278.521 65.258 277.95 65.258Z" fill="url(#paint9_linear_1948_3083)"/>
</g>
<g filter="url(#filter3_d_1948_3083)">
<path d="M197.762 77.655C201.804 77.655 205.444 80.4368 207.049 84.7008L207.218 85.1807L223.596 134.518H226.074C227.116 134.518 227.962 135.497 227.962 136.705C227.962 137.913 227.116 138.892 226.074 138.892H169.449C168.407 138.892 167.562 137.913 167.562 136.705C167.562 135.497 168.407 134.518 169.449 134.518H171.925L188.305 85.1807C189.756 80.8086 193.303 77.8706 197.314 77.6663L197.762 77.655ZM210.974 114.834H184.549C183.507 114.834 182.662 115.814 182.662 117.021C182.662 118.229 183.507 119.208 184.549 119.208H210.974C212.016 119.208 212.862 118.229 212.862 117.021C212.862 115.814 212.016 114.834 210.974 114.834ZM207.199 101.712H188.324C187.282 101.712 186.437 102.691 186.437 103.899C186.437 105.107 187.282 106.086 188.324 106.086H207.199C208.241 106.086 209.087 105.107 209.087 103.899C209.087 102.691 208.241 101.712 207.199 101.712Z" fill="url(#paint10_linear_1948_3083)"/>
</g>
<g filter="url(#filter4_d_1948_3083)">
<path d="M174.381 23.9642C177.25 23.9642 179.833 25.9384 180.971 28.9645L181.092 29.305L192.714 64.3183H194.473C195.213 64.3183 195.813 65.0132 195.813 65.8704C195.813 66.7276 195.213 67.4225 194.473 67.4225H154.288C153.548 67.4225 152.948 66.7276 152.948 65.8704C152.948 65.0132 153.548 64.3183 154.288 64.3183H156.045L167.669 29.305C168.699 26.2023 171.217 24.1172 174.063 23.9722L174.381 23.9642ZM183.757 50.3496H165.004C164.264 50.3496 163.664 51.0445 163.664 51.9017C163.664 52.7589 164.264 53.4538 165.004 53.4538H183.757C184.497 53.4538 185.097 52.7589 185.097 51.9017C185.097 51.0445 184.497 50.3496 183.757 50.3496ZM181.078 41.0371H167.683C166.943 41.0371 166.343 41.732 166.343 42.5892C166.343 43.4464 166.943 44.1413 167.683 44.1413H181.078C181.818 44.1413 182.418 43.4464 182.418 42.5892C182.418 41.732 181.818 41.0371 181.078 41.0371Z" fill="url(#paint11_linear_1948_3083)"/>
</g>
<defs>
<filter id="filter0_d_1948_3083" x="5.93945" y="75.4515" width="92.8193" height="46.8639" filterUnits="userSpaceOnUse" color-interpolation-filters="sRGB">
<feFlood flood-opacity="0" result="BackgroundImageFix"/>
<feColorMatrix in="SourceAlpha" type="matrix" values="0 0 0 0 0 0 0 0 0 0 0 0 0 0 0 0 0 0 127 0" result="hardAlpha"/>
<feOffset dx="-10" dy="7"/>
<feGaussianBlur stdDeviation="6"/>
<feComposite in2="hardAlpha" operator="out"/>
<feColorMatrix type="matrix" values="0 0 0 0 0 0 0 0 0 0 0 0 0 0 0 0 0 0 0.25 0"/>
<feBlend mode="normal" in2="BackgroundImageFix" result="effect1_dropShadow_1948_3083"/>
<feBlend mode="normal" in="SourceGraphic" in2="effect1_dropShadow_1948_3083" result="shape"/>
</filter>
<filter id="filter1_d_1948_3083" x="7.11035" y="19.9003" width="122.336" height="96.8201" filterUnits="userSpaceOnUse" color-interpolation-filters="sRGB">
<feFlood flood-opacity="0" result="BackgroundImageFix"/>
<feColorMatrix in="SourceAlpha" type="matrix" values="0 0 0 0 0 0 0 0 0 0 0 0 0 0 0 0 0 0 127 0" result="hardAlpha"/>
<feOffset dx="-1" dy="8"/>
<feGaussianBlur stdDeviation="9.5"/>
<feComposite in2="hardAlpha" operator="out"/>
<feColorMatrix type="matrix" values="0 0 0 0 0 0 0 0 0 0 0 0 0 0 0 0 0 0 0.25 0"/>
<feBlend mode="normal" in2="BackgroundImageFix" result="effect1_dropShadow_1948_3083"/>
<feBlend mode="normal" in="SourceGraphic" in2="effect1_dropShadow_1948_3083" result="shape"/>
</filter>
<filter id="filter2_d_1948_3083" x="216.513" y="40.3653" width="82.523" height="82.9814" filterUnits="userSpaceOnUse" color-interpolation-filters="sRGB">
<feFlood flood-opacity="0" result="BackgroundImageFix"/>
<feColorMatrix in="SourceAlpha" type="matrix" values="0 0 0 0 0 0 0 0 0 0 0 0 0 0 0 0 0 0 127 0" result="hardAlpha"/>
<feOffset dx="-15" dy="13"/>
<feGaussianBlur stdDeviation="12.35"/>
<feComposite in2="hardAlpha" operator="out"/>
<feColorMatrix type="matrix" values="0 0 0 0 0 0 0 0 0 0 0 0 0 0 0 0 0 0 0.5 0"/>
<feBlend mode="normal" in2="BackgroundImageFix" result="effect1_dropShadow_1948_3083"/>
<feBlend mode="normal" in="SourceGraphic" in2="effect1_dropShadow_1948_3083" result="shape"/>
</filter>
<filter id="filter3_d_1948_3083" x="127.862" y="65.955" width="109.8" height="110.637" filterUnits="userSpaceOnUse" color-interpolation-filters="sRGB">
<feFlood flood-opacity="0" result="BackgroundImageFix"/>
<feColorMatrix in="SourceAlpha" type="matrix" values="0 0 0 0 0 0 0 0 0 0 0 0 0 0 0 0 0 0 127 0" result="hardAlpha"/>
<feOffset dx="-15" dy="13"/>
<feGaussianBlur stdDeviation="12.35"/>
<feComposite in2="hardAlpha" operator="out"/>
<feColorMatrix type="matrix" values="0 0 0 0 0 0 0 0 0 0 0 0 0 0 0 0 0 0 0.5 0"/>
<feBlend mode="normal" in2="BackgroundImageFix" result="effect1_dropShadow_1948_3083"/>
<feBlend mode="normal" in="SourceGraphic" in2="effect1_dropShadow_1948_3083" result="shape"/>
</filter>
<filter id="filter4_d_1948_3083" x="113.248" y="12.2642" width="92.2643" height="92.8583" filterUnits="userSpaceOnUse" color-interpolation-filters="sRGB">
<feFlood flood-opacity="0" result="BackgroundImageFix"/>
<feColorMatrix in="SourceAlpha" type="matrix" values="0 0 0 0 0 0 0 0 0 0 0 0 0 0 0 0 0 0 127 0" result="hardAlpha"/>
<feOffset dx="-15" dy="13"/>
<feGaussianBlur stdDeviation="12.35"/>
<feComposite in2="hardAlpha" operator="out"/>
<feColorMatrix type="matrix" values="0 0 0 0 0 0 0 0 0 0 0 0 0 0 0 0 0 0 0.5 0"/>
<feBlend mode="normal" in2="BackgroundImageFix" result="effect1_dropShadow_1948_3083"/>
<feBlend mode="normal" in="SourceGraphic" in2="effect1_dropShadow_1948_3083" result="shape"/>
</filter>
<radialGradient id="paint0_radial_1948_3083" cx="0" cy="0" r="1" gradientUnits="userSpaceOnUse" gradientTransform="translate(200.327 78.97) rotate(161.915) scale(147.198 100.22)">
<stop offset="0.229167" stop-color="#4F1754"/>
<stop offset="0.942708" stop-color="#2C0C3F"/>
</radialGradient>
<linearGradient id="paint1_linear_1948_3083" x1="148.987" y1="32.2833" x2="158.328" y2="57.6948" gradientUnits="userSpaceOnUse">
<stop stop-color="#FFE72D"/>
<stop offset="1" stop-color="#FFE72D" stop-opacity="0"/>
</linearGradient>
<radialGradient id="paint2_radial_1948_3083" cx="0" cy="0" r="1" gradientUnits="userSpaceOnUse" gradientTransform="translate(80.5332 112.247) rotate(108.975) scale(58.8231 59.4468)">
<stop stop-color="#BBB9B9"/>
<stop offset="1" stop-color="#686868"/>
</radialGradient>
<radialGradient id="paint3_radial_1948_3083" cx="0" cy="0" r="1" gradientUnits="userSpaceOnUse" gradientTransform="translate(277.84 20.7181) rotate(90) scale(24.9752 18.849)">
<stop stop-color="#BBB9B9"/>
<stop offset="1" stop-color="#414141"/>
</radialGradient>
<linearGradient id="paint4_linear_1948_3083" x1="35.7686" y1="92.9602" x2="100.865" y2="93.2629" gradientUnits="userSpaceOnUse">
<stop offset="0.0315335" stop-color="#B08743"/>
<stop offset="0.390961" stop-color="#FFC82D" stop-opacity="0.95"/>
<stop offset="0.64796" stop-color="#FFE72D" stop-opacity="0.95"/>
<stop offset="0.904958" stop-color="#FFC82D"/>
</linearGradient>
<linearGradient id="paint5_linear_1948_3083" x1="99.6665" y1="91.8568" x2="79.7962" y2="120.046" gradientUnits="userSpaceOnUse">
<stop stop-color="#FF650B" stop-opacity="0.18"/>
<stop offset="1" stop-color="#FF650B" stop-opacity="0"/>
</linearGradient>
<linearGradient id="paint6_linear_1948_3083" x1="40.4339" y1="65.622" x2="101.206" y2="68.3291" gradientUnits="userSpaceOnUse">
<stop stop-color="#805C21"/>
<stop offset="0.310258" stop-color="#977B2D"/>
<stop offset="0.566289" stop-color="#8E8224"/>
<stop offset="0.947917" stop-color="#624D14"/>
</linearGradient>
<linearGradient id="paint7_linear_1948_3083" x1="113.653" y1="59.6398" x2="51.632" y2="84.5028" gradientUnits="userSpaceOnUse">
<stop stop-color="#FF650B" stop-opacity="0.68"/>
<stop offset="1" stop-color="#FF650B" stop-opacity="0"/>
</linearGradient>
<linearGradient id="paint8_linear_1948_3083" x1="30.8792" y1="72.5685" x2="98.7953" y2="78.7671" gradientUnits="userSpaceOnUse">
<stop offset="0.0208333" stop-color="#805C22"/>
<stop offset="0.241592" stop-color="#CF9535"/>
<stop offset="0.492831" stop-color="#E6BA3F"/>
<stop offset="0.772498" stop-color="#DEAC1E"/>
<stop offset="0.963542" stop-color="#775112"/>
</linearGradient>
<linearGradient id="paint9_linear_1948_3083" x1="272.774" y1="85.4869" x2="272.774" y2="52.2253" gradientUnits="userSpaceOnUse">
<stop stop-color="#FFE72D"/>
<stop offset="0.494792" stop-color="#FF8F0B"/>
<stop offset="1" stop-color="#FFE72D"/>
</linearGradient>
<linearGradient id="paint10_linear_1948_3083" x1="197.762" y1="138.6" x2="197.762" y2="77.9466" gradientUnits="userSpaceOnUse">
<stop stop-color="#FFE72D"/>
<stop offset="0.494792" stop-color="#FF8F0B"/>
<stop offset="1" stop-color="#FFE72D"/>
</linearGradient>
<linearGradient id="paint11_linear_1948_3083" x1="174.381" y1="67.2156" x2="174.38" y2="24.1711" gradientUnits="userSpaceOnUse">
<stop stop-color="#FFE72D"/>
<stop offset="0.494792" stop-color="#FF8F0B"/>
<stop offset="1" stop-color="#FFE72D"/>
</linearGradient>
</defs>
</svg>
