<svg width="300" height="151" viewBox="0 0 300 151" fill="none" xmlns="http://www.w3.org/2000/svg">
<rect y="0.849609" width="300" height="150" rx="24" fill="#6A6A6A"/>
<mask id="path-2-inside-1_1832_2956" fill="white">
<path fill-rule="evenodd" clip-rule="evenodd" d="M0 87.5486L236.046 0.849609H276C289.255 0.849609 300 11.5948 300 24.8496V126.85C300 140.104 289.255 150.85 276 150.85H24C10.7452 150.85 0 140.104 0 126.85V87.5486Z"/>
</mask>
<path fill-rule="evenodd" clip-rule="evenodd" d="M0 87.5486L236.046 0.849609H276C289.255 0.849609 300 11.5948 300 24.8496V126.85C300 140.104 289.255 150.85 276 150.85H24C10.7452 150.85 0 140.104 0 126.85V87.5486Z" fill="url(#paint0_radial_1832_2956)"/>
<path d="M0 87.5486L-0.689552 85.6712C-1.47678 85.9604 -2 86.71 -2 87.5486H0ZM236.046 0.849609V-1.15039C235.811 -1.15039 235.578 -1.10888 235.357 -1.02776L236.046 0.849609ZM0.689552 89.426L236.736 2.72698L235.357 -1.02776L-0.689552 85.6712L0.689552 89.426ZM236.046 2.84961H276V-1.15039H236.046V2.84961ZM276 2.84961C288.15 2.84961 298 12.6993 298 24.8496H302C302 10.4902 290.359 -1.15039 276 -1.15039V2.84961ZM298 24.8496V126.85H302V24.8496H298ZM298 126.85C298 139 288.15 148.85 276 148.85V152.85C290.359 152.85 302 141.209 302 126.85H298ZM276 148.85H24V152.85H276V148.85ZM24 148.85C11.8497 148.85 2 139 2 126.85H-2C-2 141.209 9.64059 152.85 24 152.85V148.85ZM2 126.85V87.5486H-2V126.85H2Z" fill="url(#paint1_linear_1832_2956)" mask="url(#path-2-inside-1_1832_2956)"/>
<path fill-rule="evenodd" clip-rule="evenodd" d="M100.233 150.85H24C23.2173 150.85 22.4435 150.812 21.68 150.739C14.9904 142.235 11 131.508 11 119.85C11 92.2354 33.3858 69.8496 61 69.8496C88.6142 69.8496 111 92.2354 111 119.85C111 131.559 106.975 142.329 100.233 150.85Z" fill="url(#paint2_radial_1832_2956)"/>
<circle cx="276" cy="26.8496" r="20" fill="url(#paint3_radial_1832_2956)"/>
<g filter="url(#filter0_d_1832_2956)">
<path d="M29.6084 81.8411L27.7549 92.3776C27.7758 94.5403 34.0067 99.7751 58.7624 103.413C83.518 107.05 92.7456 102.974 94.2649 100.481L96.1185 89.9444C96.1185 89.9444 84.9663 94.6511 60.8729 91.4154C42.6318 88.9658 33.2466 84.5063 29.6084 81.8411Z" fill="url(#paint4_linear_1832_2956)" shape-rendering="crispEdges"/>
<path d="M89.1636 97.6338C91.5859 97.2705 93.5176 96.8443 94.9724 96.4596L96.1185 89.9444C96.1185 89.9444 94.0439 90.8199 89.7513 91.5562L88.7339 97.3398M89.1636 97.6338L89.1221 97.6107C89.3949 97.1632 89.6461 96.9332 89.7356 96.8612M89.1636 97.6338L94.2649 100.481L88.309 99.7553L88.6695 97.7061M89.1636 97.6338C89.0011 97.6582 88.8364 97.6823 88.6695 97.7061M89.7356 96.8612C89.7599 96.8448 89.7708 96.8361 89.7701 96.8358C89.7695 96.8355 89.7573 96.8437 89.7356 96.8612ZM89.7356 96.8612C89.6714 96.9042 89.5133 97 89.2248 97.1331C89.0834 97.1983 88.9202 97.2677 88.7339 97.3398M88.7339 97.3398C88.2252 97.5368 87.5439 97.7542 86.6623 97.9627C87.1366 97.9088 87.5962 97.8519 88.0412 97.7926C88.254 97.7643 88.4634 97.7354 88.6695 97.7061M88.7339 97.3398L88.6695 97.7061M34.1521 90.5949L35.1524 84.9083C32.6131 83.7823 30.8016 82.7152 29.6084 81.8411L28.4611 88.3627C29.8869 89.1776 31.6053 90.0265 33.6435 90.8742M34.1521 90.5949C33.7222 90.3279 33.4389 90.1131 33.2681 89.9638C33.2271 89.9279 33.1935 89.897 33.1663 89.8711M34.1521 90.5949L34.0719 91.0505M34.1521 90.5949C34.714 90.9438 35.5263 91.3819 36.6649 91.8794C37.5984 92.2872 38.7054 92.7154 40.0081 93.1547C37.7924 92.4697 35.819 91.7613 34.0719 91.0505M33.1663 89.8711C33.1137 89.8034 33.0786 89.7698 33.0742 89.7699C33.0698 89.7701 33.0961 89.8039 33.1663 89.8711ZM33.1663 89.8711C33.2865 90.0257 33.498 90.3584 33.6435 90.8742M33.6435 90.8742C33.7321 91.188 33.7962 91.5694 33.8006 92.0197L27.7549 92.3776L33.7108 93.1033L34.0719 91.0505M33.6435 90.8742C33.7848 90.933 33.9276 90.9917 34.0719 91.0505" stroke="url(#paint5_linear_1832_2956)" stroke-opacity="0.27" stroke-width="12" stroke-linejoin="round" shape-rendering="crispEdges"/>
</g>
<g filter="url(#filter1_d_1832_2956)">
<path d="M30.0299 80.1504C31.8062 82.9559 40.4526 87.4078 62.1309 90.5076C71.0247 91.5561 94.4201 91.7349 96.3817 88.2344C98.3433 84.7339 102.558 67.372 110.544 57.5423C111.405 56.4828 108.854 54.1086 103.282 56.6576C102.148 56.1547 99.2654 55.6071 98.3642 56.0584C97.6612 56.4104 96.3406 57.8284 95.3187 58.7121C97.8395 59.4691 103.368 63.0785 99.1105 65.6559C95.1093 68.0782 88.3209 74.1389 83.9456 73.6058C79.832 73.1047 75.4009 70.7748 75.4122 66.2255C75.4235 61.6762 73.892 54.3495 73.1248 51.2549L74.9536 48.7439C73.825 47.2744 72.4887 43.4253 74.712 42.2327C77.6727 40.6445 78.5606 40.6201 81.6154 41.1248C82.1845 41.2189 81.8198 38.2128 80.6718 36.3271C80.0343 35.2799 76.8096 35.8566 76.7291 35.8468C76.6487 35.837 75.4874 33.3871 74.6836 32.7579C74.0025 32.2248 72.9861 32.1012 72.4166 32.032L72.3873 32.0284C71.8238 31.9598 70.9693 31.8557 70.0167 32.1893C68.8451 32.5997 67.0837 34.6716 66.8423 34.6422C66.601 34.6128 63.7023 33.351 62.7387 34.1423C61.0056 35.5655 59.8322 38.5174 60.3429 38.5331C62.7646 38.6077 64.1791 38.4534 66.4043 41.2205C68.0641 43.2845 66.0504 46.1508 64.3121 47.4474L65.3198 50.3039C63.6228 52.7869 59.7553 59.0196 57.8612 64.0871C55.967 69.1546 50.3159 69.6026 47.7271 69.1931C43.6665 67.4755 38.2183 61.6939 35.2027 57.8696C33.187 55.3132 38.487 51.0557 41.4184 52.1451C41.0926 51.6028 40.2136 50.187 39.3042 48.8627C38.3947 47.5385 35.5647 48.3366 34.2634 48.9012C30.5271 45.8268 26.102 45.5258 27.0638 47.3714C30.7291 54.4053 28.2535 77.3448 30.0299 80.1504Z" fill="url(#paint6_linear_1832_2956)"/>
<path d="M71.1258 35.7049C70.2967 34.8109 69.3781 34.0105 68.3237 33.3609C68.8836 32.8625 69.5061 32.3682 70.0167 32.1893M71.1258 35.7049L70.0167 32.1893M71.1258 35.7049C71.2719 35.8625 71.4152 36.0229 71.556 36.1859C71.5653 36.1809 71.5746 36.1759 71.5839 36.1709L71.1258 35.7049ZM71.1258 35.7049L70.0167 32.1893M71.1258 35.7049L70.0167 32.1893M66.1804 34.4218C65.2057 34.0898 63.448 33.5598 62.7387 34.1423C61.6655 35.0236 60.8069 36.4911 60.4299 37.4845C60.1982 38.0954 60.1485 38.5271 60.3429 38.5331C60.5016 38.538 60.6559 38.5419 60.8064 38.5457C62.6648 38.5927 63.9421 38.625 65.6004 40.3097L66.1804 34.4218ZM66.1804 34.4218C66.4019 34.7471 66.5763 35.0684 66.7139 35.3725C67.0187 36.0463 67.1429 36.6355 67.1997 36.9957C67.3789 38.1319 67.1891 38.9961 67.1559 39.147C67.155 39.1512 67.1542 39.1549 67.1535 39.158C67.1356 39.2408 67.1175 39.3138 67.1004 39.3768L66.1804 34.4218ZM36.3834 74.2907C36.3445 72.9144 36.3351 71.3885 36.3298 69.7063C38.6426 71.8778 41.6088 74.3022 44.6709 75.5974L45.4365 75.9213L46.2677 76.0527C48.4799 76.4027 51.7837 76.398 55.1254 75.2222C58.7121 73.9603 62.592 71.2067 64.4666 66.1914C65.2205 64.1745 66.4018 61.8371 67.6043 59.6905C68.0321 62.183 68.3631 64.7436 68.3586 66.5599C68.3467 71.3511 70.7743 74.8598 73.685 77.0399C76.4581 79.1169 79.801 80.1428 82.7328 80.5C85.5456 80.8427 88.1342 80.086 89.9889 79.3366C90.9723 78.9392 91.9291 78.469 92.8352 77.9732C92.537 78.8167 92.2586 79.6154 92.0009 80.3546C91.8765 80.7116 91.7569 81.0547 91.6422 81.3822C91.3863 82.1134 91.1608 82.7509 90.9592 83.3032C90.8333 83.3277 90.6987 83.3527 90.5553 83.3779C88.4284 83.7523 85.4221 84.0096 81.9526 84.1357C75.0718 84.3857 67.4322 84.0871 63.3997 83.6199C52.902 82.1145 45.8462 80.3214 41.3497 78.6871C39.094 77.8674 37.6074 77.1324 36.6964 76.5722C36.6208 76.5257 36.5513 76.4817 36.4874 76.4403C36.4437 75.8871 36.4084 75.1758 36.3834 74.2907ZM67.0033 39.6696C67.0029 39.6696 67.0073 39.6584 67.0177 39.6358C67.0089 39.6582 67.0037 39.6695 67.0033 39.6696ZM92.4159 82.9351C92.4041 82.9397 92.391 82.9446 92.3765 82.9499C92.5661 82.853 92.6119 82.859 92.4159 82.9351Z" stroke="url(#paint7_linear_1832_2956)" stroke-opacity="0.27" stroke-width="14"/>
</g>
<path d="M92.7412 89.9501L95.6196 88.9479C98.2941 85.5062 98.9403 79.9469 100.844 76.1459C83.9934 69.4613 34.9477 63.0033 29.2134 69.7069C29.2359 74.4061 28.7487 73.0067 29.7457 80.5046C46.619 91.8886 75.4482 91.2645 80.253 91.1604L80.255 91.1603C81.7794 91.1273 89.864 90.9521 92.7412 89.9501Z" fill="url(#paint8_linear_1832_2956)"/>
<path d="M277.871 13.8496V17.6061" stroke="white" stroke-width="2" stroke-miterlimit="10"/>
<path d="M281.119 19.4844H255.9C253.544 19.4844 251.635 21.394 251.635 23.7496V48.9691C251.635 51.3247 253.544 53.2343 255.9 53.2343H281.119C283.475 53.2343 285.385 51.3247 285.385 48.9691V23.7496C285.385 21.394 283.475 19.4844 281.119 19.4844Z" stroke="white" stroke-width="2" stroke-miterlimit="10"/>
<path d="M274.116 26.9778H262.885C260.811 26.9778 259.129 28.6597 259.129 30.7344V41.9648C259.129 44.0394 260.811 45.7213 262.885 45.7213H274.116C276.19 45.7213 277.872 44.0394 277.872 41.9648V30.7344C277.872 28.6597 276.19 26.9778 274.116 26.9778Z" stroke="white" stroke-width="2" stroke-miterlimit="10"/>
<path d="M259.129 13.8496V17.6061" stroke="white" stroke-width="2" stroke-miterlimit="10"/>
<path d="M268.5 13.8496V17.6061" stroke="white" stroke-width="2" stroke-miterlimit="10"/>
<path d="M259.129 55.093V58.8495" stroke="white" stroke-width="2" stroke-miterlimit="10"/>
<path d="M268.5 55.093V58.8495" stroke="white" stroke-width="2" stroke-miterlimit="10"/>
<path d="M277.871 55.093V58.8495" stroke="white" stroke-width="2" stroke-miterlimit="10"/>
<path d="M246 45.7213H249.757" stroke="white" stroke-width="2" stroke-miterlimit="10"/>
<path d="M246 36.3495H249.757" stroke="white" stroke-width="2" stroke-miterlimit="10"/>
<path d="M246 26.9778H249.757" stroke="white" stroke-width="2" stroke-miterlimit="10"/>
<path d="M287.243 45.7213H291" stroke="white" stroke-width="2" stroke-miterlimit="10"/>
<path d="M287.243 36.3495H291" stroke="white" stroke-width="2" stroke-miterlimit="10"/>
<path d="M287.243 26.9778H291" stroke="white" stroke-width="2" stroke-miterlimit="10"/>
<path d="M266.464 38.5287C266.464 38.3099 266.538 38.1263 266.687 37.9779C266.843 37.8217 267.03 37.7435 267.249 37.7435H269.042L268.737 36.8763C268.612 36.556 268.487 36.2552 268.362 35.974C268.245 35.6849 268.108 35.4232 267.952 35.1888C267.812 34.9545 267.651 34.8295 267.472 34.8138C267.284 34.8295 267.116 34.9545 266.968 35.1888C266.819 35.4232 266.683 35.6849 266.558 35.974C266.44 36.2552 266.319 36.556 266.194 36.8763L265.081 39.9232C265.003 40.0873 264.901 40.224 264.776 40.3334C264.659 40.4349 264.479 40.4857 264.237 40.4857C264.011 40.4857 263.823 40.4076 263.675 40.2513C263.534 40.0951 263.472 39.9076 263.487 39.6888C263.495 39.5873 263.519 39.4935 263.558 39.4076L264.847 36.0795C265.206 35.2045 265.565 34.4974 265.925 33.9584C266.276 33.4271 266.792 33.1576 267.472 33.1498C268.144 33.1576 268.655 33.4271 269.007 33.9584C269.366 34.4818 269.726 35.1888 270.085 36.0795L271.374 39.4076C271.413 39.4935 271.437 39.5873 271.444 39.6888C271.46 39.9076 271.394 40.0951 271.245 40.2513C271.104 40.4076 270.921 40.4857 270.694 40.4857C270.437 40.4857 270.245 40.4349 270.12 40.3334C270.003 40.224 269.905 40.0873 269.827 39.9232L269.604 39.3138H267.249C267.03 39.3138 266.847 39.2357 266.698 39.0795C266.542 38.931 266.464 38.7474 266.464 38.5287ZM273.425 34.9076C273.636 34.9154 273.815 34.9935 273.964 35.142C274.112 35.2826 274.19 35.4584 274.198 35.6693V39.724C274.151 40.1927 273.894 40.4467 273.425 40.4857C273.206 40.4857 273.015 40.4154 272.851 40.2748C272.694 40.1263 272.616 39.9427 272.616 39.724V35.6693C272.624 35.4506 272.706 35.2709 272.862 35.1302C273.019 34.9818 273.206 34.9076 273.425 34.9076ZM272.44 33.3842C272.44 33.1654 272.534 32.9779 272.722 32.8217C272.909 32.6654 273.136 32.5873 273.401 32.5873C273.667 32.5873 273.894 32.6654 274.081 32.8217C274.269 32.9779 274.362 33.1654 274.362 33.3842C274.362 33.6107 274.269 33.8021 274.081 33.9584C273.894 34.1146 273.667 34.1927 273.401 34.1927C273.136 34.1927 272.909 34.1146 272.722 33.9584C272.534 33.8021 272.44 33.6107 272.44 33.3842Z" fill="white"/>
<path fill-rule="evenodd" clip-rule="evenodd" d="M300 78.9707V81.005L298.165 80.6639C297.622 80.563 297.263 80.041 297.364 79.4981C297.465 78.9551 297.987 78.5967 298.53 78.6976L300 78.9707ZM117.183 44.9971L116.199 44.8144L115.834 46.7808L116.817 46.9635L120.373 47.6243C120.916 47.7252 121.438 47.3668 121.539 46.8238C121.64 46.2808 121.281 45.7588 120.738 45.6579L117.183 44.9971ZM127.85 46.9795C127.307 46.8786 126.785 47.237 126.684 47.78C126.583 48.323 126.942 48.845 127.485 48.9459L134.596 50.2674C135.139 50.3684 135.661 50.01 135.762 49.467C135.863 48.924 135.505 48.402 134.962 48.3011L127.85 46.9795ZM142.073 49.6227C141.53 49.5218 141.008 49.8802 140.908 50.4232C140.807 50.9661 141.165 51.4881 141.708 51.589L148.82 52.9106C149.363 53.0115 149.885 52.6531 149.986 52.1102C150.086 51.5672 149.728 51.0452 149.185 50.9443L142.073 49.6227ZM156.297 52.2659C155.754 52.165 155.232 52.5233 155.131 53.0663C155.03 53.6093 155.388 54.1313 155.931 54.2322L163.043 55.5538C163.586 55.6547 164.108 55.2963 164.209 54.7533C164.31 54.2103 163.951 53.6884 163.408 53.5875L156.297 52.2659ZM170.52 54.909C169.977 54.8081 169.455 55.1665 169.354 55.7095C169.253 56.2525 169.612 56.7745 170.155 56.8754L177.266 58.197C177.809 58.2979 178.331 57.9395 178.432 57.3965C178.533 56.8535 178.175 56.3315 177.632 56.2306L170.52 54.909ZM184.743 57.5522C184.2 57.4513 183.679 57.8097 183.578 58.3527C183.477 58.8957 183.835 59.4176 184.378 59.5185L191.49 60.8401C192.033 60.941 192.555 60.5827 192.656 60.0397C192.757 59.4967 192.398 58.9747 191.855 58.8738L184.743 57.5522ZM198.967 60.1954C198.424 60.0945 197.902 60.4529 197.801 60.9958C197.7 61.5388 198.058 62.0608 198.601 62.1617L205.713 63.4833C206.256 63.5842 206.778 63.2258 206.879 62.6828C206.98 62.1399 206.621 61.6179 206.078 61.517L198.967 60.1954ZM213.19 62.8386C212.647 62.7377 212.125 63.096 212.024 63.639C211.923 64.182 212.282 64.704 212.825 64.8049L219.936 66.1265C220.479 66.2274 221.001 65.869 221.102 65.326C221.203 64.783 220.845 64.261 220.302 64.1601L213.19 62.8386ZM227.414 65.4817C226.871 65.3808 226.349 65.7392 226.248 66.2822C226.147 66.8252 226.505 67.3472 227.048 67.4481L234.16 68.7697C234.703 68.8706 235.225 68.5122 235.326 67.9692C235.427 67.4262 235.068 66.9042 234.525 66.8033L227.414 65.4817ZM241.637 68.1249C241.094 68.024 240.572 68.3824 240.471 68.9254C240.37 69.4684 240.728 69.9903 241.271 70.0912L248.383 71.4128C248.926 71.5137 249.448 71.1554 249.549 70.6124C249.65 70.0694 249.292 69.5474 248.749 69.4465L241.637 68.1249ZM255.86 70.7681C255.317 70.6672 254.795 71.0255 254.694 71.5685C254.593 72.1115 254.952 72.6335 255.495 72.7344L262.606 74.056C263.149 74.1569 263.671 73.7985 263.772 73.2555C263.873 72.7125 263.515 72.1906 262.972 72.0897L255.86 70.7681ZM270.084 73.4112C269.541 73.3103 269.019 73.6687 268.918 74.2117C268.817 74.7547 269.175 75.2767 269.718 75.3776L276.83 76.6992C277.373 76.8001 277.895 76.4417 277.996 75.8987C278.097 75.3557 277.738 74.8337 277.195 74.7328L270.084 73.4112ZM284.307 76.0544C283.764 75.9535 283.242 76.3119 283.141 76.8549C283.04 77.3979 283.399 77.9198 283.942 78.0208L291.053 79.3423C291.596 79.4432 292.118 79.0849 292.219 78.5419C292.32 77.9989 291.962 77.4769 291.419 77.376L284.307 76.0544Z" fill="#FFE72D"/>
<defs>
<filter id="filter0_d_1832_2956" x="5.75488" y="76.8411" width="92.3633" height="47.0174" filterUnits="userSpaceOnUse" color-interpolation-filters="sRGB">
<feFlood flood-opacity="0" result="BackgroundImageFix"/>
<feColorMatrix in="SourceAlpha" type="matrix" values="0 0 0 0 0 0 0 0 0 0 0 0 0 0 0 0 0 0 127 0" result="hardAlpha"/>
<feOffset dx="-10" dy="7"/>
<feGaussianBlur stdDeviation="6"/>
<feComposite in2="hardAlpha" operator="out"/>
<feColorMatrix type="matrix" values="0 0 0 0 0 0 0 0 0 0 0 0 0 0 0 0 0 0 0.25 0"/>
<feBlend mode="normal" in2="BackgroundImageFix" result="effect1_dropShadow_1832_2956"/>
<feBlend mode="normal" in="SourceGraphic" in2="effect1_dropShadow_1832_2956" result="shape"/>
</filter>
<filter id="filter1_d_1832_2956" x="6.93066" y="20.9572" width="121.777" height="97.2148" filterUnits="userSpaceOnUse" color-interpolation-filters="sRGB">
<feFlood flood-opacity="0" result="BackgroundImageFix"/>
<feColorMatrix in="SourceAlpha" type="matrix" values="0 0 0 0 0 0 0 0 0 0 0 0 0 0 0 0 0 0 127 0" result="hardAlpha"/>
<feOffset dx="-1" dy="8"/>
<feGaussianBlur stdDeviation="9.5"/>
<feComposite in2="hardAlpha" operator="out"/>
<feColorMatrix type="matrix" values="0 0 0 0 0 0 0 0 0 0 0 0 0 0 0 0 0 0 0.25 0"/>
<feBlend mode="normal" in2="BackgroundImageFix" result="effect1_dropShadow_1832_2956"/>
<feBlend mode="normal" in="SourceGraphic" in2="effect1_dropShadow_1832_2956" result="shape"/>
</filter>
<radialGradient id="paint0_radial_1832_2956" cx="0" cy="0" r="1" gradientUnits="userSpaceOnUse" gradientTransform="translate(199 80.3496) rotate(161.689) scale(146.414 100.761)">
<stop offset="0.229167" stop-color="#4F1754"/>
<stop offset="0.942708" stop-color="#2C0C3F"/>
</radialGradient>
<linearGradient id="paint1_linear_1832_2956" x1="148" y1="33.3496" x2="157.5" y2="58.8496" gradientUnits="userSpaceOnUse">
<stop stop-color="#FFE72D"/>
<stop offset="1" stop-color="#FFE72D" stop-opacity="0"/>
</linearGradient>
<radialGradient id="paint2_radial_1832_2956" cx="0" cy="0" r="1" gradientUnits="userSpaceOnUse" gradientTransform="translate(80 113.85) rotate(108.741) scale(59.1354 59.1354)">
<stop stop-color="#BBB9B9"/>
<stop offset="1" stop-color="#686868"/>
</radialGradient>
<radialGradient id="paint3_radial_1832_2956" cx="0" cy="0" r="1" gradientUnits="userSpaceOnUse" gradientTransform="translate(276 21.7068) rotate(90) scale(25.1429 18.7242)">
<stop stop-color="#BBB9B9"/>
<stop offset="1" stop-color="#414141"/>
</radialGradient>
<linearGradient id="paint4_linear_1832_2956" x1="35.5318" y1="94.4337" x2="100.197" y2="94.7305" gradientUnits="userSpaceOnUse">
<stop offset="0.0315335" stop-color="#B08743"/>
<stop offset="0.390961" stop-color="#FFC82D" stop-opacity="0.95"/>
<stop offset="0.64796" stop-color="#FFE72D" stop-opacity="0.95"/>
<stop offset="0.904958" stop-color="#FFC82D"/>
</linearGradient>
<linearGradient id="paint5_linear_1832_2956" x1="99.0066" y1="93.3229" x2="78.9147" y2="121.449" gradientUnits="userSpaceOnUse">
<stop stop-color="#FF650B" stop-opacity="0.18"/>
<stop offset="1" stop-color="#FF650B" stop-opacity="0"/>
</linearGradient>
<linearGradient id="paint6_linear_1832_2956" x1="40.1659" y1="66.912" x2="100.538" y2="69.5657" gradientUnits="userSpaceOnUse">
<stop stop-color="#805C21"/>
<stop offset="0.310258" stop-color="#977B2D"/>
<stop offset="0.566289" stop-color="#8E8224"/>
<stop offset="0.947917" stop-color="#624D14"/>
</linearGradient>
<linearGradient id="paint7_linear_1832_2956" x1="112.9" y1="60.8897" x2="51.0646" y2="85.35" gradientUnits="userSpaceOnUse">
<stop stop-color="#FF650B" stop-opacity="0.68"/>
<stop offset="1" stop-color="#FF650B" stop-opacity="0"/>
</linearGradient>
<linearGradient id="paint8_linear_1832_2956" x1="30.6752" y1="73.9051" x2="98.1562" y2="79.9825" gradientUnits="userSpaceOnUse">
<stop offset="0.0208333" stop-color="#805C22"/>
<stop offset="0.241592" stop-color="#CF9535"/>
<stop offset="0.492831" stop-color="#E6BA3F"/>
<stop offset="0.772498" stop-color="#DEAC1E"/>
<stop offset="0.963542" stop-color="#775112"/>
</linearGradient>
</defs>
</svg>
