<svg width="22" height="22" viewBox="0 0 22 22" fill="none" xmlns="http://www.w3.org/2000/svg">
<path fill-rule="evenodd" clip-rule="evenodd" d="M15.9726 10.9895L20.954 6.01242C22.3284 4.64065 22.3284 2.4072 20.954 1.03542C19.5779 -0.345141 17.3479 -0.345141 15.9726 1.03542L10.992 6.01242L6.0114 1.03542C4.63699 -0.345141 2.40698 -0.345141 1.03081 1.03542C-0.343602 2.4072 -0.343602 4.64065 1.03081 6.01242L6.0114 10.9895L1.03081 15.9754C-0.343602 17.3472 -0.343602 19.5807 1.03081 20.9525C2.40698 22.3331 4.63699 22.3331 6.0114 20.9525L10.992 15.9754L15.9726 20.9525C17.3479 22.3331 19.5779 22.3331 20.954 20.9525C22.3284 19.5807 22.3284 17.3472 20.954 15.9754L15.9726 10.9895Z" fill="white"/>
</svg>
