<svg width="567" height="221" viewBox="0 0 567 221" fill="none" xmlns="http://www.w3.org/2000/svg">
<path d="M563.926 205.47C562.955 208.327 560.413 210.902 555.798 213.003C551.184 215.103 544.779 216.591 536.665 217.401C520.452 219.018 498.01 217.876 470.868 214.122C416.624 206.619 344.121 188.758 266.246 162.294C188.372 135.829 119.999 105.815 72.4152 78.7139C48.6053 65.1528 30.1143 52.3846 18.2447 41.2238C12.3037 35.6377 8.1318 30.5557 5.75282 26.0786C3.37338 21.6007 2.92668 18.01 3.89748 15.1533C4.86829 12.2966 7.41031 9.72156 12.0255 7.62065C16.6397 5.52013 23.0443 4.03237 31.1588 3.22273C47.3709 1.60513 69.8128 2.74733 96.9554 6.50172C151.199 14.0048 223.703 31.8655 301.577 58.3299C379.451 84.7943 447.825 114.808 495.408 141.91C519.218 155.471 537.709 168.239 549.579 179.4C555.52 184.986 559.691 190.068 562.07 194.545C564.45 199.023 564.897 202.614 563.926 205.47Z" stroke="url(#paint0_linear_1279_3502)" stroke-width="5"/>
<defs>
<linearGradient id="paint0_linear_1279_3502" x1="295.244" y1="171.224" x2="328.357" y2="71.4241" gradientUnits="userSpaceOnUse">
<stop stop-color="white"/>
<stop offset="1" stop-color="#FFE72D" stop-opacity="0"/>
</linearGradient>
</defs>
</svg>
