<svg width="76" height="66" viewBox="0 0 76 66" fill="#ffffff" xmlns="http://www.w3.org/2000/svg">
<path d="M76 55.4777L66.8168 46.2314L73.8358 39.1642L69.5075 34.8061L62.663 41.6977L51.6799 28.796L65.5495 16.8282V0H48.8362L38 12.7291L27.1639 0H10.4505V16.8282L24.3201 28.7991L13.337 41.7008L6.49251 34.8092L2.16417 39.1673L9.18318 46.2314L0 55.4777L10.4505 66L19.6336 56.7537L26.6527 63.821L30.981 59.4629L24.1334 52.5682L38 40.6035L51.8666 52.5682L45.019 59.4629L49.3474 63.821L56.3664 56.7537L65.5495 66L76 55.4777ZM8.65668 55.4777L13.5115 50.5895L15.3053 52.3956L10.4505 57.2838L8.65668 55.4777ZM16.5726 13.9927V6.16419H24.3477L33.9686 17.4662L28.3056 24.1205L16.5726 13.9927ZM51.6523 6.16419H59.4274V13.9927L19.7959 48.1978L17.6837 46.0712L51.6523 6.16419ZM47.0301 32.8089L58.3193 46.0681L56.2072 48.1947L42.7049 36.5413L47.0301 32.8089ZM65.5495 57.2838L60.6947 52.3956L62.4885 50.5895L67.3433 55.4777L65.5495 57.2838Z" fill="#ffffff"/>
</svg>
