<svg width="902" height="994" viewBox="0 0 902 994" fill="none" xmlns="http://www.w3.org/2000/svg">
<g filter="url(#filter0_d_565_2466)">
<rect x="423.374" y="53" width="479.64" height="732.748" rx="32" transform="rotate(30 423.374 53)" fill="url(#paint0_radial_565_2466)"/>
<rect x="424.655" y="57.7811" width="472.64" height="725.748" rx="28.5" transform="rotate(30 424.655 57.7811)" stroke="#FFC82D" stroke-width="7"/>
</g>
<g filter="url(#filter1_d_565_2466)">
<g filter="url(#filter2_d_565_2466)">
<ellipse cx="9.69932" cy="9.12877" rx="9.69932" ry="9.12877" transform="matrix(0.866025 0.5 0.5 -0.866025 675.823 269.797)" fill="url(#paint1_radial_565_2466)"/>
<ellipse cx="9.69932" cy="9.12877" rx="9.69932" ry="9.12877" transform="matrix(0.866025 0.5 0.5 -0.866025 675.823 269.797)" fill="url(#paint2_radial_565_2466)" fill-opacity="0.2"/>
</g>
<path d="M688.1 278.202L753.322 315.858L754.533 310.437C756.916 299.774 752.097 288.798 742.635 283.335L703.841 260.938C701.449 259.557 698.391 260.376 697.011 262.768L688.1 278.202Z" fill="url(#paint3_linear_565_2466)"/>
<path d="M688.1 278.202L753.322 315.858L754.533 310.437C756.916 299.774 752.097 288.798 742.635 283.335L703.841 260.938C701.449 259.557 698.391 260.376 697.011 262.768L688.1 278.202Z" fill="url(#paint4_radial_565_2466)" fill-opacity="0.13"/>
<path d="M688.1 278.202L753.322 315.858L754.533 310.437C756.916 299.774 752.097 288.798 742.635 283.335L703.841 260.938C701.449 259.557 698.391 260.376 697.011 262.768L688.1 278.202Z" fill="url(#paint5_diamond_565_2466)" fill-opacity="0.35"/>
<path d="M679.206 273.067L613.984 235.411L618.073 231.651C626.117 224.256 638.031 222.942 647.493 228.405L686.287 250.803C688.678 252.183 689.498 255.241 688.117 257.633L679.206 273.067Z" fill="url(#paint6_linear_565_2466)"/>
<path d="M679.206 273.067L613.984 235.411L618.073 231.651C626.117 224.256 638.031 222.942 647.493 228.405L686.287 250.803C688.678 252.183 689.498 255.241 688.117 257.633L679.206 273.067Z" fill="url(#paint7_radial_565_2466)" fill-opacity="0.13"/>
<path d="M679.206 273.067L613.984 235.411L618.073 231.651C626.117 224.256 638.031 222.942 647.493 228.405L686.287 250.803C688.678 252.183 689.498 255.241 688.117 257.633L679.206 273.067Z" fill="url(#paint8_diamond_565_2466)" fill-opacity="0.35"/>
</g>
<g filter="url(#filter3_d_565_2466)">
<g filter="url(#filter4_d_565_2466)">
<ellipse cx="197.627" cy="700.01" rx="9.69932" ry="9.12877" transform="rotate(30 197.627 700.01)" fill="url(#paint9_radial_565_2466)"/>
<ellipse cx="197.627" cy="700.01" rx="9.69932" ry="9.12877" transform="rotate(30 197.627 700.01)" fill="url(#paint10_radial_565_2466)" fill-opacity="0.2"/>
</g>
<path d="M207.209 693.684L272.431 731.34L268.342 735.1C260.298 742.495 248.385 743.809 238.922 738.346L200.128 715.949C197.737 714.568 196.917 711.51 198.298 709.118L207.209 693.684Z" fill="url(#paint11_linear_565_2466)"/>
<path d="M207.209 693.684L272.431 731.34L268.342 735.1C260.298 742.495 248.385 743.809 238.922 738.346L200.128 715.949C197.737 714.568 196.917 711.51 198.298 709.118L207.209 693.684Z" fill="url(#paint12_radial_565_2466)" fill-opacity="0.13"/>
<path d="M207.209 693.684L272.431 731.34L268.342 735.1C260.298 742.495 248.385 743.809 238.922 738.346L200.128 715.949C197.737 714.568 196.917 711.51 198.298 709.118L207.209 693.684Z" fill="url(#paint13_diamond_565_2466)" fill-opacity="0.35"/>
<path d="M198.315 688.55L133.093 650.893L131.882 656.315C129.5 666.978 134.318 677.953 143.78 683.416L182.574 705.814C184.966 707.195 188.024 706.375 189.404 703.984L198.315 688.55Z" fill="url(#paint14_linear_565_2466)"/>
<path d="M198.315 688.55L133.093 650.893L131.882 656.315C129.5 666.978 134.318 677.953 143.78 683.416L182.574 705.814C184.966 707.195 188.024 706.375 189.404 703.984L198.315 688.55Z" fill="url(#paint15_radial_565_2466)" fill-opacity="0.13"/>
<path d="M198.315 688.55L133.093 650.893L131.882 656.315C129.5 666.978 134.318 677.953 143.78 683.416L182.574 705.814C184.966 707.195 188.024 706.375 189.404 703.984L198.315 688.55Z" fill="url(#paint16_diamond_565_2466)" fill-opacity="0.35"/>
</g>
<g filter="url(#filter5_d_565_2466)">
<circle cx="16.3014" cy="16.3014" r="16.3014" transform="matrix(1 0 0 -1 234.161 667.194)" fill="url(#paint17_radial_565_2466)"/>
<circle cx="16.3014" cy="16.3014" r="16.3014" transform="matrix(1 0 0 -1 234.161 667.194)" fill="url(#paint18_diamond_565_2466)" fill-opacity="0.22"/>
</g>
<defs>
<filter id="filter0_d_565_2466" x="0.707031" y="0.70752" width="900.34" height="992.983" filterUnits="userSpaceOnUse" color-interpolation-filters="sRGB">
<feFlood flood-opacity="0" result="BackgroundImageFix"/>
<feColorMatrix in="SourceAlpha" type="matrix" values="0 0 0 0 0 0 0 0 0 0 0 0 0 0 0 0 0 0 127 0" result="hardAlpha"/>
<feOffset dx="3" dy="7"/>
<feGaussianBlur stdDeviation="35.5"/>
<feComposite in2="hardAlpha" operator="out"/>
<feColorMatrix type="matrix" values="0 0 0 0 1 0 0 0 0 0.784314 0 0 0 0 0.176471 0 0 0 0.22 0"/>
<feBlend mode="normal" in2="BackgroundImageFix" result="effect1_dropShadow_565_2466"/>
<feBlend mode="normal" in="SourceGraphic" in2="effect1_dropShadow_565_2466" result="shape"/>
</filter>
<filter id="filter1_d_565_2466" x="605.983" y="221.055" width="157.153" height="106.803" filterUnits="userSpaceOnUse" color-interpolation-filters="sRGB">
<feFlood flood-opacity="0" result="BackgroundImageFix"/>
<feColorMatrix in="SourceAlpha" type="matrix" values="0 0 0 0 0 0 0 0 0 0 0 0 0 0 0 0 0 0 127 0" result="hardAlpha"/>
<feOffset dy="4"/>
<feGaussianBlur stdDeviation="4"/>
<feComposite in2="hardAlpha" operator="out"/>
<feColorMatrix type="matrix" values="0 0 0 0 1 0 0 0 0 0.396078 0 0 0 0 0.0431373 0 0 0 0.58 0"/>
<feBlend mode="normal" in2="BackgroundImageFix" result="effect1_dropShadow_565_2466"/>
<feBlend mode="normal" in="SourceGraphic" in2="effect1_dropShadow_565_2466" result="shape"/>
</filter>
<filter id="filter2_d_565_2466" x="671.226" y="253.464" width="35.124" height="34.5521" filterUnits="userSpaceOnUse" color-interpolation-filters="sRGB">
<feFlood flood-opacity="0" result="BackgroundImageFix"/>
<feColorMatrix in="SourceAlpha" type="matrix" values="0 0 0 0 0 0 0 0 0 0 0 0 0 0 0 0 0 0 127 0" result="hardAlpha"/>
<feOffset dy="4"/>
<feGaussianBlur stdDeviation="4"/>
<feComposite in2="hardAlpha" operator="out"/>
<feColorMatrix type="matrix" values="0 0 0 0 1 0 0 0 0 1 0 0 0 0 1 0 0 0 0.25 0"/>
<feBlend mode="normal" in2="BackgroundImageFix" result="effect1_dropShadow_565_2466"/>
<feBlend mode="normal" in="SourceGraphic" in2="effect1_dropShadow_565_2466" result="shape"/>
</filter>
<filter id="filter3_d_565_2466" x="123.278" y="646.893" width="157.153" height="106.803" filterUnits="userSpaceOnUse" color-interpolation-filters="sRGB">
<feFlood flood-opacity="0" result="BackgroundImageFix"/>
<feColorMatrix in="SourceAlpha" type="matrix" values="0 0 0 0 0 0 0 0 0 0 0 0 0 0 0 0 0 0 127 0" result="hardAlpha"/>
<feOffset dy="4"/>
<feGaussianBlur stdDeviation="4"/>
<feComposite in2="hardAlpha" operator="out"/>
<feColorMatrix type="matrix" values="0 0 0 0 1 0 0 0 0 0.396078 0 0 0 0 0.0431373 0 0 0 0.58 0"/>
<feBlend mode="normal" in2="BackgroundImageFix" result="effect1_dropShadow_565_2466"/>
<feBlend mode="normal" in="SourceGraphic" in2="effect1_dropShadow_565_2466" result="shape"/>
</filter>
<filter id="filter4_d_565_2466" x="180.065" y="686.734" width="35.124" height="34.5521" filterUnits="userSpaceOnUse" color-interpolation-filters="sRGB">
<feFlood flood-opacity="0" result="BackgroundImageFix"/>
<feColorMatrix in="SourceAlpha" type="matrix" values="0 0 0 0 0 0 0 0 0 0 0 0 0 0 0 0 0 0 127 0" result="hardAlpha"/>
<feOffset dy="4"/>
<feGaussianBlur stdDeviation="4"/>
<feComposite in2="hardAlpha" operator="out"/>
<feColorMatrix type="matrix" values="0 0 0 0 1 0 0 0 0 1 0 0 0 0 1 0 0 0 0.25 0"/>
<feBlend mode="normal" in2="BackgroundImageFix" result="effect1_dropShadow_565_2466"/>
<feBlend mode="normal" in="SourceGraphic" in2="effect1_dropShadow_565_2466" result="shape"/>
</filter>
<filter id="filter5_d_565_2466" x="220.161" y="620.592" width="60.6025" height="60.6027" filterUnits="userSpaceOnUse" color-interpolation-filters="sRGB">
<feFlood flood-opacity="0" result="BackgroundImageFix"/>
<feColorMatrix in="SourceAlpha" type="matrix" values="0 0 0 0 0 0 0 0 0 0 0 0 0 0 0 0 0 0 127 0" result="hardAlpha"/>
<feOffset/>
<feGaussianBlur stdDeviation="7"/>
<feComposite in2="hardAlpha" operator="out"/>
<feColorMatrix type="matrix" values="0 0 0 0 1 0 0 0 0 0.85098 0 0 0 0 0.172549 0 0 0 0.61 0"/>
<feBlend mode="normal" in2="BackgroundImageFix" result="effect1_dropShadow_565_2466"/>
<feBlend mode="normal" in="SourceGraphic" in2="effect1_dropShadow_565_2466" result="shape"/>
</filter>
<radialGradient id="paint0_radial_565_2466" cx="0" cy="0" r="1" gradientUnits="userSpaceOnUse" gradientTransform="translate(663.194 419.374) rotate(90.9981) scale(424.997 278.193)">
<stop offset="0.588542" stop-color="#4F1754"/>
<stop offset="1" stop-color="#1E0837"/>
</radialGradient>
<radialGradient id="paint1_radial_565_2466" cx="0" cy="0" r="1" gradientUnits="userSpaceOnUse" gradientTransform="translate(9.69931 9.12877) rotate(90) scale(5.70548 6.06207)">
<stop offset="0.25" stop-color="#73FFFE"/>
<stop offset="1" stop-color="#42E8F6"/>
</radialGradient>
<radialGradient id="paint2_radial_565_2466" cx="0" cy="0" r="1" gradientUnits="userSpaceOnUse" gradientTransform="translate(9.69932 9.12877) rotate(90) scale(9.12877 9.69932)">
<stop offset="0.395833" stop-opacity="0"/>
<stop offset="1"/>
</radialGradient>
<linearGradient id="paint3_linear_565_2466" x1="720.711" y1="297.03" x2="732.122" y2="277.266" gradientUnits="userSpaceOnUse">
<stop offset="0.25" stop-color="#FF650B"/>
<stop offset="1" stop-color="#FFC82D"/>
</linearGradient>
<radialGradient id="paint4_radial_565_2466" cx="0" cy="0" r="1" gradientUnits="userSpaceOnUse" gradientTransform="translate(726.416 287.148) rotate(-60) scale(11.411 37.6562)">
<stop offset="0.567708" stop-opacity="0"/>
<stop offset="1" stop-opacity="0.64"/>
</radialGradient>
<radialGradient id="paint5_diamond_565_2466" cx="0" cy="0" r="1" gradientUnits="userSpaceOnUse" gradientTransform="translate(729.894 280.591) rotate(120.894) scale(17.1185 18.5831)">
<stop stop-color="white"/>
<stop offset="0.645833" stop-color="#FFE72D" stop-opacity="0.28"/>
</radialGradient>
<linearGradient id="paint6_linear_565_2466" x1="646.595" y1="254.239" x2="658.006" y2="234.475" gradientUnits="userSpaceOnUse">
<stop offset="0.25" stop-color="#FF650B"/>
<stop offset="1" stop-color="#FFC82D"/>
</linearGradient>
<radialGradient id="paint7_radial_565_2466" cx="0" cy="0" r="1" gradientUnits="userSpaceOnUse" gradientTransform="translate(652.3 244.357) rotate(-60) scale(11.411 37.6562)">
<stop offset="0.567708" stop-opacity="0"/>
<stop offset="1" stop-opacity="0.64"/>
</radialGradient>
<radialGradient id="paint8_diamond_565_2466" cx="0" cy="0" r="1" gradientUnits="userSpaceOnUse" gradientTransform="translate(656.24 238.067) rotate(119.106) scale(17.1185 18.5831)">
<stop stop-color="white"/>
<stop offset="0.645833" stop-color="#FFE72D" stop-opacity="0.28"/>
</radialGradient>
<radialGradient id="paint9_radial_565_2466" cx="0" cy="0" r="1" gradientUnits="userSpaceOnUse" gradientTransform="translate(197.627 700.011) rotate(90) scale(5.70548 6.06207)">
<stop offset="0.25" stop-color="#73FFFE"/>
<stop offset="1" stop-color="#42E8F6"/>
</radialGradient>
<radialGradient id="paint10_radial_565_2466" cx="0" cy="0" r="1" gradientUnits="userSpaceOnUse" gradientTransform="translate(197.627 700.011) rotate(90) scale(9.12877 9.69932)">
<stop offset="0.395833" stop-opacity="0"/>
<stop offset="1"/>
</radialGradient>
<linearGradient id="paint11_linear_565_2466" x1="239.82" y1="712.512" x2="228.409" y2="732.277" gradientUnits="userSpaceOnUse">
<stop offset="0.25" stop-color="#FF650B"/>
<stop offset="1" stop-color="#FFC82D"/>
</linearGradient>
<radialGradient id="paint12_radial_565_2466" cx="0" cy="0" r="1" gradientUnits="userSpaceOnUse" gradientTransform="translate(234.115 722.394) rotate(120) scale(11.411 37.6562)">
<stop offset="0.567708" stop-opacity="0"/>
<stop offset="1" stop-opacity="0.64"/>
</radialGradient>
<radialGradient id="paint13_diamond_565_2466" cx="0" cy="0" r="1" gradientUnits="userSpaceOnUse" gradientTransform="translate(230.175 728.684) rotate(-60.8939) scale(17.1185 18.5831)">
<stop stop-color="white"/>
<stop offset="0.645833" stop-color="#FFE72D" stop-opacity="0.28"/>
</radialGradient>
<linearGradient id="paint14_linear_565_2466" x1="165.704" y1="669.721" x2="154.293" y2="689.486" gradientUnits="userSpaceOnUse">
<stop offset="0.25" stop-color="#FF650B"/>
<stop offset="1" stop-color="#FFC82D"/>
</linearGradient>
<radialGradient id="paint15_radial_565_2466" cx="0" cy="0" r="1" gradientUnits="userSpaceOnUse" gradientTransform="translate(159.999 679.604) rotate(120) scale(11.411 37.6562)">
<stop offset="0.567708" stop-opacity="0"/>
<stop offset="1" stop-opacity="0.64"/>
</radialGradient>
<radialGradient id="paint16_diamond_565_2466" cx="0" cy="0" r="1" gradientUnits="userSpaceOnUse" gradientTransform="translate(156.521 686.161) rotate(-59.1061) scale(17.1185 18.5831)">
<stop stop-color="white"/>
<stop offset="0.645833" stop-color="#FFE72D" stop-opacity="0.28"/>
</radialGradient>
<radialGradient id="paint17_radial_565_2466" cx="0" cy="0" r="1" gradientUnits="userSpaceOnUse" gradientTransform="translate(16.3014 16.3014) rotate(98.7462) scale(17.8676 17.9229)">
<stop offset="0.515625" stop-color="#FFE72D"/>
<stop offset="0.958333" stop-color="white"/>
</radialGradient>
<radialGradient id="paint18_diamond_565_2466" cx="0" cy="0" r="1" gradientUnits="userSpaceOnUse" gradientTransform="translate(16.3014 16.3014) rotate(90) scale(37.0502)">
<stop stop-color="#FF9B1E"/>
<stop offset="1" stop-color="#FEEB77"/>
</radialGradient>
</defs>
</svg>
