<svg width="30" height="31" viewBox="0 0 30 31" fill="none" xmlns="http://www.w3.org/2000/svg">
<path fill-rule="evenodd" clip-rule="evenodd" d="M15 0.5C23.2845 0.5 30 7.38489 30 15.8794C30 22.6729 25.707 28.4359 19.7505 30.4714C18.99 30.6229 18.72 30.1427 18.72 29.7332C18.72 29.2262 18.738 27.5702 18.738 25.5122C18.738 24.0782 18.258 23.1423 17.7195 22.6653C21.06 22.2843 24.57 20.9837 24.57 15.0767C24.57 13.3967 23.988 12.0257 23.025 10.9487C23.181 10.5602 23.6955 8.99593 22.878 6.87793C22.878 6.87793 21.621 6.46583 18.7575 8.45483C17.559 8.11433 16.275 7.94301 15 7.93701C13.725 7.94301 12.4425 8.11433 11.2455 8.45483C8.379 6.46583 7.119 6.87793 7.119 6.87793C6.3045 8.99593 6.819 10.5602 6.9735 10.9487C6.015 12.0257 5.4285 13.3967 5.4285 15.0767C5.4285 20.9687 8.931 22.2892 12.2625 22.6777C11.8335 23.0617 11.445 23.7391 11.31 24.7336C10.455 25.1266 8.283 25.8068 6.945 23.4563C6.945 23.4563 6.1515 21.9786 4.6455 21.8706C4.6455 21.8706 3.183 21.8512 4.5435 22.8052C4.5435 22.8052 5.526 23.2777 6.2085 25.0552C6.2085 25.0552 7.089 27.8001 11.262 26.8701C11.2695 28.1556 11.283 29.3672 11.283 29.7332C11.283 30.1397 11.007 30.6154 10.2585 30.4729C4.2975 28.4404 0 22.6744 0 15.8794C0 7.38489 6.717 0.5 15 0.5Z" fill="#E6E6E6"/>
</svg>
