<svg width="113" height="106" viewBox="0 0 113 106" fill="none" xmlns="http://www.w3.org/2000/svg">
<g filter="url(#filter0_d_1103_3378)">
<path d="M54.5 19.4434C56.047 18.5502 57.953 18.5502 59.5 19.4434L82.2128 32.5566C83.7598 33.4498 84.7128 35.1004 84.7128 36.8868V63.1132C84.7128 64.8996 83.7598 66.5502 82.2128 67.4434L59.5 80.5566C57.953 81.4498 56.047 81.4498 54.5 80.5566L31.7872 67.4434C30.2402 66.5502 29.2872 64.8996 29.2872 63.1132V36.8868C29.2872 35.1004 30.2402 33.4498 31.7872 32.5566L54.5 19.4434Z" fill="#FFE72D"/>
<path d="M59.25 15.8764L85.4269 30.9896C86.8192 31.7935 87.6769 33.2791 87.6769 34.8868V65.1133C87.6769 66.7209 86.8192 68.2065 85.4269 69.0104L59.25 84.1236C57.8577 84.9275 56.1423 84.9275 54.75 84.1236L28.5731 69.0104C27.1808 68.2065 26.3231 66.7209 26.3231 65.1133V34.8867C26.3231 33.2791 27.1808 31.7935 28.5731 30.9896L54.75 15.8764C56.1423 15.0725 57.8577 15.0725 59.25 15.8764Z" stroke="#FFE72D"/>
<path d="M82.055 70.5003C87.6319 69.5017 89.8368 70.1372 90.9651 71.1877C93.0013 73.0164 93.2218 74.9489 94 76.0902C92.8846 76.4015 91.7433 77.9578 88.2804 77.9578C87.3692 77.9117 86.4774 77.6776 85.661 77.2703C84.8447 76.8629 84.1214 76.291 83.5367 75.5906C82.952 74.8902 82.5186 74.0764 82.2636 73.2004C82.0086 72.3244 81.9376 71.4051 82.055 70.5003Z" fill="#FFE72D"/>
<path d="M31.1823 70.5003C25.6054 69.5017 23.4005 70.1372 22.2722 71.1877C20.236 73.0164 20.0155 74.9489 19.2373 76.0902C20.3527 76.4015 21.494 77.9578 24.9569 77.9578C25.8681 77.9117 26.7599 77.6776 27.5763 77.2703C28.3926 76.8629 29.1159 76.291 29.7006 75.5906C30.2853 74.8902 30.7187 74.0764 30.9737 73.2004C31.2287 72.3244 31.2997 71.4051 31.1823 70.5003Z" fill="#FFE72D"/>
<path d="M74.055 75.5003C79.6319 74.5017 81.8368 75.1372 82.9651 76.1877C85.0013 78.0164 85.2218 79.9489 86 81.0902C84.8846 81.4015 83.7433 82.9578 80.2804 82.9578C79.3692 82.9117 78.4774 82.6776 77.661 82.2703C76.8447 81.8629 76.1214 81.291 75.5367 80.5906C74.952 79.8902 74.5186 79.0764 74.2636 78.2004C74.0086 77.3244 73.9376 76.4051 74.055 75.5003Z" fill="#FFE72D"/>
<path d="M39.1823 75.5003C33.6054 74.5017 31.4005 75.1372 30.2722 76.1877C28.236 78.0164 28.0155 79.9489 27.2373 81.0902C28.3527 81.4015 29.494 82.9578 32.9569 82.9578C33.8681 82.9117 34.7599 82.6776 35.5763 82.2703C36.3926 81.8629 37.1159 81.291 37.7006 80.5906C38.2853 79.8902 38.7187 79.0764 38.9737 78.2004C39.2287 77.3244 39.2997 76.4051 39.1823 75.5003Z" fill="#FFE72D"/>
<path d="M65.055 80.5003C70.6319 79.5017 72.8368 80.1372 73.9651 81.1877C76.0013 83.0164 76.2218 84.9489 77 86.0902C75.8846 86.4015 74.7433 87.9578 71.2804 87.9578C70.3692 87.9117 69.4774 87.6776 68.661 87.2703C67.8447 86.8629 67.1214 86.291 66.5367 85.5906C65.952 84.8902 65.5186 84.0764 65.2636 83.2004C65.0086 82.3244 64.9376 81.4051 65.055 80.5003Z" fill="#FFE72D"/>
<path d="M48.1823 80.5003C42.6054 79.5017 40.4005 80.1372 39.2722 81.1877C37.236 83.0164 37.0155 84.9489 36.2373 86.0902C37.3527 86.4015 38.494 87.9578 41.9569 87.9578C42.8681 87.9117 43.7599 87.6776 44.5763 87.2703C45.3926 86.8629 46.1159 86.291 46.7006 85.5906C47.2853 84.8902 47.7187 84.0764 47.9737 83.2004C48.2287 82.3244 48.2997 81.4051 48.1823 80.5003Z" fill="#FFE72D"/>
<path d="M87.1999 45.8104C87.7508 40.8207 89.7288 39.102 91.0814 38.5229C93.4589 37.4963 95.1622 38.0989 96.4684 37.8639C96.3381 38.8619 97.1927 40.5169 95.8213 43.4859C95.4448 44.2411 94.9126 44.9079 94.2596 45.4423C93.6067 45.9767 92.8478 46.3666 92.0331 46.5862C91.2185 46.8059 90.3665 46.8503 89.5333 46.7166C88.7002 46.5828 87.905 46.274 87.1999 45.8104Z" fill="#FFE72D"/>
<path d="M26.0374 45.8104C25.4865 40.8207 23.5086 39.102 22.1559 38.5229C19.7784 37.4963 18.0751 38.0989 16.7689 37.8639C16.8992 38.8619 16.0446 40.5169 17.416 43.4859C17.7925 44.2411 18.3247 44.9079 18.9777 45.4423C19.6306 45.9767 20.3895 46.3666 21.2042 46.5862C22.0189 46.8059 22.8708 46.8503 23.704 46.7166C24.5371 46.5828 25.3323 46.274 26.0374 45.8104Z" fill="#FFE72D"/>
<path d="M87.1999 55.8104C87.7508 50.8207 89.7288 49.102 91.0814 48.5229C93.4589 47.4963 95.1622 48.0989 96.4684 47.8639C96.3381 48.8619 97.1927 50.5169 95.8213 53.4859C95.4448 54.2411 94.9126 54.9079 94.2596 55.4423C93.6067 55.9767 92.8478 56.3666 92.0331 56.5862C91.2185 56.8059 90.3665 56.8503 89.5333 56.7166C88.7002 56.5828 87.905 56.274 87.1999 55.8104Z" fill="#FFE72D"/>
<path d="M26.0374 55.8104C25.4865 50.8207 23.5086 49.102 22.1559 48.5229C19.7784 47.4963 18.0751 48.0989 16.7689 47.8639C16.8992 48.8619 16.0446 50.5169 17.416 53.4859C17.7925 54.2411 18.3247 54.9079 18.9777 55.4423C19.6306 55.9767 20.3895 56.3666 21.2042 56.5862C22.0189 56.8059 22.8708 56.8503 23.704 56.7166C24.5371 56.5828 25.3323 56.274 26.0374 55.8104Z" fill="#FFE72D"/>
<path d="M87.1999 65.8104C87.7508 60.8207 89.7288 59.102 91.0814 58.5229C93.4589 57.4963 95.1622 58.0989 96.4684 57.8639C96.3381 58.8619 97.1927 60.5169 95.8213 63.4859C95.4448 64.2411 94.9126 64.9079 94.2596 65.4423C93.6067 65.9767 92.8478 66.3666 92.0331 66.5862C91.2185 66.8059 90.3665 66.8503 89.5333 66.7166C88.7002 66.5828 87.905 66.274 87.1999 65.8104Z" fill="#FFE72D"/>
<path d="M26.0374 65.8104C25.4865 60.8207 23.5086 59.102 22.1559 58.5229C19.7784 57.4963 18.0751 58.0989 16.7689 57.8639C16.8992 58.8619 16.0446 60.5169 17.416 63.4859C17.7925 64.2411 18.3247 64.9079 18.9777 65.4423C19.6306 65.9767 20.3895 66.3666 21.2042 66.5862C22.0189 66.8059 22.8708 66.8503 23.704 66.7166C24.5371 66.5828 25.3323 66.274 26.0374 65.8104Z" fill="#FFE72D"/>
<path d="M55.208 52.38L55.352 50.832H59.516L59.648 52.38H55.208ZM57.404 48.684L56.228 51.396L56.324 51.84L55.28 54H52.988L57.404 45.072L61.832 54H59.528L58.52 51.924L58.592 51.408L57.404 48.684Z" fill="black"/>
<path d="M59.25 15.8764L85.4269 30.9896C86.8192 31.7935 87.6769 33.2791 87.6769 34.8868V65.1133C87.6769 66.7209 86.8192 68.2065 85.4269 69.0104L59.25 84.1236C57.8577 84.9275 56.1423 84.9275 54.75 84.1236L28.5731 69.0104C27.1808 68.2065 26.3231 66.7209 26.3231 65.1133V34.8867C26.3231 33.2791 27.1808 31.7935 28.5731 30.9896L54.75 15.8764C56.1423 15.0725 57.8577 15.0725 59.25 15.8764Z" fill="#250A3B" stroke="#FFE72D"/>
<path d="M54.5 19.4434C56.047 18.5502 57.953 18.5502 59.5 19.4434L82.2128 32.5566C83.7598 33.4498 84.7128 35.1004 84.7128 36.8868V63.1132C84.7128 64.8996 83.7598 66.5502 82.2128 67.4434L59.5 80.5566C57.953 81.4498 56.047 81.4498 54.5 80.5566L31.7872 67.4434C30.2402 66.5502 29.2872 64.8996 29.2872 63.1132V36.8868C29.2872 35.1004 30.2402 33.4498 31.7872 32.5566L54.5 19.4434Z" fill="url(#paint0_radial_1103_3378)"/>
<path d="M82.055 70.5003C87.6319 69.5017 89.8368 70.1372 90.9651 71.1877C93.0013 73.0164 93.2218 74.9489 94 76.0902C92.8846 76.4015 91.7433 77.9578 88.2804 77.9578C87.3692 77.9117 86.4774 77.6776 85.661 77.2703C84.8447 76.8629 84.1214 76.291 83.5367 75.5906C82.952 74.8902 82.5186 74.0764 82.2636 73.2004C82.0086 72.3244 81.9376 71.4051 82.055 70.5003Z" fill="#FFE72D"/>
<path d="M31.1823 70.5003C25.6054 69.5017 23.4005 70.1372 22.2722 71.1877C20.236 73.0164 20.0155 74.9489 19.2373 76.0902C20.3527 76.4015 21.494 77.9578 24.9569 77.9578C25.8681 77.9117 26.7599 77.6776 27.5763 77.2703C28.3926 76.8629 29.1159 76.291 29.7006 75.5906C30.2853 74.8902 30.7187 74.0764 30.9737 73.2004C31.2287 72.3244 31.2997 71.4051 31.1823 70.5003Z" fill="#FFE72D"/>
<path d="M74.055 75.5003C79.6319 74.5017 81.8368 75.1372 82.9651 76.1877C85.0013 78.0164 85.2218 79.9489 86 81.0902C84.8846 81.4015 83.7433 82.9578 80.2804 82.9578C79.3692 82.9117 78.4774 82.6776 77.661 82.2703C76.8447 81.8629 76.1214 81.291 75.5367 80.5906C74.952 79.8902 74.5186 79.0764 74.2636 78.2004C74.0086 77.3244 73.9376 76.4051 74.055 75.5003Z" fill="#FFE72D"/>
<path d="M39.1823 75.5003C33.6054 74.5017 31.4005 75.1372 30.2722 76.1877C28.236 78.0164 28.0155 79.9489 27.2373 81.0902C28.3527 81.4015 29.494 82.9578 32.9569 82.9578C33.8681 82.9117 34.7599 82.6776 35.5763 82.2703C36.3926 81.8629 37.1159 81.291 37.7006 80.5906C38.2853 79.8902 38.7187 79.0764 38.9737 78.2004C39.2287 77.3244 39.2997 76.4051 39.1823 75.5003Z" fill="#FFE72D"/>
<path d="M65.055 80.5003C70.6319 79.5017 72.8368 80.1372 73.9651 81.1877C76.0013 83.0164 76.2218 84.9489 77 86.0902C75.8846 86.4015 74.7433 87.9578 71.2804 87.9578C70.3692 87.9117 69.4774 87.6776 68.661 87.2703C67.8447 86.8629 67.1214 86.291 66.5367 85.5906C65.952 84.8902 65.5186 84.0764 65.2636 83.2004C65.0086 82.3244 64.9376 81.4051 65.055 80.5003Z" fill="#FFE72D"/>
<path d="M48.1823 80.5003C42.6054 79.5017 40.4005 80.1372 39.2722 81.1877C37.236 83.0164 37.0155 84.9489 36.2373 86.0902C37.3527 86.4015 38.494 87.9578 41.9569 87.9578C42.8681 87.9117 43.7599 87.6776 44.5763 87.2703C45.3926 86.8629 46.1159 86.291 46.7006 85.5906C47.2853 84.8902 47.7187 84.0764 47.9737 83.2004C48.2287 82.3244 48.2997 81.4051 48.1823 80.5003Z" fill="#FFE72D"/>
<path d="M87.1999 45.8104C87.7508 40.8207 89.7288 39.102 91.0814 38.5229C93.4589 37.4963 95.1622 38.0989 96.4684 37.8639C96.3381 38.8619 97.1927 40.5169 95.8213 43.4859C95.4448 44.2411 94.9126 44.9079 94.2596 45.4423C93.6067 45.9767 92.8478 46.3666 92.0331 46.5862C91.2185 46.8059 90.3665 46.8503 89.5333 46.7166C88.7002 46.5828 87.905 46.274 87.1999 45.8104Z" fill="#FFE72D"/>
<path d="M26.0374 45.8104C25.4865 40.8207 23.5086 39.102 22.1559 38.5229C19.7784 37.4963 18.0751 38.0989 16.7689 37.8639C16.8992 38.8619 16.0446 40.5169 17.416 43.4859C17.7925 44.2411 18.3247 44.9079 18.9777 45.4423C19.6306 45.9767 20.3895 46.3666 21.2042 46.5862C22.0189 46.8059 22.8708 46.8503 23.704 46.7166C24.5371 46.5828 25.3323 46.274 26.0374 45.8104Z" fill="#FFE72D"/>
<path d="M87.1999 55.8104C87.7508 50.8207 89.7288 49.102 91.0814 48.5229C93.4589 47.4963 95.1622 48.0989 96.4684 47.8639C96.3381 48.8619 97.1927 50.5169 95.8213 53.4859C95.4448 54.2411 94.9126 54.9079 94.2596 55.4423C93.6067 55.9767 92.8478 56.3666 92.0331 56.5862C91.2185 56.8059 90.3665 56.8503 89.5333 56.7166C88.7002 56.5828 87.905 56.274 87.1999 55.8104Z" fill="#FFE72D"/>
<path d="M26.0374 55.8104C25.4865 50.8207 23.5086 49.102 22.1559 48.5229C19.7784 47.4963 18.0751 48.0989 16.7689 47.8639C16.8992 48.8619 16.0446 50.5169 17.416 53.4859C17.7925 54.2411 18.3247 54.9079 18.9777 55.4423C19.6306 55.9767 20.3895 56.3666 21.2042 56.5862C22.0189 56.8059 22.8708 56.8503 23.704 56.7166C24.5371 56.5828 25.3323 56.274 26.0374 55.8104Z" fill="#FFE72D"/>
<path d="M87.1999 65.8104C87.7508 60.8207 89.7288 59.102 91.0814 58.5229C93.4589 57.4963 95.1622 58.0989 96.4684 57.8639C96.3381 58.8619 97.1927 60.5169 95.8213 63.4859C95.4448 64.2411 94.9126 64.9079 94.2596 65.4423C93.6067 65.9767 92.8478 66.3666 92.0331 66.5862C91.2185 66.8059 90.3665 66.8503 89.5333 66.7166C88.7002 66.5828 87.905 66.274 87.1999 65.8104Z" fill="#FFE72D"/>
<path d="M26.0374 65.8104C25.4865 60.8207 23.5086 59.102 22.1559 58.5229C19.7784 57.4963 18.0751 58.0989 16.7689 57.8639C16.8992 58.8619 16.0446 60.5169 17.416 63.4859C17.7925 64.2411 18.3247 64.9079 18.9777 65.4423C19.6306 65.9767 20.3895 66.3666 21.2042 66.5862C22.0189 66.8059 22.8708 66.8503 23.704 66.7166C24.5371 66.5828 25.3323 66.274 26.0374 65.8104Z" fill="#FFE72D"/>
</g>
<defs>
<filter id="filter0_d_1103_3378" x="0.624023" y="0.77356" width="111.989" height="105.184" filterUnits="userSpaceOnUse" color-interpolation-filters="sRGB">
<feFlood flood-opacity="0" result="BackgroundImageFix"/>
<feColorMatrix in="SourceAlpha" type="matrix" values="0 0 0 0 0 0 0 0 0 0 0 0 0 0 0 0 0 0 127 0" result="hardAlpha"/>
<feOffset dy="2"/>
<feGaussianBlur stdDeviation="8"/>
<feComposite in2="hardAlpha" operator="out"/>
<feColorMatrix type="matrix" values="0 0 0 0 1 0 0 0 0 0.843137 0 0 0 0 0 0 0 0 1 0"/>
<feBlend mode="normal" in2="BackgroundImageFix" result="effect1_dropShadow_1103_3378"/>
<feBlend mode="normal" in="SourceGraphic" in2="effect1_dropShadow_1103_3378" result="shape"/>
</filter>
<radialGradient id="paint0_radial_1103_3378" cx="0" cy="0" r="1" gradientUnits="userSpaceOnUse" gradientTransform="translate(57 50) rotate(90) scale(38.6222 48.8424)">
<stop offset="0.229167" stop-color="#4F1754"/>
<stop offset="0.942708" stop-color="#2C0C3F"/>
</radialGradient>
</defs>
</svg>
