<svg width="24" height="32" viewBox="0 0 24 32" fill="none" xmlns="http://www.w3.org/2000/svg">
<path d="M9.85386 11.7232L9.16996 9.5471L11 8.18796L8.72329 8.16762L7.99977 6L7.27671 8.16573L5 8.18607L6.83004 9.54521L6.14614 11.7213L8.00024 10.3967L9.85386 11.7232Z" fill="#FFD700"/>
<path d="M17.8539 11.7232L17.17 9.5471L19 8.18796L16.7233 8.16762L15.9998 6L15.2767 8.16573L13 8.18607L14.83 9.54521L14.1461 11.7213L16.0002 10.3967L17.8539 11.7232Z" fill="#FFD700"/>
<path d="M13.8539 7.72324L13.17 5.5471L15 4.18796L12.7233 4.16762L11.9998 2L11.2767 4.16573L9 4.18607L10.83 5.54521L10.1461 7.72135L12.0002 6.39674L13.8539 7.72324Z" fill="#FFD700"/>
<path d="M11.927 31.5L0 25.3465V0H12H24V25.3465L11.927 31.5ZM1.16859 24.633L11.927 30.1814L22.8314 24.6315V1.17209H1.16859V24.633ZM11.8634 19.8157L19.0408 16.161V12.5055L11.8729 16.1551L4.95922 12.5883V16.2511L11.8634 19.8157ZM11.8729 22.2082L4.95922 18.6414V22.3042L11.8642 25.8659L19.0415 22.2112V18.5557L11.8729 22.2082Z" fill="#FFD700"/>
</svg>
