<svg width="397" height="80" viewBox="0 0 397 80" fill="none" xmlns="http://www.w3.org/2000/svg">
<path d="M397 44H314V80H397L382 62L397 44Z" fill="#302F2F"/>
<path d="M0 38H83V80H0L15 59L0 38Z" fill="#302F2F"/>
<rect x="58" width="281" height="56" fill="white"/>
<path d="M58 56H83V80L69.5 67L58 56Z" fill="#6A6A6A"/>
<path d="M339 56H314V80L327.5 67L339 56Z" fill="#6A6A6A"/>
<path d="M100.23 14.25C100.96 14.25 101.585 14.4974 102.105 14.9922C102.626 15.4609 102.9 16.0599 102.926 16.7891V26.2031C102.9 27.2708 102.965 28.2604 103.121 29.1719C103.303 30.0573 103.72 30.8516 104.371 31.5547C105.022 32.2578 105.842 32.6354 106.832 32.6875H119.332C120.061 32.7135 120.66 32.987 121.129 33.5078C121.624 34.0286 121.871 34.6536 121.871 35.3828C121.845 36.0859 121.585 36.6849 121.09 37.1797C120.621 37.6484 120.035 37.8958 119.332 37.9219H105.504C103.681 37.8177 102.171 37.2057 100.973 36.0859C99.8008 34.9401 98.9544 33.5469 98.4336 31.9062C97.9388 30.2656 97.6784 28.5208 97.6523 26.6719V16.7891C97.6784 16.0859 97.9388 15.5 98.4336 15.0312C98.9284 14.5365 99.5273 14.276 100.23 14.25ZM133.59 37.9219C131.298 37.8438 129.566 37.3099 128.395 36.3203C127.223 35.3047 126.376 34.1719 125.855 32.9219C125.335 31.6458 125.074 30.3568 125.074 29.0547C125.074 27.7005 125.322 26.3984 125.816 25.1484C126.337 23.8724 127.184 22.7396 128.355 21.75C129.553 20.7344 131.064 20.2135 132.887 20.1875H147.73C148.46 20.1875 149.072 20.4349 149.566 20.9297C150.087 21.3984 150.348 21.9714 150.348 22.6484C150.348 23.3516 150.087 23.9505 149.566 24.4453C149.072 24.9141 148.46 25.1484 147.73 25.1484H133.121C132.548 25.1484 132.04 25.3438 131.598 25.7344C131.181 26.125 130.868 26.6328 130.66 27.2578C130.478 27.8828 130.387 28.4948 130.387 29.0938C130.387 29.7448 130.478 30.3828 130.66 31.0078C130.868 31.6328 131.181 32.1406 131.598 32.5312C132.04 32.8958 132.548 33.0911 133.121 33.1172H147.73C148.46 33.1172 149.072 33.3516 149.566 33.8203C150.087 34.2891 150.348 34.849 150.348 35.5C150.348 36.1771 150.087 36.75 149.566 37.2188C149.072 37.6875 148.46 37.9219 147.73 37.9219H133.59ZM149.879 28.9766C149.879 29.4714 149.658 29.901 149.215 30.2656C148.824 30.6042 148.329 30.7734 147.73 30.7734H134.957C134.358 30.7734 133.85 30.6042 133.434 30.2656C133.017 29.901 132.809 29.4714 132.809 28.9766C132.809 28.5078 133.017 28.0911 133.434 27.7266C133.85 27.388 134.358 27.2188 134.957 27.2188H147.73C148.329 27.2188 148.837 27.401 149.254 27.7656C149.671 28.1042 149.879 28.5078 149.879 28.9766ZM161.012 35.8516C159.684 34.0547 158.355 31.6979 157.027 28.7812L154.488 23.3125C154.358 23.026 154.28 22.7135 154.254 22.375C154.202 21.6458 154.423 21.0208 154.918 20.5C155.413 19.9792 156.064 19.7188 156.871 19.7188C157.757 19.7188 158.408 19.901 158.824 20.2656C159.267 20.6042 159.618 21.0469 159.879 21.5938L161.715 26.125C162.184 27.1927 162.639 28.2083 163.082 29.1719C163.551 30.1094 164.072 30.9688 164.645 31.75C165.243 32.5312 165.908 32.9479 166.637 33C167.34 32.9479 168.004 32.5312 168.629 31.75C169.176 30.9688 169.671 30.1094 170.113 29.1719C170.582 28.2083 171.051 27.1927 171.52 26.125L173.355 21.5938C173.616 21.0469 173.954 20.6042 174.371 20.2656C174.814 19.901 175.478 19.7188 176.363 19.7188C177.171 19.7188 177.822 19.9792 178.316 20.5C178.811 21.0208 179.033 21.6458 178.98 22.375C178.954 22.7135 178.876 23.026 178.746 23.3125L176.207 28.7812C174.879 31.6979 173.551 34.0547 172.223 35.8516C170.947 37.6224 169.085 38.5208 166.637 38.5469C164.163 38.5208 162.288 37.6224 161.012 35.8516ZM191.324 37.9219C189.033 37.8438 187.301 37.3099 186.129 36.3203C184.957 35.3047 184.111 34.1719 183.59 32.9219C183.069 31.6458 182.809 30.3568 182.809 29.0547C182.809 27.7005 183.056 26.3984 183.551 25.1484C184.072 23.8724 184.918 22.7396 186.09 21.75C187.288 20.7344 188.798 20.2135 190.621 20.1875H205.465C206.194 20.1875 206.806 20.4349 207.301 20.9297C207.822 21.3984 208.082 21.9714 208.082 22.6484C208.082 23.3516 207.822 23.9505 207.301 24.4453C206.806 24.9141 206.194 25.1484 205.465 25.1484H190.855C190.283 25.1484 189.775 25.3438 189.332 25.7344C188.915 26.125 188.603 26.6328 188.395 27.2578C188.212 27.8828 188.121 28.4948 188.121 29.0938C188.121 29.7448 188.212 30.3828 188.395 31.0078C188.603 31.6328 188.915 32.1406 189.332 32.5312C189.775 32.8958 190.283 33.0911 190.855 33.1172H205.465C206.194 33.1172 206.806 33.3516 207.301 33.8203C207.822 34.2891 208.082 34.849 208.082 35.5C208.082 36.1771 207.822 36.75 207.301 37.2188C206.806 37.6875 206.194 37.9219 205.465 37.9219H191.324ZM207.613 28.9766C207.613 29.4714 207.392 29.901 206.949 30.2656C206.559 30.6042 206.064 30.7734 205.465 30.7734H192.691C192.092 30.7734 191.585 30.6042 191.168 30.2656C190.751 29.901 190.543 29.4714 190.543 28.9766C190.543 28.5078 190.751 28.0911 191.168 27.7266C191.585 27.388 192.092 27.2188 192.691 27.2188H205.465C206.064 27.2188 206.572 27.401 206.988 27.7656C207.405 28.1042 207.613 28.5078 207.613 28.9766ZM215.27 14.25C215.973 14.276 216.572 14.5365 217.066 15.0312C217.561 15.5 217.822 16.0859 217.848 16.7891V35.9297C217.691 37.4922 216.832 38.3385 215.27 38.4688C214.54 38.4688 213.902 38.2344 213.355 37.7656C212.835 37.2708 212.574 36.6589 212.574 35.9297V16.7891C212.6 16.0599 212.874 15.4609 213.395 14.9922C213.915 14.4974 214.54 14.25 215.27 14.25ZM255.27 38.8203C253.915 38.8203 252.574 38.6641 251.246 38.3516C249.944 38.0391 248.694 37.5833 247.496 36.9844C246.298 36.3594 245.243 35.5391 244.332 34.5234C243.421 33.5078 242.926 32.2969 242.848 30.8906V29.25V16.7891C242.848 16.0599 243.108 15.4609 243.629 14.9922C244.176 14.4974 244.814 14.25 245.543 14.25C247.105 14.3802 247.952 15.2266 248.082 16.7891V29.6797C248.134 30.487 248.434 31.1641 248.98 31.7109C249.553 32.2318 250.178 32.6484 250.855 32.9609C251.559 33.2734 252.275 33.5078 253.004 33.6641C253.759 33.8203 254.514 33.8984 255.27 33.8984C256.025 33.8984 256.767 33.8203 257.496 33.6641C258.251 33.5078 258.967 33.2734 259.645 32.9609C260.348 32.6484 260.973 32.2318 261.52 31.7109C262.092 31.1641 262.405 30.487 262.457 29.6797V16.7891C262.457 16.0599 262.717 15.4609 263.238 14.9922C263.785 14.4974 264.423 14.25 265.152 14.25C266.715 14.3802 267.574 15.2266 267.73 16.7891V29.25V30.8906C267.652 32.2969 267.145 33.5078 266.207 34.5234C265.296 35.5391 264.241 36.3594 263.043 36.9844C261.845 37.5833 260.582 38.0391 259.254 38.3516C257.952 38.6641 256.624 38.8203 255.27 38.8203ZM278.199 41.3203C278.043 42.8828 277.184 43.7292 275.621 43.8594C274.892 43.8594 274.254 43.612 273.707 43.1172C273.186 42.6484 272.926 42.0495 272.926 41.3203V22.7266C272.952 21.9974 273.225 21.3984 273.746 20.9297C274.267 20.4349 274.892 20.1875 275.621 20.1875H292.027C294.319 20.2656 296.051 20.8125 297.223 21.8281C298.395 22.8177 299.241 23.9505 299.762 25.2266C300.283 26.4766 300.543 27.7526 300.543 29.0547C300.543 30.4089 300.283 31.724 299.762 33C299.267 34.25 298.421 35.3828 297.223 36.3984C296.051 37.388 294.553 37.8958 292.73 37.9219H282.887C282.158 37.9219 281.546 37.6615 281.051 37.1406C280.53 36.6458 280.27 36.0339 280.27 35.3047C280.27 34.5755 280.517 33.9635 281.012 33.4688C281.533 32.9479 282.158 32.6875 282.887 32.6875H292.887C293.382 32.6875 293.811 32.4922 294.176 32.1016C294.54 31.6849 294.801 31.2161 294.957 30.6953C295.139 30.1484 295.23 29.6146 295.23 29.0938C295.23 28.5469 295.139 28.013 294.957 27.4922C294.801 26.9453 294.54 26.4766 294.176 26.0859C293.811 25.6693 293.382 25.4479 292.887 25.4219H279.215C278.538 25.4479 278.199 25.7865 278.199 26.4375V41.3203Z" fill="#070707"/>
</svg>
