<svg width="336" height="223" viewBox="0 0 336 223" fill="none" xmlns="http://www.w3.org/2000/svg">
<path d="M109.885 40.696C115.675 55.8263 132.634 63.3981 147.765 57.608C162.895 51.8179 170.467 34.8585 164.677 19.7282C158.886 4.59793 141.927 -2.97383 126.797 2.81627C111.667 8.60637 104.095 25.5657 109.885 40.696ZM-316.082 357.558L-290.123 303.425L-300.041 298.669L-326 352.801L-316.082 357.558ZM-37.6559 87.9956L138.849 35.4838L135.712 24.9405L-40.7926 77.4524L-37.6559 87.9956ZM-290.123 303.425C-240.143 199.203 -148.444 120.956 -37.6559 87.9956L-40.7926 77.4524C-154.557 111.298 -248.719 191.647 -300.041 298.669L-290.123 303.425Z" fill="#467483"/>
<path d="M182.885 58.696C188.675 73.8263 205.634 81.3981 220.765 75.608C235.895 69.8179 243.467 52.8585 237.677 37.7282C231.886 22.5979 214.927 15.0262 199.797 20.8163C184.667 26.6064 177.095 43.5657 182.885 58.696ZM-243.082 375.558L-217.123 321.425L-227.041 316.669L-253 370.801L-243.082 375.558ZM35.3441 105.996L211.849 53.4838L208.712 42.9405L32.2074 95.4524L35.3441 105.996ZM-217.123 321.425C-167.143 217.203 -75.444 138.956 35.3441 105.996L32.2074 95.4524C-81.5568 129.298 -175.719 209.647 -227.041 316.669L-217.123 321.425Z" fill="#467483"/>
<path d="M252.904 85.6022C259.747 103.483 279.79 112.432 297.671 105.589C315.552 98.7462 324.501 78.7033 317.658 60.8221C310.815 42.9408 290.772 33.9924 272.891 40.8352C255.009 47.678 246.061 67.7209 252.904 85.6022ZM-167.18 400.99L-141.221 346.858L-152.943 341.237L-178.902 395.369L-167.18 400.99ZM110.629 131.954L287.134 79.4423L283.427 66.982L106.922 119.494L110.629 131.954ZM-141.221 346.858C-91.363 242.889 0.111659 164.834 110.629 131.954L106.922 119.494C-7.11247 153.42 -101.498 233.96 -152.943 341.237L-141.221 346.858Z" fill="#467483"/>
<path d="M267.847 79.8837C271.532 89.5121 282.324 94.3304 291.952 90.6458C301.581 86.9612 306.399 76.1689 302.714 66.5405C299.03 56.9122 288.238 52.0938 278.609 55.7784C268.981 59.463 264.162 70.2553 267.847 79.8837ZM-169.885 399.693L-143.926 345.561L-150.238 342.534L-176.197 396.666L-169.885 399.693ZM109.774 129.079L286.279 76.5668L284.283 69.8574L107.778 122.369L109.774 129.079ZM-143.926 345.561C-93.7019 240.829 -1.55545 162.2 109.774 129.079L107.778 122.369C-5.44536 156.054 -99.1593 236.02 -150.238 342.534L-143.926 345.561Z" fill="#0F2325"/>
<path d="M192.847 54.8837C196.532 64.5121 207.324 69.3304 216.952 65.6458C226.581 61.9612 231.399 51.1689 227.714 41.5405C224.03 31.9122 213.238 27.0938 203.609 30.7784C193.981 34.463 189.162 45.2553 192.847 54.8837ZM-244.885 374.693L-218.926 320.561L-225.238 317.534L-251.197 371.666L-244.885 374.693ZM34.7738 104.079L211.279 51.5668L209.283 44.8574L32.7777 97.3693L34.7738 104.079ZM-218.926 320.561C-168.702 215.829 -76.5555 137.2 34.7738 104.079L32.7777 97.3693C-80.4454 131.054 -174.159 211.02 -225.238 317.534L-218.926 320.561Z" fill="#0F2325"/>
<path d="M119.847 36.8837C123.532 46.5121 134.324 51.3304 143.952 47.6458C153.581 43.9612 158.399 33.1689 154.714 23.5405C151.03 13.9122 140.238 9.09379 130.609 12.7784C120.981 16.463 116.162 27.2553 119.847 36.8837ZM-317.885 356.693L-291.926 302.561L-298.238 299.534L-324.197 353.666L-317.885 356.693ZM-38.2262 86.0787L138.279 33.5668L136.283 26.8574L-40.2223 79.3693L-38.2262 86.0787ZM-291.926 302.561C-241.702 197.829 -149.555 119.2 -38.2262 86.0787L-40.2223 79.3693C-153.445 113.054 -247.159 193.02 -298.238 299.534L-291.926 302.561Z" fill="#0F2325"/>
</svg>
