<svg width="30" height="31" viewBox="0 0 30 31" fill="none" xmlns="http://www.w3.org/2000/svg">
<path fill-rule="evenodd" clip-rule="evenodd" d="M6 0.5C2.68629 0.5 0 3.18629 0 6.5V24.5C0 27.8137 2.68629 30.5 6 30.5H24C27.3137 30.5 30 27.8137 30 24.5V6.5C30 3.18629 27.3137 0.5 24 0.5H6ZM3 6.5C3 4.84314 4.34314 3.5 6 3.5H24C25.6569 3.5 27 4.84314 27 6.5V24.5C27 26.1569 25.6569 27.5 24 27.5H6C4.34314 27.5 3 26.1569 3 24.5V6.5ZM10.5 14C10.5 13.1716 9.82842 12.5 9 12.5C8.17158 12.5 7.5 13.1716 7.5 14V23C7.5 23.8284 8.17158 24.5 9 24.5C9.82842 24.5 10.5 23.8284 10.5 23V14ZM11.25 8.75C11.25 9.99265 10.2426 11 9 11C7.75736 11 6.75 9.99265 6.75 8.75C6.75 7.50735 7.75736 6.5 9 6.5C10.2426 6.5 11.25 7.50735 11.25 8.75ZM15 12.5C15.5092 12.5 15.9592 12.7538 16.2304 13.1419C16.9993 12.7253 17.8554 12.5 18.75 12.5C21.9891 12.5 24 15.3887 24 17.8571V17.8685V17.8797V17.8911V17.9025V17.9139V17.9255V17.9369V17.9485V17.96V17.9715V17.9832V17.9948V18.0065V18.0182V18.0299V18.0416V18.0533V18.0652V18.077V18.0887V18.1007V18.1126V18.1244V18.1364V18.1483V18.1603V18.1722V18.1844V18.1964V18.2085V18.2206V18.2327V18.2449V18.257V18.2693V18.2814V18.2938V18.3059V18.3182V18.3305V18.3429V18.3552V18.3675V18.38V18.3925V18.4047V18.4172V18.4298V18.4422V18.4547V18.4673V18.4799V18.4923V18.5049V18.5175V18.5301V18.5429V18.5555V18.5682V18.5808V18.5936V18.6063V18.6191V18.6319V18.6446V18.6574V18.6702V18.683V18.6959V18.7088V18.7217V18.7344V18.7475V18.7604V18.7733V18.7862V18.7992V18.8122V18.8252V18.8381V18.8512V18.8642V18.8773V18.8903V18.9034V18.9164V18.9296V18.9426V18.9558V18.9689V18.9821V18.9951V19.0084V19.0215V19.0347V19.048V19.0611V19.0744V19.0875V19.1007V19.1139V19.1273V19.1405V19.1539V19.167V19.1804V19.1936V19.207V19.2203V19.2337V19.2468V19.2602V19.2736V19.2869V19.3002V19.3136V19.327V19.3403V19.3538V19.3671V19.3805V19.3938V19.4074V19.4207V19.434V19.4475V19.4609V19.4744V19.4877V19.5011V19.5146V19.5281V19.5415V19.555V19.5683V19.5818V19.5953V19.6087V19.6222V19.6355V19.649V19.6625V19.6758V19.6894V19.7029V19.7162V19.7297V19.7432V19.7567V19.7701V19.7836V19.7971V19.8104V19.8239V19.8374V19.8507V19.8643V19.8776V19.8911V19.9044V19.9179V19.9314V19.9448V19.9583V19.9716V19.985V19.9985V20.0119V20.0254V20.0387V20.0521V20.0654V20.0789V20.0922V20.1056V20.1189V20.1323V20.1457V20.159V20.1723V20.1857V20.1991V20.2124V20.2256V20.2389V20.2523V20.2655V20.2789V20.292V20.3054V20.3186V20.332V20.3451V20.3584V20.3715V20.3848V20.3979V20.4111V20.4244V20.4375V20.4508V20.4638V20.477V20.4901V20.5033V20.5163V20.5294V20.5424V20.5555V20.5685V20.5816V20.5946V20.6077V20.6207V20.6336V20.6467V20.6595V20.6725V20.6855V20.6984V20.7113V20.7241V20.7369V20.7499V20.7628V20.7755V20.7882V20.8011V20.8139V20.8267V20.8394V20.8522V20.8647V20.8775V20.8901V20.9029V20.9155V20.9281V20.9407V20.9533V20.9659V20.9783V20.9909V21.0033V21.0158V21.0282V21.0407V21.0532V21.0656V21.0779V21.0904V21.1026V21.115V21.1273V21.1396V21.1519V21.164V21.1763V21.1884V21.2006V21.2127V21.2249V21.2369V21.2491V21.2611V21.273V21.285V21.2971V21.309V21.3209V21.3328V21.3447V21.3566V21.3683V21.3801V21.392V21.4037V21.4154V21.4271V21.4388V21.4504V21.462V21.4736V21.4851V21.4967V21.5083V21.5196V21.5312V21.5426V21.554V21.5653V21.5766V21.5879V21.5991V21.6104V21.6217V21.6329V21.644V21.6551V21.6662V21.6773V21.6882V21.6994V21.7103V21.7212V21.732V21.743V21.7538V21.7646V21.7754V21.7862V21.7969V21.8075V21.8181V21.8288V21.8393V21.8498V21.8603V21.8708V21.8813V21.8917V21.902V21.9124V21.9227V21.9329V21.9431V21.9533V21.9635V21.9736V21.9836V21.9936V22.0037V22.0138V22.0237V22.0336V22.0433V22.0532V22.063V22.0727V22.0823V22.092V22.1017V22.1112V22.1207V22.1303V22.1398V22.1492V22.1585V22.1678V22.1771V22.1864V22.1957V22.2048V22.214V22.223V22.2322V22.2411V22.25V22.259V22.2678V22.2767V22.2856V22.2943V22.3029V22.3116V22.3202V22.3288V22.3373V22.3459V22.3542V22.3626V22.371V22.3793V22.3876V22.3958V22.4039V22.4122V22.4201V22.4282V22.4361V22.4441V22.4521V22.4599V22.4676V22.4754V22.4831V22.4907V22.4984V22.5059V22.5134V22.5209V22.5282V22.5356V22.5429V22.5501V22.5574V22.5646V22.5716V22.5787V22.5857V22.5926V22.5995V22.6064V22.6131V22.6199V22.6267V22.6333V22.6399V22.6465V22.6529V22.6593V22.6656V22.672V22.6782V22.6846V22.6907V22.6967V22.7029V22.7089V22.7147V22.7207V22.7266V22.7323V22.7379V22.7437V22.7492V22.7548V22.7603V22.7657V22.7711V22.7765V22.7817V22.787V22.7921V22.7972V22.8023V22.8073V22.8122V22.817V22.8218V22.8266V22.8313V22.8359V22.8404V22.8449V22.8494V22.8538V22.8581V22.8624V22.8666V22.8707V22.8748V22.8788V22.8829V22.8867V22.8905V22.8943V22.898V22.9016V22.9052V22.9088V22.9123V22.9157V22.919V22.9221V22.9254V22.9286V22.9316V22.9346V22.9376V22.9405V22.9433V22.946V22.9487V22.9514V22.9539V22.9563V22.9588V22.9612V22.9634V22.9657V22.9678V22.9699V22.972V22.9739V22.9757V22.9775V22.9793V22.981V22.9826V22.9841V22.987V22.9895V22.9919V22.9938V22.9957V22.9976V22.9994C24 23.8278 23.3284 24.5 22.5 24.5C21.6716 24.5 21 23.8284 21 23V22.9982V22.9964V22.9948V22.993V22.9907V22.9883V22.9856V22.9826V22.981V22.9793V22.9775V22.9757V22.9739V22.972V22.9699V22.9678V22.9657V22.9634V22.9612V22.9588V22.9563V22.9539V22.9514V22.9487V22.946V22.9433V22.9405V22.9376V22.9346V22.9316V22.9286V22.9254V22.9221V22.919V22.9157V22.9123V22.9088V22.9052V22.9016V22.898V22.8943V22.8905V22.8867V22.8829V22.8788V22.8748V22.8707V22.8666V22.8624V22.8581V22.8538V22.8494V22.8449V22.8404V22.8359V22.8313V22.8266V22.8218V22.817V22.8122V22.8073V22.8023V22.7972V22.7921V22.787V22.7817V22.7765V22.7711V22.7657V22.7603V22.7548V22.7492V22.7437V22.7379V22.7323V22.7266V22.7207V22.7147V22.7089V22.7029V22.6967V22.6907V22.6846V22.6782V22.672V22.6656V22.6593V22.6529V22.6465V22.6399V22.6333V22.6267V22.6199V22.6131V22.6064V22.5995V22.5926V22.5857V22.5787V22.5716V22.5646V22.5574V22.5501V22.5429V22.5356V22.5282V22.5209V22.5134V22.5059V22.4984V22.4907V22.4831V22.4754V22.4676V22.4599V22.4521V22.4441V22.4361V22.4282V22.4201V22.4122V22.4039V22.3958V22.3876V22.3793V22.371V22.3626V22.3542V22.3459V22.3373V22.3288V22.3202V22.3116V22.3029V22.2943V22.2856V22.2767V22.2678V22.259V22.25V22.2411V22.2322V22.223V22.214V22.2048V22.1957V22.1864V22.1771V22.1678V22.1585V22.1492V22.1398V22.1303V22.1207V22.1112V22.1017V22.092V22.0823V22.0727V22.063V22.0532V22.0433V22.0336V22.0237V22.0138V22.0037V21.9936V21.9836V21.9736V21.9635V21.9533V21.9431V21.9329V21.9227V21.9124V21.902V21.8917V21.8813V21.8708V21.8603V21.8498V21.8393V21.8288V21.8181V21.8075V21.7969V21.7862V21.7754V21.7646V21.7538V21.743V21.732V21.7212V21.7103V21.6994V21.6882V21.6773V21.6662V21.6551V21.644V21.6329V21.6217V21.6104V21.5991V21.5879V21.5766V21.5653V21.554V21.5426V21.5312V21.5196V21.5083V21.4967V21.4851V21.4736V21.462V21.4504V21.4388V21.4271V21.4154V21.4037V21.392V21.3801V21.3683V21.3566V21.3447V21.3328V21.3209V21.309V21.2971V21.285V21.273V21.2611V21.2491V21.2369V21.2249V21.2127V21.2006V21.1884V21.1763V21.164V21.1519V21.1396V21.1273V21.115V21.1026V21.0904V21.0779V21.0656V21.0532V21.0407V21.0282V21.0158V21.0033V20.9909V20.9783V20.9659V20.9533V20.9407V20.9281V20.9155V20.9029V20.8901V20.8775V20.8647V20.8522V20.8394V20.8267V20.8139V20.8011V20.7882V20.7755V20.7628V20.7499V20.7369V20.7241V20.7113V20.6984V20.6855V20.6725V20.6595V20.6467V20.6336V20.6207V20.6077V20.5946V20.5816V20.5685V20.5555V20.5424V20.5294V20.5163V20.5033V20.4901V20.477V20.4638V20.4508V20.4375V20.4244V20.4111V20.3979V20.3848V20.3715V20.3584V20.3451V20.332V20.3186V20.3054V20.292V20.2789V20.2655V20.2523V20.2389V20.2256V20.2124V20.1991V20.1857V20.1723V20.159V20.1457V20.1323V20.1189V20.1056V20.0922V20.0789V20.0654V20.0521V20.0387V20.0254V20.0119V19.9985V19.985V19.9716V19.9583V19.9448V19.9314V19.9179V19.9044V19.8911V19.8776V19.8643V19.8507V19.8374V19.8239V19.8104V19.7971V19.7836V19.7701V19.7567V19.7432V19.7297V19.7162V19.7029V19.6894V19.6758V19.6625V19.649V19.6355V19.6222V19.6087V19.5953V19.5818V19.5683V19.555V19.5415V19.5281V19.5146V19.5011V19.4877V19.4744V19.4609V19.4475V19.434V19.4207V19.4074V19.3938V19.3805V19.3671V19.3538V19.3403V19.327V19.3136V19.3002V19.2869V19.2736V19.2602V19.2468V19.2337V19.2203V19.207V19.1936V19.1804V19.167V19.1539V19.1405V19.1273V19.1139V19.1007V19.0875V19.0744V19.0611V19.048V19.0347V19.0215V19.0084V18.9951V18.9821V18.9689V18.9558V18.9426V18.9296V18.9164V18.9034V18.8903V18.8773V18.8642V18.8512V18.8381V18.8252V18.8122V18.7992V18.7862V18.7733V18.7604V18.7475V18.7344V18.7217V18.7088V18.6959V18.683V18.6702V18.6574V18.6446V18.6319V18.6191V18.6063V18.5936V18.5808V18.5682V18.5555V18.5429V18.5301V18.5175V18.5049V18.4923V18.4799V18.4673V18.4547V18.4422V18.4298V18.4172V18.4047V18.3925V18.38V18.3675V18.3552V18.3429V18.3305V18.3182V18.3059V18.2938V18.2814V18.2693V18.257V18.2449V18.2327V18.2206V18.2085V18.1964V18.1844V18.1722V18.1603V18.1483V18.1364V18.1244V18.1126V18.1007V18.0887V18.077V18.0652V18.0533V18.0416V18.0299V18.0182V18.0065V17.9948V17.9832V17.9715V17.96V17.9485V17.9369V17.9255V17.9139V17.9025V17.8911V17.8797V17.8685V17.8571C21 16.7048 20.0109 15.5 18.75 15.5C17.9639 15.5 17.0961 15.9274 16.5 16.9447V16.9487V16.9641V16.9796V16.9951V17.0107V17.0261V17.0417V17.0573V17.0731V17.0886V17.1042V17.12V17.1357V17.1515V17.1672V17.183V17.1989V17.2148V17.2305V17.2465V17.2624V17.2782V17.2943V17.3102V17.3263V17.3423V17.3582V17.3744V17.3904V17.4065V17.4226V17.4387V17.455V17.471V17.4872V17.5034V17.5196V17.5359V17.5522V17.5685V17.5847V17.601V17.6174V17.6337V17.6501V17.6665V17.6828V17.6993V17.7157V17.7322V17.7485V17.765V17.7815V17.798V17.8145V17.831V17.8475V17.8642V17.8806V17.8972V17.9138V17.9305V17.9469V17.9636V17.9802V17.9969V18.0135V18.0302V18.0469V18.0635V18.0803V18.097V18.1136V18.1304V18.147V18.1638V18.1806V18.1973V18.2141V18.2309V18.2477V18.2644V18.2812V18.298V18.3148V18.3317V18.3485V18.3653V18.3821V18.3989V18.4157V18.4326V18.4494V18.4662V18.4832V18.5V18.517V18.5338V18.5507V18.5675V18.5843V18.6012V18.6182V18.635V18.652V18.6688V18.6857V18.7025V18.7194V18.7364V18.7532V18.7702V18.787V18.8039V18.8209V18.8377V18.8546V18.8714V18.8883V18.9051V18.9221V18.9389V18.9558V18.9726V18.9896V19.0064V19.0233V19.0401V19.0571V19.0739V19.0907V19.1075V19.1245V19.1413V19.1581V19.1749V19.1917V19.2085V19.2253V19.2421V19.2589V19.2757V19.2924V19.3092V19.3259V19.3427V19.3595V19.3762V19.393V19.4096V19.4264V19.4431V19.4597V19.4763V19.493V19.5098V19.5265V19.5429V19.5596V19.5763V19.5929V19.6094V19.626V19.6425V19.6592V19.6757V19.6922V19.7087V19.7252V19.7417V19.7582V19.7747V19.791V19.8076V19.8239V19.8404V19.8568V19.8731V19.8895V19.9058V19.9221V19.9384V19.9547V19.9709V19.9872V20.0035V20.0196V20.0359V20.0521V20.0682V20.0843V20.1005V20.1166V20.1326V20.1487V20.1647V20.1807V20.1968V20.2129V20.2288V20.2446V20.2606V20.2765V20.2923V20.3083V20.3242V20.3399V20.3556V20.3714V20.3871V20.4029V20.4187V20.4342V20.4499V20.4656V20.4812V20.4967V20.5123V20.5279V20.5433V20.5588V20.5742V20.5896V20.6049V20.6204V20.6357V20.651V20.6663V20.6816V20.6968V20.712V20.7272V20.7423V20.7574V20.7725V20.7875V20.8025V20.8175V20.8325V20.8475V20.8624V20.8772V20.8921V20.9069V20.9216V20.9365V20.9511V20.9659V20.9804V20.9951V21.0097V21.0242V21.0387V21.0532V21.0677V21.0821V21.0965V21.1108V21.1252V21.1394V21.1537V21.1679V21.182V21.1961V21.2102V21.2243V21.2384V21.2524V21.2663V21.2801V21.2941V21.3078V21.3216V21.3354V21.3491V21.3629V21.3765V21.39V21.4037V21.4172V21.4307V21.444V21.4576V21.4709V21.4842V21.4974V21.5106V21.5238V21.5371V21.5501V21.5632V21.5762V21.5892V21.6021V21.6151V21.628V21.6407V21.6535V21.6662V21.679V21.6916V21.7042V21.7166V21.729V21.7415V21.754V21.7664V21.7787V21.7908V21.8032V21.8153V21.8274V21.8395V21.8515V21.8634V21.8755V21.8873V21.8992V21.9108V21.9226V21.9342V21.9459V21.9575V21.9691V21.9804V21.992V22.0034V22.0146V22.0259V22.0372V22.0484V22.0595V22.0705V22.0816V22.0925V22.1035V22.1143V22.125V22.1359V22.1465V22.1572V22.1677V22.1783V22.1887V22.1992V22.2095V22.2199V22.23V22.2402V22.2503V22.2605V22.2706V22.2805V22.2903V22.3003V22.31V22.3197V22.3293V22.3389V22.3486V22.3582V22.3675V22.3769V22.3862V22.3955V22.4046V22.4138V22.4229V22.432V22.4408V22.4498V22.4586V22.4674V22.476V22.4847V22.4933V22.5019V22.5103V22.5187V22.5271V22.5353V22.5434V22.5516V22.5596V22.5677V22.5757V22.5835V22.5913V22.5991V22.6067V22.6144V22.6218V22.6293V22.6367V22.644V22.6514V22.6586V22.6658V22.6729V22.6798V22.6868V22.6936V22.7005V22.7072V22.7138V22.7204V22.7268V22.7333V22.7397V22.7461V22.7522V22.7585V22.7645V22.7705V22.7765V22.7824V22.7882V22.7939V22.7996V22.8051V22.8107V22.8161V22.8215V22.8268V22.832V22.8371V22.8422V22.8471V22.8521V22.8569V22.8617V22.8664V22.871V22.8755V22.88V22.8843V22.8887V22.8929V22.8969V22.9011V22.9051V22.909V22.9129V22.9166V22.9202V22.9238V22.9274V22.9308V22.9342V22.9375V22.9406V22.9438V22.9468V22.9497V22.9526V22.9555V22.9582V22.9607V22.9632V22.9657V22.9681V22.9705V22.9726V22.9747V22.9768V22.9787V22.9807V22.9825V22.9841V22.9858V22.9873V22.9901V22.9925V22.9946V22.9964V22.9983V22.9999C16.5 23.8283 15.8285 24.5 15 24.5C14.1715 24.5 13.5 23.8284 13.5 23V22.9983V22.9964V22.9946V22.9925V22.9901V22.9873V22.9858V22.9841V22.9825V22.9807V22.9787V22.9768V22.9747V22.9726V22.9705V22.9681V22.9657V22.9632V22.9607V22.9582V22.9555V22.9526V22.9497V22.9468V22.9438V22.9406V22.9375V22.9342V22.9308V22.9274V22.9238V22.9202V22.9166V22.9129V22.909V22.9051V22.9011V22.8969V22.8929V22.8887V22.8843V22.88V22.8755V22.871V22.8664V22.8617V22.8569V22.8521V22.8471V22.8422V22.8371V22.832V22.8268V22.8215V22.8161V22.8107V22.8051V22.7996V22.7939V22.7882V22.7824V22.7765V22.7705V22.7645V22.7585V22.7522V22.7461V22.7397V22.7333V22.7268V22.7204V22.7138V22.7072V22.7005V22.6936V22.6868V22.6798V22.6729V22.6658V22.6586V22.6514V22.644V22.6367V22.6293V22.6218V22.6144V22.6067V22.5991V22.5913V22.5835V22.5757V22.5677V22.5596V22.5516V22.5434V22.5353V22.5271V22.5187V22.5103V22.5019V22.4933V22.4847V22.476V22.4674V22.4586V22.4498V22.4408V22.432V22.4229V22.4138V22.4046V22.3955V22.3862V22.3769V22.3675V22.3582V22.3486V22.3389V22.3293V22.3197V22.31V22.3003V22.2903V22.2805V22.2706V22.2605V22.2503V22.2402V22.23V22.2199V22.2095V22.1992V22.1887V22.1783V22.1677V22.1572V22.1465V22.1359V22.125V22.1143V22.1035V22.0925V22.0816V22.0705V22.0595V22.0484V22.0372V22.0259V22.0146V22.0034V21.992V21.9804V21.9691V21.9575V21.9459V21.9342V21.9226V21.9108V21.8992V21.8873V21.8755V21.8634V21.8515V21.8395V21.8274V21.8153V21.8032V21.7908V21.7787V21.7664V21.754V21.7415V21.729V21.7166V21.7042V21.6916V21.679V21.6662V21.6535V21.6407V21.628V21.6151V21.6021V21.5892V21.5762V21.5632V21.5501V21.5371V21.5238V21.5106V21.4974V21.4842V21.4709V21.4576V21.444V21.4307V21.4172V21.4037V21.39V21.3765V21.3629V21.3491V21.3354V21.3216V21.3078V21.2941V21.2801V21.2663V21.2524V21.2384V21.2243V21.2102V21.1961V21.182V21.1679V21.1537V21.1394V21.1252V21.1108V21.0965V21.0821V21.0677V21.0532V21.0387V21.0242V21.0097V20.9951V20.9804V20.9659V20.9511V20.9365V20.9216V20.9069V20.8921V20.8772V20.8624V20.8475V20.8325V20.8175V20.8025V20.7875V20.7725V20.7574V20.7423V20.7272V20.712V20.6968V20.6816V20.6663V20.651V20.6357V20.6204V20.6049V20.5896V20.5742V20.5588V20.5433V20.5279V20.5123V20.4967V20.4812V20.4656V20.4499V20.4342V20.4187V20.4029V20.3871V20.3714V20.3556V20.3399V20.3242V20.3083V20.2923V20.2765V20.2606V20.2446V20.2288V20.2129V20.1968V20.1807V20.1647V20.1487V20.1326V20.1166V20.1005V20.0843V20.0682V20.0521V20.0359V20.0196V20.0035V19.9872V19.9709V19.9547V19.9384V19.9221V19.9058V19.8895V19.8731V19.8568V19.8404V19.8239V19.8076V19.791V19.7747V19.7582V19.7417V19.7252V19.7087V19.6922V19.6757V19.6592V19.6425V19.626V19.6094V19.5929V19.5763V19.5596V19.5429V19.5265V19.5098V19.493V19.4763V19.4597V19.4431V19.4264V19.4096V19.393V19.3762V19.3595V19.3427V19.3259V19.3092V19.2924V19.2757V19.2589V19.2421V19.2253V19.2085V19.1917V19.1749V19.1581V19.1413V19.1245V19.1075V19.0907V19.0739V19.0571V19.0401V19.0233V19.0064V18.9896V18.9726V18.9558V18.9389V18.9221V18.9051V18.8883V18.8714V18.8546V18.8377V18.8209V18.8039V18.787V18.7702V18.7532V18.7364V18.7194V18.7025V18.6857V18.6688V18.652V18.635V18.6182V18.6012V18.5843V18.5675V18.5507V18.5338V18.517V18.5V18.4832V18.4662V18.4494V18.4326V18.4157V18.3989V18.3821V18.3653V18.3485V18.3317V18.3148V18.298V18.2812V18.2644V18.2477V18.2309V18.2141V18.1973V18.1806V18.1638V18.147V18.1304V18.1136V18.097V18.0803V18.0635V18.0469V18.0302V18.0135V17.9969V17.9802V17.9636V17.9469V17.9305V17.9138V17.8972V17.8806V17.8642V17.8475V17.831V17.8145V17.798V17.7815V17.765V17.7485V17.7322V17.7157V17.6993V17.6828V17.6665V17.6501V17.6337V17.6174V17.601V17.5847V17.5685V17.5522V17.5359V17.5196V17.5034V17.4872V17.471V17.455V17.4387V17.4226V17.4065V17.3904V17.3744V17.3582V17.3423V17.3263V17.3102V17.2943V17.2782V17.2624V17.2465V17.2305V17.2148V17.1989V17.183V17.1672V17.1515V17.1357V17.12V17.1042V17.0886V17.0731V17.0573V17.0417V17.0261V17.0107V16.9951V16.9796V16.9641V16.9487V16.9333V16.9178V16.9024V16.8871V16.8717V16.8564V16.8412V16.826V16.8107V16.7955V16.7804V16.7653V16.7502V16.7351V16.7201V16.7051V16.6901V16.6751V16.6603V16.6454V16.6306V16.6157V16.6008V16.5862V16.5714V16.5656V16.5596V16.5538V16.5477V16.5419V16.5359V16.5299V16.5239V16.5179V16.5119V16.5059V16.4999V16.4939V16.4879V16.4818V16.4758V16.4696V16.4634V16.4574V16.4513V16.4452V16.439V16.4328V16.4267V16.4205V16.4144V16.4083V16.402V16.3958V16.3895V16.3833V16.3771V16.3708V16.3646V16.3583V16.352V16.3457V16.3394V16.3331V16.3268V16.3205V16.3141V16.3078V16.3014V16.295V16.2887V16.2823V16.2759V16.2695V16.2631V16.2568V16.2503V16.2439V16.2374V16.2309V16.2245V16.2181V16.2116V16.2052V16.1986V16.1921V16.1856V16.1792V16.1726V16.1662V16.1596V16.1531V16.1465V16.1399V16.1335V16.1269V16.1202V16.1138V16.1072V16.1006V16.094V16.0874V16.0808V16.0742V16.0676V16.061V16.0544V16.0478V16.041V16.0345V16.0279V16.0212V16.0145V16.0079V16.0013V15.9946V15.988V15.9812V15.9746V15.9678V15.9613V15.9545V15.9479V15.9411V15.9344V15.9278V15.921V15.9143V15.9077V15.9009V15.8942V15.8874V15.8808V15.8741V15.8673V15.8606V15.8539V15.8471V15.8405V15.8337V15.827V15.8202V15.8135V15.8068V15.8V15.7933V15.7865V15.7797V15.773V15.7663V15.7595V15.7528V15.746V15.7393V15.7325V15.7257V15.719V15.7123V15.7055V15.6987V15.692V15.6853V15.6785V15.6718V15.665V15.6583V15.6514V15.6446V15.6378V15.6311V15.6243V15.6176V15.6109V15.6041V15.5974V15.5906V15.584V15.5773V15.5705V15.5637V15.557V15.5502V15.5435V15.5367V15.53V15.5233V15.5167V15.5099V15.5032V15.4964V15.4898V15.483V15.4763V15.4696V15.4629V15.4562V15.4494V15.4429V15.4361V15.4295V15.4228V15.4162V15.4094V15.4028V15.3961V15.3895V15.3828V15.3761V15.3695V15.3629V15.3562V15.3496V15.3429V15.3363V15.3298V15.3232V15.3166V15.31V15.3034V15.2968V15.2901V15.2835V15.277V15.2705V15.2639V15.2573V15.2507V15.2443V15.2376V15.2312V15.2246V15.2182V15.2116V15.2051V15.1987V15.1922V15.1856V15.1792V15.1727V15.1663V15.1598V15.1533V15.1469V15.1404V15.1342V15.1277V15.1213V15.115V15.1085V15.1021V15.0958V15.0895V15.083V15.0767V15.0704V15.0641V15.0578V15.0513V15.045V15.0389V15.0326V15.0263V15.02V15.0139V15.0076V15.0012V14.9951V14.9889V14.9826V14.9765V14.9704V14.9642V14.958V14.9519V14.9457V14.9396V14.9335V14.9275V14.9213V14.9151V14.9092V14.9032V14.897V14.891V14.885V14.879V14.873V14.867V14.861V14.855V14.8491V14.8432V14.8373V14.8313V14.8254V14.8196V14.8136V14.8078V14.8019V14.7962V14.7904V14.7845V14.7787V14.7729V14.7671V14.7614V14.7557V14.75V14.7443V14.7386V14.7329V14.7272V14.7215V14.716V14.7103V14.7047V14.6992V14.6935V14.6879V14.6824V14.6768V14.6714V14.6658V14.6603V14.6549V14.6494V14.644V14.6385V14.6332V14.6278V14.6224V14.6169V14.6117V14.6063V14.601V14.5957V14.5904V14.5851V14.5799V14.5746V14.5695V14.5643V14.5592V14.5539V14.5489V14.5438V14.5387V14.5336V14.5285V14.5234V14.5184V14.5133V14.5083V14.5034V14.4985V14.4935V14.4886V14.4836V14.4788V14.4739V14.4691V14.4643V14.4594V14.4546V14.4499V14.445V14.4404V14.4356V14.431V14.4263V14.4217V14.417V14.4124V14.4079V14.4032V14.3987V14.3942V14.3897V14.3852V14.3807V14.3762V14.3719V14.3673V14.363V14.3587V14.3543V14.35V14.3458V14.3414V14.3372V14.3328V14.3286V14.3244V14.3204V14.3162V14.3122V14.308V14.3039V14.2998V14.2958V14.2918V14.2879V14.2838V14.2799V14.276V14.2721V14.2682V14.2645V14.2606V14.2568V14.2531V14.2493V14.2456V14.2418V14.2382V14.2344V14.2309V14.2272V14.2236V14.22V14.2166V14.213V14.2095V14.2061V14.2027V14.1994V14.1959V14.1926V14.1891V14.1859V14.1826V14.1794V14.1761V14.173V14.1698V14.1667V14.1635V14.1604V14.1574V14.1542V14.1512V14.1482V14.1453V14.1424V14.1395V14.1365V14.1337V14.131V14.1281V14.1252V14.1226V14.1199V14.1172V14.1144V14.1119V14.1092V14.1067V14.1041V14.1016V14.0991V14.0966V14.0942V14.0918V14.0894V14.087V14.0848V14.0825V14.0802V14.078V14.0758V14.0735V14.0714V14.0693V14.0672V14.0651V14.0632V14.0612V14.0591V14.0573V14.0553V14.0534V14.0516V14.0498V14.048V14.0462V14.0445V14.0429V14.0413V14.0396V14.038V14.0364V14.0348V14.0333V14.0304V14.0278V14.025V14.0225V14.0201V14.0179V14.0157V14.0136V14.0119V14.01V14.0078V14.0063V14.0045V14.003V14.0012C13.5 13.1727 14.1715 12.5 15 12.5Z" fill="#E6E6E6"/>
</svg>
