<svg width="39" height="51" viewBox="0 0 39 51" fill="none" xmlns="http://www.w3.org/2000/svg">
<path d="M19.5742 49.7496C35.5288 42.3927 38.1485 30.1609 38.1485 22.2723V16.5109C38.1485 16.5109 31.3629 13.2314 19.5742 13.2314C7.78563 13.2314 1 16.5109 1 16.5109V22.2723C1 30.1609 3.61975 42.3927 19.5742 49.7496Z" stroke="white" stroke-width="1.25" stroke-linecap="round" stroke-linejoin="round"/>
<path d="M29.5899 14.0761V11.0159C29.5899 8.3595 28.5346 5.81192 26.6563 3.93358C24.7779 2.05524 22.2304 1 19.574 1C16.9176 1 14.37 2.05524 12.4917 3.93358C10.6133 5.81192 9.55811 8.3595 9.55811 11.0159V14.0761" stroke="white" stroke-width="1.25" stroke-linecap="round" stroke-linejoin="round"/>
<path d="M21.8543 29.2135C22.7761 28.7074 23.5033 27.909 23.9214 26.944C24.3394 25.9791 24.4245 24.9025 24.1633 23.8838C23.902 22.8652 23.3093 21.9624 22.4784 21.3178C21.6476 20.6731 20.6259 20.3232 19.5743 20.3232C18.5227 20.3232 17.501 20.6731 16.6701 21.3178C15.8393 21.9624 15.2465 22.8652 14.9853 23.8838C14.724 24.9025 14.8091 25.9791 15.2272 26.944C15.6452 27.909 16.3725 28.7074 17.2943 29.2135C15.8921 29.6893 14.6742 30.5923 13.8113 31.7956C12.9485 32.9989 12.4842 34.4422 12.4834 35.9229H26.6652C26.6644 34.4422 26.2 32.9989 25.3372 31.7956C24.4744 30.5923 23.2564 29.6893 21.8543 29.2135Z" stroke="white" stroke-width="1.25" stroke-linecap="round" stroke-linejoin="round"/>
</svg>
