<svg width="565" height="190" viewBox="0 0 565 190" fill="none" xmlns="http://www.w3.org/2000/svg">
<path d="M53.8428 172.758L53.8428 133.665" stroke="white" stroke-opacity="0.08" stroke-width="3" stroke-linecap="round"/>
<g filter="url(#filter0_f_201_2568)">
<path d="M53.2461 172.758L53.2461 133.665" stroke="white" stroke-opacity="0.08" stroke-width="3" stroke-linecap="round"/>
</g>
<g filter="url(#filter1_f_201_2568)">
<path d="M46.9746 172.758L46.9746 133.665" stroke="white" stroke-opacity="0.08" stroke-width="3" stroke-linecap="round"/>
</g>
<path d="M70.4756 166.149L70.4756 130.792" stroke="white" stroke-opacity="0.08" stroke-width="3" stroke-linecap="round"/>
<path d="M35.9277 166.149L35.9277 130.792" stroke="white" stroke-opacity="0.08" stroke-width="3" stroke-linecap="round"/>
<g filter="url(#filter2_f_201_2568)">
<path d="M76.5391 166.149L76.5391 148.707L76.5391 130.792" stroke="white" stroke-opacity="0.08" stroke-width="3" stroke-linecap="round"/>
</g>
<ellipse cx="43.2209" cy="42.073" rx="43.2209" ry="42.073" transform="matrix(0.928629 0.371011 -0.395946 0.918274 33.3174 41.3721)" fill="url(#paint0_radial_201_2568)"/>
<g filter="url(#filter3_d_201_2568)">
<mask id="path-8-inside-1_201_2568" fill="white">
<path d="M48.0986 49.3091L43.2538 58.236C42.6115 60.1945 46.479 66.877 67.0867 77.9396C87.6944 89.0021 97.0354 88.2227 99.1299 86.4502L103.975 77.5232C103.975 77.5232 92.7528 78.2666 72.6032 67.775C57.3481 59.8319 50.4764 52.8578 48.0986 49.3091Z"/>
</mask>
<path d="M48.0986 49.3091L43.2538 58.236C42.6115 60.1945 46.479 66.877 67.0867 77.9396C87.6944 89.0021 97.0354 88.2227 99.1299 86.4502L103.975 77.5232C103.975 77.5232 92.7528 78.2666 72.6032 67.775C57.3481 59.8319 50.4764 52.8578 48.0986 49.3091Z" fill="url(#paint1_linear_201_2568)" shape-rendering="crispEdges"/>
<path d="M43.2538 58.236L32.5419 52.8272C32.1992 53.4586 31.9148 54.1178 31.6921 54.7969L43.2538 58.236ZM48.0986 49.3091L58.2973 42.7056C55.9618 39.2199 51.8904 37.231 47.5931 37.4765C43.2959 37.722 39.4138 40.1653 37.3868 43.9002L48.0986 49.3091ZM72.6032 67.775L66.7461 78.2536L72.6032 67.775ZM103.975 77.5232L114.687 82.9321C116.75 79.13 116.575 74.5726 114.229 71.004C111.883 67.4354 107.729 65.408 103.356 65.6976L103.975 77.5232ZM99.1299 86.4502L106.998 95.3488C108.159 94.3663 109.123 93.1825 109.842 91.8591L99.1299 86.4502ZM67.0867 77.9396L61.096 88.3475L67.0867 77.9396ZM53.9656 63.6449L58.8105 54.7179L37.3868 43.9002L32.5419 52.8272L53.9656 63.6449ZM37.9 55.9126C41.7528 61.6629 50.4791 69.7836 66.7461 78.2536L78.4603 57.2964C64.217 49.8801 59.1999 44.0526 58.2973 42.7056L37.9 55.9126ZM66.7461 78.2536C77.7431 83.9795 86.6231 86.8039 93.0829 88.1696C96.3076 88.8514 98.9092 89.1653 100.847 89.299C101.815 89.3657 102.615 89.3873 103.242 89.3876C103.555 89.3877 103.825 89.3826 104.051 89.3751C104.163 89.3714 104.265 89.3671 104.355 89.3626C104.401 89.3603 104.443 89.358 104.483 89.3557C104.503 89.3546 104.522 89.3534 104.54 89.3523C104.549 89.3517 104.558 89.3512 104.567 89.3506C104.572 89.3503 104.578 89.3499 104.58 89.3497C104.587 89.3493 104.593 89.3489 103.975 77.5232C103.356 65.6976 103.363 65.6972 103.369 65.6968C103.371 65.6966 103.377 65.6962 103.381 65.696C103.389 65.6954 103.397 65.6949 103.405 65.6944C103.421 65.6935 103.436 65.6926 103.45 65.6917C103.479 65.6901 103.505 65.6887 103.529 65.6875C103.575 65.6852 103.611 65.6838 103.637 65.6829C103.688 65.6812 103.697 65.6818 103.664 65.6818C103.599 65.6818 103.364 65.6794 102.966 65.6519C102.17 65.5971 100.707 65.4411 98.6073 64.9973C94.4188 64.1118 87.613 62.062 78.4603 57.2964L66.7461 78.2536ZM93.2629 72.1144L88.418 81.0413L109.842 91.8591L114.687 82.9321L93.2629 72.1144ZM91.262 77.5516C92.4976 76.506 93.6248 76.0488 94.1607 75.8659C94.7471 75.6657 95.0977 75.6333 95.0997 75.6331C95.1188 75.6312 94.9223 75.6514 94.4722 75.6237C94.0279 75.5964 93.3861 75.5254 92.5279 75.3651C88.9873 74.7036 82.7087 72.7019 73.0773 67.5316L61.096 88.3475C72.0723 94.2398 80.7681 97.3796 87.5735 98.6509C90.9759 99.2865 94.2057 99.5121 97.1752 99.2146C99.7927 98.9524 103.705 98.1355 106.998 95.3488L91.262 77.5516ZM73.0773 67.5316C63.2645 62.2639 58.1618 58.4118 55.7597 56.1236C54.5422 54.9639 54.3535 54.5211 54.5193 54.8209C54.608 54.9814 54.9226 55.5789 55.1347 56.5618C55.3335 57.4833 55.5728 59.3657 54.8154 61.6752L31.6921 54.7969C29.9814 60.0135 32.053 64.4594 33.0982 66.3496C34.4525 68.799 36.3982 71.0853 38.6433 73.2239C43.1662 77.5323 50.3011 82.5527 61.096 88.3475L73.0773 67.5316Z" fill="url(#paint2_linear_201_2568)" fill-opacity="0.27" mask="url(#path-8-inside-1_201_2568)"/>
</g>
<path d="M93.737 55.0949C94.8156 56.4587 96.2431 57.5746 97.0454 58.1526C99.2054 59.7088 101.21 59.6409 103.377 59.3103C103.377 59.3103 104.703 59.1037 105.19 58.897C105.676 58.6904 95.7269 53.0285 92.3662 50.8794C92.3662 51.0528 92.8219 53.9377 93.737 55.0949Z" fill="url(#paint3_linear_201_2568)" fill-opacity="0.5"/>
<path d="M75.6533 44.214C74.0889 44.8415 73.042 44.8466 72.0465 44.8415C69.3664 44.8278 67.2229 43.7539 65.9627 41.3278C65.9627 41.3278 65.0471 39.9293 64.659 39.3199C64.4273 38.9561 71.525 40.8676 77.3047 43.3774C77.1926 43.5159 76.8006 43.7539 75.6533 44.214Z" fill="url(#paint4_linear_201_2568)" fill-opacity="0.5"/>
<g filter="url(#filter4_d_201_2568)">
<path d="M48.9862 47.9156C49.6876 51.0059 55.9135 57.741 73.9856 67.3509C81.4681 71.0921 101.939 78.6055 104.729 76.0627C107.52 73.5199 116.522 59.175 126.53 52.813C127.609 52.1273 126.096 49.1829 120.43 49.7325C119.588 48.9223 117.226 47.5221 116.298 47.6462C115.574 47.743 113.982 48.6077 112.815 49.0842C114.796 50.5596 118.543 55.5543 114.021 56.5426C109.77 57.4715 101.963 60.8081 98.2875 58.9521C94.8317 57.2071 91.6558 53.7119 93.0555 49.6096C94.4551 45.5073 95.3496 38.4135 95.6219 35.3795L97.9933 33.6879C97.4522 32.0071 97.4555 28.1132 99.7704 27.7355C102.853 27.2326 103.64 27.4896 106.165 28.9051C106.636 29.1688 107.234 26.3412 106.803 24.2786C106.564 23.1331 103.559 22.6402 103.491 22.606C103.423 22.5719 103.153 19.9959 102.64 19.1755C102.205 18.4803 101.351 18.0494 100.873 17.8079L100.848 17.7955C100.375 17.5565 99.6569 17.194 98.7191 17.1957C97.5659 17.1979 95.3877 18.5144 95.1849 18.412C94.9821 18.3096 92.8244 16.2599 91.7374 16.6712C89.782 17.411 87.8509 19.7064 88.2941 19.8811C90.396 20.7094 91.684 21.0147 92.791 24.2113C93.6167 26.5958 90.9744 28.5499 89.0533 29.1737L89.0648 32.0685C86.8175 33.7761 81.5204 38.186 78.3105 42.1642C75.1007 46.1425 70.006 44.771 67.8598 43.5879C64.822 40.7617 61.8083 33.8316 60.3309 29.4324C59.3433 26.4917 65.2938 24.3148 67.5328 26.2192C67.4126 25.6274 67.074 24.0734 66.6806 22.5924C66.2873 21.1115 63.5606 20.9424 62.2465 21.0431C59.9076 17.0942 56.1173 15.432 56.3973 17.3999C57.4643 24.8999 48.2848 44.8254 48.9862 47.9156Z" fill="url(#paint5_linear_201_2568)" shape-rendering="crispEdges"/>
<path d="M56.7804 44.7858C57.0871 43.7902 57.4385 42.7161 57.8252 41.5551C59.1402 44.0095 60.8534 46.7022 62.9262 48.6306L63.548 49.2091L64.2969 49.622C66.1996 50.6709 69.193 51.7371 72.591 51.7257C76.2569 51.7134 80.6119 50.3962 83.8485 46.3847C84.8615 45.1292 86.1762 43.7735 87.5321 42.4877C87.1902 44.392 86.7849 46.2133 86.3372 47.5255C84.8341 51.9311 85.9065 55.9715 87.8624 58.9579C89.7191 61.7929 92.4184 63.8268 94.9485 65.1044C97.4383 66.3616 100.052 66.4896 101.945 66.3942C102.553 66.3635 103.16 66.3053 103.757 66.2276C103.46 66.6116 103.175 66.9812 102.904 67.3336C102.686 67.6166 102.476 67.8885 102.276 68.1478C101.882 68.6567 101.532 69.1069 101.22 69.5026C101.183 69.4968 101.147 69.4907 101.109 69.4844C99.1664 69.1602 96.479 68.4566 93.407 67.4834C87.319 65.5547 80.7407 62.897 77.3757 61.224C68.6512 56.5796 63.0462 52.7659 59.6397 49.9108C57.9305 48.4783 56.8777 47.3727 56.2765 46.6148C56.2704 46.6071 56.2644 46.5994 56.2584 46.5918C56.3846 46.11 56.5569 45.5117 56.7804 44.7858ZM102.77 69.6625C102.755 69.663 102.737 69.6633 102.716 69.6632C102.899 69.64 102.938 69.6563 102.77 69.6625Z" stroke="url(#paint6_linear_201_2568)" stroke-opacity="0.27" stroke-width="14" shape-rendering="crispEdges"/>
</g>
<g filter="url(#filter5_d_201_2568)">
<path d="M83.5525 59.0263C81.1597 61.2385 79.4758 61.2246 77.0898 62.0553C76.2822 60.0209 75.2928 57.8669 75.8464 55.135C78.4866 53.0199 80.5978 52.3014 82.5018 52.0266C83.4135 53.9277 83.9717 55.7897 83.5525 59.0263Z" fill="black"/>
</g>
<ellipse cx="1.772" cy="2.15353" rx="1.772" ry="2.15353" transform="matrix(0.892648 0.450755 -0.474905 0.880037 92.8643 28.7759)" fill="black"/>
<path d="M132.849 75.938C133.974 75.9797 134.932 76.3963 135.724 77.188C136.516 77.938 136.932 78.8755 136.974 80.0005V110.625C136.724 113.125 135.349 114.48 132.849 114.688C131.682 114.688 130.662 114.313 129.787 113.563C128.953 112.771 128.537 111.792 128.537 110.625V80.0005C128.578 78.8338 129.016 77.8755 129.849 77.1255C130.682 76.3338 131.682 75.938 132.849 75.938ZM143.537 86.938C146.328 85.063 150.099 83.1672 154.849 81.2505L165.099 76.8755C165.557 76.6672 166.057 76.5422 166.599 76.5005C167.766 76.4172 168.766 76.7713 169.599 77.563C170.432 78.313 170.849 79.2922 170.849 80.5005C170.849 81.8755 170.557 82.8963 169.974 83.563C169.432 84.188 168.724 84.7088 167.849 85.1255L159.099 88.438C157.391 89.1047 155.766 89.7713 154.224 90.438C152.724 91.063 151.349 91.7922 150.099 92.6255C148.849 93.3755 148.182 94.2297 148.099 95.188C148.182 96.1047 148.849 96.9588 150.099 97.7505C151.349 98.5838 152.724 99.3338 154.224 100C155.766 100.625 157.391 101.271 159.099 101.938L168.849 105.5C169.724 105.917 170.432 106.459 170.974 107.125C171.557 107.75 171.849 108.75 171.849 110.125C171.849 111.334 171.432 112.334 170.599 113.125C169.766 113.875 168.766 114.209 167.599 114.125C167.057 114.084 166.557 113.959 166.099 113.75L154.849 109.125C150.099 107.209 146.307 105.313 143.474 103.438C140.682 101.521 139.266 98.7713 139.224 95.188C139.266 91.6047 140.703 88.8547 143.537 86.938ZM181.834 84.813C182.959 84.8547 183.917 85.2713 184.709 86.063C185.501 86.813 185.917 87.7505 185.959 88.8755V110.5C185.709 113 184.334 114.355 181.834 114.563C180.667 114.563 179.647 114.188 178.772 113.438C177.938 112.646 177.522 111.667 177.522 110.5V88.8755C177.563 87.7088 178.001 86.7505 178.834 86.0005C179.667 85.2088 180.667 84.813 181.834 84.813ZM176.584 76.688C176.584 75.5213 177.084 74.5213 178.084 73.688C179.084 72.8547 180.292 72.438 181.709 72.438C183.126 72.438 184.334 72.8547 185.334 73.688C186.334 74.5213 186.834 75.5213 186.834 76.688C186.834 77.8963 186.334 78.9172 185.334 79.7505C184.334 80.5838 183.126 81.0005 181.709 81.0005C180.292 81.0005 179.084 80.5838 178.084 79.7505C177.084 78.9172 176.584 77.8963 176.584 76.688ZM212.882 84.5005C215.048 84.5005 217.173 84.7505 219.257 85.2505C221.382 85.7505 223.402 86.5005 225.319 87.5005C227.236 88.4588 228.923 89.7505 230.382 91.3755C231.882 93.0005 232.694 94.938 232.819 97.188V99.813V110.5C232.569 113 231.194 114.355 228.694 114.563C227.527 114.563 226.507 114.188 225.632 113.438C224.798 112.646 224.382 111.667 224.382 110.5V107.75V99.1255C224.298 97.8338 223.798 96.7713 222.882 95.938C222.007 95.063 221.007 94.3755 219.882 93.8755C218.798 93.3755 217.652 93.0005 216.444 92.7505C215.277 92.5005 214.09 92.3755 212.882 92.3755C211.673 92.3755 210.465 92.5005 209.257 92.7505C208.09 93.0005 206.944 93.3755 205.819 93.8755C204.736 94.3755 203.736 95.063 202.819 95.938C201.944 96.7713 201.465 97.8338 201.382 99.1255V107.75V110.5C201.173 113 199.819 114.355 197.319 114.563C196.152 114.563 195.132 114.188 194.257 113.438C193.423 112.646 193.007 111.667 193.007 110.5V99.813V97.188C193.132 94.938 193.923 93.0005 195.382 91.3755C196.84 89.7505 198.527 88.4588 200.444 87.5005C202.361 86.5005 204.361 85.7505 206.444 85.2505C208.569 84.7505 210.715 84.5005 212.882 84.5005ZM275.179 95.438C275.179 94.3963 274.637 93.8547 273.554 93.813H251.679C250.887 93.8547 250.2 94.2088 249.617 94.8755C249.033 95.5005 248.596 96.2505 248.304 97.1255C248.054 97.9588 247.929 98.813 247.929 99.688C247.929 100.521 248.054 101.375 248.304 102.25C248.596 103.084 249.033 103.834 249.617 104.5C250.2 105.125 250.887 105.438 251.679 105.438H267.679C268.846 105.438 269.825 105.855 270.617 106.688C271.45 107.48 271.867 108.459 271.867 109.625C271.867 110.792 271.45 111.771 270.617 112.563C269.825 113.396 268.846 113.813 267.679 113.813H251.929C249.012 113.771 246.596 112.959 244.679 111.375C242.804 109.75 241.45 107.938 240.617 105.938C239.825 103.896 239.429 101.792 239.429 99.6255C239.429 97.5422 239.846 95.5005 240.679 93.5005C241.512 91.4588 242.867 89.6463 244.742 88.063C246.617 86.438 249.387 85.563 253.054 85.438H279.304C280.471 85.438 281.471 85.8338 282.304 86.6255C283.137 87.3755 283.575 88.3338 283.617 89.5005V109.25C283.617 112.584 283.158 115.73 282.242 118.688C281.408 121.313 280.033 123.521 278.117 125.313C276.242 127.146 273.846 128.146 270.929 128.313H249.304C248.179 128.271 247.221 127.855 246.429 127.063C245.679 126.313 245.283 125.375 245.242 124.25C245.242 123.084 245.617 122.084 246.367 121.25C247.158 120.417 248.137 119.98 249.304 119.938H268.804C270.387 119.855 271.7 119.25 272.742 118.125C273.783 117 274.45 115.688 274.742 114.188C275.033 112.688 275.179 110.75 275.179 108.375V95.438Z" fill="#FFDA2D"/>
<path d="M299.852 110.5C299.602 113 298.227 114.355 295.727 114.563C294.56 114.563 293.539 114.188 292.664 113.438C291.831 112.646 291.414 111.667 291.414 110.5V81.0005C291.456 79.8338 291.893 78.8755 292.727 78.1255C293.56 77.3338 294.56 76.938 295.727 76.938H321.977C325.643 77.063 328.414 77.8755 330.289 79.3755C332.164 80.8338 333.518 82.5005 334.352 84.3755C335.185 86.2505 335.602 88.1463 335.602 90.063C335.602 92.063 335.185 94.0005 334.352 95.8755C333.56 97.7505 332.206 99.438 330.289 100.938C328.414 102.396 326.018 103.105 323.102 103.063H307.352C306.185 103.063 305.206 102.646 304.414 101.813C303.581 101.021 303.164 100.042 303.164 98.8755C303.164 97.7088 303.56 96.7297 304.352 95.938C305.185 95.1047 306.185 94.688 307.352 94.688H323.477C324.268 94.688 324.914 94.438 325.414 93.938C325.956 93.3963 326.352 92.7922 326.602 92.1255C326.852 91.4172 326.977 90.7088 326.977 90.0005C326.977 89.3338 326.852 88.6672 326.602 88.0005C326.352 87.2922 325.956 86.688 325.414 86.188C324.914 85.6463 324.268 85.3547 323.477 85.313H301.477C300.393 85.3547 299.852 85.8963 299.852 86.938V110.5ZM354.524 113.813C350.857 113.688 348.087 112.834 346.212 111.25C344.337 109.625 342.982 107.813 342.149 105.813C341.316 103.771 340.899 101.709 340.899 99.6255C340.899 97.4588 341.295 95.3755 342.087 93.3755C342.92 91.3338 344.274 89.5213 346.149 87.938C348.066 86.313 350.482 85.4797 353.399 85.438H373.649C376.566 85.4797 378.962 86.313 380.837 87.938C382.753 89.5213 384.107 91.3338 384.899 93.3755C385.732 95.3755 386.149 97.4588 386.149 99.6255C386.149 101.709 385.732 103.771 384.899 105.813C384.066 107.813 382.712 109.625 380.837 111.25C378.962 112.834 376.191 113.688 372.524 113.813H354.524ZM353.149 93.813C352.357 93.813 351.67 94.1463 351.087 94.813C350.503 95.438 350.066 96.188 349.774 97.063C349.524 97.8963 349.399 98.7297 349.399 99.563C349.399 100.438 349.524 101.313 349.774 102.188C350.066 103.021 350.503 103.771 351.087 104.438C351.67 105.063 352.357 105.396 353.149 105.438H373.899C374.691 105.396 375.378 105.063 375.962 104.438C376.545 103.771 376.962 103.021 377.212 102.188C377.503 101.313 377.649 100.438 377.649 99.563C377.649 98.7297 377.503 97.8963 377.212 97.063C376.962 96.188 376.545 95.438 375.962 94.813C375.378 94.1463 374.691 93.813 373.899 93.813H353.149ZM412.634 84.5005C414.801 84.5005 416.926 84.7505 419.009 85.2505C421.134 85.7505 423.155 86.5005 425.072 87.5005C426.988 88.4588 428.676 89.7505 430.134 91.3755C431.634 93.0005 432.447 94.938 432.572 97.188V99.813V110.5C432.322 113 430.947 114.355 428.447 114.563C427.28 114.563 426.259 114.188 425.384 113.438C424.551 112.646 424.134 111.667 424.134 110.5V107.75V99.1255C424.051 97.8338 423.551 96.7713 422.634 95.938C421.759 95.063 420.759 94.3755 419.634 93.8755C418.551 93.3755 417.405 93.0005 416.197 92.7505C415.03 92.5005 413.842 92.3755 412.634 92.3755C411.426 92.3755 410.217 92.5005 409.009 92.7505C407.842 93.0005 406.697 93.3755 405.572 93.8755C404.488 94.3755 403.488 95.063 402.572 95.938C401.697 96.7713 401.217 97.8338 401.134 99.1255V107.75V110.5C400.926 113 399.572 114.355 397.072 114.563C395.905 114.563 394.884 114.188 394.009 113.438C393.176 112.646 392.759 111.667 392.759 110.5V99.813V97.188C392.884 94.938 393.676 93.0005 395.134 91.3755C396.592 89.7505 398.28 88.4588 400.197 87.5005C402.113 86.5005 404.113 85.7505 406.197 85.2505C408.322 84.7505 410.467 84.5005 412.634 84.5005ZM474.932 95.438C474.932 94.3963 474.39 93.8547 473.307 93.813H451.432C450.64 93.8547 449.952 94.2088 449.369 94.8755C448.786 95.5005 448.348 96.2505 448.057 97.1255C447.807 97.9588 447.682 98.813 447.682 99.688C447.682 100.521 447.807 101.375 448.057 102.25C448.348 103.084 448.786 103.834 449.369 104.5C449.952 105.125 450.64 105.438 451.432 105.438H467.432C468.598 105.438 469.577 105.855 470.369 106.688C471.202 107.48 471.619 108.459 471.619 109.625C471.619 110.792 471.202 111.771 470.369 112.563C469.577 113.396 468.598 113.813 467.432 113.813H451.682C448.765 113.771 446.348 112.959 444.432 111.375C442.557 109.75 441.202 107.938 440.369 105.938C439.577 103.896 439.182 101.792 439.182 99.6255C439.182 97.5422 439.598 95.5005 440.432 93.5005C441.265 91.4588 442.619 89.6463 444.494 88.063C446.369 86.438 449.14 85.563 452.807 85.438H479.057C480.223 85.438 481.223 85.8338 482.057 86.6255C482.89 87.3755 483.327 88.3338 483.369 89.5005V109.25C483.369 112.584 482.911 115.73 481.994 118.688C481.161 121.313 479.786 123.521 477.869 125.313C475.994 127.146 473.598 128.146 470.682 128.313H449.057C447.932 128.271 446.973 127.855 446.182 127.063C445.432 126.313 445.036 125.375 444.994 124.25C444.994 123.084 445.369 122.084 446.119 121.25C446.911 120.417 447.89 119.98 449.057 119.938H468.557C470.14 119.855 471.452 119.25 472.494 118.125C473.536 117 474.202 115.688 474.494 114.188C474.786 112.688 474.932 110.75 474.932 108.375V95.438Z" fill="white"/>
<defs>
<filter id="filter0_f_201_2568" x="36.7461" y="117.165" width="33" height="72.0935" filterUnits="userSpaceOnUse" color-interpolation-filters="sRGB">
<feFlood flood-opacity="0" result="BackgroundImageFix"/>
<feBlend mode="normal" in="SourceGraphic" in2="BackgroundImageFix" result="shape"/>
<feGaussianBlur stdDeviation="7.5" result="effect1_foregroundBlur_201_2568"/>
</filter>
<filter id="filter1_f_201_2568" x="30.4746" y="117.165" width="33" height="72.0935" filterUnits="userSpaceOnUse" color-interpolation-filters="sRGB">
<feFlood flood-opacity="0" result="BackgroundImageFix"/>
<feBlend mode="normal" in="SourceGraphic" in2="BackgroundImageFix" result="shape"/>
<feGaussianBlur stdDeviation="7.5" result="effect1_foregroundBlur_201_2568"/>
</filter>
<filter id="filter2_f_201_2568" x="60.0391" y="114.292" width="33" height="68.3567" filterUnits="userSpaceOnUse" color-interpolation-filters="sRGB">
<feFlood flood-opacity="0" result="BackgroundImageFix"/>
<feBlend mode="normal" in="SourceGraphic" in2="BackgroundImageFix" result="shape"/>
<feGaussianBlur stdDeviation="7.5" result="effect1_foregroundBlur_201_2568"/>
</filter>
<filter id="filter3_d_201_2568" x="21.1895" y="44.3091" width="84.7852" height="62.1821" filterUnits="userSpaceOnUse" color-interpolation-filters="sRGB">
<feFlood flood-opacity="0" result="BackgroundImageFix"/>
<feColorMatrix in="SourceAlpha" type="matrix" values="0 0 0 0 0 0 0 0 0 0 0 0 0 0 0 0 0 0 127 0" result="hardAlpha"/>
<feOffset dx="-10" dy="7"/>
<feGaussianBlur stdDeviation="6"/>
<feComposite in2="hardAlpha" operator="out"/>
<feColorMatrix type="matrix" values="0 0 0 0 0 0 0 0 0 0 0 0 0 0 0 0 0 0 0.25 0"/>
<feBlend mode="normal" in2="BackgroundImageFix" result="effect1_dropShadow_201_2568"/>
<feBlend mode="normal" in="SourceGraphic" in2="effect1_dropShadow_201_2568" result="shape"/>
</filter>
<filter id="filter4_d_201_2568" x="28.9482" y="5.5708" width="115.906" height="98.0066" filterUnits="userSpaceOnUse" color-interpolation-filters="sRGB">
<feFlood flood-opacity="0" result="BackgroundImageFix"/>
<feColorMatrix in="SourceAlpha" type="matrix" values="0 0 0 0 0 0 0 0 0 0 0 0 0 0 0 0 0 0 127 0" result="hardAlpha"/>
<feOffset dx="-1" dy="8"/>
<feGaussianBlur stdDeviation="9.5"/>
<feComposite in2="hardAlpha" operator="out"/>
<feColorMatrix type="matrix" values="0 0 0 0 0 0 0 0 0 0 0 0 0 0 0 0 0 0 0.25 0"/>
<feBlend mode="normal" in2="BackgroundImageFix" result="effect1_dropShadow_201_2568"/>
<feBlend mode="normal" in="SourceGraphic" in2="effect1_dropShadow_201_2568" result="shape"/>
</filter>
<filter id="filter5_d_201_2568" x="35.6855" y="18.0266" width="80.0088" height="82.0288" filterUnits="userSpaceOnUse" color-interpolation-filters="sRGB">
<feFlood flood-opacity="0" result="BackgroundImageFix"/>
<feColorMatrix in="SourceAlpha" type="matrix" values="0 0 0 0 0 0 0 0 0 0 0 0 0 0 0 0 0 0 127 0" result="hardAlpha"/>
<feOffset dx="-4" dy="2"/>
<feGaussianBlur stdDeviation="18"/>
<feComposite in2="hardAlpha" operator="out"/>
<feColorMatrix type="matrix" values="0 0 0 0 0 0 0 0 0 0 0 0 0 0 0 0 0 0 0.25 0"/>
<feBlend mode="normal" in2="BackgroundImageFix" result="effect1_dropShadow_201_2568"/>
<feBlend mode="normal" in="SourceGraphic" in2="effect1_dropShadow_201_2568" result="shape"/>
</filter>
<radialGradient id="paint0_radial_201_2568" cx="0" cy="0" r="1" gradientUnits="userSpaceOnUse" gradientTransform="translate(65.9551 42.073) rotate(122.577) scale(49.9285 46.4317)">
<stop offset="0.203125" stop-color="#B9B9B9" stop-opacity="0.95"/>
<stop offset="0.552083" stop-color="#999999"/>
<stop offset="1" stop-color="#545454" stop-opacity="0.9"/>
</radialGradient>
<linearGradient id="paint1_linear_201_2568" x1="49.4487" y1="62.5356" x2="106.439" y2="82.1111" gradientUnits="userSpaceOnUse">
<stop offset="0.0315335" stop-color="#B08743"/>
<stop offset="0.390961" stop-color="#FFC82D" stop-opacity="0.95"/>
<stop offset="0.64796" stop-color="#FFE72D" stop-opacity="0.95"/>
<stop offset="0.904958" stop-color="#FFC82D"/>
</linearGradient>
<linearGradient id="paint2_linear_201_2568" x1="105.477" y1="81.48" x2="78.7674" y2="99.8379" gradientUnits="userSpaceOnUse">
<stop stop-color="#FF650B" stop-opacity="0.18"/>
<stop offset="1" stop-color="#FF650B" stop-opacity="0"/>
</linearGradient>
<linearGradient id="paint3_linear_201_2568" x1="97.7168" y1="60.1369" x2="101.556" y2="52.5998" gradientUnits="userSpaceOnUse">
<stop stop-color="#635E5E" stop-opacity="0.6"/>
<stop offset="0.410259" stop-color="#6E592D" stop-opacity="0.7"/>
<stop offset="0.657617" stop-color="#FFB928"/>
<stop offset="0.989583" stop-color="#F9DD2E"/>
</linearGradient>
<linearGradient id="paint4_linear_201_2568" x1="69.2932" y1="44.6942" x2="71.8991" y2="39.4256" gradientUnits="userSpaceOnUse">
<stop stop-color="#635E5E" stop-opacity="0.6"/>
<stop offset="0.380177" stop-color="#6E592D" stop-opacity="0.8"/>
<stop offset="0.822917" stop-color="#FFB928"/>
<stop offset="0.989583" stop-color="#F9DD2E"/>
</linearGradient>
<linearGradient id="paint5_linear_201_2568" x1="61.923" y1="39.153" x2="114.475" y2="59.4974" gradientUnits="userSpaceOnUse">
<stop stop-color="#B08743"/>
<stop offset="0.310258" stop-color="#FFC82D" stop-opacity="0.95"/>
<stop offset="0.566289" stop-color="#FFE72D" stop-opacity="0.95"/>
<stop offset="0.886839" stop-color="#FFC82D"/>
</linearGradient>
<linearGradient id="paint6_linear_201_2568" x1="127.575" y1="56.5743" x2="65.8464" y2="59.0732" gradientUnits="userSpaceOnUse">
<stop stop-color="#FF650B" stop-opacity="0.68"/>
<stop offset="1" stop-color="#FF650B" stop-opacity="0"/>
</linearGradient>
</defs>
</svg>
