<svg width="1440" height="720" viewBox="0 0 1440 720" fill="none" xmlns="http://www.w3.org/2000/svg">
<g clip-path="url(#clip0_693_2398)">
<circle cx="552" cy="685" r="21" fill="#6A6A6A" fill-opacity="0.25"/>
<circle cx="286" cy="469" r="21" fill="#6A6A6A" fill-opacity="0.25"/>
<circle cx="368" cy="360" r="21" fill="#6A6A6A" fill-opacity="0.25"/>
<circle cx="114" cy="340" r="17" fill="#6A6A6A" fill-opacity="0.25"/>
<path d="M583.5 730.5L583.5 660L506.776 638.648C489.472 633.832 477.5 618.073 477.5 600.112L477.5 564.126L477.5 496.25L477.5 360.5L477.5 224.75L477.5 156.875L477.5 125.252C477.5 106.429 490.623 90.1525 509.018 86.1612L583.5 70L583.5 -15.5" stroke="#250A3B" stroke-width="5"/>
<path d="M583.5 730.5L583.5 660L506.776 638.648C489.472 633.832 477.5 618.073 477.5 600.112L477.5 564.126L477.5 496.25L477.5 360.5L477.5 224.75L477.5 156.875L477.5 125.251C477.5 106.429 490.623 90.1524 509.018 86.161L583.5 69.9999L583.5 -15.5001" stroke="white" stroke-opacity="0.25" stroke-width="2"/>
<path d="M26.6742 243.247C22.6714 238.925 22.9304 232.176 27.2527 228.174C31.575 224.171 38.3238 224.43 42.3266 228.752C46.3293 233.074 46.0703 239.823 41.748 243.826C37.4257 247.829 30.6769 247.57 26.6742 243.247ZM100.758 303.654L99.3287 305.053L100.758 303.654ZM129.335 315.666L129.335 313.666L129.335 313.666L129.335 315.666ZM279.173 322.914C275.171 318.591 275.43 311.842 279.752 307.84C284.074 303.837 290.823 304.096 294.826 308.418C298.829 312.741 298.57 319.489 294.247 323.492C289.925 327.495 283.176 327.236 279.173 322.914ZM35.9293 234.6L102.186 302.254L99.3287 305.053L33.0715 237.399L35.9293 234.6ZM129.335 313.666L287 313.666L287 317.666L129.335 317.666L129.335 313.666ZM102.186 302.254C109.334 309.553 119.12 313.666 129.335 313.666L129.335 317.666C118.044 317.666 107.229 313.12 99.3287 305.053L102.186 302.254Z" fill="#250A3B"/>
<path d="M-2.82607 188.346C-6.82884 184.024 -6.56981 177.275 -2.24752 173.272C2.07476 169.27 8.82355 169.529 12.8263 173.851C16.8291 178.173 16.5701 184.922 12.2478 188.925C7.92549 192.927 1.1767 192.668 -2.82607 188.346ZM108.308 283.42L109.715 281.999L109.715 281.999L108.308 283.42ZM136.456 295L136.456 297L136.456 297L136.456 295ZM219.174 302.248C215.171 297.925 215.43 291.177 219.752 287.174C224.075 283.171 230.823 283.43 234.826 287.752C238.829 292.075 238.57 298.823 234.248 302.826C229.925 306.829 223.177 306.57 219.174 302.248ZM6.40754 179.678L109.715 281.999L106.9 284.841L3.59271 182.519L6.40754 179.678ZM136.456 293L227 293L227 297L136.456 297L136.456 293ZM109.715 281.999C116.831 289.046 126.441 293 136.456 293L136.456 297C125.387 297 114.765 292.63 106.9 284.841L109.715 281.999Z" fill="#250A3B"/>
<path d="M1.08703 184.722C-0.914355 182.561 -0.784843 179.187 1.3763 177.185C3.53744 175.184 6.91184 175.314 8.91322 177.475C10.9146 179.636 10.7851 183.01 8.62395 185.012C6.46281 187.013 3.08841 186.883 1.08703 184.722ZM108.308 283.42L109.011 282.709L109.011 282.709L108.308 283.42ZM136.456 295L136.456 296L136.456 296L136.456 295ZM223.087 298.624C221.086 296.463 221.215 293.088 223.376 291.087C225.537 289.086 228.912 289.215 230.913 291.376C232.914 293.537 232.785 296.912 230.624 298.913C228.463 300.914 225.088 300.785 223.087 298.624ZM5.70383 180.388L109.011 282.709L107.604 284.13L4.29642 181.809L5.70383 180.388ZM136.456 294L227 294L227 296L136.456 296L136.456 294ZM109.011 282.709C116.314 289.942 126.177 294 136.456 294L136.456 296C125.65 296 115.281 291.734 107.604 284.13L109.011 282.709Z" fill="white" fill-opacity="0.25"/>
<path d="M5.17456 169.248C1.17179 164.926 1.43081 158.177 5.7531 154.174C10.0754 150.171 16.8242 150.43 20.8269 154.753C24.8297 159.075 24.5707 165.824 20.2484 169.826C15.9261 173.829 9.17733 173.57 5.17456 169.248ZM113.337 260.296L114.736 258.867L114.736 258.867L113.337 260.296ZM141.329 271.722L141.329 273.722L141.329 273.722L141.329 271.722ZM188.674 278.97C184.672 274.648 184.931 267.899 189.253 263.896C193.575 259.894 200.324 260.153 204.327 264.475C208.33 268.797 208.071 275.546 203.748 279.549C199.426 283.552 192.677 283.292 188.674 278.97ZM14.4004 160.572L114.736 258.867L111.937 261.724L11.6011 163.429L14.4004 160.572ZM141.329 269.722L196.501 269.723L196.501 273.723L141.329 273.722L141.329 269.722ZM114.736 258.867C121.839 265.825 131.386 269.722 141.329 269.722L141.329 273.722C130.339 273.722 119.787 269.415 111.937 261.724L114.736 258.867Z" fill="#250A3B"/>
<path d="M26.1742 541.517C22.1714 545.839 22.4304 552.588 26.7527 556.591C31.075 560.593 37.8238 560.334 41.8266 556.012C45.8293 551.69 45.5703 544.941 41.248 540.938C36.9257 536.935 30.1769 537.194 26.1742 541.517ZM100.258 481.11L98.8287 479.711L100.258 481.11ZM128.835 469.098L128.835 471.098L128.835 471.098L128.835 469.098ZM278.673 461.851C274.671 466.173 274.93 472.922 279.252 476.924C283.574 480.927 290.323 480.668 294.326 476.346C298.329 472.024 298.07 465.275 293.747 461.272C289.425 457.269 282.676 457.528 278.673 461.851ZM35.4293 550.164L101.686 482.51L98.8287 479.711L32.5715 547.365L35.4293 550.164ZM128.835 471.098L286.5 471.098L286.5 467.098L128.835 467.098L128.835 471.098ZM101.686 482.51C108.834 475.211 118.62 471.098 128.835 471.098L128.835 467.098C117.544 467.098 106.729 471.644 98.8287 479.711L101.686 482.51Z" fill="#250A3B"/>
<path d="M160.501 337.47L160.501 335.47L159.486 335.47L158.887 336.289L160.501 337.47ZM207.858 343.722C211.311 348.495 217.979 349.566 222.752 346.113C227.525 342.66 228.596 335.992 225.143 331.219C221.691 326.445 215.022 325.375 210.249 328.828C205.476 332.28 204.405 338.949 207.858 343.722ZM363.859 447.752C367.311 452.525 373.98 453.596 378.753 450.143C383.526 446.69 384.597 440.022 381.144 435.249C377.691 430.476 371.023 429.405 366.25 432.858C361.477 436.31 360.406 442.979 363.859 447.752ZM124.001 441.5L122.001 441.5L122.001 443.5L124.001 443.5L124.001 441.5ZM-88.1426 328.752C-84.6899 333.525 -78.0215 334.595 -73.2484 331.143C-68.4752 327.69 -67.4047 321.022 -70.8574 316.248C-74.3101 311.475 -80.9785 310.405 -85.7516 313.857C-90.5248 317.31 -91.5953 323.978 -88.1426 328.752ZM54.5007 456.5L53.0865 457.914L54.4975 459.325L55.9117 457.918L54.5007 456.5ZM125.614 388.496L162.114 338.652L158.887 336.289L122.387 386.133L125.614 388.496ZM160.501 339.47L216.501 339.47L216.501 335.47L160.501 335.47L160.501 339.47ZM372.501 439.5L124.001 439.5L124.001 443.5L372.501 443.5L372.501 439.5ZM126.001 441.5L126.001 387.315L122.001 387.315L122.001 441.5L126.001 441.5ZM-80.9142 323.914L53.0865 457.914L55.915 455.086L-78.0858 321.086L-80.9142 323.914ZM55.9117 457.918L125.412 388.732L122.59 385.897L53.0897 455.083L55.9117 457.918Z" fill="#250A3B"/>
<path d="M367.999 168.888L365.499 168.888V168.888L367.999 168.888ZM381.956 138.528L380.328 136.63L380.328 136.63L381.956 138.528ZM477 70.3333C469.636 70.3333 463.667 64.3638 463.667 57C463.667 49.6362 469.636 43.6667 477 43.6667C484.364 43.6667 490.333 49.6362 490.333 57C490.333 64.3638 484.364 70.3333 477 70.3333ZM367.999 373.833C360.635 373.833 354.666 367.864 354.666 360.5C354.666 353.136 360.635 347.167 367.999 347.167C375.363 347.167 381.332 353.136 381.332 360.5C381.332 367.864 375.363 373.833 367.999 373.833ZM419.999 335.333C412.636 335.333 406.666 329.364 406.666 322C406.666 314.636 412.636 308.667 419.999 308.667C427.363 308.667 433.333 314.636 433.333 322C433.333 329.364 427.363 335.333 419.999 335.333ZM419.999 265.5L420.449 263.041L422.499 263.415L422.499 265.5L419.999 265.5ZM365.499 256L365.499 168.888L370.499 168.888L370.499 256L365.499 256ZM380.328 136.63L475.372 55.1025L478.628 58.8975L383.584 140.425L380.328 136.63ZM365.499 360.5L365.499 256L370.499 256L370.499 360.5L365.499 360.5ZM417.499 322L417.499 265.5L422.499 265.5L422.499 322L417.499 322ZM419.55 267.959L367.55 258.459L368.448 253.541L420.449 263.041L419.55 267.959ZM365.499 168.888C365.499 156.487 370.916 144.704 380.328 136.63L383.584 140.425C375.278 147.55 370.499 157.946 370.499 168.888L365.499 168.888Z" fill="#250A3B"/>
<path d="M367.999 168.888L366.999 168.888V168.888L367.999 168.888ZM381.956 138.528L381.305 137.769L381.305 137.769L381.956 138.528ZM477 62.3333C474.054 62.3333 471.667 59.9455 471.667 57C471.667 54.0545 474.054 51.6667 477 51.6667C479.946 51.6667 482.333 54.0545 482.333 57C482.333 59.9455 479.946 62.3333 477 62.3333ZM367.999 365.833C365.053 365.833 362.666 363.446 362.666 360.5C362.666 357.554 365.053 355.167 367.999 355.167C370.944 355.167 373.332 357.554 373.332 360.5C373.332 363.446 370.944 365.833 367.999 365.833ZM419.999 327.333C417.054 327.333 414.666 324.946 414.666 322C414.666 319.054 417.054 316.667 419.999 316.667C422.945 316.667 425.333 319.054 425.333 322C425.333 324.946 422.945 327.333 419.999 327.333ZM419.999 265.5L420.179 264.516L420.999 264.666L420.999 265.5L419.999 265.5ZM366.999 256L366.999 168.888L368.999 168.888L368.999 256L366.999 256ZM381.305 137.769L476.349 56.241L477.651 57.759L382.607 139.287L381.305 137.769ZM366.999 360.5L366.999 256L368.999 256L368.999 360.5L366.999 360.5ZM418.999 322L418.999 265.5L420.999 265.5L420.999 322L418.999 322ZM419.82 266.484L367.819 256.984L368.179 255.016L420.179 264.516L419.82 266.484ZM366.999 168.888C366.999 156.925 372.224 145.558 381.305 137.769L382.607 139.287C373.969 146.696 368.999 157.508 368.999 168.888L366.999 168.888Z" fill="white" fill-opacity="0.25"/>
<path d="M390.343 455.343C387.219 458.467 387.219 463.533 390.343 466.657C393.467 469.781 398.533 469.781 401.657 466.657C404.781 463.533 404.781 458.467 401.657 455.343C398.533 452.219 393.467 452.219 390.343 455.343ZM449.033 514.033C445.909 517.157 445.909 522.223 449.033 525.347C452.157 528.471 457.223 528.471 460.347 525.347C463.471 522.223 463.471 517.157 460.347 514.033C457.223 510.909 452.157 510.909 449.033 514.033ZM394.939 462.061L453.629 520.751L455.751 518.629L397.061 459.939L394.939 462.061Z" fill="#250A3B"/>
<path d="M122.046 333.006C117.943 328.778 111.19 328.678 106.963 332.781C102.735 336.884 102.635 343.637 106.738 347.864C110.841 352.091 117.594 352.192 121.821 348.089C126.048 343.986 126.149 337.233 122.046 333.006ZM112.978 339.021L-59.9142 511.913L-57.0858 514.742L115.806 341.849L112.978 339.021Z" fill="#250A3B"/>
<path d="M221.174 565.248C217.172 560.926 217.431 554.177 221.753 550.174C226.075 546.171 232.824 546.43 236.827 550.753C240.83 555.075 240.57 561.824 236.248 565.826C231.926 569.829 225.177 569.57 221.174 565.248ZM366.787 676.132L365.485 677.65L365.485 677.65L366.787 676.132ZM392.823 685.765L392.823 687.765L392.823 687.765L392.823 685.765ZM544.674 693.012C540.672 688.69 540.931 681.941 545.253 677.938C549.575 673.935 556.324 674.194 560.327 678.517C564.329 682.839 564.07 689.588 559.748 693.591C555.426 697.593 548.677 697.334 544.674 693.012ZM230.302 556.482L368.089 674.613L365.485 677.65L227.699 559.519L230.302 556.482ZM392.823 683.765L552.501 683.764L552.501 687.764L392.823 687.765L392.823 683.765ZM368.089 674.613C374.977 680.519 383.75 683.765 392.823 683.765L392.823 687.765C382.795 687.765 373.098 684.177 365.485 677.65L368.089 674.613Z" fill="#250A3B"/>
</g>
<defs>
<clipPath id="clip0_693_2398">
<rect width="1440" height="720" fill="white"/>
</clipPath>
</defs>
</svg>
