<svg width="720" height="522" viewBox="0 0 720 522" fill="none" xmlns="http://www.w3.org/2000/svg">
<g clip-path="url(#clip0_833_2527)">
<circle cx="21" cy="21" r="21" transform="matrix(4.37114e-08 -1 -1 -4.37114e-08 432 373.001)" fill="#6A6A6A" fill-opacity="0.25"/>
<path fill-rule="evenodd" clip-rule="evenodd" d="M563.625 404.501L595.249 404.501C612.895 404.501 628.154 416.804 631.896 434.049L648.057 508.531L648.484 510.501L650.5 510.501L720 510.501L720 505.501L652.516 505.501L636.782 432.989C632.541 413.445 615.248 399.501 595.249 399.501L563.625 399.501L495.75 399.501L360 399.501L224.25 399.501L156.374 399.501L120.388 399.501C101.304 399.501 84.5604 412.221 79.4439 430.606L58.6008 505.501L2.18557e-07 505.501L0 510.501L60.5 510.501L62.3993 510.501L62.9084 508.671L84.2608 431.947C88.7754 415.725 103.549 404.501 120.388 404.501L156.374 404.501L224.25 404.501L360 404.501L495.75 404.501L563.625 404.501Z" fill="#250A3B"/>
<path fill-rule="evenodd" clip-rule="evenodd" d="M563.625 403.001L595.249 403.001C613.601 403.001 629.47 415.796 633.362 433.731L649.523 508.213L649.694 509.001L650.5 509.001L720 509.001L720 507.001L651.306 507.001L635.316 433.307C631.225 414.452 614.542 401.001 595.249 401.001L563.625 401.001L495.75 401.001L360 401.001L224.25 401.001L156.374 401.001L120.388 401.001C101.978 401.001 85.8249 413.272 80.889 431.008L59.7403 507.001L8.74231e-08 507.001L0 509.001L60.5 509.001L61.2597 509.001L61.4634 508.269L82.8157 431.545C87.5109 414.674 102.876 403.001 120.388 403.001L156.374 403.001L224.25 403.001L360 403.001L495.75 403.001L563.625 403.001Z" fill="white" fill-opacity="0.25"/>
<path d="M579.967 370.601C583.501 365.888 590.187 364.933 594.9 368.468C599.613 372.002 600.568 378.688 597.033 383.401C593.499 388.114 586.813 389.069 582.1 385.534C577.387 382 576.432 375.314 579.967 370.601ZM649.967 418.6C653.501 413.887 660.187 412.932 664.9 416.467C669.613 420.001 670.568 426.687 667.033 431.4C663.499 436.113 656.813 437.068 652.1 433.533C647.387 429.999 646.432 423.313 649.967 418.6ZM650.233 402.956L652.106 402.253L650.233 402.956ZM588.5 375.001L612.78 375.001L612.78 379.001L588.5 379.001L588.5 375.001ZM652.106 402.253L660.373 424.298L656.627 425.702L648.361 403.658L652.106 402.253ZM612.78 375.001C630.287 375.001 645.959 385.861 652.106 402.253L648.361 403.658C642.799 388.826 628.62 379.001 612.78 379.001L612.78 375.001Z" fill="#250A3B"/>
<path d="M584.233 373.801C586.001 371.445 589.344 370.967 591.7 372.734C594.056 374.502 594.534 377.845 592.767 380.201C590.999 382.557 587.656 383.035 585.3 381.268C582.944 379.5 582.466 376.157 584.233 373.801ZM654.233 421.8C656.001 419.444 659.344 418.966 661.7 420.733C664.056 422.501 664.534 425.844 662.767 428.2C660.999 430.556 657.656 431.034 655.3 429.267C652.944 427.499 652.466 424.156 654.233 421.8ZM650.233 402.956L651.17 402.605L650.233 402.956ZM588.5 376.001L612.78 376.001L612.78 378.001L588.5 378.001L588.5 376.001ZM651.17 402.605L659.436 424.649L657.564 425.351L649.297 403.307L651.17 402.605ZM612.78 376.001C629.871 376.001 645.169 386.602 651.17 402.605L649.297 403.307C643.589 388.085 629.037 378.001 612.78 378.001L612.78 376.001Z" fill="white" fill-opacity="0.25"/>
<path fill-rule="evenodd" clip-rule="evenodd" d="M545.75 -10.9993L540.033 -10.9993L536.124 -7.17064C528.057 0.729586 523.511 11.545 523.511 22.836L523.511 170.021C521.611 170.382 519.787 171.263 518.263 172.674C513.941 176.677 513.682 183.426 517.685 187.748C521.688 192.07 528.436 192.329 532.759 188.326C537.081 184.324 537.34 177.575 533.337 173.253C531.727 171.514 529.673 170.433 527.511 170.022L527.511 22.836C527.511 12.6204 531.624 2.83496 538.923 -4.31286L545.75 -10.9993Z" fill="#250A3B"/>
<path fill-rule="evenodd" clip-rule="evenodd" d="M573.258 -10.9997L567.628 -10.9997L556.336 0.400582C548.547 8.26523 544.177 18.887 544.177 29.9563L544.177 110.021C542.277 110.382 540.453 111.263 538.929 112.674C534.607 116.677 534.348 123.426 538.351 127.748C542.354 132.07 549.102 132.329 553.425 128.326C557.747 124.324 558.006 117.575 554.003 113.253C552.393 111.514 550.339 110.433 548.177 110.022L548.177 29.9563C548.177 19.9412 552.131 10.331 559.178 3.21541L573.258 -10.9997Z" fill="#250A3B"/>
<path fill-rule="evenodd" clip-rule="evenodd" d="M601.154 -10.9983L595.555 -10.9983L579.452 5.4388C571.761 13.2891 567.454 23.841 567.454 34.8306L567.454 79.5233C565.554 79.884 563.729 80.7653 562.206 82.176C557.884 86.1788 557.625 92.9276 561.628 97.2499C565.63 101.572 572.379 101.831 576.701 97.8284C581.024 93.8257 581.283 87.0769 577.28 82.7546C575.67 81.0161 573.616 79.9349 571.454 79.524L571.454 34.8306C571.454 24.8876 575.351 15.3407 582.309 8.23803L601.154 -10.9983Z" fill="#250A3B"/>
<path fill-rule="evenodd" clip-rule="evenodd" d="M358.066 -10.9993L352.349 -10.9993L358.666 -4.81286C365.964 2.33496 370.078 12.1204 370.078 22.336L370.077 169.522C367.916 169.933 365.861 171.014 364.251 172.753C360.248 177.075 360.507 183.824 364.83 187.826C369.152 191.829 375.901 191.57 379.904 187.248C383.906 182.926 383.647 176.177 379.325 172.174C377.802 170.763 375.977 169.882 374.077 169.521L374.078 22.336C374.078 11.045 369.531 0.229586 361.465 -7.67064L358.066 -10.9993Z" fill="#250A3B"/>
<path fill-rule="evenodd" clip-rule="evenodd" d="M356.638 -10.9999L353.78 -10.9999L359.367 -5.52793C366.858 1.80799 371.079 11.8509 371.079 22.3354L371.079 174.761C369.998 174.966 368.971 175.507 368.166 176.376C366.164 178.537 366.294 181.911 368.455 183.913C370.616 185.914 373.99 185.785 375.992 183.623C377.993 181.462 377.864 178.088 375.703 176.087C374.941 175.381 374.029 174.941 373.079 174.76L373.079 22.3354C373.079 11.3132 368.641 0.755306 360.766 -6.95682L356.638 -10.9999Z" fill="white" fill-opacity="0.25"/>
<path fill-rule="evenodd" clip-rule="evenodd" d="M428.312 -10.9985L422.668 -10.9985L449.048 15.5015L399.676 15.5015L397.676 15.5015L397.676 17.5015L397.676 255.521C396.186 255.805 394.734 256.412 393.424 257.359C388.651 260.812 387.58 267.48 391.033 272.253C394.486 277.026 401.154 278.097 405.927 274.644C410.7 271.191 411.771 264.523 408.318 259.75C406.658 257.455 404.254 256.016 401.676 255.524L401.676 19.5015L453.207 19.5015L501.706 55.0158L501.706 99.5214C500.216 99.8046 498.764 100.411 497.454 101.359C492.681 104.812 491.61 111.48 495.063 116.253C498.516 121.026 505.184 122.097 509.957 118.644C514.73 115.191 515.801 108.523 512.348 103.75C510.688 101.455 508.285 100.016 505.706 99.524L505.706 54.0015L505.706 52.9872L504.887 52.3879L455.169 15.9801L428.312 -10.9985Z" fill="#250A3B"/>
<path d="M561.667 375.002C561.667 380.893 556.891 385.669 551 385.669C545.109 385.669 540.333 380.893 540.333 375.002C540.333 369.111 545.109 364.335 551 364.335C556.891 364.335 561.667 369.111 561.667 375.002ZM258.167 266.001C258.167 271.892 253.391 276.668 247.5 276.668C241.609 276.668 236.833 271.892 236.833 266.001C236.833 260.11 241.609 255.334 247.5 255.334C253.391 255.334 258.167 260.11 258.167 266.001ZM329.028 361.045L330.546 359.743L329.028 361.045ZM551 377.002L411 377.002V373.002L551 373.002V377.002ZM411 377.002L359.388 377.002V373.002L411 373.002V377.002ZM327.51 362.347L245.982 267.303L249.018 264.699L330.546 359.743L327.51 362.347ZM359.388 377.002C347.133 377.002 335.489 371.649 327.51 362.347L330.546 359.743C337.765 368.159 348.3 373.002 359.388 373.002V377.002Z" fill="#250A3B"/>
<path d="M94.1667 243C94.1667 235.636 100.136 229.667 107.5 229.667C114.864 229.667 120.833 235.636 120.833 243C120.833 250.364 114.864 256.333 107.5 256.333C100.136 256.333 94.1667 250.364 94.1667 243ZM397.667 352.001C397.667 344.637 403.636 338.668 411 338.668C418.364 338.668 424.333 344.637 424.333 352.001C424.333 359.365 418.364 365.334 411 365.334C403.636 365.334 397.667 359.365 397.667 352.001ZM132.667 295C132.667 287.637 138.636 281.667 146 281.667C153.364 281.667 159.333 287.637 159.333 295C159.333 302.364 153.364 308.334 146 308.334C138.636 308.334 132.667 302.364 132.667 295ZM202.5 295L204.959 295.45L204.585 297.5L202.5 297.5L202.5 295ZM299.112 243L299.112 240.5L299.112 243ZM329.472 256.957L327.575 258.585L329.472 256.957ZM212 240.5L299.112 240.5L299.112 245.5L212 245.5L212 240.5ZM331.37 255.329L412.898 350.373L409.102 353.629L327.575 258.585L331.37 255.329ZM107.5 240.5L212 240.5L212 245.5L107.5 245.5L107.5 240.5ZM146 292.5L202.5 292.5L202.5 297.5L146 297.5L146 292.5ZM200.041 294.551L209.541 242.551L214.459 243.449L204.959 295.45L200.041 294.551ZM299.112 240.5C311.513 240.5 323.296 245.917 331.37 255.329L327.575 258.585C320.45 250.279 310.054 245.5 299.112 245.5L299.112 240.5Z" fill="#250A3B"/>
<path fill-rule="evenodd" clip-rule="evenodd" d="M720 462.502L681.099 462.502C679.929 456.333 674.509 451.668 668 451.668C660.636 451.668 654.667 457.638 654.667 465.002C654.667 472.365 660.636 478.335 668 478.335C674.509 478.335 679.929 473.67 681.099 467.502L720 467.502L720 462.502Z" fill="#250A3B"/>
<path fill-rule="evenodd" clip-rule="evenodd" d="M720 464.002L673.24 464.002C672.772 461.534 670.604 459.668 668 459.668C665.054 459.668 662.667 462.056 662.667 465.002C662.667 467.947 665.054 470.335 668 470.335C670.604 470.335 672.772 468.469 673.24 466.002L720 466.002L720 464.002Z" fill="#6A6A6A" fill-opacity="0.5"/>
<path d="M363.657 346.658C360.533 349.782 355.467 349.782 352.343 346.658C349.219 343.534 349.219 338.468 352.343 335.344C355.467 332.22 360.533 332.22 363.657 335.344C366.781 338.468 366.781 343.534 363.657 346.658ZM304.967 287.968C301.843 291.092 296.777 291.092 293.653 287.968C290.529 284.844 290.529 279.778 293.653 276.654C296.777 273.53 301.843 273.53 304.967 276.654C308.091 279.778 308.091 284.844 304.967 287.968ZM356.939 342.062L298.249 283.372L300.371 281.25L359.061 339.94L356.939 342.062Z" fill="#250A3B"/>
<path fill-rule="evenodd" clip-rule="evenodd" d="M485.192 -10.9997L479.617 -10.9997L492.008 1.76598C489.118 5.87488 489.46 11.5852 493.087 15.322C497.19 19.5493 503.943 19.6501 508.171 15.5471C512.398 11.4441 512.499 4.69112 508.396 0.463824C504.769 -3.27294 499.071 -3.78531 494.878 -1.01992L485.192 -10.9997Z" fill="#250A3B"/>
</g>
<defs>
<clipPath id="clip0_833_2527">
<rect width="720" height="522" fill="white"/>
</clipPath>
</defs>
</svg>
