<svg width="522" height="720" viewBox="0 0 522 720" fill="none" xmlns="http://www.w3.org/2000/svg">
<g clip-path="url(#clip0_833_2527)">
<circle cx="21" cy="21" r="21" transform="matrix(-1 0 0 1 384.5 288)" fill="#6A6A6A" fill-opacity="0.25"/>
<path fill-rule="evenodd" clip-rule="evenodd" d="M416 156.375L416 124.751C416 107.105 428.303 91.8461 445.548 88.1042L520.03 71.9431L522 71.5156L522 69.4999L522 0H517L517 67.4841L444.488 83.2179C424.944 87.4587 411 104.752 411 124.751L411 156.375L411 224.25V360L411 495.75L411 563.626L411 599.612C411 618.696 423.72 635.44 442.105 640.556L517 661.399L517 720H522L522 659.5L522 657.601L520.17 657.092L443.446 635.739C427.224 631.225 416 616.451 416 599.612L416 563.626L416 495.75L416 360V224.25L416 156.375Z" fill="#250A3B"/>
<path fill-rule="evenodd" clip-rule="evenodd" d="M414.5 156.375L414.5 124.751C414.5 106.399 427.295 90.5298 445.23 86.6383L519.712 70.4771L520.5 70.3062L520.5 69.4999L520.5 0H518.5L518.5 68.6936L444.806 84.6838C425.951 88.7749 412.5 105.458 412.5 124.751L412.5 156.375L412.5 224.25V360L412.5 495.75L412.5 563.626L412.5 599.612C412.5 618.022 424.771 634.175 442.508 639.111L518.5 660.26L518.5 720H520.5L520.5 659.5L520.5 658.74L519.768 658.537L443.044 637.184C426.173 632.489 414.5 617.124 414.5 599.612L414.5 563.626L414.5 495.75L414.5 360V224.25L414.5 156.375Z" fill="white" fill-opacity="0.25"/>
<path d="M382.1 140.033C377.387 136.499 376.432 129.813 379.967 125.1C383.501 120.387 390.187 119.432 394.9 122.967C399.613 126.501 400.568 133.187 397.033 137.9C393.499 142.613 386.813 143.568 382.1 140.033ZM430.099 70.0333C425.386 66.4987 424.431 59.8128 427.966 55.1C431.5 50.3872 438.186 49.432 442.899 52.9667C447.612 56.5013 448.567 63.1872 445.032 67.9C441.498 72.6128 434.812 73.568 430.099 70.0333ZM414.455 69.7668L413.752 67.8941L414.455 69.7668ZM386.5 131.5L386.5 107.22L390.5 107.22L390.5 131.5L386.5 131.5ZM413.752 67.8941L435.797 59.6273L437.201 63.3727L415.157 71.6394L413.752 67.8941ZM386.5 107.22C386.5 89.7126 397.36 74.0415 413.752 67.8941L415.157 71.6394C400.325 77.2013 390.5 91.38 390.5 107.22L386.5 107.22Z" fill="#250A3B"/>
<path d="M385.3 135.767C382.944 133.999 382.466 130.656 384.233 128.3C386.001 125.944 389.344 125.466 391.7 127.233C394.056 129.001 394.534 132.344 392.767 134.7C390.999 137.056 387.656 137.534 385.3 135.767ZM433.299 65.7667C430.943 63.9994 430.465 60.6564 432.232 58.3C434 55.9436 437.343 55.466 439.699 57.2333C442.055 59.0006 442.533 62.3436 440.766 64.7C438.998 67.0564 435.655 67.534 433.299 65.7667ZM414.455 69.7668L414.104 68.8304L414.455 69.7668ZM387.5 131.5L387.5 107.22L389.5 107.22L389.5 131.5L387.5 131.5ZM414.104 68.8304L436.148 60.5637L436.85 62.4363L414.806 70.7031L414.104 68.8304ZM387.5 107.22C387.5 90.1295 398.101 74.8315 414.104 68.8304L414.806 70.7031C399.584 76.4114 389.5 90.9632 389.5 107.22L387.5 107.22Z" fill="white" fill-opacity="0.25"/>
<path fill-rule="evenodd" clip-rule="evenodd" d="M0.499713 174.251V179.968L4.32839 183.877C12.2286 191.944 23.0441 196.49 34.3351 196.49L181.52 196.49C181.881 198.389 182.762 200.214 184.173 201.737C188.176 206.06 194.925 206.319 199.247 202.316C203.569 198.313 203.828 191.564 199.825 187.242C195.823 182.92 189.074 182.661 184.752 186.663C183.013 188.273 181.932 190.328 181.521 192.49L34.3351 192.49C24.1194 192.49 14.334 188.377 7.18616 181.078L0.499713 174.251Z" fill="#250A3B"/>
<path fill-rule="evenodd" clip-rule="evenodd" d="M0.499276 146.743V152.373L11.8996 163.665C19.7643 171.454 30.386 175.824 41.4554 175.824L121.52 175.824C121.881 177.723 122.762 179.548 124.173 181.071C128.176 185.394 134.925 185.653 139.247 181.65C143.569 177.647 143.828 170.898 139.825 166.576C135.823 162.254 129.074 161.995 124.752 165.998C123.013 167.608 121.932 169.662 121.521 171.824L41.4554 171.824C31.4403 171.824 21.8301 167.87 14.7144 160.823L0.499276 146.743Z" fill="#250A3B"/>
<path fill-rule="evenodd" clip-rule="evenodd" d="M0.500724 118.846V124.445L16.9378 140.548C24.7881 148.239 35.34 152.546 46.3297 152.546L91.0223 152.546C91.383 154.446 92.2644 156.271 93.6751 157.794C97.6778 162.116 104.427 162.375 108.749 158.372C113.071 154.37 113.33 147.621 109.327 143.299C105.325 138.976 98.5759 138.717 94.2536 142.72C92.5151 144.33 91.4339 146.384 91.0231 148.546L46.3297 148.546C36.3866 148.546 26.8397 144.649 19.7371 137.691L0.500724 118.846Z" fill="#250A3B"/>
<path fill-rule="evenodd" clip-rule="evenodd" d="M0.499713 361.934V367.65L6.68616 361.333C13.834 354.035 23.6194 349.922 33.8351 349.922L181.021 349.922C181.432 352.084 182.513 354.138 184.252 355.748C188.574 359.751 195.323 359.492 199.325 355.17C203.328 350.847 203.069 344.099 198.747 340.096C194.425 336.093 187.676 336.352 183.673 340.674C182.262 342.198 181.381 344.022 181.02 345.922L33.8351 345.922C22.5441 345.922 11.7286 350.468 3.82839 358.535L0.499713 361.934Z" fill="#250A3B"/>
<path fill-rule="evenodd" clip-rule="evenodd" d="M0.499157 363.363V366.221L5.9711 360.634C13.307 353.143 23.3499 348.922 33.8344 348.922L186.26 348.922C186.465 350.003 187.006 351.03 187.875 351.835C190.036 353.836 193.41 353.707 195.412 351.546C197.413 349.385 197.284 346.01 195.122 344.009C192.961 342.007 189.587 342.137 187.586 344.298C186.88 345.06 186.44 345.972 186.259 346.922L33.8344 346.922C22.8123 346.922 12.2543 351.36 4.5422 359.234L0.499157 363.363Z" fill="white" fill-opacity="0.25"/>
<path fill-rule="evenodd" clip-rule="evenodd" d="M0.50051 291.687V297.331L27.0006 270.951V320.324V322.324L29.0006 322.324L267.02 322.324C267.304 323.813 267.911 325.266 268.858 326.575C272.311 331.349 278.979 332.419 283.752 328.966C288.525 325.514 289.596 318.845 286.143 314.072C282.69 309.299 276.022 308.228 271.249 311.681C268.954 313.341 267.515 315.745 267.023 318.324L31.0006 318.324V266.792L66.5149 218.294L111.02 218.294C111.304 219.783 111.91 221.236 112.858 222.545C116.311 227.318 122.979 228.389 127.752 224.936C132.525 221.484 133.596 214.815 130.143 210.042C126.69 205.269 120.022 204.198 115.249 207.651C112.954 209.311 111.515 211.715 111.023 214.294L65.5005 214.294L64.4862 214.294L63.8869 215.112L27.4791 264.831L0.50051 291.687Z" fill="#250A3B"/>
<path d="M386.501 158.333C392.392 158.333 397.168 163.109 397.168 169C397.168 174.891 392.392 179.667 386.501 179.667C380.61 179.667 375.834 174.891 375.834 169C375.834 163.109 380.61 158.333 386.501 158.333ZM277.5 461.833C283.391 461.833 288.167 466.609 288.167 472.5C288.167 478.391 283.391 483.167 277.5 483.167C271.609 483.167 266.833 478.391 266.833 472.5C266.833 466.609 271.609 461.833 277.5 461.833ZM372.544 390.972L371.242 389.454L372.544 390.972ZM388.501 169L388.501 309L384.501 309L384.501 169L388.501 169ZM388.501 309L388.501 360.612L384.501 360.612L384.501 309L388.501 309ZM373.846 392.49L278.802 474.018L276.198 470.982L371.242 389.454L373.846 392.49ZM388.501 360.612C388.501 372.867 383.148 384.511 373.846 392.49L371.242 389.454C379.658 382.235 384.501 371.7 384.501 360.612L388.501 360.612Z" fill="#250A3B"/>
<path d="M254.499 625.833C247.135 625.833 241.166 619.864 241.166 612.5C241.166 605.136 247.135 599.167 254.499 599.167C261.863 599.167 267.832 605.136 267.832 612.5C267.832 619.864 261.863 625.833 254.499 625.833ZM363.5 322.333C356.136 322.333 350.167 316.364 350.167 309C350.167 301.636 356.136 295.667 363.5 295.667C370.864 295.667 376.833 301.636 376.833 309C376.833 316.364 370.864 322.333 363.5 322.333ZM306.499 587.333C299.136 587.333 293.166 581.364 293.166 574C293.166 566.636 299.136 560.667 306.499 560.667C313.863 560.667 319.833 566.636 319.833 574C319.833 581.364 313.863 587.333 306.499 587.333ZM306.499 517.5L306.949 515.041L308.999 515.415L308.999 517.5L306.499 517.5ZM254.499 420.888L251.999 420.888L254.499 420.888ZM268.456 390.528L270.084 392.425L268.456 390.528ZM251.999 508L251.999 420.888L256.999 420.888L256.999 508L251.999 508ZM266.828 388.63L361.872 307.102L365.128 310.898L270.084 392.425L266.828 388.63ZM251.999 612.5L251.999 508L256.999 508L256.999 612.5L251.999 612.5ZM303.999 574L303.999 517.5L308.999 517.5L308.999 574L303.999 574ZM306.05 519.959L254.05 510.459L254.948 505.541L306.949 515.041L306.05 519.959ZM251.999 420.888C251.999 408.487 257.416 396.704 266.828 388.63L270.084 392.425C261.778 399.55 256.999 409.946 256.999 420.888L251.999 420.888Z" fill="#250A3B"/>
<path fill-rule="evenodd" clip-rule="evenodd" d="M474.001 0L474.001 38.9007C467.832 40.0708 463.167 45.4907 463.167 52C463.167 59.3638 469.137 65.3333 476.501 65.3333C483.864 65.3333 489.834 59.3638 489.834 52C489.834 45.4907 485.169 40.0708 479.001 38.9007L479.001 0H474.001Z" fill="#250A3B"/>
<path fill-rule="evenodd" clip-rule="evenodd" d="M475.501 0L475.501 46.7603C473.033 47.2283 471.167 49.3963 471.167 52C471.167 54.9455 473.555 57.3333 476.501 57.3333C479.446 57.3333 481.834 54.9455 481.834 52C481.834 49.3963 479.968 47.2283 477.501 46.7603L477.501 0H475.501Z" fill="#6A6A6A" fill-opacity="0.5"/>
<path d="M358.157 356.343C361.281 359.467 361.281 364.533 358.157 367.657C355.033 370.781 349.967 370.781 346.843 367.657C343.719 364.533 343.719 359.467 346.843 356.343C349.967 353.219 355.033 353.219 358.157 356.343ZM299.467 415.033C302.591 418.157 302.591 423.223 299.467 426.347C296.343 429.471 291.277 429.471 288.153 426.347C285.029 423.223 285.029 418.157 288.153 415.033C291.277 411.909 296.343 411.909 299.467 415.033ZM353.561 363.061L294.871 421.751L292.749 419.629L351.439 360.939L353.561 363.061Z" fill="#250A3B"/>
<path fill-rule="evenodd" clip-rule="evenodd" d="M0.499286 234.809V240.383L13.265 227.993C17.3739 230.882 23.0842 230.54 26.821 226.913C31.0483 222.81 31.1491 216.057 27.0461 211.83C22.9432 207.602 16.1901 207.502 11.9628 211.605C8.22609 215.231 7.71372 220.929 10.4791 225.122L0.499286 234.809Z" fill="#250A3B"/>
</g>
<defs>
<clipPath id="clip0_833_2527">
<rect width="522" height="720" fill="white"/>
</clipPath>
</defs>
</svg>
