<svg width="522" height="720" viewBox="0 0 522 720" fill="none" xmlns="http://www.w3.org/2000/svg">
<g clip-path="url(#clip0_833_2527)">
<circle cx="159" cy="309" r="21" fill="#6A6A6A" fill-opacity="0.25"/>
<path fill-rule="evenodd" clip-rule="evenodd" d="M106.5 156.375L106.5 124.751C106.5 107.105 94.1969 91.8461 76.9517 88.1042L2.46988 71.9431L0.500005 71.5156L0.500005 69.4999L0.500002 0H5.5L5.5 67.4841L78.0119 83.2179C97.5565 87.4587 111.5 104.752 111.5 124.751L111.5 156.375L111.5 224.25V360L111.5 495.75L111.5 563.626L111.5 599.612C111.5 618.696 98.7797 635.44 80.3946 640.556L5.5 661.399L5.50001 720H0.500009L0.5 659.5L0.5 657.601L2.32973 657.092L79.0541 635.739C95.2762 631.225 106.5 616.451 106.5 599.612L106.5 563.626L106.5 495.75L106.5 360V224.25L106.5 156.375Z" fill="#250A3B"/>
<path fill-rule="evenodd" clip-rule="evenodd" d="M108 156.375L108 124.751C108 106.399 95.2048 90.5298 77.2698 86.6383L2.78796 70.4771L2 70.3062L2 69.4999L2 0H4L4 68.6936L77.6939 84.6838C96.5486 88.7749 110 105.458 110 124.751L110 156.375L110 224.25V360L110 495.75L110 563.626L110 599.612C110 618.022 97.7286 634.175 79.9925 639.111L4 660.26L4.00001 720H2.00001L2 659.5L2 658.74L2.73189 658.537L79.4563 637.184C96.3272 632.489 108 617.124 108 599.612L108 563.626L108 495.75L108 360V224.25L108 156.375Z" fill="white" fill-opacity="0.25"/>
<path d="M140.4 140.033C145.113 136.499 146.068 129.813 142.533 125.1C138.999 120.387 132.313 119.432 127.6 122.967C122.887 126.501 121.932 133.187 125.467 137.9C129.001 142.613 135.687 143.568 140.4 140.033ZM92.401 70.0333C97.1138 66.4987 98.0689 59.8128 94.5343 55.1C90.9997 50.3872 84.3138 49.432 79.601 52.9667C74.8881 56.5013 73.933 63.1872 77.4676 67.9C81.0023 72.6128 87.6881 73.568 92.401 70.0333ZM108.045 69.7668L108.748 67.8941L108.045 69.7668ZM136 131.5L136 107.22L132 107.22L132 131.5L136 131.5ZM108.748 67.8941L86.7032 59.6273L85.2987 63.3727L107.343 71.6394L108.748 67.8941ZM136 107.22C136 89.7126 125.14 74.0415 108.748 67.8941L107.343 71.6394C122.175 77.2013 132 91.38 132 107.22L136 107.22Z" fill="#250A3B"/>
<path d="M137.2 135.767C139.556 133.999 140.034 130.656 138.267 128.3C136.499 125.944 133.156 125.466 130.8 127.233C128.444 129.001 127.966 132.344 129.733 134.7C131.501 137.056 134.844 137.534 137.2 135.767ZM89.201 65.7667C91.5574 63.9994 92.035 60.6564 90.2676 58.3C88.5003 55.9436 85.1574 55.466 82.801 57.2333C80.4446 59.0006 79.967 62.3436 81.7343 64.7C83.5016 67.0564 86.8446 67.534 89.201 65.7667ZM108.045 69.7668L108.396 68.8304L108.045 69.7668ZM135 131.5L135 107.22L133 107.22L133 131.5L135 131.5ZM108.396 68.8304L86.3521 60.5637L85.6498 62.4363L107.694 70.7031L108.396 68.8304ZM135 107.22C135 90.1295 124.399 74.8315 108.396 68.8304L107.694 70.7031C122.916 76.4114 133 90.9632 133 107.22L135 107.22Z" fill="white" fill-opacity="0.25"/>
<path fill-rule="evenodd" clip-rule="evenodd" d="M522 174.251V179.968L518.172 183.877C510.271 191.944 499.456 196.49 488.165 196.49L340.98 196.49C340.619 198.389 339.738 200.214 338.327 201.737C334.324 206.06 327.575 206.319 323.253 202.316C318.931 198.313 318.672 191.564 322.675 187.242C326.677 182.92 333.426 182.661 337.748 186.663C339.487 188.273 340.568 190.328 340.979 192.49L488.165 192.49C498.381 192.49 508.166 188.377 515.314 181.078L522 174.251Z" fill="#250A3B"/>
<path fill-rule="evenodd" clip-rule="evenodd" d="M522.001 146.743V152.373L510.6 163.665C502.736 171.454 492.114 175.824 481.045 175.824L400.98 175.824C400.619 177.723 399.738 179.548 398.327 181.071C394.324 185.394 387.575 185.653 383.253 181.65C378.931 177.647 378.672 170.898 382.675 166.576C386.677 162.254 393.426 161.995 397.748 165.998C399.487 167.608 400.568 169.662 400.979 171.824L481.045 171.824C491.06 171.824 500.67 167.87 507.786 160.823L522.001 146.743Z" fill="#250A3B"/>
<path fill-rule="evenodd" clip-rule="evenodd" d="M521.999 118.846V124.445L505.562 140.548C497.712 148.239 487.16 152.546 476.17 152.546L431.478 152.546C431.117 154.446 430.236 156.271 428.825 157.794C424.822 162.116 418.073 162.375 413.751 158.372C409.429 154.37 409.17 147.621 413.173 143.299C417.175 138.976 423.924 138.717 428.246 142.72C429.985 144.33 431.066 146.384 431.477 148.546L476.17 148.546C486.113 148.546 495.66 144.649 502.763 137.691L521.999 118.846Z" fill="#250A3B"/>
<path fill-rule="evenodd" clip-rule="evenodd" d="M522 361.934V367.65L515.814 361.333C508.666 354.035 498.881 349.922 488.665 349.922L341.479 349.922C341.068 352.084 339.987 354.138 338.248 355.748C333.926 359.751 327.177 359.492 323.175 355.17C319.172 350.847 319.431 344.099 323.753 340.096C328.075 336.093 334.824 336.352 338.827 340.674C340.238 342.198 341.119 344.022 341.48 345.922L488.665 345.922C499.956 345.922 510.771 350.468 518.672 358.535L522 361.934Z" fill="#250A3B"/>
<path fill-rule="evenodd" clip-rule="evenodd" d="M522.001 363.363V366.221L516.529 360.634C509.193 353.143 499.15 348.922 488.666 348.922L336.24 348.922C336.035 350.003 335.494 351.03 334.625 351.835C332.464 353.836 329.09 353.707 327.088 351.546C325.087 349.385 325.216 346.01 327.378 344.009C329.539 342.007 332.913 342.137 334.914 344.298C335.62 345.06 336.06 345.972 336.241 346.922L488.666 346.922C499.688 346.922 510.246 351.36 517.958 359.234L522.001 363.363Z" fill="white" fill-opacity="0.25"/>
<path fill-rule="evenodd" clip-rule="evenodd" d="M521.999 291.687V297.331L495.499 270.951V320.324V322.324L493.499 322.324L255.48 322.324C255.196 323.813 254.589 325.266 253.642 326.575C250.189 331.349 243.521 332.419 238.748 328.966C233.975 325.514 232.904 318.845 236.357 314.072C239.81 309.299 246.478 308.228 251.251 311.681C253.546 313.341 254.985 315.745 255.477 318.324L491.499 318.324V266.792L455.985 218.294L411.48 218.294C411.196 219.783 410.59 221.236 409.642 222.545C406.189 227.318 399.521 228.389 394.748 224.936C389.975 221.484 388.904 214.815 392.357 210.042C395.81 205.269 402.478 204.198 407.251 207.651C409.546 209.311 410.985 211.715 411.477 214.294L456.999 214.294L458.014 214.294L458.613 215.112L495.021 264.831L521.999 291.687Z" fill="#250A3B"/>
<path d="M135.999 158.333C130.108 158.333 125.332 163.109 125.332 169C125.332 174.891 130.108 179.667 135.999 179.667C141.89 179.667 146.666 174.891 146.666 169C146.666 163.109 141.89 158.333 135.999 158.333ZM245 461.833C239.109 461.833 234.333 466.609 234.333 472.5C234.333 478.391 239.109 483.167 245 483.167C250.891 483.167 255.667 478.391 255.667 472.5C255.667 466.609 250.891 461.833 245 461.833ZM149.956 390.972L151.258 389.454L149.956 390.972ZM133.999 169L133.999 309L137.999 309L137.999 169L133.999 169ZM133.999 309L133.999 360.612L137.999 360.612L137.999 309L133.999 309ZM148.654 392.49L243.698 474.018L246.302 470.982L151.258 389.454L148.654 392.49ZM133.999 360.612C133.999 372.867 139.352 384.511 148.654 392.49L151.258 389.454C142.842 382.235 137.999 371.7 137.999 360.612L133.999 360.612Z" fill="#250A3B"/>
<path d="M268.001 625.833C275.365 625.833 281.334 619.864 281.334 612.5C281.334 605.136 275.365 599.167 268.001 599.167C260.637 599.167 254.668 605.136 254.668 612.5C254.668 619.864 260.637 625.833 268.001 625.833ZM159 322.333C166.364 322.333 172.333 316.364 172.333 309C172.333 301.636 166.364 295.667 159 295.667C151.636 295.667 145.667 301.636 145.667 309C145.667 316.364 151.636 322.333 159 322.333ZM216.001 587.333C223.364 587.333 229.334 581.364 229.334 574C229.334 566.636 223.364 560.667 216.001 560.667C208.637 560.667 202.667 566.636 202.667 574C202.667 581.364 208.637 587.333 216.001 587.333ZM216.001 517.5L215.551 515.041L213.501 515.415L213.501 517.5L216.001 517.5ZM268.001 420.888L270.501 420.888L268.001 420.888ZM254.044 390.528L252.416 392.425L254.044 390.528ZM270.501 508L270.501 420.888L265.501 420.888L265.501 508L270.501 508ZM255.672 388.63L160.628 307.102L157.372 310.898L252.416 392.425L255.672 388.63ZM270.501 612.5L270.501 508L265.501 508L265.501 612.5L270.501 612.5ZM218.501 574L218.501 517.5L213.501 517.5L213.501 574L218.501 574ZM216.45 519.959L268.45 510.459L267.552 505.541L215.551 515.041L216.45 519.959ZM270.501 420.888C270.501 408.487 265.084 396.704 255.672 388.63L252.416 392.425C260.722 399.55 265.501 409.946 265.501 420.888L270.501 420.888Z" fill="#250A3B"/>
<path fill-rule="evenodd" clip-rule="evenodd" d="M48.4994 0L48.4993 38.9007C54.6682 40.0708 59.3327 45.4907 59.3327 52C59.3327 59.3638 53.3631 65.3333 45.9993 65.3333C38.6356 65.3333 32.666 59.3638 32.666 52C32.666 45.4907 37.3305 40.0708 43.4993 38.9007L43.4994 0H48.4994Z" fill="#250A3B"/>
<path fill-rule="evenodd" clip-rule="evenodd" d="M46.9994 0L46.9993 46.7603C49.4669 47.2283 51.3327 49.3963 51.3327 52C51.3327 54.9455 48.9449 57.3333 45.9993 57.3333C43.0538 57.3333 40.666 54.9455 40.666 52C40.666 49.3963 42.5318 47.2283 44.9993 46.7603L44.9994 0H46.9994Z" fill="#6A6A6A" fill-opacity="0.5"/>
<path d="M164.343 356.343C161.219 359.467 161.219 364.533 164.343 367.657C167.467 370.781 172.533 370.781 175.657 367.657C178.781 364.533 178.781 359.467 175.657 356.343C172.533 353.219 167.467 353.219 164.343 356.343ZM223.033 415.033C219.909 418.157 219.909 423.223 223.033 426.347C226.157 429.471 231.223 429.471 234.347 426.347C237.471 423.223 237.471 418.157 234.347 415.033C231.223 411.909 226.157 411.909 223.033 415.033ZM168.939 363.061L227.629 421.751L229.751 419.629L171.061 360.939L168.939 363.061Z" fill="#250A3B"/>
<path fill-rule="evenodd" clip-rule="evenodd" d="M522.001 234.809V240.383L509.235 227.993C505.126 230.882 499.416 230.54 495.679 226.913C491.452 222.81 491.351 216.057 495.454 211.83C499.557 207.602 506.31 207.502 510.537 211.605C514.274 215.231 514.786 220.929 512.021 225.122L522.001 234.809Z" fill="#250A3B"/>
</g>
<defs>
<clipPath id="clip0_833_2527">
<rect width="522" height="720" fill="white"/>
</clipPath>
</defs>
</svg>
