<svg width="720" height="522" viewBox="0 0 720 522" fill="none" xmlns="http://www.w3.org/2000/svg">
<g clip-path="url(#clip0_833_2527)">
<circle cx="411" cy="169.999" r="21" transform="rotate(90 411 169.999)" fill="#6A6A6A" fill-opacity="0.25"/>
<path fill-rule="evenodd" clip-rule="evenodd" d="M563.625 117.499L595.249 117.499C612.895 117.499 628.154 105.196 631.896 87.9507L648.057 13.4689L648.484 11.499L650.5 11.499L720 11.499L720 16.499L652.516 16.499L636.782 89.011C632.541 108.555 615.248 122.499 595.249 122.499L563.625 122.499L495.75 122.499L360 122.499L224.25 122.499L156.374 122.499L120.388 122.499C101.304 122.499 84.5604 109.779 79.4439 91.3937L58.6008 16.4991L2.18557e-07 16.4991L0 11.4991L60.5 11.4991L62.3993 11.4991L62.9084 13.3288L84.2608 90.0531C88.7754 106.275 103.549 117.499 120.388 117.499L156.374 117.499L224.25 117.499L360 117.499L495.75 117.499L563.625 117.499Z" fill="#250A3B"/>
<path fill-rule="evenodd" clip-rule="evenodd" d="M563.625 118.999L595.249 118.999C613.601 118.999 629.47 106.204 633.362 88.2688L649.523 13.787L649.694 12.999L650.5 12.999L720 12.999L720 14.999L651.306 14.999L635.316 88.6929C631.225 107.548 614.542 120.999 595.249 120.999L563.625 120.999L495.75 120.999L360 120.999L224.25 120.999L156.374 120.999L120.388 120.999C101.978 120.999 85.8249 108.728 80.889 90.9915L59.7403 14.9991L8.74231e-08 14.9991L0 12.9991L60.5 12.9991L61.2597 12.9991L61.4634 13.7309L82.8157 90.4553C87.5109 107.326 102.876 118.999 120.388 118.999L156.374 118.999L224.25 118.999L360 118.999L495.75 118.999L563.625 118.999Z" fill="white" fill-opacity="0.25"/>
<path d="M579.967 151.399C583.501 156.112 590.187 157.067 594.9 153.532C599.613 149.998 600.568 143.312 597.033 138.599C593.499 133.886 586.813 132.931 582.1 136.466C577.387 140 576.432 146.686 579.967 151.399ZM649.967 103.4C653.501 108.113 660.187 109.068 664.9 105.533C669.613 101.999 670.568 95.3128 667.033 90.6C663.499 85.8872 656.813 84.932 652.1 88.4667C647.387 92.0013 646.432 98.6872 649.967 103.4ZM650.233 119.044L652.106 119.747L650.233 119.044ZM588.5 146.999L612.78 146.999L612.78 142.999L588.5 142.999L588.5 146.999ZM652.106 119.747L660.373 97.7023L656.627 96.2977L648.361 118.342L652.106 119.747ZM612.78 146.999C630.287 146.999 645.959 136.139 652.106 119.747L648.361 118.342C642.799 133.174 628.62 142.999 612.78 142.999L612.78 146.999Z" fill="#250A3B"/>
<path d="M584.233 148.199C586.001 150.555 589.344 151.033 591.7 149.266C594.056 147.498 594.534 144.155 592.767 141.799C590.999 139.443 587.656 138.965 585.3 140.732C582.944 142.5 582.466 145.843 584.233 148.199ZM654.233 100.2C656.001 102.556 659.344 103.034 661.7 101.267C664.056 99.4993 664.534 96.1564 662.767 93.8C660.999 91.4436 657.656 90.966 655.3 92.7333C652.944 94.5006 652.466 97.8436 654.233 100.2ZM650.233 119.044L651.17 119.395L650.233 119.044ZM588.5 145.999L612.78 145.999L612.78 143.999L588.5 143.999L588.5 145.999ZM651.17 119.395L659.436 97.3511L657.564 96.6489L649.297 118.693L651.17 119.395ZM612.78 145.999C629.871 145.999 645.169 135.398 651.17 119.395L649.297 118.693C643.589 133.915 629.037 143.999 612.78 143.999L612.78 145.999Z" fill="white" fill-opacity="0.25"/>
<path fill-rule="evenodd" clip-rule="evenodd" d="M545.75 532.999L540.033 532.999L536.124 529.171C528.057 521.27 523.511 510.455 523.511 499.164L523.511 351.979C521.611 351.618 519.787 350.737 518.263 349.326C513.941 345.323 513.682 338.574 517.685 334.252C521.688 329.93 528.436 329.671 532.759 333.674C537.081 337.676 537.34 344.425 533.337 348.747C531.727 350.486 529.673 351.567 527.511 351.978L527.511 499.164C527.511 509.38 531.624 519.165 538.923 526.313L545.75 532.999Z" fill="#250A3B"/>
<path fill-rule="evenodd" clip-rule="evenodd" d="M573.258 533L567.628 533L556.336 521.599C548.547 513.735 544.177 503.113 544.177 492.044L544.177 411.979C542.277 411.618 540.453 410.737 538.929 409.326C534.607 405.323 534.348 398.574 538.351 394.252C542.354 389.93 549.102 389.671 553.425 393.674C557.747 397.676 558.006 404.425 554.003 408.747C552.393 410.486 550.339 411.567 548.177 411.978L548.177 492.044C548.177 502.059 552.131 511.669 559.178 518.785L573.258 533Z" fill="#250A3B"/>
<path fill-rule="evenodd" clip-rule="evenodd" d="M601.154 532.998L595.555 532.998L579.452 516.561C571.761 508.711 567.454 498.159 567.454 487.169L567.454 442.477C565.554 442.116 563.729 441.235 562.206 439.824C557.884 435.821 557.625 429.072 561.628 424.75C565.63 420.428 572.379 420.169 576.701 424.172C581.024 428.174 581.283 434.923 577.28 439.245C575.67 440.984 573.616 442.065 571.454 442.476L571.454 487.169C571.454 497.112 575.351 506.659 582.309 513.762L601.154 532.998Z" fill="#250A3B"/>
<path fill-rule="evenodd" clip-rule="evenodd" d="M358.066 532.999L352.349 532.999L358.666 526.813C365.964 519.665 370.078 509.88 370.078 499.664L370.077 352.478C367.916 352.067 365.861 350.986 364.251 349.247C360.248 344.925 360.507 338.176 364.83 334.174C369.152 330.171 375.901 330.43 379.904 334.752C383.906 339.074 383.647 345.823 379.325 349.826C377.802 351.237 375.977 352.118 374.077 352.479L374.078 499.664C374.078 510.955 369.531 521.77 361.465 529.671L358.066 532.999Z" fill="#250A3B"/>
<path fill-rule="evenodd" clip-rule="evenodd" d="M356.638 533L353.78 533L359.367 527.528C366.858 520.192 371.079 510.149 371.079 499.665L371.079 347.239C369.998 347.034 368.971 346.493 368.166 345.624C366.164 343.463 366.294 340.089 368.455 338.087C370.616 336.086 373.99 336.215 375.992 338.377C377.993 340.538 377.864 343.912 375.703 345.913C374.941 346.619 374.029 347.059 373.079 347.24L373.079 499.665C373.079 510.687 368.641 521.245 360.766 528.957L356.638 533Z" fill="white" fill-opacity="0.25"/>
<path fill-rule="evenodd" clip-rule="evenodd" d="M428.312 532.999L422.668 532.999L449.048 506.498L399.676 506.498L397.676 506.498L397.676 504.498L397.676 266.479C396.186 266.195 394.734 265.588 393.424 264.641C388.651 261.188 387.58 254.52 391.033 249.747C394.486 244.974 401.154 243.903 405.927 247.356C410.7 250.809 411.771 257.477 408.318 262.25C406.658 264.545 404.254 265.984 401.676 266.476L401.676 502.498L453.207 502.498L501.706 466.984L501.706 422.479C500.216 422.195 498.764 421.589 497.454 420.641C492.681 417.188 491.61 410.52 495.063 405.747C498.516 400.974 505.184 399.903 509.957 403.356C514.73 406.809 515.801 413.477 512.348 418.25C510.688 420.545 508.285 421.984 505.706 422.476L505.706 467.999L505.706 469.013L504.887 469.612L455.169 506.02L428.312 532.999Z" fill="#250A3B"/>
<path d="M561.667 146.998C561.667 141.107 556.891 136.331 551 136.331C545.109 136.331 540.333 141.107 540.333 146.998C540.333 152.889 545.109 157.665 551 157.665C556.891 157.665 561.667 152.889 561.667 146.998ZM258.167 255.999C258.167 250.108 253.391 245.332 247.5 245.332C241.609 245.332 236.833 250.108 236.833 255.999C236.833 261.89 241.609 266.666 247.5 266.666C253.391 266.666 258.167 261.89 258.167 255.999ZM329.028 160.955L330.546 162.257L329.028 160.955ZM551 144.998L411 144.998V148.998L551 148.998V144.998ZM411 144.998L359.388 144.998V148.998L411 148.998V144.998ZM327.51 159.653L245.982 254.697L249.018 257.301L330.546 162.257L327.51 159.653ZM359.388 144.998C347.133 144.998 335.489 150.351 327.51 159.653L330.546 162.257C337.765 153.841 348.3 148.998 359.388 148.998V144.998Z" fill="#250A3B"/>
<path d="M94.1667 279C94.1667 286.364 100.136 292.333 107.5 292.333C114.864 292.333 120.833 286.364 120.833 279C120.833 271.636 114.864 265.667 107.5 265.667C100.136 265.667 94.1667 271.636 94.1667 279ZM397.667 169.999C397.667 177.363 403.636 183.332 411 183.332C418.364 183.332 424.333 177.363 424.333 169.999C424.333 162.635 418.364 156.666 411 156.666C403.636 156.666 397.667 162.635 397.667 169.999ZM132.667 227C132.667 234.363 138.636 240.333 146 240.333C153.364 240.333 159.333 234.363 159.333 227C159.333 219.636 153.364 213.666 146 213.666C138.636 213.666 132.667 219.636 132.667 227ZM202.5 227L204.959 226.55L204.585 224.5L202.5 224.5L202.5 227ZM299.112 279L299.112 281.5L299.112 279ZM329.472 265.043L327.575 263.415L329.472 265.043ZM212 281.5L299.112 281.5L299.112 276.5L212 276.5L212 281.5ZM331.37 266.671L412.898 171.627L409.102 168.371L327.575 263.415L331.37 266.671ZM107.5 281.5L212 281.5L212 276.5L107.5 276.5L107.5 281.5ZM146 229.5L202.5 229.5L202.5 224.5L146 224.5L146 229.5ZM200.041 227.449L209.541 279.449L214.459 278.551L204.959 226.55L200.041 227.449ZM299.112 281.5C311.513 281.5 323.296 276.083 331.37 266.671L327.575 263.415C320.45 271.721 310.054 276.5 299.112 276.5L299.112 281.5Z" fill="#250A3B"/>
<path fill-rule="evenodd" clip-rule="evenodd" d="M720 59.4984L681.099 59.4984C679.929 65.6672 674.509 70.3317 668 70.3317C660.636 70.3317 654.667 64.3622 654.667 56.9984C654.667 49.6346 660.636 43.665 668 43.665C674.509 43.665 679.929 48.3296 681.099 54.4984L720 54.4984L720 59.4984Z" fill="#250A3B"/>
<path fill-rule="evenodd" clip-rule="evenodd" d="M720 57.9984L673.24 57.9984C672.772 60.4659 670.604 62.3317 668 62.3317C665.054 62.3317 662.667 59.9439 662.667 56.9984C662.667 54.0529 665.054 51.665 668 51.665C670.604 51.665 672.772 53.5308 673.24 55.9984L720 55.9984L720 57.9984Z" fill="#6A6A6A" fill-opacity="0.5"/>
<path d="M363.657 175.342C360.533 172.218 355.467 172.218 352.343 175.342C349.219 178.466 349.219 183.532 352.343 186.656C355.467 189.78 360.533 189.78 363.657 186.656C366.781 183.532 366.781 178.466 363.657 175.342ZM304.967 234.032C301.843 230.908 296.777 230.908 293.653 234.032C290.529 237.156 290.529 242.222 293.653 245.346C296.777 248.47 301.843 248.47 304.967 245.346C308.091 242.222 308.091 237.156 304.967 234.032ZM356.939 179.938L298.249 238.628L300.371 240.75L359.061 182.06L356.939 179.938Z" fill="#250A3B"/>
<path fill-rule="evenodd" clip-rule="evenodd" d="M485.192 533L479.617 533L492.008 520.234C489.118 516.125 489.46 510.415 493.087 506.678C497.19 502.451 503.943 502.35 508.171 506.453C512.398 510.556 512.499 517.309 508.396 521.536C504.769 525.273 499.071 525.785 494.878 523.02L485.192 533Z" fill="#250A3B"/>
</g>
<defs>
<clipPath id="clip0_833_2527">
<rect width="720" height="522" fill="white" transform="matrix(1 0 0 -1 0 522)"/>
</clipPath>
</defs>
</svg>
