<svg width="1440" height="720" viewBox="0 0 1440 720" fill="none" xmlns="http://www.w3.org/2000/svg">
<g clip-path="url(#clip0_693_2398)">
<circle cx="982" cy="309" r="21" fill="#6A6A6A" fill-opacity="0.25"/>
<path d="M826 730L826 659.5L902.724 638.148C920.028 633.332 932 617.573 932 599.612L932 563.626L932 495.75L932 360L932 224.25L932 156.375L932 124.751C932 105.929 918.877 89.6524 900.482 85.661L826 69.4999L826 -16.0001" stroke="#250A3B" stroke-width="5"/>
<path d="M826 730L826 659.5L902.724 638.148C920.028 633.332 932 617.573 932 599.612L932 563.626L932 495.75L932 360L932 224.25L932 156.375L932 124.751C932 105.929 918.877 89.6524 900.482 85.661L826 69.4999L826 -16.0001" stroke="white" stroke-opacity="0.25" stroke-width="2"/>
<path d="M963.4 140.033C968.113 136.499 969.068 129.813 965.533 125.1C961.999 120.387 955.313 119.432 950.6 122.967C945.887 126.501 944.932 133.187 948.467 137.9C952.001 142.613 958.687 143.568 963.4 140.033ZM915.401 70.0333C920.114 66.4987 921.069 59.8128 917.534 55.1C914 50.3872 907.314 49.432 902.601 52.9667C897.888 56.5013 896.933 63.1872 900.468 67.9C904.002 72.6128 910.688 73.568 915.401 70.0333ZM931.045 69.7668L931.748 67.8941L931.045 69.7668ZM959 131.5L959 107.22L955 107.22L955 131.5L959 131.5ZM931.748 67.8941L909.703 59.6273L908.299 63.3727L930.343 71.6394L931.748 67.8941ZM959 107.22C959 89.7126 948.14 74.0415 931.748 67.8941L930.343 71.6394C945.175 77.2013 955 91.38 955 107.22L959 107.22Z" fill="#250A3B"/>
<path d="M960.2 135.767C962.556 133.999 963.034 130.656 961.267 128.3C959.499 125.944 956.156 125.466 953.8 127.233C951.444 129.001 950.966 132.344 952.733 134.7C954.501 137.056 957.844 137.534 960.2 135.767ZM912.201 65.7667C914.557 63.9994 915.035 60.6564 913.268 58.3C911.5 55.9436 908.157 55.466 905.801 57.2333C903.445 59.0006 902.967 62.3436 904.734 64.7C906.502 67.0564 909.845 67.534 912.201 65.7667ZM931.045 69.7668L931.396 68.8304L931.045 69.7668ZM958 131.5L958 107.22L956 107.22L956 131.5L958 131.5ZM931.396 68.8304L909.352 60.5637L908.65 62.4363L930.694 70.7031L931.396 68.8304ZM958 107.22C958 90.1295 947.399 74.8315 931.396 68.8304L930.694 70.7031C945.916 76.4114 956 90.9632 956 107.22L958 107.22Z" fill="white" fill-opacity="0.25"/>
<path d="M1413.83 122.071C1417.83 117.749 1417.57 111 1413.25 106.997C1408.92 102.995 1402.18 103.254 1398.17 107.576C1394.17 111.898 1394.43 118.647 1398.75 122.65C1403.07 126.652 1409.82 126.393 1413.83 122.071ZM1161.33 201.737C1165.33 197.415 1165.07 190.666 1160.75 186.663C1156.43 182.661 1149.68 182.92 1145.67 187.242C1141.67 191.564 1141.93 198.313 1146.25 202.316C1150.58 206.319 1157.32 206.06 1161.33 201.737ZM1404.57 113.424L1338.31 181.078L1341.17 183.877L1407.43 116.223L1404.57 113.424ZM1311.16 192.49L1153.5 192.49L1153.5 196.49L1311.16 196.49L1311.16 192.49ZM1338.31 181.078C1331.17 188.377 1321.38 192.49 1311.16 192.49L1311.16 196.49C1322.46 196.49 1333.27 191.944 1341.17 183.877L1338.31 181.078Z" fill="#250A3B"/>
<path d="M1443.33 67.1699C1447.33 62.8476 1447.07 56.0988 1442.75 52.096C1438.43 48.0933 1431.68 48.3523 1427.67 52.6746C1423.67 56.9969 1423.93 63.7456 1428.25 67.7484C1432.57 71.7512 1439.32 71.4922 1443.33 67.1699ZM1221.33 181.071C1225.33 176.749 1225.07 170 1220.75 165.998C1216.43 161.995 1209.68 162.254 1205.67 166.576C1201.67 170.898 1201.93 177.647 1206.25 181.65C1210.57 185.653 1217.32 185.394 1221.33 181.071ZM1434.09 58.5012L1330.78 160.822L1333.6 163.664L1436.91 61.3432L1434.09 58.5012ZM1304.04 171.824L1213.5 171.824L1213.5 175.824L1304.04 175.824L1304.04 171.824ZM1330.78 160.822C1323.67 167.87 1314.06 171.824 1304.04 171.824L1304.04 175.824C1315.11 175.824 1325.74 171.454 1333.6 163.664L1330.78 160.822Z" fill="#250A3B"/>
<path d="M1435.33 48.0716C1439.33 43.7493 1439.07 37.0005 1434.75 32.9977C1430.42 28.995 1423.68 29.254 1419.67 33.5763C1415.67 37.8986 1415.93 44.6474 1420.25 48.6501C1424.57 52.6529 1431.32 52.3939 1435.33 48.0716ZM1251.83 157.794C1255.83 153.472 1255.57 146.723 1251.25 142.72C1246.92 138.717 1240.18 138.976 1236.17 143.299C1232.17 147.621 1232.43 154.37 1236.75 158.372C1241.07 162.375 1247.82 162.116 1251.83 157.794ZM1426.1 39.3953L1325.76 137.691L1328.56 140.548L1428.9 42.2526L1426.1 39.3953ZM1299.17 148.546L1244 148.546L1244 152.546L1299.17 152.546L1299.17 148.546ZM1325.76 137.691C1318.66 144.649 1309.11 148.546 1299.17 148.546L1299.17 152.546C1310.16 152.546 1320.71 148.239 1328.56 140.548L1325.76 137.691Z" fill="#250A3B"/>
<path d="M1414.33 420.341C1418.33 424.663 1418.07 431.412 1413.75 435.414C1409.42 439.417 1402.68 439.158 1398.67 434.836C1394.67 430.514 1394.93 423.765 1399.25 419.762C1403.57 415.759 1410.32 416.018 1414.33 420.341ZM1161.83 340.674C1165.83 344.997 1165.57 351.745 1161.25 355.748C1156.93 359.751 1150.18 359.492 1146.17 355.17C1142.17 350.847 1142.43 344.099 1146.75 340.096C1151.08 336.093 1157.82 336.352 1161.83 340.674ZM1405.07 428.988L1338.81 361.333L1341.67 358.535L1407.93 426.189L1405.07 428.988ZM1311.66 349.922L1154 349.922L1154 345.922L1311.66 345.922L1311.66 349.922ZM1338.81 361.333C1331.67 354.035 1321.88 349.922 1311.66 349.922L1311.66 345.922C1322.96 345.922 1333.77 350.468 1341.67 358.535L1338.81 361.333Z" fill="#250A3B"/>
<path d="M1410.41 423.964C1412.41 426.125 1412.28 429.5 1410.12 431.501C1407.96 433.503 1404.59 433.373 1402.59 431.212C1400.59 429.051 1400.71 425.676 1402.88 423.675C1405.04 421.674 1408.41 421.803 1410.41 423.964ZM1157.91 344.298C1159.91 346.459 1159.79 349.834 1157.62 351.835C1155.46 353.836 1152.09 353.707 1150.09 351.546C1148.09 349.385 1148.22 346.01 1150.38 344.009C1152.54 342.008 1155.91 342.137 1157.91 344.298ZM1405.79 428.288L1339.53 360.634L1340.96 359.234L1407.21 426.888L1405.79 428.288ZM1311.66 348.922L1154 348.922L1154 346.922L1311.66 346.922L1311.66 348.922ZM1339.53 360.634C1332.19 353.143 1322.15 348.922 1311.66 348.922L1311.66 346.922C1322.69 346.922 1333.24 351.36 1340.96 359.234L1339.53 360.634Z" fill="white" fill-opacity="0.25"/>
<path d="M1558.64 177.575C1555.19 182.349 1548.52 183.419 1543.75 179.966C1538.98 176.514 1537.9 169.845 1541.36 165.072C1544.81 160.299 1551.48 159.228 1556.25 162.681C1561.02 166.134 1562.1 172.802 1558.64 177.575ZM1232.64 222.545C1229.19 227.318 1222.52 228.389 1217.75 224.936C1212.98 221.484 1211.91 214.815 1215.36 210.042C1218.81 205.269 1225.48 204.198 1230.25 207.651C1235.03 211.104 1236.1 217.772 1232.64 222.545ZM1076.64 326.575C1073.19 331.349 1066.52 332.419 1061.75 328.966C1056.98 325.514 1055.91 318.845 1059.36 314.072C1062.81 309.299 1069.48 308.228 1074.25 311.681C1079.03 315.134 1080.1 321.802 1076.64 326.575ZM1280 216.294L1280 214.294L1281.02 214.294L1281.61 215.112L1280 216.294ZM1316.5 320.324L1318.5 320.324L1318.5 322.324L1316.5 322.324L1316.5 320.324ZM1386 335.324L1387.41 336.738L1386 338.149L1384.59 336.741L1386 335.324ZM1314.89 267.32L1278.39 217.475L1281.61 215.112L1318.11 264.956L1314.89 267.32ZM1280 218.294L1224 218.294L1224 214.294L1280 214.294L1280 218.294ZM1068 318.324L1316.5 318.324L1316.5 322.324L1068 322.324L1068 318.324ZM1314.5 320.324L1314.5 266.138L1318.5 266.138L1318.5 320.324L1314.5 320.324ZM1551.41 172.738L1387.41 336.738L1384.59 333.909L1548.59 169.91L1551.41 172.738ZM1384.59 336.741L1315.09 267.555L1317.91 264.721L1387.41 333.906L1384.59 336.741Z" fill="#250A3B"/>
<path d="M958.999 158.333C953.108 158.333 948.332 163.109 948.332 169C948.332 174.891 953.108 179.667 958.999 179.667C964.89 179.667 969.666 174.891 969.666 169C969.666 163.109 964.89 158.333 958.999 158.333ZM1068 461.833C1062.11 461.833 1057.33 466.609 1057.33 472.5C1057.33 478.391 1062.11 483.167 1068 483.167C1073.89 483.167 1078.67 478.391 1078.67 472.5C1078.67 466.609 1073.89 461.833 1068 461.833ZM972.956 390.972L974.258 389.454L972.956 390.972ZM956.999 169L956.999 309L960.999 309L960.999 169L956.999 169ZM956.999 309L956.999 360.612L960.999 360.612L960.999 309L956.999 309ZM971.654 392.49L1066.7 474.018L1069.3 470.982L974.258 389.454L971.654 392.49ZM956.999 360.612C956.999 372.867 962.352 384.511 971.654 392.49L974.258 389.454C965.842 382.235 960.999 371.7 960.999 360.612L956.999 360.612Z" fill="#250A3B"/>
<path d="M1091 625.833C1098.36 625.833 1104.33 619.864 1104.33 612.5C1104.33 605.136 1098.36 599.167 1091 599.167C1083.64 599.167 1077.67 605.136 1077.67 612.5C1077.67 619.864 1083.64 625.833 1091 625.833ZM982 322.333C989.364 322.333 995.333 316.364 995.333 309C995.333 301.636 989.364 295.667 982 295.667C974.636 295.667 968.667 301.636 968.667 309C968.667 316.364 974.636 322.333 982 322.333ZM1039 587.333C1046.36 587.333 1052.33 581.364 1052.33 574C1052.33 566.636 1046.36 560.667 1039 560.667C1031.64 560.667 1025.67 566.636 1025.67 574C1025.67 581.364 1031.64 587.333 1039 587.333ZM1039 517.5L1038.55 515.041L1036.5 515.415L1036.5 517.5L1039 517.5ZM1091 420.888L1093.5 420.888L1091 420.888ZM1077.04 390.528L1075.42 392.425L1077.04 390.528ZM1093.5 508L1093.5 420.888L1088.5 420.888L1088.5 508L1093.5 508ZM1078.67 388.63L983.628 307.102L980.372 310.898L1075.42 392.425L1078.67 388.63ZM1093.5 612.5L1093.5 508L1088.5 508L1088.5 612.5L1093.5 612.5ZM1041.5 574L1041.5 517.5L1036.5 517.5L1036.5 574L1041.5 574ZM1039.45 519.959L1091.45 510.459L1090.55 505.541L1038.55 515.041L1039.45 519.959ZM1093.5 420.888C1093.5 408.487 1088.08 396.704 1078.67 388.63L1075.42 392.425C1083.72 399.55 1088.5 409.946 1088.5 420.888L1093.5 420.888Z" fill="#250A3B"/>
<path d="M869 -44.3333C861.636 -44.3333 855.667 -38.3638 855.667 -31C855.667 -23.6362 861.636 -17.6667 869 -17.6667C876.364 -17.6667 882.333 -23.6362 882.333 -31C882.333 -38.3638 876.364 -44.3333 869 -44.3333ZM869 38.6667C861.636 38.6667 855.667 44.6362 855.667 52C855.667 59.3638 861.636 65.3333 869 65.3333C876.364 65.3333 882.333 59.3638 882.333 52C882.333 44.6362 876.364 38.6667 869 38.6667ZM866.5 -31L866.5 52L871.5 52L871.5 -31L866.5 -31Z" fill="#250A3B"/>
<path d="M869 -36.3333C866.054 -36.3333 863.667 -33.9455 863.667 -31C863.667 -28.0545 866.054 -25.6667 869 -25.6667C871.946 -25.6667 874.333 -28.0545 874.333 -31C874.333 -33.9455 871.946 -36.3333 869 -36.3333ZM869 46.6667C866.054 46.6667 863.667 49.0545 863.667 52C863.667 54.9455 866.054 57.3333 869 57.3333C871.946 57.3333 874.333 54.9455 874.333 52C874.333 49.0545 871.946 46.6667 869 46.6667ZM868 -31L868 52L870 52L870 -31L868 -31Z" fill="#6A6A6A" fill-opacity="0.5"/>
<path d="M987.343 356.343C984.219 359.467 984.219 364.533 987.343 367.657C990.467 370.781 995.533 370.781 998.657 367.657C1001.78 364.533 1001.78 359.467 998.657 356.343C995.533 353.219 990.467 353.219 987.343 356.343ZM1046.03 415.033C1042.91 418.157 1042.91 423.223 1046.03 426.347C1049.16 429.471 1054.22 429.471 1057.35 426.347C1060.47 423.223 1060.47 418.157 1057.35 415.033C1054.22 411.909 1049.16 411.909 1046.03 415.033ZM991.939 363.061L1050.63 421.751L1052.75 419.629L994.061 360.939L991.939 363.061Z" fill="#250A3B"/>
<path d="M1318.45 211.83C1322.56 207.603 1329.31 207.502 1333.54 211.605C1337.76 215.708 1337.86 222.461 1333.76 226.688C1329.66 230.915 1322.91 231.016 1318.68 226.913C1314.45 222.81 1314.35 216.057 1318.45 211.83ZM1327.52 217.845L1492.26 382.586L1489.43 385.414L1324.69 220.673L1327.52 217.845Z" fill="#250A3B"/>
</g>
<defs>
<clipPath id="clip0_693_2398">
<rect width="1440" height="720" fill="white"/>
</clipPath>
</defs>
</svg>
