<svg width="38" height="39" viewBox="0 0 38 39" fill="none" xmlns="http://www.w3.org/2000/svg">
<path d="M19.0019 7.7264C20.0366 7.6908 20.8469 6.82297 20.8111 5.78805C20.7756 4.75312 19.9079 3.943 18.8729 3.9786L19.0019 7.7264ZM7.58343 18.28L5.70933 18.3375C5.71001 18.3595 5.71106 18.3815 5.71251 18.4035L7.58343 18.28ZM4.38301 26.8225L5.60703 28.2428C5.64056 28.214 5.67306 28.184 5.70446 28.1527L4.38301 26.8225ZM3.28613 27.73L4.38753 29.2475C4.41848 29.225 4.44873 29.2015 4.47826 29.1773L3.28613 27.73ZM14.0623 33.75C15.0979 33.75 15.9374 32.9105 15.9374 31.875C15.9374 30.8395 15.0979 30 14.0623 30V33.75ZM19.0019 3.9786C17.9669 3.943 17.0991 4.75312 17.0634 5.78805C17.0279 6.82297 17.8379 7.6908 18.8729 7.7264L19.0019 3.9786ZM30.2911 18.28L32.1621 18.4033C32.1636 18.3813 32.1646 18.3595 32.1654 18.3375L30.2911 18.28ZM33.4916 26.82L32.1701 28.1503C32.2016 28.1813 32.2341 28.2115 32.2676 28.2402L33.4916 26.82ZM34.5886 27.7275L33.3964 29.1747C33.4254 29.1985 33.4549 29.2215 33.4851 29.2435L34.5886 27.7275ZM23.8124 30C22.7769 30 21.9374 30.8395 21.9374 31.875C21.9374 32.9105 22.7769 33.75 23.8124 33.75V30ZM17.0624 5.8525C17.0624 6.88803 17.9019 7.7275 18.9374 7.7275C19.9729 7.7275 20.8124 6.88803 20.8124 5.8525H17.0624ZM20.8124 1.875C20.8124 0.839475 19.9729 0 18.9374 0C17.9019 0 17.0624 0.839475 17.0624 1.875H20.8124ZM14.0623 30C13.0268 30 12.1873 30.8395 12.1873 31.875C12.1873 32.9105 13.0268 33.75 14.0623 33.75V30ZM23.8124 33.75C24.8479 33.75 25.6874 32.9105 25.6874 31.875C25.6874 30.8395 24.8479 30 23.8124 30V33.75ZM15.9374 31.875C15.9374 30.8395 15.0979 30 14.0623 30C13.0268 30 12.1873 30.8395 12.1873 31.875H15.9374ZM25.6874 31.875C25.6874 30.8395 24.8479 30 23.8124 30C22.7769 30 21.9374 30.8395 21.9374 31.875H25.6874ZM18.8729 3.9786C11.3183 4.23845 5.47508 10.705 5.70933 18.3375L9.45756 18.2225C9.28393 12.5653 13.5998 7.9122 19.0019 7.7264L18.8729 3.9786ZM5.71251 18.4035C5.88808 21.062 4.91153 23.6545 3.06156 25.4923L5.70446 28.1527C8.33538 25.539 9.70038 21.8815 9.45436 18.1565L5.71251 18.4035ZM3.15898 25.4023C2.76726 25.7398 2.43801 25.9995 2.09398 26.2827L4.47826 29.1773C4.75336 28.9505 5.17486 28.6153 5.60703 28.2428L3.15898 25.4023ZM2.18473 26.2125C1.63658 26.6105 1.13848 27.179 0.767181 27.7793C0.400481 28.3718 0.0496311 29.1695 0.00468107 30.052C-0.0444939 31.0172 0.288005 32.0907 1.27578 32.846C2.15948 33.522 3.32396 33.75 4.55606 33.75V30C4.14773 30 3.87763 29.96 3.71193 29.9178C3.54763 29.876 3.51841 29.8402 3.55381 29.8672C3.59966 29.9025 3.66763 29.977 3.71246 30.0843C3.75316 30.182 3.74966 30.246 3.74983 30.243C3.75018 30.2358 3.75516 30.1832 3.79086 30.0847C3.82573 29.9885 3.88068 29.8742 3.95608 29.7525C4.03106 29.6312 4.11633 29.5185 4.20081 29.4245C4.28768 29.3275 4.35521 29.2708 4.38753 29.2475L2.18473 26.2125ZM4.55606 33.75H14.0623V30H4.55606V33.75ZM18.8729 7.7264C24.2749 7.9122 28.5906 12.5653 28.4171 18.2225L32.1654 18.3375C32.3996 10.705 26.5564 4.23845 19.0019 3.9786L18.8729 7.7264ZM28.4204 18.1568C28.1751 21.881 29.5401 25.5373 32.1701 28.1503L34.8131 25.4897C32.9636 23.6525 31.9871 21.061 32.1621 18.4033L28.4204 18.1568ZM32.2676 28.2402C32.6999 28.6127 33.1214 28.948 33.3964 29.1747L35.7806 26.2803C35.4366 25.997 35.1074 25.7372 34.7156 25.3997L32.2676 28.2402ZM33.4851 29.2435C33.5186 29.2678 33.5871 29.3255 33.6746 29.4233C33.7599 29.5183 33.8459 29.6315 33.9216 29.7535C33.9976 29.876 34.0531 29.9907 34.0884 30.0875C34.1244 30.1865 34.1296 30.2392 34.1299 30.2462C34.1301 30.2492 34.1264 30.1845 34.1674 30.086C34.2124 29.9775 34.2811 29.9025 34.3274 29.867C34.3629 29.8398 34.3336 29.8755 34.1686 29.9175C34.0021 29.96 33.7309 30 33.3211 30V33.75C34.5544 33.75 35.7204 33.5223 36.6046 32.8463C37.5944 32.0898 37.9259 31.0143 37.8746 30.0483C37.8279 29.1653 37.4751 28.368 37.1079 27.776C36.7359 27.1765 36.2379 26.609 35.6919 26.2115L33.4851 29.2435ZM33.3211 30H23.8124V33.75H33.3211V30ZM20.8124 5.8525V1.875H17.0624V5.8525H20.8124ZM14.0623 33.75H23.8124V30H14.0623V33.75ZM12.1873 31.875C12.1873 35.627 15.1649 38.75 18.9374 38.75V35C17.3249 35 15.9374 33.646 15.9374 31.875H12.1873ZM18.9374 38.75C22.7096 38.75 25.6874 35.627 25.6874 31.875H21.9374C21.9374 33.646 20.5496 35 18.9374 35V38.75Z" fill="#FFE72D"/>
</svg>
