<svg width="209" height="57" viewBox="0 0 209 57" fill="none" xmlns="http://www.w3.org/2000/svg">
<g filter="url(#filter0_d_638_2458)">
<g filter="url(#filter1_d_638_2458)">
<ellipse cx="104.5" cy="24.5" rx="12.1622" ry="20" transform="rotate(-180 104.5 24.5)" fill="url(#paint0_radial_638_2458)"/>
<ellipse cx="104.5" cy="24.5" rx="12.1622" ry="20" transform="rotate(-180 104.5 24.5)" fill="url(#paint1_radial_638_2458)" fill-opacity="0.2"/>
</g>
<path d="M196.5 4.5C200.918 4.5 204.5 8.08172 204.5 12.5L204.5 28.5C204.5 37.3366 197.337 44.5 188.5 44.5L113.257 44.5C112.152 44.5 111.257 43.6046 111.257 42.5L111.257 12.5C111.257 8.08173 114.838 4.5 119.257 4.5L196.5 4.5Z" fill="url(#paint2_linear_638_2458)"/>
<path d="M12.5 4.5C8.08173 4.5 4.5 8.08172 4.5 12.5L4.5 28.5C4.5 37.3365 11.6634 44.5 20.5 44.5L95.7432 44.5C96.8478 44.5 97.7432 43.6046 97.7432 42.5L97.7432 12.5C97.7432 8.08173 94.1615 4.50001 89.7432 4.50001L12.5 4.5Z" fill="url(#paint3_linear_638_2458)"/>
</g>
<defs>
<filter id="filter0_d_638_2458" x="0.5" y="0.5" width="208" height="48" filterUnits="userSpaceOnUse" color-interpolation-filters="sRGB">
<feFlood flood-opacity="0" result="BackgroundImageFix"/>
<feColorMatrix in="SourceAlpha" type="matrix" values="0 0 0 0 0 0 0 0 0 0 0 0 0 0 0 0 0 0 127 0" result="hardAlpha"/>
<feOffset/>
<feGaussianBlur stdDeviation="2"/>
<feComposite in2="hardAlpha" operator="out"/>
<feColorMatrix type="matrix" values="0 0 0 0 1 0 0 0 0 1 0 0 0 0 1 0 0 0 1 0"/>
<feBlend mode="normal" in2="BackgroundImageFix" result="effect1_dropShadow_638_2458"/>
<feBlend mode="normal" in="SourceGraphic" in2="effect1_dropShadow_638_2458" result="shape"/>
</filter>
<filter id="filter1_d_638_2458" x="84.3379" y="0.5" width="40.3242" height="56" filterUnits="userSpaceOnUse" color-interpolation-filters="sRGB">
<feFlood flood-opacity="0" result="BackgroundImageFix"/>
<feColorMatrix in="SourceAlpha" type="matrix" values="0 0 0 0 0 0 0 0 0 0 0 0 0 0 0 0 0 0 127 0" result="hardAlpha"/>
<feOffset dy="4"/>
<feGaussianBlur stdDeviation="4"/>
<feComposite in2="hardAlpha" operator="out"/>
<feColorMatrix type="matrix" values="0 0 0 0 1 0 0 0 0 1 0 0 0 0 1 0 0 0 0.25 0"/>
<feBlend mode="normal" in2="BackgroundImageFix" result="effect1_dropShadow_638_2458"/>
<feBlend mode="normal" in="SourceGraphic" in2="effect1_dropShadow_638_2458" result="shape"/>
</filter>
<radialGradient id="paint0_radial_638_2458" cx="0" cy="0" r="1" gradientUnits="userSpaceOnUse" gradientTransform="translate(104.5 24.5) rotate(90) scale(12.5 7.60135)">
<stop offset="0.25" stop-color="#73FFFE"/>
<stop offset="1" stop-color="#42E8F6"/>
</radialGradient>
<radialGradient id="paint1_radial_638_2458" cx="0" cy="0" r="1" gradientUnits="userSpaceOnUse" gradientTransform="translate(104.5 24.5) rotate(90) scale(20 12.1622)">
<stop offset="0.395833" stop-opacity="0"/>
<stop offset="1"/>
</radialGradient>
<linearGradient id="paint2_linear_638_2458" x1="155.851" y1="4.5" x2="155.851" y2="42.3947" gradientUnits="userSpaceOnUse">
<stop stop-color="#FFE72D"/>
<stop offset="1" stop-color="#FF650B"/>
</linearGradient>
<linearGradient id="paint3_linear_638_2458" x1="53.1487" y1="7.65789" x2="53.1487" y2="43.4474" gradientUnits="userSpaceOnUse">
<stop stop-color="#FFE72D"/>
<stop offset="1" stop-color="#FF650B"/>
</linearGradient>
</defs>
</svg>
