<svg width="52" height="35" viewBox="0 0 52 35" fill="none" xmlns="http://www.w3.org/2000/svg">
<ellipse cx="25.961" cy="16.7902" rx="3.3156" ry="3.12057" transform="rotate(30 25.961 16.7902)" fill="#73FFFE"/>
<path d="M29.2363 14.6277L51.5319 27.5V27.5C47.9505 30.7926 42.6458 31.3779 38.4326 28.9455L29.654 23.8771C27.269 22.5002 26.4519 19.4505 27.8288 17.0655L29.2363 14.6277Z" fill="#FF650B"/>
<path d="M26.1958 12.8724L3.90027 0.000106156V0.000106156C2.83954 4.74796 4.98496 9.63465 9.19809 12.0671L17.9767 17.1354C20.3617 18.5124 23.4113 17.6953 24.7883 15.3103L26.1958 12.8724Z" fill="#FF650B"/>
<circle cx="4" cy="4" r="4" transform="matrix(1 0 0 -1 34 10)" fill="#FFE72D"/>
</svg>
