<svg width="30" height="31" viewBox="0 0 30 31" fill="none" xmlns="http://www.w3.org/2000/svg">
<path fill-rule="evenodd" clip-rule="evenodd" d="M11.3971 26.2445C11.6838 26.782 11.971 27.2663 12.2455 27.6955C9.32908 27.0397 6.79843 25.3645 5.0473 23.0638C6.20302 22.413 7.68325 21.7383 9.46277 21.2447C9.96853 23.2283 10.6821 24.9038 11.3971 26.2445ZM13.603 25.068C12.9818 23.9035 12.3593 22.4492 11.9108 20.726C12.8763 20.5827 13.907 20.5 15.0002 20.5C16.0932 20.5 17.1238 20.5827 18.0892 20.7258C17.6407 22.4492 17.0182 23.9035 16.397 25.068C15.899 26.0018 15.4028 26.7473 15 27.2928C14.5972 26.7473 14.101 26.0018 13.603 25.068ZM11.25 15.5C11.25 16.4735 11.3155 17.3975 11.431 18.2698C12.5448 18.099 13.7357 18 15.0002 18C16.2645 18 17.4553 18.0988 18.569 18.2698C18.6845 17.3973 18.75 16.4735 18.75 15.5C18.75 14.5265 18.6845 13.6027 18.569 12.7302C17.4553 12.901 16.2645 13 15.0002 13C13.7357 13 12.5448 12.901 11.431 12.7302C11.3155 13.6025 11.25 14.5265 11.25 15.5ZM8.97813 12.2147C8.83295 13.2463 8.75 14.3423 8.75 15.5C8.75 16.6577 8.83295 17.7537 8.97813 18.7853C6.85563 19.3552 5.09803 20.1587 3.73873 20.9318C2.94497 19.2893 2.5 17.4467 2.5 15.5C2.5 13.5533 2.94497 11.7107 3.73872 10.0681C5.09787 10.8412 6.8555 11.6448 8.97813 12.2147ZM11.9108 10.2741C12.8763 10.4174 13.907 10.5 15.0002 10.5C16.0932 10.5 17.1238 10.4174 18.0892 10.2741C17.6407 8.55092 17.0182 7.09655 16.397 5.932C15.899 4.99823 15.4028 4.2526 15 3.7072C14.5972 4.2526 14.101 4.99823 13.603 5.93197C12.9818 7.09652 12.3593 8.55088 11.9108 10.2741ZM21.0218 12.2148C21.167 13.2465 21.25 14.3425 21.25 15.5C21.25 16.6577 21.167 17.7535 21.0218 18.7852C23.1443 19.3552 24.902 20.1587 26.2613 20.9318C27.055 19.2892 27.5 17.4465 27.5 15.5C27.5 13.5535 27.055 11.7108 26.2613 10.0682C24.9022 10.8413 23.1445 11.6448 21.0218 12.2148ZM24.9527 7.9363C23.7968 8.58718 22.3167 9.26175 20.5373 9.75547C20.0315 7.77173 19.318 6.09615 18.603 4.75553C18.3162 4.21795 18.029 3.73375 17.7545 3.3045C20.671 3.96038 23.2017 5.6356 24.9527 7.9363ZM9.46275 9.75542C7.68335 9.26168 6.20317 8.58712 5.04732 7.93622C6.79843 5.63557 9.32908 3.96038 12.2453 3.3045C11.971 3.73375 11.6838 4.21793 11.397 4.7555C10.6821 6.09612 9.96853 7.77168 9.46275 9.75542ZM20.5373 21.2445C20.0315 23.2283 19.318 24.9038 18.603 26.2445C18.3162 26.782 18.029 27.2663 17.7545 27.6955C20.671 27.0397 23.2017 25.3643 24.9528 23.0637C23.797 22.4128 22.3168 21.7383 20.5373 21.2445ZM15 30.5C23.2843 30.5 30 23.7843 30 15.5C30 7.21573 23.2843 0.5 15 0.5C6.71573 0.5 0 7.21573 0 15.5C0 23.7843 6.71573 30.5 15 30.5Z" fill="#E6E6E6"/>
</svg>
