<svg width="300" height="153" viewBox="0 0 300 153" fill="none" xmlns="http://www.w3.org/2000/svg">
<rect y="2.84949" width="300" height="150" rx="24" fill="url(#paint0_linear_1832_2957)"/>
<circle cx="70" cy="105.85" r="40" fill="url(#paint1_radial_1832_2957)"/>
<circle cx="235" cy="105.85" r="40" fill="url(#paint2_radial_1832_2957)"/>
<path d="M174.374 72.8495H168.749L133.124 106.6L140.624 114.1L174.374 78.4745V72.8495Z" fill="#C4CCCC"/>
<path d="M174.374 72.8495L136.874 110.35L140.624 114.1L174.374 78.4745V72.8495Z" fill="#A3AFAF"/>
<path d="M129.375 106.601L140.625 117.85L142.5 115.976L131.25 104.726L129.375 106.601Z" fill="#C4CCCC"/>
<path d="M120 115.976L131.25 127.225L133.125 125.351L121.875 114.101L120 115.976Z" fill="#C4CCCC"/>
<path d="M132.188 109.412L124.688 116.912L130.313 122.537L137.813 115.037L132.188 109.412Z" fill="#A3AFAF"/>
<path d="M125.624 72.8495V78.4745L159.374 114.1L166.874 106.6L131.249 72.8495H125.624Z" fill="#E1E5E5"/>
<path d="M159.375 117.849L170.625 106.599L168.75 104.724L157.501 115.974L159.375 117.849Z" fill="#E1E5E5"/>
<path d="M168.75 127.224L180 115.974L178.125 114.099L166.876 125.349L168.75 127.224Z" fill="#E1E5E5"/>
<path d="M125.624 72.8495L163.124 110.35L166.874 106.6L131.249 72.8495H125.624Z" fill="#FDFFFF"/>
<path d="M162.186 115.036L169.687 122.537L175.312 116.911L167.812 109.411L162.186 115.036Z" fill="#C4CCCC"/>
<path d="M137.812 115.037L132.187 109.412V120.662L137.812 115.037Z" fill="#8D9999"/>
<path d="M167.812 109.412L162.187 115.037L167.812 120.662V109.412Z" fill="#A3AFAF"/>
<path d="M143.214 111.366L149.999 104.203L146.604 100.62L143.214 104.01V111.366Z" fill="#8D9999"/>
<path d="M146.604 100.62L143.214 97.0408V104.01L146.604 100.62Z" fill="#A3AFAF"/>
<path d="M146.604 100.62L143.214 97.0408V104.01L146.604 100.62Z" fill="#A3AFAF"/>
<g filter="url(#filter0_d_1832_2957)">
<mask id="path-19-inside-1_1832_2957" fill="white">
<path d="M40.2979 70.4415L40.1696 80.0214C40.4927 81.9385 46.6543 85.8213 68.7158 86.0156C90.7772 86.2099 98.2348 81.4603 99.206 79.0612L99.3342 69.4813C99.3342 69.4813 90.2902 75.0262 68.8618 75.1076C52.6384 75.1692 43.8404 72.3613 40.2979 70.4415Z"/>
</mask>
<path d="M40.2979 70.4415L40.1696 80.0214C40.4927 81.9385 46.6543 85.8213 68.7158 86.0156C90.7772 86.2099 98.2348 81.4603 99.206 79.0612L99.3342 69.4813C99.3342 69.4813 90.2902 75.0262 68.8618 75.1076C52.6384 75.1692 43.8404 72.3613 40.2979 70.4415Z" fill="url(#paint3_linear_1832_2957)" shape-rendering="crispEdges"/>
<path d="M40.1696 80.0214L28.1712 80.2165C28.1616 80.9349 28.2165 81.6507 28.3353 82.3555L40.1696 80.0214ZM40.2979 70.4415L46.2539 59.8517C42.5649 57.8526 38.0356 57.986 34.3459 60.2024C30.6561 62.4188 28.3563 66.3876 28.2994 70.6367L40.2979 70.4415ZM68.8618 75.1076L68.5516 87.108L68.8618 75.1076ZM99.3342 69.4813L111.333 69.2862C111.391 64.9605 109.116 61.0076 105.379 58.94C101.642 56.8725 97.0215 57.0103 93.2855 59.3009L99.3342 69.4813ZM99.206 79.0612L110.31 83.2782C110.881 81.8684 111.184 80.3716 111.204 78.866L99.206 79.0612ZM68.7158 86.0156L69.177 74.0155L69.177 74.0155L68.7158 86.0156ZM52.168 79.8262L52.2963 70.2464L28.2994 70.6367L28.1712 80.2165L52.168 79.8262ZM34.3418 81.0314C40.2144 84.2138 51.1875 87.174 68.5516 87.108L69.1719 63.1072C54.0894 63.1645 47.4664 60.5087 46.2539 59.8517L34.3418 81.0314ZM68.5516 87.108C80.3055 87.0634 89.0218 85.5172 95.0783 83.8051C98.1015 82.9504 100.442 82.06 102.149 81.308C103.001 80.9324 103.693 80.5924 104.231 80.3102C104.499 80.1692 104.729 80.0428 104.921 79.9337C105.017 79.8792 105.103 79.829 105.18 79.7836C105.219 79.7609 105.255 79.7393 105.289 79.719C105.306 79.7088 105.322 79.699 105.338 79.6894C105.345 79.6847 105.353 79.68 105.361 79.6754C105.364 79.6731 105.37 79.6697 105.372 79.6685C105.377 79.6651 105.383 79.6618 99.3342 69.4813C93.2855 59.3009 93.2909 59.2976 93.2963 59.2943C93.298 59.2932 93.3034 59.2899 93.3069 59.2878C93.3139 59.2835 93.3208 59.2793 93.3275 59.2752C93.341 59.267 93.354 59.2592 93.3664 59.2517C93.3913 59.2367 93.4141 59.2231 93.4348 59.2109C93.4763 59.1864 93.5092 59.1674 93.5337 59.1535C93.5825 59.1257 93.5972 59.1185 93.5767 59.1293C93.5359 59.1507 93.3538 59.2445 93.0237 59.3899C92.3649 59.6802 91.1053 60.181 89.189 60.7228C85.3664 61.8034 78.8465 63.0704 69.1719 63.1072L68.5516 87.108ZM87.3358 69.6765L87.2076 79.2563L111.204 78.866L111.333 69.2862L87.3358 69.6765ZM88.1017 74.8441C88.7163 73.3258 89.5148 72.3764 89.9245 71.9436C90.371 71.472 90.6938 71.2573 90.7309 71.2327C90.7893 71.1942 90.225 71.5652 88.6464 72.0521C85.4897 73.0257 79.4446 74.106 69.177 74.0155L68.2545 98.0156C80.0485 98.1195 88.7628 96.9221 95.0931 94.9697C98.258 93.9936 101.119 92.7396 103.538 91.1418C105.662 89.7389 108.706 87.2408 110.31 83.2782L88.1017 74.8441ZM69.177 74.0155C58.7036 73.9233 52.819 72.9484 49.8891 72.1146C48.4024 71.6916 48.1189 71.4277 48.4634 71.6543C48.6457 71.7742 49.2234 72.1754 49.8829 72.9642C50.5022 73.7049 51.5976 75.2762 52.004 77.6873L28.3353 82.3555C29.2429 87.7403 33.118 90.6758 34.8644 91.8246C37.1444 93.3245 39.8408 94.4029 42.6926 95.2144C48.4396 96.8499 56.6665 97.9136 68.2545 98.0156L69.177 74.0155Z" fill="url(#paint4_linear_1832_2957)" fill-opacity="0.27" mask="url(#path-19-inside-1_1832_2957)"/>
</g>
<path d="M80.9465 55.2454C82.4456 55.9109 84.1272 56.2163 85.0507 56.3469C87.5371 56.6984 89.1813 55.7621 90.8454 54.5353C90.8454 54.5353 91.8624 53.7806 92.1779 53.3947C92.4934 53.0087 81.7013 52.6468 77.9521 52.3271C78.0282 52.4719 79.6746 54.6808 80.9465 55.2454Z" fill="url(#paint5_linear_1832_2957)" fill-opacity="0.5"/>
<path d="M62.6962 53.6614C61.5689 55.077 60.6252 55.626 59.7234 56.1385C57.2954 57.5182 54.8686 57.6008 52.6228 55.9257C52.6228 55.9257 39.6301 55.2283 39.0013 54.8447C38.6259 54.6158 57.4389 52.5931 63.8066 51.9998C63.7685 52.1909 63.5229 52.6233 62.6962 53.6614Z" fill="url(#paint6_linear_1832_2957)" fill-opacity="0.5"/>
<g filter="url(#filter1_d_1832_2957)">
<path d="M40.4295 68.8874C42.3711 71.1599 50.525 74.0517 69.8319 74.1458C77.7214 73.9863 99.3253 71.5091 99.3253 67.9295C99.3253 64.3498 100.501 32.3867 100.501 24.8498C100.501 23.3498 94.0008 26.3498 94.0008 31.8498C90.5008 25.8498 87.7882 37.3498 91.0008 37.3498C92.5678 37.3498 92.5008 39.3498 94.5008 40.8498C96.8017 41.2127 96.8426 44.5343 94.0008 47.8498C91.0008 51.3499 87.3836 55.7865 83.5 55.8497C79.8487 55.9091 76.2363 50.2301 75.0005 46.3499C75.0005 45.6996 75.21 45.0622 75.5444 44.4946C76.4551 42.9492 77.9179 39.8499 75.0005 39.8499C71.1142 39.8499 71.0808 36.3499 70.0005 36.3499C68.7796 36.3499 69.0005 39.7268 65.4221 39.7268C62.8709 39.7268 63.5005 43.8499 65.5005 45.8499L64.0005 51.3499C62.5005 54.3499 56.6413 55.7421 54.3301 55.696C49.8309 55.6062 47 55.3497 42 54.8497L38.8381 54.6957C39.8147 61.0179 38.4878 66.6149 40.4295 68.8874Z" fill="url(#paint7_linear_1832_2957)" shape-rendering="crispEdges"/>
<path d="M72.4955 42.7577C72.4859 42.7621 72.4763 42.7665 72.4666 42.7708L72.3977 42.7019M72.4955 42.7577L72.3977 42.7019M72.4955 42.7577L72.3977 42.7019M72.4955 42.7577C72.9939 42.5297 73.4375 42.2523 73.816 41.9556L70.7366 41.7556M72.3977 42.7019L70.7366 41.7556M72.3977 42.7019L70.7366 41.7556M72.3977 42.7019L70.5226 40.8269C70.6247 40.9289 70.6698 40.997 70.6841 41.022M70.7366 41.7556C70.7506 41.5411 70.7411 41.3985 70.7377 41.3501C70.7246 41.1597 70.6961 41.0568 70.6841 41.022M70.7366 41.7556C70.7132 42.1139 70.6242 42.6727 70.3313 43.3277C70.2472 43.3347 70.1624 43.3401 70.0768 43.3439C69.9545 43.022 69.8732 42.7145 69.8202 42.4326C69.7625 42.1259 69.7384 41.8495 69.7316 41.618C69.7267 41.4483 69.731 41.3026 69.7382 41.1868M70.7366 41.7556L65.5005 45.8499L65.2613 46.7268C65.7968 46.7213 66.5115 46.6205 67.2908 46.2887C67.4283 46.2301 67.5679 46.1643 67.7088 46.0906C67.8158 46.0347 67.9199 45.9761 68.0211 45.915C68.0459 45.5254 68.0925 45.1459 68.1576 44.7774C67.8404 44.5448 67.5507 44.3048 67.2865 44.0635C66.6116 43.4473 66.1027 42.8232 65.7241 42.2967C65.59 42.1102 65.4686 41.9306 65.3616 41.7662C65.2116 41.5357 65.0901 41.3352 65.0018 41.188C64.9225 41.0559 64.9086 41.0322 64.8973 41.0128C64.8872 40.9957 64.8792 40.982 64.8293 40.899C64.8054 40.8592 64.7955 40.8434 64.7955 40.8434C64.7955 40.8434 64.8002 40.8508 64.8082 40.863C64.8271 40.8917 64.9038 41.0074 65.0304 41.1644C65.1047 41.2566 65.2168 41.3889 65.3682 41.543C65.4698 41.6463 65.5891 41.7595 65.7264 41.877C66.2388 42.3153 67.0731 42.8632 68.1983 43.1516C68.3135 43.1811 68.4318 43.2079 68.553 43.2316C68.6331 42.9936 68.72 42.762 68.8127 42.5371C69.0295 42.0109 69.2775 41.5218 69.5411 41.0745L69.7382 41.1868M70.7366 41.7556L70.0087 41.3409L70.7366 41.7556ZM70.6841 41.022C70.6923 41.0362 70.6905 41.0366 70.6837 41.0214C70.676 41.0042 70.6777 41.0035 70.6841 41.022ZM69.7382 41.1868C69.7438 41.0959 69.7512 41.0233 69.7573 40.9718C69.7896 40.6999 69.8401 40.52 69.863 40.4499M69.7382 41.1868L69.5411 41.0745C69.6734 40.85 69.7793 40.6453 69.8419 40.5004C69.8509 40.4797 69.8578 40.4628 69.863 40.4499M69.863 40.4499C69.8718 40.4276 69.8754 40.4167 69.8749 40.4169C69.8745 40.4171 69.87 40.4282 69.863 40.4499ZM83.4063 62.849C87.2627 62.7863 90.391 60.9326 92.5593 59.2184C92.5015 61.0864 92.4509 62.7716 92.4116 64.1778C90.8859 64.599 88.889 65.0242 86.563 65.4199C80.528 66.4467 73.5671 67.0651 69.9829 67.1451C60.6799 67.0953 54.3571 66.3717 50.2956 65.4903C48.4141 65.082 47.1295 64.6635 46.3105 64.3219C46.2919 63.9835 46.2783 63.5553 46.271 63.0093C46.268 62.7897 46.2665 62.5532 46.2653 62.3014C48.7601 62.5083 51.0452 62.6362 53.9832 62.6949C56.2035 62.7392 59.1383 62.1782 61.7226 61.2232C63.9746 60.3911 68.1729 58.4704 70.2428 54.3307L70.5626 53.6911L70.5634 53.6881C71.228 54.8541 71.9875 55.9946 72.8231 57.0417C73.8586 58.3395 75.1777 59.7048 76.7881 60.7852C78.3824 61.8549 80.6432 62.894 83.4063 62.849ZM46.421 65.3197C46.4207 65.3202 46.4171 65.308 46.4113 65.2811C46.4185 65.3057 46.4214 65.3191 46.421 65.3197Z" stroke="url(#paint8_linear_1832_2957)" stroke-opacity="0.27" stroke-width="14" shape-rendering="crispEdges"/>
</g>
<g filter="url(#filter2_d_1832_2957)">
<path fill-rule="evenodd" clip-rule="evenodd" d="M99.657 55.9698C98.6838 56.6879 97.9036 57.4107 97.0389 59.3919C97.4878 60.9304 98.3783 61.6618 99.3254 62.4396C99.3683 62.4749 99.4114 62.5102 99.4544 62.5457C99.51 60.6643 99.5799 58.4196 99.657 55.9698Z" fill="black"/>
</g>
<path fill-rule="evenodd" clip-rule="evenodd" d="M100.326 33.9121C99.5889 34.1376 99.0337 34.95 99.0232 35.9086C99.0129 36.8383 99.5182 37.6137 100.217 37.8436C100.256 36.4807 100.293 35.1623 100.326 33.9121Z" fill="black"/>
<g filter="url(#filter3_d_1832_2957)">
<mask id="path-27-inside-2_1832_2957" fill="white">
<path d="M267.08 71.2912L267.208 80.871C266.885 82.7881 260.724 86.6709 238.662 86.8653C216.601 87.0596 209.143 82.3099 208.172 79.9108L208.044 70.331C208.044 70.331 217.088 75.8759 238.516 75.9573C254.739 76.0189 263.538 73.2109 267.08 71.2912Z"/>
</mask>
<path d="M267.08 71.2912L267.208 80.871C266.885 82.7881 260.724 86.6709 238.662 86.8653C216.601 87.0596 209.143 82.3099 208.172 79.9108L208.044 70.331C208.044 70.331 217.088 75.8759 238.516 75.9573C254.739 76.0189 263.538 73.2109 267.08 71.2912Z" fill="url(#paint9_linear_1832_2957)" shape-rendering="crispEdges"/>
<path d="M267.208 80.871L279.207 81.0662C279.216 81.7846 279.161 82.5004 279.043 83.2051L267.208 80.871ZM267.08 71.2912L261.124 60.7013C264.813 58.7023 269.342 58.8357 273.032 61.052C276.722 63.2684 279.022 67.2372 279.078 71.4863L267.08 71.2912ZM238.516 75.9573L238.826 87.9577L238.516 75.9573ZM208.044 70.331L196.045 70.1358C195.987 65.8102 198.262 61.8573 201.999 59.7897C205.736 57.7221 210.356 57.86 214.092 60.1506L208.044 70.331ZM208.172 79.9108L197.068 84.1279C196.497 82.7181 196.194 81.2213 196.174 79.7157L208.172 79.9108ZM238.662 86.8653L238.201 74.8652L238.201 74.8652L238.662 86.8653ZM255.21 80.6759L255.082 71.096L279.078 71.4863L279.207 81.0662L255.21 80.6759ZM273.036 81.8811C267.164 85.0635 256.19 88.0237 238.826 87.9577L238.206 63.9569C253.289 64.0141 259.912 61.3584 261.124 60.7013L273.036 81.8811ZM238.826 87.9577C227.072 87.9131 218.356 86.3669 212.3 84.6548C209.276 83.8001 206.936 82.9096 205.229 82.1577C204.377 81.782 203.685 81.442 203.147 81.1599C202.878 81.0189 202.649 80.8924 202.457 80.7834C202.361 80.7288 202.275 80.6787 202.198 80.6332C202.159 80.6105 202.123 80.589 202.089 80.5687C202.072 80.5585 202.056 80.5487 202.04 80.5391C202.033 80.5343 202.025 80.5296 202.017 80.525C202.013 80.5227 202.008 80.5193 202.006 80.5182C202 80.5148 201.995 80.5114 208.044 70.331C214.092 60.1506 214.087 60.1472 214.082 60.1439C214.08 60.1429 214.075 60.1396 214.071 60.1375C214.064 60.1332 214.057 60.129 214.05 60.1249C214.037 60.1167 214.024 60.1089 214.011 60.1014C213.987 60.0864 213.964 60.0728 213.943 60.0606C213.902 60.0361 213.869 60.0171 213.844 60.0032C213.795 59.9754 213.781 59.9682 213.801 59.9789C213.842 60.0003 214.024 60.0942 214.354 60.2396C215.013 60.5299 216.273 61.0307 218.189 61.5725C222.012 62.6531 228.531 63.9201 238.206 63.9569L238.826 87.9577ZM220.042 70.5261L220.17 80.106L196.174 79.7157L196.045 70.1358L220.042 70.5261ZM219.276 75.6938C218.662 74.1755 217.863 73.2261 217.453 72.7933C217.007 72.3217 216.684 72.1069 216.647 72.0824C216.589 72.0438 217.153 72.4149 218.732 72.9018C221.888 73.8754 227.933 74.9556 238.201 74.8652L239.123 98.8653C227.329 98.9692 218.615 97.7718 212.285 95.8194C209.12 94.8432 206.259 93.5892 203.84 91.9914C201.716 90.5886 198.672 88.0905 197.068 84.1279L219.276 75.6938ZM238.201 74.8652C248.674 74.773 254.559 73.7981 257.489 72.9643C258.976 72.5412 259.259 72.2773 258.915 72.5039C258.732 72.6239 258.155 73.0251 257.495 73.8139C256.876 74.5546 255.78 76.1258 255.374 78.5369L279.043 83.2051C278.135 88.5899 274.26 91.5255 272.514 92.6743C270.233 94.1741 267.537 95.2525 264.685 96.0641C258.938 97.6996 250.711 98.7632 239.123 98.8653L238.201 74.8652Z" fill="url(#paint10_linear_1832_2957)" fill-opacity="0.27" mask="url(#path-27-inside-2_1832_2957)"/>
</g>
<path d="M226.431 56.0951C224.932 56.7606 223.251 57.066 222.327 57.1966C219.841 57.5481 218.197 56.6118 216.533 55.385C216.533 55.385 215.516 54.6303 215.2 54.2443C214.885 53.8584 225.677 53.4965 229.426 53.1768C229.35 53.3215 227.703 55.5304 226.431 56.0951Z" fill="url(#paint11_linear_1832_2957)" fill-opacity="0.5"/>
<path d="M244.682 54.5111C245.809 55.9267 246.753 56.4757 247.655 56.9881C250.082 58.3678 252.509 58.4505 254.755 56.7754C254.755 56.7754 267.748 56.0779 268.377 55.6944C268.752 55.4655 249.939 53.4427 243.571 52.8494C243.609 53.0406 243.855 53.4729 244.682 54.5111Z" fill="url(#paint12_linear_1832_2957)" fill-opacity="0.5"/>
<g filter="url(#filter4_d_1832_2957)">
<path d="M266.948 69.7371C265.007 72.0096 256.853 74.9014 237.546 74.9955C229.657 74.8359 208.053 72.3588 208.053 68.7791C208.053 65.1995 206.877 33.2364 206.877 25.6995C206.877 24.1995 213.377 27.1995 213.377 32.6995C216.877 26.6995 219.59 38.1995 216.377 38.1995C214.81 38.1995 214.877 40.1995 212.877 41.6995C210.576 42.0624 210.535 45.3839 213.377 48.6995C216.377 52.1995 219.994 56.6362 223.878 56.6993C227.529 56.7587 231.142 51.0797 232.377 47.1995C232.377 46.5493 232.168 45.9119 231.833 45.3443C230.923 43.7989 229.46 40.6995 232.377 40.6995C236.264 40.6995 236.297 37.1995 237.377 37.1995C238.598 37.1995 238.377 40.5764 241.956 40.5764C244.507 40.5764 243.877 44.6995 241.877 46.6995L243.377 52.1995C244.877 55.1995 250.737 56.5918 253.048 56.5456C257.547 56.4559 260.378 56.1993 265.378 55.6993L268.54 55.5454C267.563 61.8676 268.89 67.4645 266.948 69.7371Z" fill="url(#paint13_linear_1832_2957)" shape-rendering="crispEdges"/>
<path d="M234.882 43.6073C234.892 43.6117 234.902 43.6161 234.911 43.6205L234.98 43.5516M234.882 43.6073L234.98 43.5516M234.882 43.6073L234.98 43.5516M234.882 43.6073C234.384 43.3794 233.94 43.102 233.562 42.8052L236.641 42.6053M234.98 43.5516L236.641 42.6053M234.98 43.5516L236.641 42.6053M234.98 43.5516L236.855 41.6765C236.753 41.7786 236.708 41.8466 236.694 41.8717M236.641 42.6053C236.627 42.3908 236.637 42.2482 236.64 42.1998C236.653 42.0093 236.682 41.9065 236.694 41.8717M236.641 42.6053C236.665 42.9636 236.754 43.5224 237.047 44.1773C237.131 44.1844 237.216 44.1898 237.301 44.1936C237.423 43.8717 237.505 43.5641 237.558 43.2822C237.615 42.9755 237.639 42.6992 237.646 42.4677C237.651 42.2979 237.647 42.1523 237.64 42.0365M236.641 42.6053L241.877 46.6995L242.117 47.5765C241.581 47.571 240.866 47.4702 240.087 47.1383C239.95 47.0798 239.81 47.014 239.669 46.9403C239.562 46.8844 239.458 46.8257 239.357 46.7647C239.332 46.3751 239.285 45.9956 239.22 45.6271C239.538 45.3945 239.827 45.1545 240.091 44.9132C240.766 44.2969 241.275 43.6729 241.654 43.1464C241.788 42.9599 241.909 42.7802 242.016 42.6158C242.166 42.3854 242.288 42.1849 242.376 42.0377C242.455 41.9055 242.469 41.8818 242.481 41.8625C242.491 41.8454 242.499 41.8316 242.549 41.7486C242.573 41.7089 242.582 41.6931 242.582 41.6931C242.582 41.693 242.578 41.7004 242.57 41.7127C242.551 41.7414 242.474 41.8571 242.348 42.0141C242.273 42.1062 242.161 42.2385 242.01 42.3926C241.908 42.496 241.789 42.6092 241.652 42.7267C241.139 43.1649 240.305 43.7129 239.18 44.0012C239.064 44.0307 238.946 44.0575 238.825 44.0812C238.745 43.8432 238.658 43.6116 238.565 43.3868C238.348 42.8606 238.1 42.3715 237.837 41.9242L237.64 42.0365M236.641 42.6053L237.369 42.1906L236.641 42.6053ZM236.694 41.8717C236.686 41.8859 236.687 41.8863 236.694 41.8711C236.702 41.8539 236.7 41.8531 236.694 41.8717ZM237.64 42.0365C237.634 41.9455 237.627 41.873 237.621 41.8215C237.588 41.5495 237.538 41.3697 237.515 41.2996M237.64 42.0365L237.837 41.9242C237.705 41.6997 237.599 41.4949 237.536 41.3501C237.527 41.3293 237.52 41.3125 237.515 41.2996M237.515 41.2996C237.506 41.2772 237.503 41.2664 237.503 41.2666C237.503 41.2667 237.508 41.2779 237.515 41.2996ZM223.972 63.6987C220.115 63.636 216.987 61.7823 214.819 60.0681C214.876 61.9361 214.927 63.6212 214.966 65.0275C216.492 65.4487 218.489 65.8739 220.815 66.2696C226.85 67.2964 233.811 67.9148 237.395 67.9948C246.698 67.945 253.021 67.2214 257.082 66.34C258.964 65.9317 260.248 65.5132 261.067 65.1715C261.086 64.8332 261.1 64.405 261.107 63.8589C261.11 63.6394 261.111 63.4029 261.113 63.1511C258.618 63.358 256.333 63.4859 253.395 63.5446C251.174 63.5889 248.24 63.0278 245.655 62.0729C243.403 61.2407 239.205 59.3201 237.135 55.1803L236.815 54.5407L236.815 54.5377C236.15 55.7038 235.39 56.8442 234.555 57.8914C233.519 59.1891 232.2 60.5545 230.59 61.6349C228.996 62.7046 226.735 63.7437 223.972 63.6987ZM260.957 66.1693C260.957 66.1699 260.961 66.1576 260.967 66.1308C260.959 66.1554 260.957 66.1688 260.957 66.1693Z" stroke="url(#paint14_linear_1832_2957)" stroke-opacity="0.27" stroke-width="14" shape-rendering="crispEdges"/>
</g>
<g filter="url(#filter5_d_1832_2957)">
<path fill-rule="evenodd" clip-rule="evenodd" d="M207.721 56.8195C208.694 57.5376 209.474 58.2604 210.339 60.2416C209.89 61.78 209 62.5114 208.052 63.2893C208.01 63.3245 207.967 63.3599 207.923 63.3954C207.868 61.5139 207.798 59.2692 207.721 56.8195Z" fill="black"/>
</g>
<path fill-rule="evenodd" clip-rule="evenodd" d="M207.052 34.7618C207.789 34.9873 208.344 35.7997 208.355 36.7583C208.365 37.688 207.86 38.4634 207.161 38.6932C207.122 37.3304 207.085 36.0119 207.052 34.7618Z" fill="black"/>
<defs>
<filter id="filter0_d_1832_2957" x="18.1699" y="64.4813" width="83.1641" height="40.54" filterUnits="userSpaceOnUse" color-interpolation-filters="sRGB">
<feFlood flood-opacity="0" result="BackgroundImageFix"/>
<feColorMatrix in="SourceAlpha" type="matrix" values="0 0 0 0 0 0 0 0 0 0 0 0 0 0 0 0 0 0 127 0" result="hardAlpha"/>
<feOffset dx="-10" dy="7"/>
<feGaussianBlur stdDeviation="6"/>
<feComposite in2="hardAlpha" operator="out"/>
<feColorMatrix type="matrix" values="0 0 0 0 0 0 0 0 0 0 0 0 0 0 0 0 0 0 0.25 0"/>
<feBlend mode="normal" in2="BackgroundImageFix" result="effect1_dropShadow_1832_2957"/>
<feBlend mode="normal" in="SourceGraphic" in2="effect1_dropShadow_1832_2957" result="shape"/>
</filter>
<filter id="filter1_d_1832_2957" x="18.8379" y="13.465" width="99.6631" height="87.6808" filterUnits="userSpaceOnUse" color-interpolation-filters="sRGB">
<feFlood flood-opacity="0" result="BackgroundImageFix"/>
<feColorMatrix in="SourceAlpha" type="matrix" values="0 0 0 0 0 0 0 0 0 0 0 0 0 0 0 0 0 0 127 0" result="hardAlpha"/>
<feOffset dx="-1" dy="8"/>
<feGaussianBlur stdDeviation="9.5"/>
<feComposite in2="hardAlpha" operator="out"/>
<feColorMatrix type="matrix" values="0 0 0 0 0 0 0 0 0 0 0 0 0 0 0 0 0 0 0.25 0"/>
<feBlend mode="normal" in2="BackgroundImageFix" result="effect1_dropShadow_1832_2957"/>
<feBlend mode="normal" in="SourceGraphic" in2="effect1_dropShadow_1832_2957" result="shape"/>
</filter>
<filter id="filter2_d_1832_2957" x="57.0391" y="21.9698" width="74.6182" height="78.5759" filterUnits="userSpaceOnUse" color-interpolation-filters="sRGB">
<feFlood flood-opacity="0" result="BackgroundImageFix"/>
<feColorMatrix in="SourceAlpha" type="matrix" values="0 0 0 0 0 0 0 0 0 0 0 0 0 0 0 0 0 0 127 0" result="hardAlpha"/>
<feOffset dx="-4" dy="2"/>
<feGaussianBlur stdDeviation="18"/>
<feComposite in2="hardAlpha" operator="out"/>
<feColorMatrix type="matrix" values="0 0 0 0 0 0 0 0 0 0 0 0 0 0 0 0 0 0 0.25 0"/>
<feBlend mode="normal" in2="BackgroundImageFix" result="effect1_dropShadow_1832_2957"/>
<feBlend mode="normal" in="SourceGraphic" in2="effect1_dropShadow_1832_2957" result="shape"/>
</filter>
<filter id="filter3_d_1832_2957" x="186.044" y="65.331" width="83.1641" height="40.54" filterUnits="userSpaceOnUse" color-interpolation-filters="sRGB">
<feFlood flood-opacity="0" result="BackgroundImageFix"/>
<feColorMatrix in="SourceAlpha" type="matrix" values="0 0 0 0 0 0 0 0 0 0 0 0 0 0 0 0 0 0 127 0" result="hardAlpha"/>
<feOffset dx="-10" dy="7"/>
<feGaussianBlur stdDeviation="6"/>
<feComposite in2="hardAlpha" operator="out"/>
<feColorMatrix type="matrix" values="0 0 0 0 0 0 0 0 0 0 0 0 0 0 0 0 0 0 0.25 0"/>
<feBlend mode="normal" in2="BackgroundImageFix" result="effect1_dropShadow_1832_2957"/>
<feBlend mode="normal" in="SourceGraphic" in2="effect1_dropShadow_1832_2957" result="shape"/>
</filter>
<filter id="filter4_d_1832_2957" x="186.877" y="14.3146" width="99.6631" height="87.6808" filterUnits="userSpaceOnUse" color-interpolation-filters="sRGB">
<feFlood flood-opacity="0" result="BackgroundImageFix"/>
<feColorMatrix in="SourceAlpha" type="matrix" values="0 0 0 0 0 0 0 0 0 0 0 0 0 0 0 0 0 0 127 0" result="hardAlpha"/>
<feOffset dx="-1" dy="8"/>
<feGaussianBlur stdDeviation="9.5"/>
<feComposite in2="hardAlpha" operator="out"/>
<feColorMatrix type="matrix" values="0 0 0 0 0 0 0 0 0 0 0 0 0 0 0 0 0 0 0.25 0"/>
<feBlend mode="normal" in2="BackgroundImageFix" result="effect1_dropShadow_1832_2957"/>
<feBlend mode="normal" in="SourceGraphic" in2="effect1_dropShadow_1832_2957" result="shape"/>
</filter>
<filter id="filter5_d_1832_2957" x="167.721" y="22.8195" width="74.6182" height="78.5759" filterUnits="userSpaceOnUse" color-interpolation-filters="sRGB">
<feFlood flood-opacity="0" result="BackgroundImageFix"/>
<feColorMatrix in="SourceAlpha" type="matrix" values="0 0 0 0 0 0 0 0 0 0 0 0 0 0 0 0 0 0 127 0" result="hardAlpha"/>
<feOffset dx="-4" dy="2"/>
<feGaussianBlur stdDeviation="18"/>
<feComposite in2="hardAlpha" operator="out"/>
<feColorMatrix type="matrix" values="0 0 0 0 0 0 0 0 0 0 0 0 0 0 0 0 0 0 0.25 0"/>
<feBlend mode="normal" in2="BackgroundImageFix" result="effect1_dropShadow_1832_2957"/>
<feBlend mode="normal" in="SourceGraphic" in2="effect1_dropShadow_1832_2957" result="shape"/>
</filter>
<linearGradient id="paint0_linear_1832_2957" x1="150" y1="2.84949" x2="150" y2="152.849" gradientUnits="userSpaceOnUse">
<stop stop-color="#C44536"/>
<stop offset="0.515262" stop-color="#FFE72D"/>
<stop offset="1" stop-color="#C44536"/>
</linearGradient>
<radialGradient id="paint1_radial_1832_2957" cx="0" cy="0" r="1" gradientUnits="userSpaceOnUse" gradientTransform="translate(90.5 87.3497) rotate(114.179) scale(53.7122 40.0001)">
<stop stop-color="white"/>
<stop offset="1" stop-color="#185EB0"/>
</radialGradient>
<radialGradient id="paint2_radial_1832_2957" cx="0" cy="0" r="1" gradientUnits="userSpaceOnUse" gradientTransform="translate(255.5 94.3497) rotate(111.251) scale(38.6264 37.6653)">
<stop stop-color="white"/>
<stop offset="1" stop-color="#A81010"/>
</radialGradient>
<linearGradient id="paint3_linear_1832_2957" x1="47.229" y1="80.8931" x2="103.405" y2="72.2306" gradientUnits="userSpaceOnUse">
<stop offset="0.0315335" stop-color="#B08743"/>
<stop offset="0.390961" stop-color="#FFC82D" stop-opacity="0.95"/>
<stop offset="0.64796" stop-color="#FFE72D" stop-opacity="0.95"/>
<stop offset="0.904958" stop-color="#FFC82D"/>
</linearGradient>
<linearGradient id="paint4_linear_1832_2957" x1="102.324" y1="72.1262" x2="88.0781" y2="99.1749" gradientUnits="userSpaceOnUse">
<stop stop-color="#FF650B" stop-opacity="0.18"/>
<stop offset="1" stop-color="#FF650B" stop-opacity="0"/>
</linearGradient>
<linearGradient id="paint5_linear_1832_2957" x1="86.482" y1="57.7091" x2="86.3807" y2="49.731" gradientUnits="userSpaceOnUse">
<stop stop-color="#635E5E" stop-opacity="0.6"/>
<stop offset="0.410259" stop-color="#6E592D" stop-opacity="0.7"/>
<stop offset="0.657617" stop-color="#FFB928"/>
<stop offset="0.989583" stop-color="#F9DD2E"/>
</linearGradient>
<linearGradient id="paint6_linear_1832_2957" x1="57.1683" y1="57.4279" x2="56.9149" y2="51.0219" gradientUnits="userSpaceOnUse">
<stop stop-color="#635E5E" stop-opacity="0.6"/>
<stop offset="0.380177" stop-color="#6E592D" stop-opacity="0.8"/>
<stop offset="0.822917" stop-color="#FFB928"/>
<stop offset="0.989583" stop-color="#F9DD2E"/>
</linearGradient>
<linearGradient id="paint7_linear_1832_2957" x1="47.3879" y1="55.8941" x2="100.195" y2="49.8214" gradientUnits="userSpaceOnUse">
<stop stop-color="#B08743"/>
<stop offset="0.310258" stop-color="#FFC82D" stop-opacity="0.95"/>
<stop offset="0.566289" stop-color="#FFE72D" stop-opacity="0.95"/>
<stop offset="0.886839" stop-color="#FFC82D"/>
</linearGradient>
<linearGradient id="paint8_linear_1832_2957" x1="102.292" y1="44.1314" x2="58.4227" y2="66.6318" gradientUnits="userSpaceOnUse">
<stop stop-color="#FF650B" stop-opacity="0.68"/>
<stop offset="1" stop-color="#FF650B" stop-opacity="0"/>
</linearGradient>
<linearGradient id="paint9_linear_1832_2957" x1="260.149" y1="81.7428" x2="203.973" y2="73.0803" gradientUnits="userSpaceOnUse">
<stop offset="0.0315335" stop-color="#B08743"/>
<stop offset="0.390961" stop-color="#FFC82D" stop-opacity="0.95"/>
<stop offset="0.64796" stop-color="#FFE72D" stop-opacity="0.95"/>
<stop offset="0.904958" stop-color="#FFC82D"/>
</linearGradient>
<linearGradient id="paint10_linear_1832_2957" x1="205.054" y1="72.9759" x2="219.3" y2="100.025" gradientUnits="userSpaceOnUse">
<stop stop-color="#FF650B" stop-opacity="0.18"/>
<stop offset="1" stop-color="#FF650B" stop-opacity="0"/>
</linearGradient>
<linearGradient id="paint11_linear_1832_2957" x1="220.896" y1="58.5588" x2="220.997" y2="50.5806" gradientUnits="userSpaceOnUse">
<stop stop-color="#635E5E" stop-opacity="0.6"/>
<stop offset="0.410259" stop-color="#6E592D" stop-opacity="0.7"/>
<stop offset="0.657617" stop-color="#FFB928"/>
<stop offset="0.989583" stop-color="#F9DD2E"/>
</linearGradient>
<linearGradient id="paint12_linear_1832_2957" x1="250.21" y1="58.2776" x2="250.463" y2="51.8715" gradientUnits="userSpaceOnUse">
<stop stop-color="#635E5E" stop-opacity="0.6"/>
<stop offset="0.380177" stop-color="#6E592D" stop-opacity="0.8"/>
<stop offset="0.822917" stop-color="#FFB928"/>
<stop offset="0.989583" stop-color="#F9DD2E"/>
</linearGradient>
<linearGradient id="paint13_linear_1832_2957" x1="259.99" y1="56.7438" x2="207.183" y2="50.6711" gradientUnits="userSpaceOnUse">
<stop stop-color="#B08743"/>
<stop offset="0.310258" stop-color="#FFC82D" stop-opacity="0.95"/>
<stop offset="0.566289" stop-color="#FFE72D" stop-opacity="0.95"/>
<stop offset="0.886839" stop-color="#FFC82D"/>
</linearGradient>
<linearGradient id="paint14_linear_1832_2957" x1="205.086" y1="44.981" x2="248.955" y2="67.4814" gradientUnits="userSpaceOnUse">
<stop stop-color="#FF650B" stop-opacity="0.68"/>
<stop offset="1" stop-color="#FF650B" stop-opacity="0"/>
</linearGradient>
</defs>
</svg>
