<svg width="308" height="161" viewBox="0 0 308 161" fill="none" xmlns="http://www.w3.org/2000/svg">
<rect y="11" width="300" height="150" rx="24" fill="url(#paint0_linear_1948_3025)" fill-opacity="0.75"/>
<rect y="11" width="300" height="150" rx="24" fill="url(#paint1_linear_1948_3025)"/>
<circle cx="55.252" cy="105.85" r="40" fill="url(#paint2_radial_1948_3025)"/>
<g filter="url(#filter0_d_1948_3025)">
<mask id="path-3-inside-1_1948_3025" fill="white">
<path d="M25.5498 70.4416L25.4216 80.0214C25.7447 81.9385 31.9063 85.8213 53.9677 86.0156C76.0292 86.2099 83.4868 81.4603 84.4579 79.0612L84.5862 69.4814C84.5862 69.4814 75.5422 75.0262 54.1137 75.1076C37.8904 75.1693 29.0923 72.3613 25.5498 70.4416Z"/>
</mask>
<path d="M25.5498 70.4416L25.4216 80.0214C25.7447 81.9385 31.9063 85.8213 53.9677 86.0156C76.0292 86.2099 83.4868 81.4603 84.4579 79.0612L84.5862 69.4814C84.5862 69.4814 75.5422 75.0262 54.1137 75.1076C37.8904 75.1693 29.0923 72.3613 25.5498 70.4416Z" fill="url(#paint3_linear_1948_3025)" shape-rendering="crispEdges"/>
<path d="M25.4216 80.0214L13.4232 80.2166C13.4135 80.9349 13.4685 81.6508 13.5872 82.3555L25.4216 80.0214ZM25.5498 70.4416L31.5058 59.8517C27.8169 57.8526 23.2876 57.986 19.5978 60.2024C15.9081 62.4188 13.6083 66.3876 13.5514 70.6367L25.5498 70.4416ZM54.1137 75.1076L53.8036 87.1081L54.1137 75.1076ZM84.5862 69.4814L96.5846 69.2862C96.6425 64.9606 94.3677 61.0076 90.6309 58.9401C86.894 56.8725 82.2734 57.0104 78.5374 59.3009L84.5862 69.4814ZM84.4579 79.0612L95.5622 83.2782C96.1329 81.8684 96.4362 80.3717 96.4563 78.866L84.4579 79.0612ZM53.9677 86.0156L54.429 74.0156L54.429 74.0156L53.9677 86.0156ZM37.42 79.8263L37.5482 70.2464L13.5514 70.6367L13.4232 80.2166L37.42 79.8263ZM19.5938 81.0314C25.4663 84.2138 36.4395 87.174 53.8036 87.1081L54.4239 63.1072C39.3413 63.1645 32.7184 60.5088 31.5058 59.8517L19.5938 81.0314ZM53.8036 87.1081C65.5575 87.0634 74.2738 85.5173 80.3303 83.8051C83.3535 82.9505 85.6942 82.06 87.4008 81.308C88.2533 80.9324 88.9452 80.5924 89.4827 80.3103C89.7514 80.1692 89.9813 80.0428 90.1731 79.9337C90.269 79.8792 90.3554 79.8291 90.4323 79.7836C90.4708 79.7609 90.5069 79.7393 90.5406 79.719C90.5575 79.7089 90.5738 79.699 90.5895 79.6895C90.5974 79.6847 90.6051 79.68 90.6126 79.6754C90.6164 79.6731 90.622 79.6697 90.6239 79.6685C90.6294 79.6651 90.6349 79.6618 84.5862 69.4814C78.5374 59.3009 78.5428 59.2976 78.5482 59.2943C78.55 59.2932 78.5553 59.29 78.5588 59.2878C78.5658 59.2835 78.5727 59.2794 78.5795 59.2753C78.593 59.2671 78.6059 59.2592 78.6184 59.2517C78.6433 59.2367 78.6661 59.2232 78.6868 59.2109C78.7282 59.1865 78.7612 59.1675 78.7856 59.1536C78.8345 59.1258 78.8491 59.1185 78.8286 59.1293C78.7878 59.1507 78.6058 59.2445 78.2756 59.39C77.6169 59.6802 76.3573 60.1811 74.4409 60.7228C70.6183 61.8035 64.0984 63.0705 54.4239 63.1072L53.8036 87.1081ZM72.5877 69.6765L72.4595 79.2563L96.4563 78.866L96.5846 69.2862L72.5877 69.6765ZM73.3536 74.8442C73.9682 73.3258 74.7668 72.3765 75.1765 71.9437C75.623 71.472 75.9457 71.2573 75.9829 71.2328C76.0413 71.1942 75.4769 71.5653 73.8983 72.0522C70.7417 73.0257 64.6965 74.106 54.429 74.0156L53.5065 98.0157C65.3004 98.1195 74.0148 96.9221 80.3451 94.9697C83.51 93.9936 86.3709 92.7396 88.7902 91.1418C90.9142 89.739 93.9582 87.2408 95.5622 83.2782L73.3536 74.8442ZM54.429 74.0156C43.9555 73.9233 38.0709 72.9484 35.141 72.1147C33.6544 71.6916 33.3709 71.4277 33.7153 71.6543C33.8976 71.7742 34.4753 72.1754 35.1349 72.9643C35.7542 73.705 36.8495 75.2762 37.2559 77.6873L13.5872 82.3555C14.4948 87.7403 18.37 90.6758 20.1163 91.8246C22.3964 93.3245 25.0927 94.4029 27.9445 95.2145C33.6916 96.8499 41.9185 97.9136 53.5065 98.0157L54.429 74.0156Z" fill="url(#paint4_linear_1948_3025)" fill-opacity="0.27" mask="url(#path-3-inside-1_1948_3025)"/>
</g>
<path d="M66.1985 55.2455C67.6975 55.911 69.3792 56.2164 70.3027 56.3469C72.7891 56.6985 74.4332 55.7622 76.0974 54.5353C76.0974 54.5353 77.1144 53.7807 77.4298 53.3947C77.7453 53.0087 66.9532 52.6469 63.2041 52.3271C63.2802 52.4719 64.9265 54.6808 66.1985 55.2455Z" fill="url(#paint5_linear_1948_3025)" fill-opacity="0.5"/>
<path d="M47.9482 53.6614C46.8209 55.077 45.8772 55.626 44.9754 56.1385C42.5474 57.5182 40.1205 57.6008 37.8747 55.9257C37.8747 55.9257 24.8821 55.2283 24.2533 54.8447C23.8779 54.6158 42.6909 52.5931 49.0586 51.9998C49.0205 52.1909 48.7749 52.6233 47.9482 53.6614Z" fill="url(#paint6_linear_1948_3025)" fill-opacity="0.5"/>
<g filter="url(#filter1_d_1948_3025)">
<path d="M25.6814 68.8875C27.6231 71.16 35.777 74.0518 55.0839 74.1458C62.9734 73.9863 84.5773 71.5092 84.5773 67.9295C84.5773 64.3499 85.7527 32.3868 85.7527 24.8499C85.7527 23.3499 79.2527 26.3499 79.2527 31.8499C75.7527 25.8499 73.0401 37.3499 76.2527 37.3499C77.8197 37.3499 77.7527 39.3499 79.7527 40.8499C82.0537 41.2128 82.0946 44.5343 79.2527 47.8499C76.2527 51.3499 72.6356 55.7866 68.752 55.8497C65.1006 55.9091 61.4882 50.2301 60.2524 46.3499C60.2524 45.6997 60.4619 45.0623 60.7964 44.4947C61.7071 42.9493 63.1698 39.8499 60.2524 39.8499C56.3661 39.8499 56.3328 36.3499 55.2524 36.3499C54.0316 36.3499 54.2524 39.7268 50.674 39.7268C48.1229 39.7268 48.7524 43.8499 50.7524 45.8499L49.2524 51.3499C47.7524 54.3499 41.8932 55.7422 39.5821 55.696C35.0828 55.6062 32.252 55.3497 27.252 54.8497L24.09 54.6958C25.0667 61.018 23.7397 66.6149 25.6814 68.8875Z" fill="url(#paint7_linear_1948_3025)" shape-rendering="crispEdges"/>
<path d="M57.7475 42.7577C57.7379 42.7621 57.7282 42.7665 57.7186 42.7709L57.6497 42.702M57.7475 42.7577L57.6497 42.702M57.7475 42.7577L57.6497 42.702M57.7475 42.7577C58.2459 42.5297 58.6894 42.2524 59.068 41.9556L55.9885 41.7557M57.6497 42.702L55.9885 41.7557M57.6497 42.702L55.9885 41.7557M57.6497 42.702L55.7746 40.8269C55.8767 40.929 55.9217 40.997 55.9361 41.0221M55.9885 41.7557C56.0025 41.5412 55.993 41.3986 55.9897 41.3502C55.9765 41.1597 55.9481 41.0569 55.9361 41.0221M55.9885 41.7557C55.9652 42.114 55.8762 42.6728 55.5832 43.3277C55.4992 43.3348 55.4143 43.3402 55.3287 43.344C55.2064 43.022 55.1251 42.7145 55.0721 42.4326C55.0145 42.1259 54.9904 41.8496 54.9836 41.618C54.9786 41.4483 54.9829 41.3027 54.9901 41.1869M55.9885 41.7557L50.7524 45.8499L50.5133 46.7269C51.0487 46.7214 51.7634 46.6206 52.5427 46.2887C52.6803 46.2302 52.8198 46.1644 52.9608 46.0907C53.0677 46.0348 53.1718 45.9761 53.2731 45.9151C53.2978 45.5255 53.3444 45.1459 53.4096 44.7775C53.0923 44.5449 52.8027 44.3048 52.5385 44.0636C51.8635 43.4473 51.3546 42.8233 50.976 42.2968C50.8419 42.1103 50.7205 41.9306 50.6136 41.7662C50.4636 41.5358 50.342 41.3353 50.2537 41.1881C50.1744 41.0559 50.1606 41.0322 50.1492 41.0129C50.1392 40.9958 50.1311 40.982 50.0812 40.899C50.0573 40.8593 50.0474 40.8435 50.0474 40.8434C50.0474 40.8434 50.0521 40.8508 50.0601 40.863C50.079 40.8917 50.1557 41.0075 50.2823 41.1645C50.3566 41.2566 50.4688 41.3889 50.6202 41.543C50.7218 41.6464 50.841 41.7596 50.9784 41.8771C51.4908 42.3153 52.325 42.8633 53.4503 43.1516C53.5655 43.1811 53.6837 43.2079 53.805 43.2316C53.885 42.9936 53.972 42.762 54.0646 42.5372C54.2814 42.011 54.5294 41.5219 54.793 41.0746L54.9901 41.1869M55.9885 41.7557L55.2606 41.341L55.9885 41.7557ZM55.9361 41.0221C55.9442 41.0363 55.9425 41.0366 55.9357 41.0215C55.9279 41.0043 55.9297 41.0035 55.9361 41.0221ZM54.9901 41.1869C54.9958 41.0959 55.0032 41.0234 55.0093 40.9719C55.0416 40.6999 55.092 40.5201 55.1149 40.45M54.9901 41.1869L54.793 41.0746C54.9253 40.8501 55.0312 40.6453 55.0939 40.5005C55.1029 40.4797 55.1098 40.4629 55.1149 40.45M55.1149 40.45C55.1238 40.4276 55.1273 40.4168 55.1269 40.417C55.1264 40.4171 55.122 40.4283 55.1149 40.45ZM68.6583 62.8491C72.5147 62.7864 75.6429 60.9326 77.8112 59.2185C77.7535 61.0865 77.7028 62.7716 77.6636 64.1779C76.1379 64.5991 74.141 65.0243 71.815 65.42C65.7799 66.4468 58.819 67.0652 55.2349 67.1452C45.9318 67.0954 39.609 66.3718 35.5475 65.4904C33.666 65.0821 32.3814 64.6636 31.5624 64.3219C31.5439 63.9836 31.5302 63.5553 31.5229 63.0093C31.52 62.7898 31.5184 62.5533 31.5173 62.3015C34.012 62.5083 36.2971 62.6363 39.2352 62.6949C41.4554 62.7393 44.3902 62.1782 46.9746 61.2233C49.2266 60.3911 53.4248 58.4705 55.4947 54.3307L55.8145 53.6911L55.8153 53.6881C56.48 54.8542 57.2395 55.9946 58.075 57.0417C59.1106 58.3395 60.4297 59.7049 62.04 60.7853C63.6343 61.855 65.8951 62.894 68.6583 62.8491ZM31.673 65.3197C31.6726 65.3203 31.669 65.308 31.6632 65.2812C31.6705 65.3058 31.6734 65.3192 31.673 65.3197Z" stroke="url(#paint8_linear_1948_3025)" stroke-opacity="0.27" stroke-width="14" shape-rendering="crispEdges"/>
</g>
<g filter="url(#filter2_d_1948_3025)">
<path fill-rule="evenodd" clip-rule="evenodd" d="M84.909 55.9699C83.9358 56.688 83.1555 57.4107 82.2909 59.392C82.7398 60.9304 83.6303 61.6618 84.5774 62.4397C84.6203 62.4749 84.6633 62.5102 84.7064 62.5457C84.7619 60.6643 84.8318 58.4196 84.909 55.9699Z" fill="black"/>
</g>
<path fill-rule="evenodd" clip-rule="evenodd" d="M85.5781 33.9122C84.8409 34.1377 84.2857 34.95 84.2751 35.9086C84.2649 36.8383 84.7702 37.6138 85.4689 37.8436C85.5081 36.4808 85.5449 35.1623 85.5781 33.9122Z" fill="black"/>
<circle cx="249.464" cy="105.92" r="40.3505" fill="url(#paint9_radial_1948_3025)"/>
<g filter="url(#filter3_d_1948_3025)">
<mask id="path-12-inside-2_1948_3025" fill="white">
<path d="M281.826 71.059L281.956 80.7228C281.63 82.6567 275.414 86.5735 253.159 86.7695C230.904 86.9655 223.381 82.1743 222.402 79.7541L222.272 70.0903C222.272 70.0903 231.396 75.6838 253.012 75.7659C269.377 75.8281 278.253 72.9955 281.826 71.059Z"/>
</mask>
<path d="M281.826 71.059L281.956 80.7228C281.63 82.6567 275.414 86.5735 253.159 86.7695C230.904 86.9655 223.381 82.1743 222.402 79.7541L222.272 70.0903C222.272 70.0903 231.396 75.6838 253.012 75.7659C269.377 75.8281 278.253 72.9955 281.826 71.059Z" fill="url(#paint10_linear_1948_3025)" shape-rendering="crispEdges"/>
<path d="M281.956 80.7228L293.954 80.9179C293.964 81.6363 293.909 82.3521 293.79 83.0569L281.956 80.7228ZM281.826 71.059L275.87 60.4691C279.559 58.47 284.088 58.6034 287.778 60.8198C291.468 63.0362 293.768 67.005 293.825 71.2541L281.826 71.059ZM253.012 75.7659L253.322 87.7664L253.012 75.7659ZM222.272 70.0903L210.274 69.8952C210.216 65.5696 212.491 61.6166 216.228 59.549C219.965 57.4815 224.585 57.6193 228.321 59.9099L222.272 70.0903ZM222.402 79.7541L211.298 83.9712C210.727 82.5614 210.424 81.0646 210.403 79.559L222.402 79.7541ZM253.159 86.7695L252.698 74.7694L252.698 74.7694L253.159 86.7695ZM269.957 80.5276L269.828 70.8638L293.825 71.2541L293.954 80.9179L269.957 80.5276ZM287.782 81.6488C281.879 84.848 270.828 87.8329 253.322 87.7664L252.702 63.7655C267.927 63.8233 274.627 61.143 275.87 60.4691L287.782 81.6488ZM253.322 87.7664C241.474 87.7213 232.691 86.1629 226.591 84.4385C223.547 83.5777 221.19 82.6812 219.473 81.9246C218.615 81.5467 217.92 81.2048 217.38 80.9213C217.11 80.7796 216.879 80.6527 216.686 80.5433C216.59 80.4886 216.504 80.4383 216.427 80.3927C216.388 80.37 216.352 80.3484 216.318 80.328C216.301 80.3179 216.285 80.308 216.269 80.2985C216.261 80.2937 216.254 80.289 216.246 80.2844C216.242 80.2821 216.237 80.2787 216.235 80.2775C216.229 80.2741 216.224 80.2708 222.272 70.0903C228.321 59.9099 228.316 59.9066 228.31 59.9033C228.309 59.9022 228.303 59.899 228.3 59.8968C228.293 59.8925 228.286 59.8884 228.279 59.8843C228.266 59.8761 228.253 59.8682 228.24 59.8607C228.215 59.8458 228.193 59.8322 228.172 59.82C228.131 59.7957 228.098 59.7768 228.074 59.7631C228.026 59.7357 228.012 59.729 228.034 59.7404C228.077 59.7631 228.263 59.8588 228.598 60.0066C229.267 60.3014 230.543 60.8083 232.481 61.3562C236.347 62.4491 242.933 63.7284 252.702 63.7655L253.322 87.7664ZM234.271 70.2855L234.4 79.9493L210.403 79.559L210.274 69.8952L234.271 70.2855ZM233.506 75.5371C232.893 74.0214 232.096 73.075 231.689 72.6453C231.246 72.1768 230.927 71.9655 230.895 71.9443C230.847 71.9126 231.426 72.2908 233.026 72.7841C236.224 73.7705 242.334 74.8607 252.698 74.7694L253.62 98.7695C241.73 98.8743 232.951 97.6669 226.579 95.7017C223.393 94.7191 220.517 93.458 218.088 91.8534C215.953 90.4437 212.904 87.939 211.298 83.9712L233.506 75.5371ZM252.698 74.7694C263.268 74.6763 269.214 73.6925 272.182 72.8479C273.688 72.4195 273.985 72.1497 273.649 72.3707C273.471 72.4878 272.896 72.8863 272.239 73.6726C271.621 74.4108 270.527 75.9796 270.121 78.3886L293.79 83.0569C292.882 88.4459 289.002 91.3867 287.248 92.541C284.959 94.0465 282.25 95.1308 279.379 95.9477C273.594 97.594 265.305 98.6666 253.62 98.7695L252.698 74.7694Z" fill="url(#paint11_linear_1948_3025)" fill-opacity="0.27" mask="url(#path-12-inside-2_1948_3025)"/>
</g>
<path d="M240.822 55.7296C239.31 56.4009 237.614 56.709 236.682 56.8407C234.174 57.1953 232.515 56.2508 230.837 55.0132C230.837 55.0132 229.811 54.252 229.492 53.8626C229.174 53.4732 240.061 53.1082 243.843 52.7857C243.766 52.9317 242.105 55.16 240.822 55.7296Z" fill="url(#paint12_linear_1948_3025)" fill-opacity="0.5"/>
<path d="M259.231 54.1317C260.369 55.5597 261.321 56.1135 262.23 56.6304C264.68 58.0222 267.128 58.1056 269.393 56.4158C269.393 56.4158 282.5 55.7123 283.134 55.3254C283.513 55.0944 264.535 53.054 258.111 52.4555C258.15 52.6483 258.398 53.0845 259.231 54.1317Z" fill="url(#paint13_linear_1948_3025)" fill-opacity="0.5"/>
<g filter="url(#filter4_d_1948_3025)">
<path d="M281.693 69.4911C279.734 71.7836 271.509 74.7007 252.033 74.7956C244.074 74.6347 222.281 72.1358 222.281 68.5248C222.281 64.9138 221.095 32.6706 221.095 25.0676C221.095 23.5545 227.652 26.5807 227.652 32.1289C231.183 26.0764 233.919 37.6771 230.678 37.6771C229.098 37.6771 229.165 39.6947 227.148 41.2078C224.827 41.5739 224.785 44.9246 227.652 48.2692C230.678 51.7999 234.327 56.2754 238.245 56.3391C241.928 56.399 245.572 50.6703 246.819 46.7561C246.819 46.1001 246.608 45.4571 246.27 44.8846C245.351 43.3256 243.876 40.1991 246.819 40.1991C250.739 40.1991 250.773 36.6684 251.863 36.6684C253.094 36.6684 252.871 40.0749 256.481 40.0749C259.055 40.0749 258.42 44.2342 256.402 46.2517L257.915 51.7999C259.428 54.8262 265.339 56.2306 267.67 56.1841C272.209 56.0935 275.065 55.8348 280.109 55.3304L283.298 55.1751C282.313 61.5527 283.652 67.1987 281.693 69.4911Z" fill="url(#paint14_linear_1948_3025)" shape-rendering="crispEdges"/>
<path d="M238.339 63.3385C234.406 63.2746 231.226 61.3553 229.041 59.6083C229.101 61.565 229.154 63.3269 229.195 64.7868C230.743 65.2167 232.776 65.6505 235.146 66.0537C241.237 67.09 248.263 67.7142 251.882 67.7949C261.269 67.7447 267.652 67.0146 271.755 66.1242C273.682 65.7061 274.991 65.277 275.819 64.928C275.839 64.5795 275.854 64.1352 275.861 63.5641C275.865 63.3224 275.866 63.0605 275.867 62.7806C273.325 62.9925 271.006 63.1233 268.017 63.183C265.787 63.2275 262.834 62.6635 260.233 61.7023C257.964 60.8639 253.749 58.9336 251.673 54.7807L251.353 54.1411L251.314 53.9983C250.628 55.2167 249.839 56.4101 248.967 57.5025C247.925 58.8086 246.598 60.1811 244.98 61.2667C243.378 62.3415 241.11 63.3836 238.339 63.3385ZM275.708 65.9085C275.709 65.9091 275.712 65.8969 275.718 65.8702C275.711 65.8946 275.708 65.9079 275.708 65.9085ZM251.932 40.7911C251.932 40.7909 251.935 40.8016 251.944 40.8236C251.937 40.8022 251.932 40.7912 251.932 40.7911ZM246.946 44.4993L248.59 43.5632L246.946 44.4993Z" stroke="url(#paint15_linear_1948_3025)" stroke-opacity="0.27" stroke-width="14" shape-rendering="crispEdges"/>
</g>
<g filter="url(#filter5_d_1948_3025)">
<path fill-rule="evenodd" clip-rule="evenodd" d="M221.943 56.4592C222.925 57.184 223.713 57.9128 224.586 59.9125C224.133 61.4644 223.234 62.2022 222.279 62.9869C222.235 63.0229 222.191 63.0589 222.147 63.0952C222.091 61.1967 222.021 58.9314 221.943 56.4592Z" fill="black"/>
</g>
<path fill-rule="evenodd" clip-rule="evenodd" d="M221.272 34.2095C222.015 34.437 222.575 35.2565 222.586 36.2233C222.596 37.1611 222.087 37.9432 221.382 38.1752C221.342 36.8004 221.305 35.4705 221.272 34.2095Z" fill="black"/>
<path d="M150 133C178.719 133 202 109.719 202 81C202 52.2812 178.719 29 150 29C121.281 29 98 52.2812 98 81C98 109.719 121.281 133 150 133Z" fill="#E0E0D1"/>
<path d="M117.5 61.5C113.925 61.5 111 64.425 111 68V87.5C111 88.9625 111.488 90.2625 112.3 91.4L127.25 61.5H117.5Z" fill="#4F5D73"/>
<path d="M146.75 61.5L130.5 94H153.25L169.5 61.5H146.75Z" fill="#4F5D73"/>
<path d="M127.25 61.5L112.3 91.4C113.437 93.025 115.387 94 117.5 94H130.5L146.75 61.5H127.25Z" fill="#F5CF87"/>
<path d="M172.75 94H182.5C186.075 94 189 91.075 189 87.5V68C189 66.5375 188.513 65.2375 187.7 64.1L172.75 94Z" fill="#4F5D73"/>
<path d="M182.5 61.5H169.5L153.25 94H172.75L187.7 64.1C186.563 62.475 184.612 61.5 182.5 61.5Z" fill="#F5CF87"/>
<path d="M133.5 102.125C133.5 103.913 132.038 105.375 130.25 105.375C128.462 105.375 127 103.913 127 102.125V89.125C127 87.3375 128.462 85.875 130.25 85.875C132.038 85.875 133.5 87.3375 133.5 89.125V102.125Z" fill="#E0995E"/>
<path d="M179 102.125C179 103.913 177.538 105.375 175.75 105.375C173.962 105.375 172.5 103.913 172.5 102.125V89.125C172.5 87.3375 173.962 85.875 175.75 85.875C177.538 85.875 179 87.3375 179 89.125V102.125Z" fill="#E0995E"/>
<path opacity="0.2" d="M190.7 65.725C189.563 64.1 187.612 63.125 185.5 63.125H172.5H149.75H130.25H120.5C116.925 63.125 114 66.05 114 69.625V89.125C114 90.5875 114.488 91.8875 115.3 93.025C116.438 94.65 118.388 95.625 120.5 95.625H133.5H156.25H175.75H185.5C189.075 95.625 192 92.7 192 89.125V69.625C192 68.1625 191.513 66.8625 190.7 65.725Z" fill="#231F20"/>
<g style="mix-blend-mode:plus-darker">
<path d="M184.621 81H176.591L125.734 129.18L136.441 139.887L184.621 89.03V81Z" fill="#C4CCCC"/>
<path d="M184.621 81L131.088 134.533L136.441 139.887L184.621 89.03V81Z" fill="#A3AFAF"/>
<path d="M120.383 129.182L136.442 145.241L139.119 142.565L123.059 126.505L120.383 129.182Z" fill="#C4CCCC"/>
<path d="M107 142.565L123.06 158.624L125.736 155.948L109.676 139.889L107 142.565Z" fill="#C4CCCC"/>
<path d="M124.398 133.194L113.691 143.901L121.722 151.932L132.429 141.225L124.398 133.194Z" fill="#A3AFAF"/>
<path d="M115.028 81V89.03L163.208 139.887L173.915 129.18L123.058 81H115.028Z" fill="#E1E5E5"/>
<path d="M163.21 145.239L179.27 129.179L176.593 126.503L160.534 142.562L163.21 145.239Z" fill="#E1E5E5"/>
<path d="M176.593 158.622L192.652 142.563L189.976 139.886L173.917 155.946L176.593 158.622Z" fill="#E1E5E5"/>
<path d="M115.028 81L168.562 134.533L173.915 129.18L123.058 81H115.028Z" fill="#FDFFFF"/>
<path d="M167.223 141.224L177.93 151.931L185.96 143.9L175.253 133.194L167.223 141.224Z" fill="#C4CCCC"/>
<path d="M132.426 141.225L124.396 133.195V149.255L132.426 141.225Z" fill="#8D9999"/>
<path d="M175.253 133.195L167.223 141.225L175.253 149.255V133.195Z" fill="#A3AFAF"/>
<path d="M140.139 135.984L149.826 125.759L144.978 120.644L140.139 125.484V135.984Z" fill="#8D9999"/>
<path d="M144.978 120.644L140.139 115.534V125.484L144.978 120.644Z" fill="#A3AFAF"/>
<path d="M144.978 120.644L140.139 115.534V125.484L144.978 120.644Z" fill="#A3AFAF"/>
</g>
<defs>
<filter id="filter0_d_1948_3025" x="3.42188" y="64.4814" width="83.1641" height="40.54" filterUnits="userSpaceOnUse" color-interpolation-filters="sRGB">
<feFlood flood-opacity="0" result="BackgroundImageFix"/>
<feColorMatrix in="SourceAlpha" type="matrix" values="0 0 0 0 0 0 0 0 0 0 0 0 0 0 0 0 0 0 127 0" result="hardAlpha"/>
<feOffset dx="-10" dy="7"/>
<feGaussianBlur stdDeviation="6"/>
<feComposite in2="hardAlpha" operator="out"/>
<feColorMatrix type="matrix" values="0 0 0 0 0 0 0 0 0 0 0 0 0 0 0 0 0 0 0.25 0"/>
<feBlend mode="normal" in2="BackgroundImageFix" result="effect1_dropShadow_1948_3025"/>
<feBlend mode="normal" in="SourceGraphic" in2="effect1_dropShadow_1948_3025" result="shape"/>
</filter>
<filter id="filter1_d_1948_3025" x="4.08984" y="13.4651" width="99.6631" height="87.6808" filterUnits="userSpaceOnUse" color-interpolation-filters="sRGB">
<feFlood flood-opacity="0" result="BackgroundImageFix"/>
<feColorMatrix in="SourceAlpha" type="matrix" values="0 0 0 0 0 0 0 0 0 0 0 0 0 0 0 0 0 0 127 0" result="hardAlpha"/>
<feOffset dx="-1" dy="8"/>
<feGaussianBlur stdDeviation="9.5"/>
<feComposite in2="hardAlpha" operator="out"/>
<feColorMatrix type="matrix" values="0 0 0 0 0 0 0 0 0 0 0 0 0 0 0 0 0 0 0.25 0"/>
<feBlend mode="normal" in2="BackgroundImageFix" result="effect1_dropShadow_1948_3025"/>
<feBlend mode="normal" in="SourceGraphic" in2="effect1_dropShadow_1948_3025" result="shape"/>
</filter>
<filter id="filter2_d_1948_3025" x="42.291" y="21.9699" width="74.6182" height="78.5758" filterUnits="userSpaceOnUse" color-interpolation-filters="sRGB">
<feFlood flood-opacity="0" result="BackgroundImageFix"/>
<feColorMatrix in="SourceAlpha" type="matrix" values="0 0 0 0 0 0 0 0 0 0 0 0 0 0 0 0 0 0 127 0" result="hardAlpha"/>
<feOffset dx="-4" dy="2"/>
<feGaussianBlur stdDeviation="18"/>
<feComposite in2="hardAlpha" operator="out"/>
<feColorMatrix type="matrix" values="0 0 0 0 0 0 0 0 0 0 0 0 0 0 0 0 0 0 0.25 0"/>
<feBlend mode="normal" in2="BackgroundImageFix" result="effect1_dropShadow_1948_3025"/>
<feBlend mode="normal" in="SourceGraphic" in2="effect1_dropShadow_1948_3025" result="shape"/>
</filter>
<filter id="filter3_d_1948_3025" x="200.272" y="65.0903" width="83.6826" height="40.685" filterUnits="userSpaceOnUse" color-interpolation-filters="sRGB">
<feFlood flood-opacity="0" result="BackgroundImageFix"/>
<feColorMatrix in="SourceAlpha" type="matrix" values="0 0 0 0 0 0 0 0 0 0 0 0 0 0 0 0 0 0 127 0" result="hardAlpha"/>
<feOffset dx="-10" dy="7"/>
<feGaussianBlur stdDeviation="6"/>
<feComposite in2="hardAlpha" operator="out"/>
<feColorMatrix type="matrix" values="0 0 0 0 0 0 0 0 0 0 0 0 0 0 0 0 0 0 0.25 0"/>
<feBlend mode="normal" in2="BackgroundImageFix" result="effect1_dropShadow_1948_3025"/>
<feBlend mode="normal" in="SourceGraphic" in2="effect1_dropShadow_1948_3025" result="shape"/>
</filter>
<filter id="filter4_d_1948_3025" x="201.095" y="13.6794" width="100.203" height="88.1162" filterUnits="userSpaceOnUse" color-interpolation-filters="sRGB">
<feFlood flood-opacity="0" result="BackgroundImageFix"/>
<feColorMatrix in="SourceAlpha" type="matrix" values="0 0 0 0 0 0 0 0 0 0 0 0 0 0 0 0 0 0 127 0" result="hardAlpha"/>
<feOffset dx="-1" dy="8"/>
<feGaussianBlur stdDeviation="9.5"/>
<feComposite in2="hardAlpha" operator="out"/>
<feColorMatrix type="matrix" values="0 0 0 0 0 0 0 0 0 0 0 0 0 0 0 0 0 0 0.25 0"/>
<feBlend mode="normal" in2="BackgroundImageFix" result="effect1_dropShadow_1948_3025"/>
<feBlend mode="normal" in="SourceGraphic" in2="effect1_dropShadow_1948_3025" result="shape"/>
</filter>
<filter id="filter5_d_1948_3025" x="181.942" y="22.4592" width="74.6436" height="78.636" filterUnits="userSpaceOnUse" color-interpolation-filters="sRGB">
<feFlood flood-opacity="0" result="BackgroundImageFix"/>
<feColorMatrix in="SourceAlpha" type="matrix" values="0 0 0 0 0 0 0 0 0 0 0 0 0 0 0 0 0 0 127 0" result="hardAlpha"/>
<feOffset dx="-4" dy="2"/>
<feGaussianBlur stdDeviation="18"/>
<feComposite in2="hardAlpha" operator="out"/>
<feColorMatrix type="matrix" values="0 0 0 0 0 0 0 0 0 0 0 0 0 0 0 0 0 0 0.25 0"/>
<feBlend mode="normal" in2="BackgroundImageFix" result="effect1_dropShadow_1948_3025"/>
<feBlend mode="normal" in="SourceGraphic" in2="effect1_dropShadow_1948_3025" result="shape"/>
</filter>
<linearGradient id="paint0_linear_1948_3025" x1="150" y1="11" x2="150" y2="161" gradientUnits="userSpaceOnUse">
<stop stop-color="#8F447A"/>
<stop offset="0.515262" stop-color="#B43B5F"/>
<stop offset="1" stop-color="#C44536"/>
</linearGradient>
<linearGradient id="paint1_linear_1948_3025" x1="300" y1="89.5" x2="0" y2="89.5" gradientUnits="userSpaceOnUse">
<stop stop-color="#195FB1"/>
<stop offset="0.53125" stop-color="#593C69" stop-opacity="0.57"/>
<stop offset="1" stop-color="#A81111"/>
</linearGradient>
<radialGradient id="paint2_radial_1948_3025" cx="0" cy="0" r="1" gradientUnits="userSpaceOnUse" gradientTransform="translate(75.752 87.3497) rotate(114.179) scale(53.7122 40.0001)">
<stop stop-color="white"/>
<stop offset="1" stop-color="#185EB0"/>
</radialGradient>
<linearGradient id="paint3_linear_1948_3025" x1="32.4809" y1="80.8932" x2="88.6573" y2="72.2306" gradientUnits="userSpaceOnUse">
<stop offset="0.0315335" stop-color="#B08743"/>
<stop offset="0.390961" stop-color="#FFC82D" stop-opacity="0.95"/>
<stop offset="0.64796" stop-color="#FFE72D" stop-opacity="0.95"/>
<stop offset="0.904958" stop-color="#FFC82D"/>
</linearGradient>
<linearGradient id="paint4_linear_1948_3025" x1="87.5763" y1="72.1262" x2="73.33" y2="99.1749" gradientUnits="userSpaceOnUse">
<stop stop-color="#FF650B" stop-opacity="0.18"/>
<stop offset="1" stop-color="#FF650B" stop-opacity="0"/>
</linearGradient>
<linearGradient id="paint5_linear_1948_3025" x1="71.734" y1="57.7092" x2="71.6327" y2="49.731" gradientUnits="userSpaceOnUse">
<stop stop-color="#635E5E" stop-opacity="0.6"/>
<stop offset="0.410259" stop-color="#6E592D" stop-opacity="0.7"/>
<stop offset="0.657617" stop-color="#FFB928"/>
<stop offset="0.989583" stop-color="#F9DD2E"/>
</linearGradient>
<linearGradient id="paint6_linear_1948_3025" x1="42.4203" y1="57.4279" x2="42.1668" y2="51.0219" gradientUnits="userSpaceOnUse">
<stop stop-color="#635E5E" stop-opacity="0.6"/>
<stop offset="0.380177" stop-color="#6E592D" stop-opacity="0.8"/>
<stop offset="0.822917" stop-color="#FFB928"/>
<stop offset="0.989583" stop-color="#F9DD2E"/>
</linearGradient>
<linearGradient id="paint7_linear_1948_3025" x1="32.6398" y1="55.8942" x2="85.4472" y2="49.8215" gradientUnits="userSpaceOnUse">
<stop stop-color="#B08743"/>
<stop offset="0.310258" stop-color="#FFC82D" stop-opacity="0.95"/>
<stop offset="0.566289" stop-color="#FFE72D" stop-opacity="0.95"/>
<stop offset="0.886839" stop-color="#FFC82D"/>
</linearGradient>
<linearGradient id="paint8_linear_1948_3025" x1="87.5441" y1="44.1314" x2="43.6747" y2="66.6318" gradientUnits="userSpaceOnUse">
<stop stop-color="#FF650B" stop-opacity="0.68"/>
<stop offset="1" stop-color="#FF650B" stop-opacity="0"/>
</linearGradient>
<radialGradient id="paint9_radial_1948_3025" cx="0" cy="0" r="1" gradientUnits="userSpaceOnUse" gradientTransform="translate(270.143 94.3194) rotate(111.251) scale(38.9649 37.9954)">
<stop stop-color="white"/>
<stop offset="1" stop-color="#A81010"/>
</radialGradient>
<linearGradient id="paint10_linear_1948_3025" x1="274.834" y1="81.6022" x2="218.166" y2="72.8637" gradientUnits="userSpaceOnUse">
<stop offset="0.0315335" stop-color="#B08743"/>
<stop offset="0.390961" stop-color="#FFC82D" stop-opacity="0.95"/>
<stop offset="0.64796" stop-color="#FFE72D" stop-opacity="0.95"/>
<stop offset="0.904958" stop-color="#FFC82D"/>
</linearGradient>
<linearGradient id="paint11_linear_1948_3025" x1="219.256" y1="72.7584" x2="233.627" y2="100.044" gradientUnits="userSpaceOnUse">
<stop stop-color="#FF650B" stop-opacity="0.18"/>
<stop offset="1" stop-color="#FF650B" stop-opacity="0"/>
</linearGradient>
<linearGradient id="paint12_linear_1948_3025" x1="235.238" y1="58.2149" x2="235.34" y2="50.1668" gradientUnits="userSpaceOnUse">
<stop stop-color="#635E5E" stop-opacity="0.6"/>
<stop offset="0.410259" stop-color="#6E592D" stop-opacity="0.7"/>
<stop offset="0.657617" stop-color="#FFB928"/>
<stop offset="0.989583" stop-color="#F9DD2E"/>
</linearGradient>
<linearGradient id="paint13_linear_1948_3025" x1="264.808" y1="57.9312" x2="265.063" y2="51.469" gradientUnits="userSpaceOnUse">
<stop stop-color="#635E5E" stop-opacity="0.6"/>
<stop offset="0.380177" stop-color="#6E592D" stop-opacity="0.8"/>
<stop offset="0.822917" stop-color="#FFB928"/>
<stop offset="0.989583" stop-color="#F9DD2E"/>
</linearGradient>
<linearGradient id="paint14_linear_1948_3025" x1="274.673" y1="56.384" x2="221.403" y2="50.2581" gradientUnits="userSpaceOnUse">
<stop stop-color="#B08743"/>
<stop offset="0.310258" stop-color="#FFC82D" stop-opacity="0.95"/>
<stop offset="0.566289" stop-color="#FFE72D" stop-opacity="0.95"/>
<stop offset="0.886839" stop-color="#FFC82D"/>
</linearGradient>
<linearGradient id="paint15_linear_1948_3025" x1="219.288" y1="44.5181" x2="263.542" y2="67.2157" gradientUnits="userSpaceOnUse">
<stop stop-color="#FF650B" stop-opacity="0.68"/>
<stop offset="1" stop-color="#FF650B" stop-opacity="0"/>
</linearGradient>
</defs>
</svg>
