<svg width="50" height="50" viewBox="0 0 50 50" fill="none" xmlns="http://www.w3.org/2000/svg">
<path d="M22.5 20H27.5C31.0355 20 32.8033 20 33.9018 21.0982C35 22.1967 35 23.9645 35 27.5V42.5C35 38.9645 35 37.1968 36.0983 36.0983C37.1968 35 38.9645 35 42.5 35C46.0355 35 47.8032 35 48.9017 36.0983C50 37.1968 50 38.9645 50 42.5V50H35H15H0C0 46.4645 2.38419e-07 44.6968 1.09835 43.5983C2.1967 42.5 3.96448 42.5 7.5 42.5C11.0355 42.5 12.8033 42.5 13.9016 43.5983C15 44.6968 15 46.4645 15 50V27.5C15 23.9645 15 22.1967 16.0983 21.0982C17.1967 20 18.9645 20 22.5 20Z" fill="#FFE72D"/>
<path d="M22.8647 2.55628C23.8147 0.8521 24.2897 0 25 0C25.7102 0 26.1852 0.8521 27.1352 2.55628L27.381 2.99717C27.6507 3.48145 27.7857 3.7236 27.9962 3.88335C28.2067 4.04312 28.4687 4.10243 28.993 4.22103L29.4702 4.32903C31.315 4.74643 32.2375 4.95512 32.457 5.6608C32.6765 6.36647 32.0475 7.1018 30.79 8.57245L30.4645 8.95293C30.1072 9.37083 29.9285 9.57977 29.848 9.83827C29.7677 10.0968 29.7947 10.3756 29.8487 10.9332L29.898 11.4408C30.088 13.403 30.1832 14.384 29.6087 14.8202C29.034 15.2563 28.1705 14.8586 26.4432 14.0634L25.9965 13.8576C25.5055 13.6316 25.2602 13.5186 25 13.5186C24.7397 13.5186 24.4945 13.6316 24.0035 13.8576L23.5567 14.0634C21.8295 14.8586 20.966 15.2563 20.3912 14.8202C19.8168 14.384 19.9119 13.403 20.102 11.4408L20.1512 10.9332C20.2052 10.3756 20.2322 10.0968 20.152 9.83827C20.0715 9.57977 19.8928 9.37083 19.5354 8.95293L19.2101 8.57245C17.9524 7.1018 17.3236 6.36647 17.5431 5.6608C17.7625 4.95512 18.6849 4.74643 20.5297 4.32903L21.007 4.22103C21.5312 4.10243 21.7932 4.04312 22.0037 3.88335C22.2142 3.7236 22.3492 3.48145 22.619 2.99717L22.8647 2.55628Z" fill="#FFE72D"/>
</svg>
