<svg width="168" height="161" viewBox="0 0 168 161" fill="none" xmlns="http://www.w3.org/2000/svg">
<ellipse cx="106.707" cy="5.73022" rx="4.13764" ry="4.08059" transform="rotate(55.0309 106.707 5.73022)" fill="#FFDA2D" fill-opacity="0.6"/>
<ellipse cx="49.0002" cy="46.0898" rx="4.13764" ry="4.08059" transform="rotate(55.0309 49.0002 46.0898)" fill="#FFDA2D" fill-opacity="0.6"/>
<ellipse cx="117.726" cy="21.4835" rx="4.13764" ry="4.08059" transform="rotate(55.0309 117.726 21.4835)" fill="#FFDA2D" fill-opacity="0.6"/>
<ellipse cx="60.0187" cy="61.8436" rx="4.13764" ry="4.08059" transform="rotate(55.0309 60.0187 61.8436)" fill="#FFDA2D" fill-opacity="0.6"/>
<ellipse cx="128.743" cy="37.2373" rx="4.13764" ry="4.08059" transform="rotate(55.0309 128.743 37.2373)" fill="#FFDA2D" fill-opacity="0.6"/>
<ellipse cx="71.0373" cy="77.5972" rx="4.13764" ry="4.08059" transform="rotate(55.0309 71.0373 77.5972)" fill="#FFDA2D" fill-opacity="0.6"/>
<ellipse cx="139.762" cy="52.9908" rx="4.13764" ry="4.08059" transform="rotate(55.0309 139.762 52.9908)" fill="#FFDA2D" fill-opacity="0.6"/>
<ellipse cx="82.0549" cy="93.3516" rx="4.13764" ry="4.08059" transform="rotate(55.0309 82.0549 93.3516)" fill="#FFDA2D" fill-opacity="0.6"/>
<ellipse cx="150.779" cy="68.7449" rx="4.13764" ry="4.08059" transform="rotate(55.0309 150.779 68.7449)" fill="#FFDA2D" fill-opacity="0.6"/>
<ellipse cx="93.0734" cy="109.105" rx="4.13764" ry="4.08059" transform="rotate(55.0309 93.0734 109.105)" fill="#FFDA2D" fill-opacity="0.6"/>
<ellipse cx="161.798" cy="84.4979" rx="4.13764" ry="4.08059" transform="rotate(55.0309 161.798 84.4979)" fill="#FFDA2D" fill-opacity="0.6"/>
<ellipse cx="104.091" cy="124.859" rx="4.13764" ry="4.08059" transform="rotate(55.0309 104.091 124.859)" fill="#FFDA2D" fill-opacity="0.6"/>
<ellipse cx="147.371" cy="94.5885" rx="4.13764" ry="4.08059" transform="rotate(55.0309 147.371 94.5885)" fill="#FFDA2D" fill-opacity="0.6"/>
<ellipse cx="89.6613" cy="134.955" rx="4.13764" ry="4.08059" transform="rotate(55.0309 89.6613 134.955)" fill="#FFDA2D" fill-opacity="0.6"/>
<ellipse cx="136.354" cy="78.8345" rx="4.13764" ry="4.08059" transform="rotate(55.0309 136.354 78.8345)" fill="#FFDA2D" fill-opacity="0.6"/>
<ellipse cx="78.6428" cy="119.201" rx="4.13764" ry="4.08059" transform="rotate(55.0309 78.6428 119.201)" fill="#FFDA2D" fill-opacity="0.6"/>
<ellipse cx="125.335" cy="63.0809" rx="4.13764" ry="4.08059" transform="rotate(55.0309 125.335 63.0809)" fill="#FFDA2D" fill-opacity="0.6"/>
<ellipse cx="67.6252" cy="103.447" rx="4.13764" ry="4.08059" transform="rotate(55.0309 67.6252 103.447)" fill="#FFDA2D" fill-opacity="0.6"/>
<ellipse cx="114.317" cy="47.327" rx="4.13764" ry="4.08059" transform="rotate(55.0309 114.317 47.327)" fill="#FFDA2D" fill-opacity="0.6"/>
<ellipse cx="56.6066" cy="87.6936" rx="4.13764" ry="4.08059" transform="rotate(55.0309 56.6066 87.6936)" fill="#FFDA2D" fill-opacity="0.6"/>
<ellipse cx="103.299" cy="31.5732" rx="4.13764" ry="4.08059" transform="rotate(55.0309 103.299 31.5732)" fill="#FFDA2D" fill-opacity="0.6"/>
<ellipse cx="45.5891" cy="71.9396" rx="4.13764" ry="4.08059" transform="rotate(55.0309 45.5891 71.9396)" fill="#FFDA2D" fill-opacity="0.6"/>
<ellipse cx="92.2805" cy="15.8199" rx="4.13764" ry="4.08059" transform="rotate(55.0309 92.2805 15.8199)" fill="#FFDA2D" fill-opacity="0.6"/>
<ellipse cx="34.5705" cy="56.186" rx="4.13764" ry="4.08059" transform="rotate(55.0309 34.5705 56.186)" fill="#FFDA2D" fill-opacity="0.6"/>
<ellipse cx="77.8537" cy="25.9098" rx="4.13764" ry="4.08059" transform="rotate(55.0309 77.8537 25.9098)" fill="#FFDA2D" fill-opacity="0.6"/>
<ellipse cx="20.1437" cy="66.2757" rx="4.13764" ry="4.08059" transform="rotate(55.0309 20.1437 66.2757)" fill="#FFDA2D" fill-opacity="0.6"/>
<ellipse cx="88.8723" cy="41.6636" rx="4.13764" ry="4.08059" transform="rotate(55.0309 88.8723 41.6636)" fill="#FFDA2D" fill-opacity="0.6"/>
<ellipse cx="31.1613" cy="82.03" rx="4.13764" ry="4.08059" transform="rotate(55.0309 31.1613 82.03)" fill="#FFDA2D" fill-opacity="0.6"/>
<ellipse cx="99.8898" cy="57.4171" rx="4.13764" ry="4.08059" transform="rotate(55.0309 99.8898 57.4171)" fill="#FFDA2D" fill-opacity="0.6"/>
<ellipse cx="42.1799" cy="97.7839" rx="4.13764" ry="4.08059" transform="rotate(55.0309 42.1799 97.7839)" fill="#FFDA2D" fill-opacity="0.6"/>
<ellipse cx="110.908" cy="73.1709" rx="4.13764" ry="4.08059" transform="rotate(55.0309 110.908 73.1709)" fill="#FFDA2D" fill-opacity="0.6"/>
<ellipse cx="53.1984" cy="113.538" rx="4.13764" ry="4.08059" transform="rotate(55.0309 53.1984 113.538)" fill="#FFDA2D" fill-opacity="0.6"/>
<ellipse cx="121.927" cy="88.9247" rx="4.13764" ry="4.08059" transform="rotate(55.0309 121.927 88.9247)" fill="#FFDA2D" fill-opacity="0.6"/>
<ellipse cx="64.216" cy="129.291" rx="4.13764" ry="4.08059" transform="rotate(55.0309 64.216 129.291)" fill="#FFDA2D" fill-opacity="0.6"/>
<ellipse cx="63.427" cy="36.0001" rx="4.13764" ry="4.08059" transform="rotate(55.0309 63.427 36.0001)" fill="#FFDA2D" fill-opacity="0.6"/>
<ellipse cx="5.71699" cy="76.3663" rx="4.13764" ry="4.08059" transform="rotate(55.0309 5.71699 76.3663)" fill="#FFDA2D" fill-opacity="0.6"/>
<ellipse cx="74.4455" cy="51.7534" rx="4.13764" ry="4.08059" transform="rotate(55.0309 74.4455 51.7534)" fill="#FFDA2D" fill-opacity="0.6"/>
<ellipse cx="16.7355" cy="92.1201" rx="4.13764" ry="4.08059" transform="rotate(55.0309 16.7355 92.1201)" fill="#FFDA2D" fill-opacity="0.6"/>
<ellipse cx="85.4631" cy="67.5072" rx="4.13764" ry="4.08059" transform="rotate(55.0309 85.4631 67.5072)" fill="#FFDA2D" fill-opacity="0.6"/>
<ellipse cx="27.7531" cy="107.874" rx="4.13764" ry="4.08059" transform="rotate(55.0309 27.7531 107.874)" fill="#FFDA2D" fill-opacity="0.6"/>
<ellipse cx="96.4816" cy="83.261" rx="4.13764" ry="4.08059" transform="rotate(55.0309 96.4816 83.261)" fill="#FFDA2D" fill-opacity="0.6"/>
<ellipse cx="38.7717" cy="123.627" rx="4.13764" ry="4.08059" transform="rotate(55.0309 38.7717 123.627)" fill="#FFDA2D" fill-opacity="0.6"/>
<ellipse cx="107.5" cy="99.0155" rx="4.13764" ry="4.08059" transform="rotate(55.0309 107.5 99.0155)" fill="#FFDA2D" fill-opacity="0.6"/>
<ellipse cx="49.7902" cy="139.381" rx="4.13764" ry="4.08059" transform="rotate(55.0309 49.7902 139.381)" fill="#FFDA2D" fill-opacity="0.6"/>
<ellipse cx="132.945" cy="104.679" rx="4.13764" ry="4.08059" transform="rotate(55.0309 132.945 104.679)" fill="#FFDA2D" fill-opacity="0.6"/>
<ellipse cx="75.2346" cy="145.045" rx="4.13764" ry="4.08059" transform="rotate(55.0309 75.2346 145.045)" fill="#FFDA2D" fill-opacity="0.6"/>
<ellipse cx="118.518" cy="114.769" rx="4.13764" ry="4.08059" transform="rotate(55.0309 118.518 114.769)" fill="#FFDA2D" fill-opacity="0.6"/>
<ellipse cx="60.8078" cy="155.135" rx="4.13764" ry="4.08059" transform="rotate(55.0309 60.8078 155.135)" fill="#FFDA2D" fill-opacity="0.6"/>
</svg>
