<svg width="100" height="108" viewBox="0 0 100 108" fill="none" xmlns="http://www.w3.org/2000/svg">
<path d="M69.5021 21.0495L49.7012 33.0778L29.9004 21.0495V0H69.5021V21.0495Z" fill="#212529"/>
<path d="M61.8864 0V25.6804L49.7013 33.0778L37.5161 25.6804V0L49.7013 5L61.8864 0Z" fill="#DD051D"/>
<path d="M49.7013 33.0773L59.5865 27.0632C53.1465 25.0323 46.2256 25.0323 39.7856 27.0632L49.7013 33.0773Z" fill="#A60416"/>
<g filter="url(#filter0_d_1279_3576)">
<path d="M49.7013 87.2053C66.1048 87.2053 79.4026 74.0787 79.4026 57.8863C79.4026 41.6939 66.1048 28.5674 49.7013 28.5674C33.2977 28.5674 20 41.6939 20 57.8863C20 74.0787 33.2977 87.2053 49.7013 87.2053Z" fill="#858585"/>
</g>
<path d="M49.7013 79.6875C61.8988 79.6875 71.7869 69.9267 71.7869 57.8862C71.7869 45.8457 61.8988 36.085 49.7013 36.085C37.5038 36.085 27.6157 45.8457 27.6157 57.8862C27.6157 69.9267 37.5038 79.6875 49.7013 79.6875Z" fill="#A39C9C"/>
<path d="M52.5645 45.9629C51.0468 45.5537 49.4521 45.5081 47.9129 45.8297C46.3737 46.1514 44.9346 46.8311 43.715 47.8122C42.6491 48.7248 41.7962 49.8547 41.2151 51.1239C40.6339 52.3932 40.3384 53.7717 40.3489 55.1645H46.6547C46.6547 51.7966 51.7877 51.5861 52.7473 53.661C54.2704 56.8184 40.5621 64.1857 40.5621 64.1857V70.1999H58.8399V64.1857H52.7473C54.8755 63.2095 56.6224 61.5738 57.7222 59.5274C58.8219 57.4809 59.2144 55.1359 58.8399 52.8491C58.4982 51.2585 57.7384 49.7848 56.6369 48.576C55.5353 47.3672 54.1308 46.466 52.5645 45.9629Z" fill="#848484"/>
<defs>
<filter id="filter0_d_1279_3576" x="0" y="8.56738" width="99.4023" height="98.6377" filterUnits="userSpaceOnUse" color-interpolation-filters="sRGB">
<feFlood flood-opacity="0" result="BackgroundImageFix"/>
<feColorMatrix in="SourceAlpha" type="matrix" values="0 0 0 0 0 0 0 0 0 0 0 0 0 0 0 0 0 0 127 0" result="hardAlpha"/>
<feOffset/>
<feGaussianBlur stdDeviation="10"/>
<feComposite in2="hardAlpha" operator="out"/>
<feColorMatrix type="matrix" values="0 0 0 0 0.6125 0 0 0 0 0.6125 0 0 0 0 0.6125 0 0 0 1 0"/>
<feBlend mode="normal" in2="BackgroundImageFix" result="effect1_dropShadow_1279_3576"/>
<feBlend mode="normal" in="SourceGraphic" in2="effect1_dropShadow_1279_3576" result="shape"/>
</filter>
</defs>
</svg>
