<svg width="24" height="32" viewBox="0 0 24 32" fill="none" xmlns="http://www.w3.org/2000/svg">
<path d="M9.85386 10.7232L9.16996 8.5471L11 7.18796L8.72329 7.16762L7.99977 5L7.27671 7.16573L5 7.18607L6.83004 8.54521L6.14614 10.7213L8.00024 9.39674L9.85386 10.7232Z" fill="#C0C0C0"/>
<path d="M17.8539 10.7232L17.17 8.5471L19 7.18796L16.7233 7.16762L15.9998 5L15.2767 7.16573L13 7.18607L14.83 8.54521L14.1461 10.7213L16.0002 9.39674L17.8539 10.7232Z" fill="#C0C0C0"/>
<path d="M11.927 31.5L0 25.3465V0H12H24V25.3465L11.927 31.5ZM1.16859 24.633L11.927 30.1814L22.8314 24.6315V1.17209H1.16859V24.633ZM11.8634 19.8157L19.0408 16.161V12.5055L11.8729 16.1551L4.95922 12.5883V16.2511L11.8634 19.8157ZM11.8729 22.2082L4.95922 18.6414V22.3042L11.8642 25.8659L19.0415 22.2112V18.5557L11.8729 22.2082Z" fill="#C0C0C0"/>
</svg>
