<svg width="229" height="123" viewBox="0 0 229 123" fill="none" xmlns="http://www.w3.org/2000/svg">
<path d="M195.95 96.2861C206.846 142.268 178.981 187.94 134.142 198.566C89.3029 209.192 43.9054 180.881 33.0088 134.899C22.1122 88.9165 49.9778 43.2445 94.8167 32.6189C139.656 21.9932 185.053 50.3038 195.95 96.2861Z" stroke="#FFDA2D" stroke-width="21"/>
<path d="M145.175 108.318C149.318 125.799 138.709 142.979 121.912 146.96C105.115 150.94 87.9249 140.348 83.7824 122.867C79.6398 105.386 90.2484 88.2057 107.046 84.2252C123.843 80.2447 141.033 90.8373 145.175 108.318Z" stroke="#FFDA2D" stroke-opacity="0.11" stroke-width="21"/>
<path d="M170.298 102.784C177.814 134.501 158.585 165.914 127.781 173.213C96.9765 180.513 65.6964 161.07 58.1802 129.353C50.6639 97.6348 69.8926 66.2226 100.697 58.9228C131.502 51.6229 162.782 71.0659 170.298 102.784Z" stroke="#FFDA2D" stroke-opacity="0.36" stroke-width="21"/>
</svg>
