<svg width="228" height="230" viewBox="0 0 228 230" fill="none" xmlns="http://www.w3.org/2000/svg">
<path d="M195.242 95.6118C206.138 141.594 178.273 187.266 133.434 197.892C88.5949 208.517 43.1974 180.207 32.3008 134.225C21.4042 88.2422 49.2698 42.5702 94.1087 31.9446C138.948 21.3189 184.345 49.6295 195.242 95.6118Z" stroke="#FFDA2D" stroke-width="21"/>
<path d="M144.467 107.644C148.61 125.125 138.001 142.305 121.204 146.285C104.407 150.266 87.2169 139.673 83.0744 122.192C78.9318 104.712 89.5404 87.5314 106.338 83.5509C123.135 79.5704 140.325 90.163 144.467 107.644Z" stroke="#FFDA2D" stroke-opacity="0.11" stroke-width="21"/>
<path d="M169.59 102.109C177.106 133.827 157.877 165.239 127.073 172.539C96.2685 179.839 64.9884 160.396 57.4722 128.678C49.9559 96.9605 69.1846 65.5483 99.9891 58.2485C130.794 50.9486 162.074 70.3916 169.59 102.109Z" stroke="#FFDA2D" stroke-opacity="0.36" stroke-width="21"/>
</svg>
