<svg width="145" height="336" viewBox="0 0 145 336" fill="none" xmlns="http://www.w3.org/2000/svg">
<path d="M132 0C127.582 -1.93129e-07 124 3.58172 124 8C124 12.4183 127.582 16 132 16C136.418 16 140 12.4183 140 8C140 3.58172 136.418 1.93129e-07 132 0ZM72 120C67.5817 120 64 123.582 64 128C64 132.418 67.5817 136 72 136C76.4183 136 80 132.418 80 128C80 123.582 76.4183 120 72 120ZM130.939 6.93934L82.6551 55.2236L84.7764 57.3449L133.061 9.06066L130.939 6.93934ZM70.5 84.5685L70.5 128L73.5 128L73.5 84.5685L70.5 84.5685ZM82.6551 55.2236C74.8723 63.0064 70.5 73.5621 70.5 84.5685L73.5 84.5685C73.5 74.3577 77.5562 64.5651 84.7764 57.3449L82.6551 55.2236Z" fill="#250A3B"/>
<path d="M132 5.33333C130.527 5.33333 129.333 6.52724 129.333 8C129.333 9.47276 130.527 10.6667 132 10.6667C133.473 10.6667 134.667 9.47276 134.667 8C134.667 6.52724 133.473 5.33333 132 5.33333ZM72 125.333C70.5272 125.333 69.3333 126.527 69.3333 128C69.3333 129.473 70.5272 130.667 72 130.667C73.4728 130.667 74.6667 129.473 74.6667 128C74.6667 126.527 73.4728 125.333 72 125.333ZM131.646 7.64645L83.3622 55.9307L84.0693 56.6378L132.354 8.35355L131.646 7.64645ZM71.5 84.5685L71.5 128L72.5 128L72.5 84.5685L71.5 84.5685ZM83.3622 55.9307C75.767 63.5259 71.5 73.8273 71.5 84.5685L72.5 84.5685C72.5 74.0925 76.6616 64.0455 84.0693 56.6378L83.3622 55.9307Z" fill="#FFE72D" fill-opacity="0.75"/>
<path d="M12 336C16.4183 336 20 332.418 20 328C20 323.582 16.4183 320 12 320C7.58172 320 4 323.582 4 328C4 332.418 7.58172 336 12 336ZM72 216C76.4183 216 80 212.418 80 208C80 203.582 76.4183 200 72 200C67.5817 200 64 203.582 64 208C64 212.418 67.5817 216 72 216ZM13.0607 329.061L61.3449 280.776L59.2236 278.655L10.9393 326.939L13.0607 329.061ZM73.5 251.431L73.5 208L70.5 208L70.5 251.431L73.5 251.431ZM61.3449 280.776C69.1277 272.994 73.5 262.438 73.5 251.431L70.5 251.431C70.5 261.642 66.4438 271.435 59.2236 278.655L61.3449 280.776Z" fill="#250A3B"/>
<path d="M12 330.667C13.4728 330.667 14.6667 329.473 14.6667 328C14.6667 326.527 13.4728 325.333 12 325.333C10.5272 325.333 9.33333 326.527 9.33333 328C9.33333 329.473 10.5272 330.667 12 330.667ZM72 210.667C73.4728 210.667 74.6667 209.473 74.6667 208C74.6667 206.527 73.4728 205.333 72 205.333C70.5272 205.333 69.3333 206.527 69.3333 208C69.3333 209.473 70.5272 210.667 72 210.667ZM12.3536 328.354L60.6378 280.069L59.9307 279.362L11.6464 327.646L12.3536 328.354ZM72.5 251.431L72.5 208L71.5 208L71.5 251.431L72.5 251.431ZM60.6378 280.069C68.233 272.474 72.5 262.173 72.5 251.431L71.5 251.431C71.5 261.908 67.3384 271.954 59.9307 279.362L60.6378 280.069Z" fill="#FFE72D" fill-opacity="0.75"/>
<path d="M23.8125 189.844C20.9375 185.531 18.0625 179.875 15.1875 172.875L4.875 146.25C4.5625 145.562 4.375 144.812 4.3125 144C4.1875 142.25 4.6875 140.75 5.8125 139.5C7 138.25 8.5 137.625 10.3125 137.625C12.25 137.625 13.6875 138.062 14.625 138.938C15.625 139.75 16.4375 140.812 17.0625 142.125L25.9688 166.5C26.9688 169.062 27.9375 171.5 28.875 173.812C29.875 176.062 30.9688 178.125 32.1562 180C33.3438 181.875 34.6875 182.875 36.1875 183C37.625 182.875 38.9062 181.875 40.0312 180C41.2812 178.125 42.375 176.062 43.3125 173.812C44.3125 171.5 45.3125 169.062 46.3125 166.5L55.0312 142.125C55.6562 140.812 56.4375 139.75 57.375 138.938C58.375 138.062 59.9062 137.625 61.9688 137.625C63.7812 137.625 65.25 138.25 66.375 139.5C67.5625 140.75 68.0938 142.25 67.9688 144C67.9062 144.812 67.7188 145.562 67.4062 146.25L57.0938 172.875C54.2188 180 51.3438 185.688 48.4688 189.938C45.6562 194.125 41.5625 196.25 36.1875 196.312C30.75 196.25 26.625 194.094 23.8125 189.844ZM138.281 145.781C138.281 147.531 137.656 149 136.406 150.188C135.219 151.438 133.75 152.062 132 152.062H94.5C93.3125 152.125 92.3125 152.406 91.5 152.906C90.75 153.344 90.1875 153.875 89.8125 154.5C89.4375 155.062 89.25 155.656 89.25 156.281C89.25 156.906 89.4375 157.531 89.8125 158.156C90.1875 158.719 90.75 159.25 91.5 159.75C92.3125 160.188 93.3125 160.438 94.5 160.5H121.125C125.5 160.625 129.094 161.656 131.906 163.594C134.781 165.469 136.812 167.656 138 170.156C139.25 172.594 139.875 175.094 139.875 177.656C139.875 180.156 139.25 182.656 138 185.156C136.75 187.594 134.719 189.781 131.906 191.719C129.094 193.594 125.5 194.531 121.125 194.531H120.562C120.188 194.594 119.812 194.625 119.438 194.625H84C82.25 194.625 80.75 194.031 79.5 192.844C78.3125 191.594 77.7188 190.094 77.7188 188.344C77.7188 186.594 78.3438 185.125 79.5938 183.938C80.7812 182.688 82.25 182.062 84 182.062H121.688C122.875 182.125 123.844 181.906 124.594 181.406C125.406 180.906 126 180.344 126.375 179.719C126.75 179.031 126.938 178.344 126.938 177.656C126.938 177.219 126.75 176.625 126.375 175.875C126 175.062 125.406 174.406 124.594 173.906C123.844 173.406 122.875 173.125 121.688 173.062H95.0625C90.6875 172.938 87.0625 171.938 84.1875 170.062C81.375 168.188 79.3438 166.062 78.0938 163.688C76.9062 161.25 76.3125 158.781 76.3125 156.281C76.3125 153.844 76.9375 151.438 78.1875 149.062C79.4375 146.625 81.4688 144.469 84.2812 142.594C87.0938 140.719 90.6875 139.719 95.0625 139.594H95.625C96 139.531 96.375 139.5 96.75 139.5H132C133.75 139.5 135.219 140.125 136.406 141.375C137.656 142.562 138.281 144.031 138.281 145.781Z" fill="url(#paint0_linear_945_2834)"/>
<defs>
<linearGradient id="paint0_linear_945_2834" x1="72" y1="144" x2="72" y2="203" gradientUnits="userSpaceOnUse">
<stop stop-color="#FFE72D"/>
<stop offset="0.463542" stop-color="white"/>
<stop offset="1" stop-color="#FFE72D"/>
</linearGradient>
</defs>
</svg>
