<svg width="58" height="25" viewBox="0 0 58 25" fill="none" xmlns="http://www.w3.org/2000/svg">
<path d="M8.92188 21.8516C7.72396 20.0547 6.52604 17.6979 5.32812 14.7812L1.03125 3.6875C0.901042 3.40104 0.822917 3.08854 0.796875 2.75C0.744792 2.02083 0.953125 1.39583 1.42188 0.875C1.91667 0.354167 2.54167 0.09375 3.29688 0.09375C4.10417 0.09375 4.70312 0.276042 5.09375 0.640625C5.51042 0.979167 5.84896 1.42188 6.10938 1.96875L9.82031 12.125C10.237 13.1927 10.6406 14.2083 11.0312 15.1719C11.4479 16.1094 11.9036 16.9688 12.3984 17.75C12.8932 18.5312 13.4531 18.9479 14.0781 19C14.6771 18.9479 15.2109 18.5312 15.6797 17.75C16.2005 16.9688 16.6562 16.1094 17.0469 15.1719C17.4635 14.2083 17.8802 13.1927 18.2969 12.125L21.9297 1.96875C22.1901 1.42188 22.5156 0.979167 22.9062 0.640625C23.3229 0.276042 23.9609 0.09375 24.8203 0.09375C25.5755 0.09375 26.1875 0.354167 26.6562 0.875C27.151 1.39583 27.3724 2.02083 27.3203 2.75C27.2943 3.08854 27.2161 3.40104 27.0859 3.6875L22.7891 14.7812C21.5911 17.75 20.3932 20.1198 19.1953 21.8906C18.0234 23.6354 16.3177 24.5208 14.0781 24.5469C11.8125 24.5208 10.0938 23.6224 8.92188 21.8516ZM56.6172 3.49219C56.6172 4.22135 56.3568 4.83333 55.8359 5.32812C55.3411 5.84896 54.7292 6.10938 54 6.10938H38.375C37.8802 6.13542 37.4635 6.2526 37.125 6.46094C36.8125 6.64323 36.5781 6.86458 36.4219 7.125C36.2656 7.35938 36.1875 7.60677 36.1875 7.86719C36.1875 8.1276 36.2656 8.38802 36.4219 8.64844C36.5781 8.88281 36.8125 9.10417 37.125 9.3125C37.4635 9.49479 37.8802 9.59896 38.375 9.625H49.4688C51.2917 9.67708 52.7891 10.1068 53.9609 10.9141C55.1589 11.6953 56.0052 12.6068 56.5 13.6484C57.0208 14.6641 57.2812 15.7057 57.2812 16.7734C57.2812 17.8151 57.0208 18.8568 56.5 19.8984C55.9792 20.9141 55.1328 21.8255 53.9609 22.6328C52.7891 23.4141 51.2917 23.8047 49.4688 23.8047H49.2344C49.0781 23.8307 48.9219 23.8438 48.7656 23.8438H34C33.2708 23.8438 32.6458 23.5964 32.125 23.1016C31.6302 22.5807 31.3828 21.9557 31.3828 21.2266C31.3828 20.4974 31.6432 19.8854 32.1641 19.3906C32.6589 18.8698 33.2708 18.6094 34 18.6094H49.7031C50.1979 18.6354 50.6016 18.5443 50.9141 18.3359C51.2526 18.1276 51.5 17.8932 51.6562 17.6328C51.8125 17.3464 51.8906 17.0599 51.8906 16.7734C51.8906 16.5911 51.8125 16.3438 51.6562 16.0312C51.5 15.6927 51.2526 15.4193 50.9141 15.2109C50.6016 15.0026 50.1979 14.8854 49.7031 14.8594H38.6094C36.7865 14.8073 35.276 14.3906 34.0781 13.6094C32.9062 12.8281 32.0599 11.9427 31.5391 10.9531C31.0443 9.9375 30.7969 8.90885 30.7969 7.86719C30.7969 6.85156 31.0573 5.84896 31.5781 4.85938C32.099 3.84375 32.9453 2.94531 34.1172 2.16406C35.2891 1.38281 36.7865 0.966146 38.6094 0.914062H38.8438C39 0.888021 39.1562 0.875 39.3125 0.875H54C54.7292 0.875 55.3411 1.13542 55.8359 1.65625C56.3568 2.15104 56.6172 2.76302 56.6172 3.49219Z" fill="url(#paint0_linear_945_2892)"/>
<defs>
<linearGradient id="paint0_linear_945_2892" x1="32.7655" y1="2.66667" x2="32.7655" y2="26.0208" gradientUnits="userSpaceOnUse">
<stop stop-color="#FFE72D"/>
<stop offset="0.463542" stop-color="white"/>
<stop offset="1" stop-color="#FFE72D"/>
</linearGradient>
</defs>
</svg>
