<svg width="105" height="133" viewBox="0 0 105 133" fill="none" xmlns="http://www.w3.org/2000/svg">
<ellipse cx="4.69526" cy="4.81179" rx="4.13764" ry="4.08059" fill="#FFDA2D" fill-opacity="0.6"/>
<ellipse cx="4.69428" cy="75.2317" rx="4.13764" ry="4.08059" fill="#FFDA2D" fill-opacity="0.6"/>
<ellipse cx="23.9189" cy="4.8113" rx="4.13764" ry="4.08059" fill="#FFDA2D" fill-opacity="0.6"/>
<ellipse cx="23.9189" cy="75.2317" rx="4.13764" ry="4.08059" fill="#FFDA2D" fill-opacity="0.6"/>
<ellipse cx="43.1435" cy="4.81154" rx="4.13764" ry="4.08059" fill="#FFDA2D" fill-opacity="0.6"/>
<ellipse cx="43.1435" cy="75.2315" rx="4.13764" ry="4.08059" fill="#FFDA2D" fill-opacity="0.6"/>
<ellipse cx="62.3681" cy="4.81106" rx="4.13764" ry="4.08059" fill="#FFDA2D" fill-opacity="0.6"/>
<ellipse cx="62.3681" cy="75.232" rx="4.13764" ry="4.08059" fill="#FFDA2D" fill-opacity="0.6"/>
<ellipse cx="81.5927" cy="4.81154" rx="4.13764" ry="4.08059" fill="#FFDA2D" fill-opacity="0.6"/>
<ellipse cx="81.5927" cy="75.232" rx="4.13764" ry="4.08059" fill="#FFDA2D" fill-opacity="0.6"/>
<ellipse cx="100.816" cy="4.81106" rx="4.13764" ry="4.08059" fill="#FFDA2D" fill-opacity="0.6"/>
<ellipse cx="100.817" cy="75.2322" rx="4.13764" ry="4.08059" fill="#FFDA2D" fill-opacity="0.6"/>
<ellipse cx="100.817" cy="22.4163" rx="4.13764" ry="4.08059" fill="#FFDA2D" fill-opacity="0.6"/>
<ellipse cx="100.82" cy="92.843" rx="4.13764" ry="4.08059" fill="#FFDA2D" fill-opacity="0.6"/>
<ellipse cx="81.5917" cy="22.4163" rx="4.13764" ry="4.08059" fill="#FFDA2D" fill-opacity="0.6"/>
<ellipse cx="81.5956" cy="92.843" rx="4.13764" ry="4.08059" fill="#FFDA2D" fill-opacity="0.6"/>
<ellipse cx="62.3681" cy="22.4165" rx="4.13764" ry="4.08059" fill="#FFDA2D" fill-opacity="0.6"/>
<ellipse cx="62.371" cy="92.843" rx="4.13764" ry="4.08059" fill="#FFDA2D" fill-opacity="0.6"/>
<ellipse cx="43.1435" cy="22.4163" rx="4.13764" ry="4.08059" fill="#FFDA2D" fill-opacity="0.6"/>
<ellipse cx="43.1464" cy="92.843" rx="4.13764" ry="4.08059" fill="#FFDA2D" fill-opacity="0.6"/>
<ellipse cx="23.9189" cy="22.416" rx="4.13764" ry="4.08059" fill="#FFDA2D" fill-opacity="0.6"/>
<ellipse cx="23.9218" cy="92.8426" rx="4.13764" ry="4.08059" fill="#FFDA2D" fill-opacity="0.6"/>
<ellipse cx="4.69428" cy="22.4165" rx="4.13764" ry="4.08059" fill="#FFDA2D" fill-opacity="0.6"/>
<ellipse cx="4.69721" cy="92.843" rx="4.13764" ry="4.08059" fill="#FFDA2D" fill-opacity="0.6"/>
<ellipse cx="4.69428" cy="40.0213" rx="4.13764" ry="4.08059" fill="#FFDA2D" fill-opacity="0.6"/>
<ellipse cx="4.69721" cy="110.448" rx="4.13764" ry="4.08059" fill="#FFDA2D" fill-opacity="0.6"/>
<ellipse cx="23.9189" cy="40.0215" rx="4.13764" ry="4.08059" fill="#FFDA2D" fill-opacity="0.6"/>
<ellipse cx="23.9218" cy="110.448" rx="4.13764" ry="4.08059" fill="#FFDA2D" fill-opacity="0.6"/>
<ellipse cx="43.1435" cy="40.0215" rx="4.13764" ry="4.08059" fill="#FFDA2D" fill-opacity="0.6"/>
<ellipse cx="43.1464" cy="110.448" rx="4.13764" ry="4.08059" fill="#FFDA2D" fill-opacity="0.6"/>
<ellipse cx="62.3681" cy="40.0213" rx="4.13764" ry="4.08059" fill="#FFDA2D" fill-opacity="0.6"/>
<ellipse cx="62.371" cy="110.448" rx="4.13764" ry="4.08059" fill="#FFDA2D" fill-opacity="0.6"/>
<ellipse cx="81.5927" cy="40.0215" rx="4.13764" ry="4.08059" fill="#FFDA2D" fill-opacity="0.6"/>
<ellipse cx="81.5956" cy="110.448" rx="4.13764" ry="4.08059" fill="#FFDA2D" fill-opacity="0.6"/>
<ellipse cx="4.69428" cy="57.6265" rx="4.13764" ry="4.08059" fill="#FFDA2D" fill-opacity="0.6"/>
<ellipse cx="4.69721" cy="128.053" rx="4.13764" ry="4.08059" fill="#FFDA2D" fill-opacity="0.6"/>
<ellipse cx="23.9189" cy="57.6265" rx="4.13764" ry="4.08059" fill="#FFDA2D" fill-opacity="0.6"/>
<ellipse cx="23.9218" cy="128.053" rx="4.13764" ry="4.08059" fill="#FFDA2D" fill-opacity="0.6"/>
<ellipse cx="43.1435" cy="57.6265" rx="4.13764" ry="4.08059" fill="#FFDA2D" fill-opacity="0.6"/>
<ellipse cx="43.1464" cy="128.053" rx="4.13764" ry="4.08059" fill="#FFDA2D" fill-opacity="0.6"/>
<ellipse cx="62.3681" cy="57.6265" rx="4.13764" ry="4.08059" fill="#FFDA2D" fill-opacity="0.6"/>
<ellipse cx="62.371" cy="128.053" rx="4.13764" ry="4.08059" fill="#FFDA2D" fill-opacity="0.6"/>
<ellipse cx="81.5927" cy="57.627" rx="4.13764" ry="4.08059" fill="#FFDA2D" fill-opacity="0.6"/>
<ellipse cx="81.5956" cy="128.053" rx="4.13764" ry="4.08059" fill="#FFDA2D" fill-opacity="0.6"/>
<ellipse cx="100.817" cy="40.022" rx="4.13764" ry="4.08059" fill="#FFDA2D" fill-opacity="0.6"/>
<ellipse cx="100.82" cy="110.448" rx="4.13764" ry="4.08059" fill="#FFDA2D" fill-opacity="0.6"/>
<ellipse cx="100.817" cy="57.6267" rx="4.13764" ry="4.08059" fill="#FFDA2D" fill-opacity="0.6"/>
<ellipse cx="100.82" cy="128.053" rx="4.13764" ry="4.08059" fill="#FFDA2D" fill-opacity="0.6"/>
</svg>
