<svg width="2343" height="2606" viewBox="0 0 2343 2606" fill="none" xmlns="http://www.w3.org/2000/svg">
<g filter="url(#filter0_d_898_2581)">
<rect x="1098.8" y="53" width="1363.88" height="2083.61" rx="32" transform="rotate(30 1098.8 53)" fill="url(#paint0_radial_898_2581)"/>
<rect x="1100.08" y="57.7811" width="1356.88" height="2076.61" rx="28.5" transform="rotate(30 1100.08 57.7811)" stroke="#FFC82D" stroke-width="7"/>
</g>
<g filter="url(#filter1_d_898_2581)">
<g filter="url(#filter2_d_898_2581)">
<ellipse cx="27.5805" cy="25.9581" rx="27.5805" ry="25.9581" transform="matrix(0.866025 0.5 0.5 -0.866025 1816.66 669.472)" fill="url(#paint1_radial_898_2581)"/>
<ellipse cx="27.5805" cy="25.9581" rx="27.5805" ry="25.9581" transform="matrix(0.866025 0.5 0.5 -0.866025 1816.66 669.472)" fill="url(#paint2_radial_898_2581)" fill-opacity="0.2"/>
</g>
<path d="M1851.56 693.374L2037.03 800.451L2047.85 751.998C2050.23 741.335 2045.42 730.36 2035.95 724.897L1888.34 639.673C1885.95 638.292 1882.89 639.112 1881.51 641.503L1851.56 693.374Z" fill="url(#paint3_linear_898_2581)"/>
<path d="M1851.56 693.374L2037.03 800.451L2047.85 751.998C2050.23 741.335 2045.42 730.36 2035.95 724.897L1888.34 639.673C1885.95 638.292 1882.89 639.112 1881.51 641.503L1851.56 693.374Z" fill="url(#paint4_radial_898_2581)" fill-opacity="0.13"/>
<path d="M1851.56 693.374L2037.03 800.451L2047.85 751.998C2050.23 741.335 2045.42 730.36 2035.95 724.897L1888.34 639.673C1885.95 638.292 1882.89 639.112 1881.51 641.503L1851.56 693.374Z" fill="url(#paint5_diamond_898_2581)" fill-opacity="0.35"/>
<path d="M1826.27 678.772L1640.81 571.695L1677.36 538.094C1685.4 530.699 1697.32 529.384 1706.78 534.847L1854.39 620.071C1856.78 621.452 1857.6 624.51 1856.22 626.901L1826.27 678.772Z" fill="url(#paint6_linear_898_2581)"/>
<path d="M1826.27 678.772L1640.81 571.695L1677.36 538.094C1685.4 530.699 1697.32 529.384 1706.78 534.847L1854.39 620.071C1856.78 621.452 1857.6 624.51 1856.22 626.901L1826.27 678.772Z" fill="url(#paint7_radial_898_2581)" fill-opacity="0.13"/>
<path d="M1826.27 678.772L1640.81 571.695L1677.36 538.094C1685.4 530.699 1697.32 529.384 1706.78 534.847L1854.39 620.071C1856.78 621.452 1857.6 624.51 1856.22 626.901L1826.27 678.772Z" fill="url(#paint8_diamond_898_2581)" fill-opacity="0.35"/>
</g>
<g filter="url(#filter3_d_898_2581)">
<g filter="url(#filter4_d_898_2581)">
<ellipse cx="456.88" cy="1892.81" rx="27.5805" ry="25.9581" transform="rotate(30 456.88 1892.81)" fill="url(#paint9_radial_898_2581)"/>
<ellipse cx="456.88" cy="1892.81" rx="27.5805" ry="25.9581" transform="rotate(30 456.88 1892.81)" fill="url(#paint10_radial_898_2581)" fill-opacity="0.2"/>
</g>
<path d="M484.127 1874.82L669.59 1981.9L633.041 2015.5C624.998 2022.89 613.084 2024.21 603.621 2018.75L456.009 1933.52C453.618 1932.14 452.799 1929.08 454.179 1926.69L484.127 1874.82Z" fill="url(#paint11_linear_898_2581)"/>
<path d="M484.127 1874.82L669.59 1981.9L633.041 2015.5C624.998 2022.89 613.084 2024.21 603.621 2018.75L456.009 1933.52C453.618 1932.14 452.799 1929.08 454.179 1926.69L484.127 1874.82Z" fill="url(#paint12_radial_898_2581)" fill-opacity="0.13"/>
<path d="M484.127 1874.82L669.59 1981.9L633.041 2015.5C624.998 2022.89 613.084 2024.21 603.621 2018.75L456.009 1933.52C453.618 1932.14 452.799 1929.08 454.179 1926.69L484.127 1874.82Z" fill="url(#paint13_diamond_898_2581)" fill-opacity="0.35"/>
<path d="M458.838 1860.22L273.375 1753.14L262.55 1801.6C260.167 1812.26 264.986 1823.23 274.448 1828.7L422.06 1913.92C424.452 1915.3 427.51 1914.48 428.89 1912.09L458.838 1860.22Z" fill="url(#paint14_linear_898_2581)"/>
<path d="M458.838 1860.22L273.375 1753.14L262.55 1801.6C260.167 1812.26 264.986 1823.23 274.448 1828.7L422.06 1913.92C424.452 1915.3 427.51 1914.48 428.89 1912.09L458.838 1860.22Z" fill="url(#paint15_radial_898_2581)" fill-opacity="0.13"/>
<path d="M458.838 1860.22L273.375 1753.14L262.55 1801.6C260.167 1812.26 264.986 1823.23 274.448 1828.7L422.06 1913.92C424.452 1915.3 427.51 1914.48 428.89 1912.09L458.838 1860.22Z" fill="url(#paint16_diamond_898_2581)" fill-opacity="0.35"/>
</g>
<g filter="url(#filter5_d_898_2581)">
<circle cx="46.3538" cy="46.3538" r="46.3538" transform="matrix(1 0 0 -1 560.767 1799.49)" fill="url(#paint17_radial_898_2581)"/>
<circle cx="46.3538" cy="46.3538" r="46.3538" transform="matrix(1 0 0 -1 560.767 1799.49)" fill="url(#paint18_diamond_898_2581)" fill-opacity="0.22"/>
</g>
<defs>
<filter id="filter0_d_898_2581" x="0.707031" y="0.70752" width="2341.55" height="2604.98" filterUnits="userSpaceOnUse" color-interpolation-filters="sRGB">
<feFlood flood-opacity="0" result="BackgroundImageFix"/>
<feColorMatrix in="SourceAlpha" type="matrix" values="0 0 0 0 0 0 0 0 0 0 0 0 0 0 0 0 0 0 127 0" result="hardAlpha"/>
<feOffset dx="3" dy="7"/>
<feGaussianBlur stdDeviation="35.5"/>
<feComposite in2="hardAlpha" operator="out"/>
<feColorMatrix type="matrix" values="0 0 0 0 1 0 0 0 0 0.784314 0 0 0 0 0.176471 0 0 0 0.22 0"/>
<feBlend mode="normal" in2="BackgroundImageFix" result="effect1_dropShadow_898_2581"/>
<feBlend mode="normal" in="SourceGraphic" in2="effect1_dropShadow_898_2581" result="shape"/>
</filter>
<filter id="filter1_d_898_2581" x="1632.81" y="527.498" width="423.644" height="284.954" filterUnits="userSpaceOnUse" color-interpolation-filters="sRGB">
<feFlood flood-opacity="0" result="BackgroundImageFix"/>
<feColorMatrix in="SourceAlpha" type="matrix" values="0 0 0 0 0 0 0 0 0 0 0 0 0 0 0 0 0 0 127 0" result="hardAlpha"/>
<feOffset dy="4"/>
<feGaussianBlur stdDeviation="4"/>
<feComposite in2="hardAlpha" operator="out"/>
<feColorMatrix type="matrix" values="0 0 0 0 1 0 0 0 0 0.396078 0 0 0 0 0.0431373 0 0 0 0.58 0"/>
<feBlend mode="normal" in2="BackgroundImageFix" result="effect1_dropShadow_898_2581"/>
<feBlend mode="normal" in="SourceGraphic" in2="effect1_dropShadow_898_2581" result="shape"/>
</filter>
<filter id="filter2_d_898_2581" x="1818.33" y="630.405" width="70.3779" height="68.7537" filterUnits="userSpaceOnUse" color-interpolation-filters="sRGB">
<feFlood flood-opacity="0" result="BackgroundImageFix"/>
<feColorMatrix in="SourceAlpha" type="matrix" values="0 0 0 0 0 0 0 0 0 0 0 0 0 0 0 0 0 0 127 0" result="hardAlpha"/>
<feOffset dy="4"/>
<feGaussianBlur stdDeviation="4"/>
<feComposite in2="hardAlpha" operator="out"/>
<feColorMatrix type="matrix" values="0 0 0 0 1 0 0 0 0 1 0 0 0 0 1 0 0 0 0.25 0"/>
<feBlend mode="normal" in2="BackgroundImageFix" result="effect1_dropShadow_898_2581"/>
<feBlend mode="normal" in="SourceGraphic" in2="effect1_dropShadow_898_2581" result="shape"/>
</filter>
<filter id="filter3_d_898_2581" x="253.946" y="1749.14" width="423.644" height="284.953" filterUnits="userSpaceOnUse" color-interpolation-filters="sRGB">
<feFlood flood-opacity="0" result="BackgroundImageFix"/>
<feColorMatrix in="SourceAlpha" type="matrix" values="0 0 0 0 0 0 0 0 0 0 0 0 0 0 0 0 0 0 127 0" result="hardAlpha"/>
<feOffset dy="4"/>
<feGaussianBlur stdDeviation="4"/>
<feComposite in2="hardAlpha" operator="out"/>
<feColorMatrix type="matrix" values="0 0 0 0 1 0 0 0 0 0.396078 0 0 0 0 0.0431373 0 0 0 0.58 0"/>
<feBlend mode="normal" in2="BackgroundImageFix" result="effect1_dropShadow_898_2581"/>
<feBlend mode="normal" in="SourceGraphic" in2="effect1_dropShadow_898_2581" result="shape"/>
</filter>
<filter id="filter4_d_898_2581" x="421.69" y="1862.43" width="70.3789" height="68.7537" filterUnits="userSpaceOnUse" color-interpolation-filters="sRGB">
<feFlood flood-opacity="0" result="BackgroundImageFix"/>
<feColorMatrix in="SourceAlpha" type="matrix" values="0 0 0 0 0 0 0 0 0 0 0 0 0 0 0 0 0 0 127 0" result="hardAlpha"/>
<feOffset dy="4"/>
<feGaussianBlur stdDeviation="4"/>
<feComposite in2="hardAlpha" operator="out"/>
<feColorMatrix type="matrix" values="0 0 0 0 1 0 0 0 0 1 0 0 0 0 1 0 0 0 0.25 0"/>
<feBlend mode="normal" in2="BackgroundImageFix" result="effect1_dropShadow_898_2581"/>
<feBlend mode="normal" in="SourceGraphic" in2="effect1_dropShadow_898_2581" result="shape"/>
</filter>
<filter id="filter5_d_898_2581" x="546.767" y="1692.79" width="120.708" height="120.708" filterUnits="userSpaceOnUse" color-interpolation-filters="sRGB">
<feFlood flood-opacity="0" result="BackgroundImageFix"/>
<feColorMatrix in="SourceAlpha" type="matrix" values="0 0 0 0 0 0 0 0 0 0 0 0 0 0 0 0 0 0 127 0" result="hardAlpha"/>
<feOffset/>
<feGaussianBlur stdDeviation="7"/>
<feComposite in2="hardAlpha" operator="out"/>
<feColorMatrix type="matrix" values="0 0 0 0 1 0 0 0 0 0.85098 0 0 0 0 0.172549 0 0 0 0.61 0"/>
<feBlend mode="normal" in2="BackgroundImageFix" result="effect1_dropShadow_898_2581"/>
<feBlend mode="normal" in="SourceGraphic" in2="effect1_dropShadow_898_2581" result="shape"/>
</filter>
<radialGradient id="paint0_radial_898_2581" cx="0" cy="0" r="1" gradientUnits="userSpaceOnUse" gradientTransform="translate(1780.74 1094.8) rotate(90.9981) scale(1208.5 791.057)">
<stop offset="0.588542" stop-color="#4F1754"/>
<stop offset="1" stop-color="#1E0837"/>
</radialGradient>
<radialGradient id="paint1_radial_898_2581" cx="0" cy="0" r="1" gradientUnits="userSpaceOnUse" gradientTransform="translate(27.5805 25.9581) rotate(90) scale(16.2238 17.2378)">
<stop offset="0.25" stop-color="#73FFFE"/>
<stop offset="1" stop-color="#42E8F6"/>
</radialGradient>
<radialGradient id="paint2_radial_898_2581" cx="0" cy="0" r="1" gradientUnits="userSpaceOnUse" gradientTransform="translate(27.5805 25.9581) rotate(90) scale(25.9581 27.5805)">
<stop offset="0.395833" stop-opacity="0"/>
<stop offset="1"/>
</radialGradient>
<linearGradient id="paint3_linear_898_2581" x1="1944.3" y1="746.913" x2="1976.74" y2="690.712" gradientUnits="userSpaceOnUse">
<stop offset="0.25" stop-color="#FF650B"/>
<stop offset="1" stop-color="#FFC82D"/>
</linearGradient>
<radialGradient id="paint4_radial_898_2581" cx="0" cy="0" r="1" gradientUnits="userSpaceOnUse" gradientTransform="translate(1960.52 718.812) rotate(-60) scale(32.4477 107.077)">
<stop offset="0.567708" stop-opacity="0"/>
<stop offset="1" stop-opacity="0.64"/>
</radialGradient>
<radialGradient id="paint5_diamond_898_2581" cx="0" cy="0" r="1" gradientUnits="userSpaceOnUse" gradientTransform="translate(1970.41 700.167) rotate(120.894) scale(48.6774 52.8421)">
<stop stop-color="white"/>
<stop offset="0.645833" stop-color="#FFE72D" stop-opacity="0.28"/>
</radialGradient>
<linearGradient id="paint6_linear_898_2581" x1="1733.54" y1="625.234" x2="1765.99" y2="569.033" gradientUnits="userSpaceOnUse">
<stop offset="0.25" stop-color="#FF650B"/>
<stop offset="1" stop-color="#FFC82D"/>
</linearGradient>
<radialGradient id="paint7_radial_898_2581" cx="0" cy="0" r="1" gradientUnits="userSpaceOnUse" gradientTransform="translate(1749.77 597.133) rotate(-60) scale(32.4477 107.077)">
<stop offset="0.567708" stop-opacity="0"/>
<stop offset="1" stop-opacity="0.64"/>
</radialGradient>
<radialGradient id="paint8_diamond_898_2581" cx="0" cy="0" r="1" gradientUnits="userSpaceOnUse" gradientTransform="translate(1760.97 579.247) rotate(119.106) scale(48.6774 52.8421)">
<stop stop-color="white"/>
<stop offset="0.645833" stop-color="#FFE72D" stop-opacity="0.28"/>
</radialGradient>
<radialGradient id="paint9_radial_898_2581" cx="0" cy="0" r="1" gradientUnits="userSpaceOnUse" gradientTransform="translate(456.88 1892.81) rotate(90) scale(16.2238 17.2378)">
<stop offset="0.25" stop-color="#73FFFE"/>
<stop offset="1" stop-color="#42E8F6"/>
</radialGradient>
<radialGradient id="paint10_radial_898_2581" cx="0" cy="0" r="1" gradientUnits="userSpaceOnUse" gradientTransform="translate(456.88 1892.81) rotate(90) scale(25.9581 27.5805)">
<stop offset="0.395833" stop-opacity="0"/>
<stop offset="1"/>
</radialGradient>
<linearGradient id="paint11_linear_898_2581" x1="576.859" y1="1928.36" x2="544.411" y2="1984.56" gradientUnits="userSpaceOnUse">
<stop offset="0.25" stop-color="#FF650B"/>
<stop offset="1" stop-color="#FFC82D"/>
</linearGradient>
<radialGradient id="paint12_radial_898_2581" cx="0" cy="0" r="1" gradientUnits="userSpaceOnUse" gradientTransform="translate(560.635 1956.46) rotate(120) scale(32.4477 107.077)">
<stop offset="0.567708" stop-opacity="0"/>
<stop offset="1" stop-opacity="0.64"/>
</radialGradient>
<radialGradient id="paint13_diamond_898_2581" cx="0" cy="0" r="1" gradientUnits="userSpaceOnUse" gradientTransform="translate(549.432 1974.35) rotate(-60.8939) scale(48.6774 52.8421)">
<stop stop-color="white"/>
<stop offset="0.645833" stop-color="#FFE72D" stop-opacity="0.28"/>
</radialGradient>
<linearGradient id="paint14_linear_898_2581" x1="366.106" y1="1806.68" x2="333.659" y2="1862.88" gradientUnits="userSpaceOnUse">
<stop offset="0.25" stop-color="#FF650B"/>
<stop offset="1" stop-color="#FFC82D"/>
</linearGradient>
<radialGradient id="paint15_radial_898_2581" cx="0" cy="0" r="1" gradientUnits="userSpaceOnUse" gradientTransform="translate(349.882 1834.78) rotate(120) scale(32.4477 107.077)">
<stop offset="0.567708" stop-opacity="0"/>
<stop offset="1" stop-opacity="0.64"/>
</radialGradient>
<radialGradient id="paint16_diamond_898_2581" cx="0" cy="0" r="1" gradientUnits="userSpaceOnUse" gradientTransform="translate(339.995 1853.43) rotate(-59.1061) scale(48.6774 52.8421)">
<stop stop-color="white"/>
<stop offset="0.645833" stop-color="#FFE72D" stop-opacity="0.28"/>
</radialGradient>
<radialGradient id="paint17_radial_898_2581" cx="0" cy="0" r="1" gradientUnits="userSpaceOnUse" gradientTransform="translate(46.3538 46.3538) rotate(98.7462) scale(50.8074 50.9647)">
<stop offset="0.515625" stop-color="#FFE72D"/>
<stop offset="0.958333" stop-color="white"/>
</radialGradient>
<radialGradient id="paint18_diamond_898_2581" cx="0" cy="0" r="1" gradientUnits="userSpaceOnUse" gradientTransform="translate(46.3538 46.3538) rotate(90) scale(105.354)">
<stop stop-color="#FF9B1E"/>
<stop offset="1" stop-color="#FEEB77"/>
</radialGradient>
</defs>
</svg>
