<svg width="113" height="106" viewBox="0 0 113 106" fill="none" xmlns="http://www.w3.org/2000/svg">
<g filter="url(#filter0_d_1923_3371)">
<path d="M55.4998 17.1754C56.428 16.6395 57.5716 16.6395 58.4998 17.1754L84.6767 32.2887C85.6049 32.8246 86.1767 33.815 86.1767 34.8868V65.1133C86.1767 66.185 85.6049 67.1754 84.6767 67.7113L58.4998 82.8246C57.5716 83.3605 56.428 83.3605 55.4998 82.8246L29.3228 67.7113C28.3946 67.1754 27.8228 66.185 27.8228 65.1133V34.8867C27.8228 33.815 28.3946 32.8246 29.3228 32.2887L55.4998 17.1754Z" stroke="#FFE72D" stroke-width="4"/>
<path d="M82.0548 70.5003C87.6317 69.5017 89.8365 70.1372 90.9649 71.1877C93.0011 73.0164 93.2216 74.9489 93.9998 76.0902C92.8844 76.4015 91.7431 77.9578 88.2802 77.9578C87.369 77.9117 86.4772 77.6776 85.6608 77.2703C84.8444 76.8629 84.1212 76.291 83.5365 75.5906C82.9518 74.8902 82.5183 74.0764 82.2633 73.2004C82.0083 72.3244 81.9373 71.4051 82.0548 70.5003Z" fill="#FFE72D"/>
<path d="M31.182 70.5003C25.6051 69.5017 23.4003 70.1372 22.2719 71.1877C20.2357 73.0164 20.0152 74.9489 19.2371 76.0902C20.3524 76.4015 21.4938 77.9578 24.9566 77.9578C25.8678 77.9117 26.7597 77.6776 27.576 77.2703C28.3924 76.8629 29.1157 76.291 29.7003 75.5906C30.285 74.8902 30.7185 74.0764 30.9735 73.2004C31.2285 72.3244 31.2995 71.4051 31.182 70.5003Z" fill="#FFE72D"/>
<path d="M74.0548 75.5003C79.6317 74.5017 81.8365 75.1372 82.9649 76.1877C85.0011 78.0164 85.2216 79.9489 85.9998 81.0902C84.8844 81.4015 83.7431 82.9578 80.2802 82.9578C79.369 82.9117 78.4772 82.6776 77.6608 82.2703C76.8444 81.8629 76.1212 81.291 75.5365 80.5906C74.9518 79.8902 74.5183 79.0764 74.2633 78.2004C74.0083 77.3244 73.9373 76.4051 74.0548 75.5003Z" fill="#FFE72D"/>
<path d="M39.182 75.5003C33.6051 74.5017 31.4003 75.1372 30.2719 76.1877C28.2357 78.0164 28.0152 79.9489 27.2371 81.0902C28.3524 81.4015 29.4938 82.9578 32.9566 82.9578C33.8678 82.9117 34.7597 82.6776 35.576 82.2703C36.3924 81.8629 37.1157 81.291 37.7003 80.5906C38.285 79.8902 38.7185 79.0764 38.9735 78.2004C39.2285 77.3244 39.2995 76.4051 39.182 75.5003Z" fill="#FFE72D"/>
<path d="M65.0548 80.5003C70.6317 79.5017 72.8365 80.1372 73.9649 81.1877C76.0011 83.0164 76.2216 84.9489 76.9998 86.0902C75.8844 86.4015 74.7431 87.9578 71.2802 87.9578C70.369 87.9117 69.4772 87.6776 68.6608 87.2703C67.8444 86.8629 67.1212 86.291 66.5365 85.5906C65.9518 84.8902 65.5183 84.0764 65.2633 83.2004C65.0083 82.3244 64.9373 81.4051 65.0548 80.5003Z" fill="#FFE72D"/>
<path d="M48.182 80.5003C42.6051 79.5017 40.4003 80.1372 39.2719 81.1877C37.2357 83.0164 37.0152 84.9489 36.2371 86.0902C37.3524 86.4015 38.4938 87.9578 41.9566 87.9578C42.8678 87.9117 43.7597 87.6776 44.576 87.2703C45.3924 86.8629 46.1157 86.291 46.7003 85.5906C47.285 84.8902 47.7185 84.0764 47.9735 83.2004C48.2285 82.3244 48.2995 81.4051 48.182 80.5003Z" fill="#FFE72D"/>
<path d="M87.1997 45.8104C87.7506 40.8207 89.7285 39.102 91.0812 38.5229C93.4587 37.4963 95.162 38.0989 96.4682 37.8639C96.3379 38.8619 97.1925 40.5169 95.821 43.4859C95.4446 44.2411 94.9124 44.9079 94.2594 45.4423C93.6064 45.9767 92.8476 46.3666 92.0329 46.5862C91.2182 46.8059 90.3662 46.8503 89.5331 46.7166C88.7 46.5828 87.9047 46.274 87.1997 45.8104Z" fill="#FFE72D"/>
<path d="M26.0371 45.8104C25.4863 40.8207 23.5083 39.102 22.1557 38.5229C19.7781 37.4963 18.0748 38.0989 16.7686 37.8639C16.8989 38.8619 16.0444 40.5169 17.4158 43.4859C17.7922 44.2411 18.3245 44.9079 18.9774 45.4423C19.6304 45.9767 20.3892 46.3666 21.2039 46.5862C22.0186 46.8059 22.8706 46.8503 23.7037 46.7166C24.5368 46.5828 25.3321 46.274 26.0371 45.8104Z" fill="#FFE72D"/>
<path d="M87.1997 55.8104C87.7506 50.8207 89.7285 49.102 91.0812 48.5229C93.4587 47.4963 95.162 48.0989 96.4682 47.8639C96.3379 48.8619 97.1925 50.5169 95.821 53.4859C95.4446 54.2411 94.9124 54.9079 94.2594 55.4423C93.6064 55.9767 92.8476 56.3666 92.0329 56.5862C91.2182 56.8059 90.3662 56.8503 89.5331 56.7166C88.7 56.5828 87.9047 56.274 87.1997 55.8104Z" fill="#FFE72D"/>
<path d="M26.0371 55.8104C25.4863 50.8207 23.5083 49.102 22.1557 48.5229C19.7781 47.4963 18.0748 48.0989 16.7686 47.8639C16.8989 48.8619 16.0444 50.5169 17.4158 53.4859C17.7922 54.2411 18.3245 54.9079 18.9774 55.4423C19.6304 55.9767 20.3892 56.3666 21.2039 56.5862C22.0186 56.8059 22.8706 56.8503 23.7037 56.7166C24.5368 56.5828 25.3321 56.274 26.0371 55.8104Z" fill="#FFE72D"/>
<path d="M87.1997 65.8104C87.7506 60.8207 89.7285 59.102 91.0812 58.5229C93.4587 57.4963 95.162 58.0989 96.4682 57.8639C96.3379 58.8619 97.1925 60.5169 95.821 63.4859C95.4446 64.2411 94.9124 64.9079 94.2594 65.4423C93.6064 65.9767 92.8476 66.3666 92.0329 66.5862C91.2182 66.8059 90.3662 66.8503 89.5331 66.7166C88.7 66.5828 87.9047 66.274 87.1997 65.8104Z" fill="#FFE72D"/>
<path d="M26.0371 65.8104C25.4863 60.8207 23.5083 59.102 22.1557 58.5229C19.7781 57.4963 18.0748 58.0989 16.7686 57.8639C16.8989 58.8619 16.0444 60.5169 17.4158 63.4859C17.7922 64.2411 18.3245 64.9079 18.9774 65.4423C19.6304 65.9767 20.3892 66.3666 21.2039 66.5862C22.0186 66.8059 22.8706 66.8503 23.7037 66.7166C24.5368 66.5828 25.3321 66.274 26.0371 65.8104Z" fill="#FFE72D"/>
<path d="M55.4998 17.1754C56.428 16.6395 57.5716 16.6395 58.4998 17.1754L84.6767 32.2887C85.6049 32.8246 86.1767 33.815 86.1767 34.8868V65.1133C86.1767 66.185 85.6049 67.1754 84.6767 67.7113L58.4998 82.8246C57.5716 83.3605 56.428 83.3605 55.4998 82.8246L29.3228 67.7113C28.3946 67.1754 27.8228 66.185 27.8228 65.1133V34.8867C27.8228 33.815 28.3946 32.8246 29.3228 32.2887L55.4998 17.1754Z" stroke="#FFE72D" stroke-width="4"/>
<path d="M82.0548 70.5003C87.6317 69.5017 89.8365 70.1372 90.9649 71.1877C93.0011 73.0164 93.2216 74.9489 93.9998 76.0902C92.8844 76.4015 91.7431 77.9578 88.2802 77.9578C87.369 77.9117 86.4772 77.6776 85.6608 77.2703C84.8444 76.8629 84.1212 76.291 83.5365 75.5906C82.9518 74.8902 82.5183 74.0764 82.2633 73.2004C82.0083 72.3244 81.9373 71.4051 82.0548 70.5003Z" fill="#FFE72D"/>
<path d="M31.182 70.5003C25.6051 69.5017 23.4003 70.1372 22.2719 71.1877C20.2357 73.0164 20.0152 74.9489 19.2371 76.0902C20.3524 76.4015 21.4938 77.9578 24.9566 77.9578C25.8678 77.9117 26.7597 77.6776 27.576 77.2703C28.3924 76.8629 29.1157 76.291 29.7003 75.5906C30.285 74.8902 30.7185 74.0764 30.9735 73.2004C31.2285 72.3244 31.2995 71.4051 31.182 70.5003Z" fill="#FFE72D"/>
<path d="M74.0548 75.5003C79.6317 74.5017 81.8365 75.1372 82.9649 76.1877C85.0011 78.0164 85.2216 79.9489 85.9998 81.0902C84.8844 81.4015 83.7431 82.9578 80.2802 82.9578C79.369 82.9117 78.4772 82.6776 77.6608 82.2703C76.8444 81.8629 76.1212 81.291 75.5365 80.5906C74.9518 79.8902 74.5183 79.0764 74.2633 78.2004C74.0083 77.3244 73.9373 76.4051 74.0548 75.5003Z" fill="#FFE72D"/>
<path d="M39.182 75.5003C33.6051 74.5017 31.4003 75.1372 30.2719 76.1877C28.2357 78.0164 28.0152 79.9489 27.2371 81.0902C28.3524 81.4015 29.4938 82.9578 32.9566 82.9578C33.8678 82.9117 34.7597 82.6776 35.576 82.2703C36.3924 81.8629 37.1157 81.291 37.7003 80.5906C38.285 79.8902 38.7185 79.0764 38.9735 78.2004C39.2285 77.3244 39.2995 76.4051 39.182 75.5003Z" fill="#FFE72D"/>
<path d="M65.0548 80.5003C70.6317 79.5017 72.8365 80.1372 73.9649 81.1877C76.0011 83.0164 76.2216 84.9489 76.9998 86.0902C75.8844 86.4015 74.7431 87.9578 71.2802 87.9578C70.369 87.9117 69.4772 87.6776 68.6608 87.2703C67.8444 86.8629 67.1212 86.291 66.5365 85.5906C65.9518 84.8902 65.5183 84.0764 65.2633 83.2004C65.0083 82.3244 64.9373 81.4051 65.0548 80.5003Z" fill="#FFE72D"/>
<path d="M48.182 80.5003C42.6051 79.5017 40.4003 80.1372 39.2719 81.1877C37.2357 83.0164 37.0152 84.9489 36.2371 86.0902C37.3524 86.4015 38.4938 87.9578 41.9566 87.9578C42.8678 87.9117 43.7597 87.6776 44.576 87.2703C45.3924 86.8629 46.1157 86.291 46.7003 85.5906C47.285 84.8902 47.7185 84.0764 47.9735 83.2004C48.2285 82.3244 48.2995 81.4051 48.182 80.5003Z" fill="#FFE72D"/>
<path d="M87.1997 45.8104C87.7506 40.8207 89.7285 39.102 91.0812 38.5229C93.4587 37.4963 95.162 38.0989 96.4682 37.8639C96.3379 38.8619 97.1925 40.5169 95.821 43.4859C95.4446 44.2411 94.9124 44.9079 94.2594 45.4423C93.6064 45.9767 92.8476 46.3666 92.0329 46.5862C91.2182 46.8059 90.3662 46.8503 89.5331 46.7166C88.7 46.5828 87.9047 46.274 87.1997 45.8104Z" fill="#FFE72D"/>
<path d="M26.0371 45.8104C25.4863 40.8207 23.5083 39.102 22.1557 38.5229C19.7781 37.4963 18.0748 38.0989 16.7686 37.8639C16.8989 38.8619 16.0444 40.5169 17.4158 43.4859C17.7922 44.2411 18.3245 44.9079 18.9774 45.4423C19.6304 45.9767 20.3892 46.3666 21.2039 46.5862C22.0186 46.8059 22.8706 46.8503 23.7037 46.7166C24.5368 46.5828 25.3321 46.274 26.0371 45.8104Z" fill="#FFE72D"/>
<path d="M87.1997 55.8104C87.7506 50.8207 89.7285 49.102 91.0812 48.5229C93.4587 47.4963 95.162 48.0989 96.4682 47.8639C96.3379 48.8619 97.1925 50.5169 95.821 53.4859C95.4446 54.2411 94.9124 54.9079 94.2594 55.4423C93.6064 55.9767 92.8476 56.3666 92.0329 56.5862C91.2182 56.8059 90.3662 56.8503 89.5331 56.7166C88.7 56.5828 87.9047 56.274 87.1997 55.8104Z" fill="#FFE72D"/>
<path d="M26.0371 55.8104C25.4863 50.8207 23.5083 49.102 22.1557 48.5229C19.7781 47.4963 18.0748 48.0989 16.7686 47.8639C16.8989 48.8619 16.0444 50.5169 17.4158 53.4859C17.7922 54.2411 18.3245 54.9079 18.9774 55.4423C19.6304 55.9767 20.3892 56.3666 21.2039 56.5862C22.0186 56.8059 22.8706 56.8503 23.7037 56.7166C24.5368 56.5828 25.3321 56.274 26.0371 55.8104Z" fill="#FFE72D"/>
<path d="M87.1997 65.8104C87.7506 60.8207 89.7285 59.102 91.0812 58.5229C93.4587 57.4963 95.162 58.0989 96.4682 57.8639C96.3379 58.8619 97.1925 60.5169 95.821 63.4859C95.4446 64.2411 94.9124 64.9079 94.2594 65.4423C93.6064 65.9767 92.8476 66.3666 92.0329 66.5862C91.2182 66.8059 90.3662 66.8503 89.5331 66.7166C88.7 66.5828 87.9047 66.274 87.1997 65.8104Z" fill="#FFE72D"/>
<path d="M26.0371 65.8104C25.4863 60.8207 23.5083 59.102 22.1557 58.5229C19.7781 57.4963 18.0748 58.0989 16.7686 57.8639C16.8989 58.8619 16.0444 60.5169 17.4158 63.4859C17.7922 64.2411 18.3245 64.9079 18.9774 65.4423C19.6304 65.9767 20.3892 66.3666 21.2039 66.5862C22.0186 66.8059 22.8706 66.8503 23.7037 66.7166C24.5368 66.5828 25.3321 66.274 26.0371 65.8104Z" fill="#FFE72D"/>
<path d="M54.4438 17.5205C56.0191 16.5835 57.9809 16.5835 59.5562 17.5205L83.135 31.5463C84.6503 32.4477 85.5788 34.0804 85.5788 35.8435V64.1565C85.5788 65.9196 84.6503 67.5523 83.135 68.4537L59.5562 82.4795C57.9809 83.4165 56.0191 83.4165 54.4438 82.4795L30.865 68.4537C29.3497 67.5523 28.4212 65.9196 28.4212 64.1565V35.8435C28.4212 34.0804 29.3497 32.4477 30.865 31.5463L54.4438 17.5205Z" fill="#ECAE0F"/>
<path d="M54.4383 20.5283C56.0163 19.5868 57.9837 19.5868 59.5617 20.5283L80.5425 33.0453C82.0546 33.9475 82.9808 35.5785 82.9808 37.3392V62.6608C82.9808 64.4215 82.0546 66.0525 80.5425 66.9547L59.5617 79.4717C57.9837 80.4132 56.0163 80.4132 54.4383 79.4717L33.4575 66.9547C31.9454 66.0525 31.0192 64.4215 31.0192 62.6608V37.3392C31.0192 35.5785 31.9454 33.9475 33.4575 33.0453L54.4383 20.5283Z" fill="#FFE72D"/>
</g>
<path d="M67.6667 34H58.0667V45.7333C58.0667 46.3733 57.64 46.8 57 46.8C56.36 46.8 55.9333 46.3733 55.9333 45.7333V34H46.3333C43.3467 34 41 36.3467 41 39.3333V60.6667C41 63.6533 43.3467 66 46.3333 66H55.9333V58.5333C55.9333 57.8933 56.36 57.4667 57 57.4667C57.64 57.4667 58.0667 57.8933 58.0667 58.5333V66H67.6667C70.6533 66 73 63.6533 73 60.6667V39.3333C73 36.3467 70.6533 34 67.6667 34ZM49.5333 60.1333C49.5333 61.6267 48.36 62.8 46.8667 62.8C45.3733 62.8 44.2 61.6267 44.2 60.1333V52.6667C44.2 51.1733 45.3733 50 46.8667 50C48.36 50 49.5333 51.1733 49.5333 52.6667V60.1333ZM55.9333 55.3333C54.12 55.3333 52.7333 53.9467 52.7333 52.1333C52.7333 50.32 54.12 48.9333 55.9333 48.9333C57.7467 48.9333 59.1333 50.32 59.1333 52.1333C59.1333 53.9467 57.7467 55.3333 55.9333 55.3333ZM69.8 47.3333C69.8 47.3333 69.8 38.3733 69.8 39.8667V47.3333Z" fill="#ECAE0F"/>
<path d="M76.0455 54H70.636V51.8182C70.636 51.5289 70.5355 51.2514 70.3565 51.0468C70.1775 50.8422 69.9347 50.7273 69.6815 50.7273H63.3185C63.0653 50.7273 62.8225 50.8422 62.6435 51.0468C62.4645 51.2514 62.364 51.5289 62.364 51.8182V57.2727H56.9545C56.7014 57.2727 56.4586 57.3877 56.2796 57.5922C56.1006 57.7968 56 58.0743 56 58.3636V64.9091C56 65.1984 56.1006 65.4759 56.2796 65.6805C56.4586 65.8851 56.7014 66 56.9545 66H76.0455C76.2986 66 76.5414 65.8851 76.7204 65.6805C76.8994 65.4759 77 65.1984 77 64.9091V55.0909C77 54.8016 76.8994 54.5241 76.7204 54.3195C76.5414 54.1149 76.2986 54 76.0455 54ZM62.364 63.8182H57.9091V59.4545H62.364V63.8182ZM68.727 55.0909V63.8182H64.273V52.9091H68.727V55.0909ZM75.0909 63.8182H70.636V56.1818H75.0909V63.8182ZM69.3636 44.5004L67.7724 46.0004L68.2697 48.5455L66.5 47.0913L64.7303 48.5455L65.2276 46.0004L63.6364 44.5004L65.5455 44.1818L66.5 42L67.4545 44.1818L69.3636 44.5004Z" fill="#FFE72D"/>
<defs>
<filter id="filter0_d_1923_3371" x="0.623779" y="0.773438" width="111.989" height="105.185" filterUnits="userSpaceOnUse" color-interpolation-filters="sRGB">
<feFlood flood-opacity="0" result="BackgroundImageFix"/>
<feColorMatrix in="SourceAlpha" type="matrix" values="0 0 0 0 0 0 0 0 0 0 0 0 0 0 0 0 0 0 127 0" result="hardAlpha"/>
<feOffset dy="2"/>
<feGaussianBlur stdDeviation="8"/>
<feComposite in2="hardAlpha" operator="out"/>
<feColorMatrix type="matrix" values="0 0 0 0 1 0 0 0 0 0.905882 0 0 0 0 0.176471 0 0 0 1 0"/>
<feBlend mode="normal" in2="BackgroundImageFix" result="effect1_dropShadow_1923_3371"/>
<feBlend mode="normal" in="SourceGraphic" in2="effect1_dropShadow_1923_3371" result="shape"/>
</filter>
</defs>
</svg>
