<svg width="113" height="106" viewBox="0 0 113 106" fill="none" xmlns="http://www.w3.org/2000/svg">
<g filter="url(#filter0_d_1923_3837)">
<path d="M55.4998 17.1754C56.428 16.6395 57.5716 16.6395 58.4998 17.1754L84.6767 32.2887C85.6049 32.8246 86.1767 33.815 86.1767 34.8868V65.1133C86.1767 66.185 85.6049 67.1754 84.6767 67.7113L58.4998 82.8246C57.5716 83.3605 56.428 83.3605 55.4998 82.8246L29.3228 67.7113C28.3946 67.1754 27.8228 66.185 27.8228 65.1133V34.8867C27.8228 33.815 28.3946 32.8246 29.3228 32.2887L55.4998 17.1754Z" stroke="#CD7F32" stroke-width="4"/>
<path d="M82.0548 70.5003C87.6317 69.5017 89.8365 70.1372 90.9649 71.1877C93.0011 73.0164 93.2216 74.9489 93.9998 76.0902C92.8844 76.4015 91.7431 77.9578 88.2802 77.9578C87.369 77.9117 86.4772 77.6776 85.6608 77.2703C84.8444 76.8629 84.1212 76.291 83.5365 75.5906C82.9518 74.8902 82.5183 74.0764 82.2633 73.2004C82.0083 72.3244 81.9373 71.4051 82.0548 70.5003Z" fill="#FFE72D"/>
<path d="M31.182 70.5003C25.6051 69.5017 23.4003 70.1372 22.2719 71.1877C20.2357 73.0164 20.0152 74.9489 19.2371 76.0902C20.3524 76.4015 21.4938 77.9578 24.9566 77.9578C25.8678 77.9117 26.7597 77.6776 27.576 77.2703C28.3924 76.8629 29.1157 76.291 29.7003 75.5906C30.285 74.8902 30.7185 74.0764 30.9735 73.2004C31.2285 72.3244 31.2995 71.4051 31.182 70.5003Z" fill="#FFE72D"/>
<path d="M74.0548 75.5003C79.6317 74.5017 81.8365 75.1372 82.9649 76.1877C85.0011 78.0164 85.2216 79.9489 85.9998 81.0902C84.8844 81.4015 83.7431 82.9578 80.2802 82.9578C79.369 82.9117 78.4772 82.6776 77.6608 82.2703C76.8444 81.8629 76.1212 81.291 75.5365 80.5906C74.9518 79.8902 74.5183 79.0764 74.2633 78.2004C74.0083 77.3244 73.9373 76.4051 74.0548 75.5003Z" fill="#FFE72D"/>
<path d="M39.182 75.5003C33.6051 74.5017 31.4003 75.1372 30.2719 76.1877C28.2357 78.0164 28.0152 79.9489 27.2371 81.0902C28.3524 81.4015 29.4938 82.9578 32.9566 82.9578C33.8678 82.9117 34.7597 82.6776 35.576 82.2703C36.3924 81.8629 37.1157 81.291 37.7003 80.5906C38.285 79.8902 38.7185 79.0764 38.9735 78.2004C39.2285 77.3244 39.2995 76.4051 39.182 75.5003Z" fill="#FFE72D"/>
<path d="M65.0548 80.5003C70.6317 79.5017 72.8365 80.1372 73.9649 81.1877C76.0011 83.0164 76.2216 84.9489 76.9998 86.0902C75.8844 86.4015 74.7431 87.9578 71.2802 87.9578C70.369 87.9117 69.4772 87.6776 68.6608 87.2703C67.8444 86.8629 67.1212 86.291 66.5365 85.5906C65.9518 84.8902 65.5183 84.0764 65.2633 83.2004C65.0083 82.3244 64.9373 81.4051 65.0548 80.5003Z" fill="#FFE72D"/>
<path d="M48.182 80.5003C42.6051 79.5017 40.4003 80.1372 39.2719 81.1877C37.2357 83.0164 37.0152 84.9489 36.2371 86.0902C37.3524 86.4015 38.4938 87.9578 41.9566 87.9578C42.8678 87.9117 43.7597 87.6776 44.576 87.2703C45.3924 86.8629 46.1157 86.291 46.7003 85.5906C47.285 84.8902 47.7185 84.0764 47.9735 83.2004C48.2285 82.3244 48.2995 81.4051 48.182 80.5003Z" fill="#FFE72D"/>
<path d="M87.1997 45.8104C87.7506 40.8207 89.7285 39.102 91.0812 38.5229C93.4587 37.4963 95.162 38.0989 96.4682 37.8639C96.3379 38.8619 97.1925 40.5169 95.821 43.4859C95.4446 44.2411 94.9124 44.9079 94.2594 45.4423C93.6064 45.9767 92.8476 46.3666 92.0329 46.5862C91.2182 46.8059 90.3662 46.8503 89.5331 46.7166C88.7 46.5828 87.9047 46.274 87.1997 45.8104Z" fill="#FFE72D"/>
<path d="M26.0371 45.8104C25.4863 40.8207 23.5083 39.102 22.1557 38.5229C19.7781 37.4963 18.0748 38.0989 16.7686 37.8639C16.8989 38.8619 16.0444 40.5169 17.4158 43.4859C17.7922 44.2411 18.3245 44.9079 18.9774 45.4423C19.6304 45.9767 20.3892 46.3666 21.2039 46.5862C22.0186 46.8059 22.8706 46.8503 23.7037 46.7166C24.5368 46.5828 25.3321 46.274 26.0371 45.8104Z" fill="#FFE72D"/>
<path d="M87.1997 55.8104C87.7506 50.8207 89.7285 49.102 91.0812 48.5229C93.4587 47.4963 95.162 48.0989 96.4682 47.8639C96.3379 48.8619 97.1925 50.5169 95.821 53.4859C95.4446 54.2411 94.9124 54.9079 94.2594 55.4423C93.6064 55.9767 92.8476 56.3666 92.0329 56.5862C91.2182 56.8059 90.3662 56.8503 89.5331 56.7166C88.7 56.5828 87.9047 56.274 87.1997 55.8104Z" fill="#FFE72D"/>
<path d="M26.0371 55.8104C25.4863 50.8207 23.5083 49.102 22.1557 48.5229C19.7781 47.4963 18.0748 48.0989 16.7686 47.8639C16.8989 48.8619 16.0444 50.5169 17.4158 53.4859C17.7922 54.2411 18.3245 54.9079 18.9774 55.4423C19.6304 55.9767 20.3892 56.3666 21.2039 56.5862C22.0186 56.8059 22.8706 56.8503 23.7037 56.7166C24.5368 56.5828 25.3321 56.274 26.0371 55.8104Z" fill="#FFE72D"/>
<path d="M87.1997 65.8104C87.7506 60.8207 89.7285 59.102 91.0812 58.5229C93.4587 57.4963 95.162 58.0989 96.4682 57.8639C96.3379 58.8619 97.1925 60.5169 95.821 63.4859C95.4446 64.2411 94.9124 64.9079 94.2594 65.4423C93.6064 65.9767 92.8476 66.3666 92.0329 66.5862C91.2182 66.8059 90.3662 66.8503 89.5331 66.7166C88.7 66.5828 87.9047 66.274 87.1997 65.8104Z" fill="#FFE72D"/>
<path d="M26.0371 65.8104C25.4863 60.8207 23.5083 59.102 22.1557 58.5229C19.7781 57.4963 18.0748 58.0989 16.7686 57.8639C16.8989 58.8619 16.0444 60.5169 17.4158 63.4859C17.7922 64.2411 18.3245 64.9079 18.9774 65.4423C19.6304 65.9767 20.3892 66.3666 21.2039 66.5862C22.0186 66.8059 22.8706 66.8503 23.7037 66.7166C24.5368 66.5828 25.3321 66.274 26.0371 65.8104Z" fill="#FFE72D"/>
<path d="M55.4998 17.1754C56.428 16.6395 57.5716 16.6395 58.4998 17.1754L84.6767 32.2887C85.6049 32.8246 86.1767 33.815 86.1767 34.8868V65.1133C86.1767 66.185 85.6049 67.1754 84.6767 67.7113L58.4998 82.8246C57.5716 83.3605 56.428 83.3605 55.4998 82.8246L29.3228 67.7113C28.3946 67.1754 27.8228 66.185 27.8228 65.1133V34.8867C27.8228 33.815 28.3946 32.8246 29.3228 32.2887L55.4998 17.1754Z" stroke="#CD7F32" stroke-width="4"/>
<path d="M82.0548 70.5003C87.6317 69.5017 89.8365 70.1372 90.9649 71.1877C93.0011 73.0164 93.2216 74.9489 93.9998 76.0902C92.8844 76.4015 91.7431 77.9578 88.2802 77.9578C87.369 77.9117 86.4772 77.6776 85.6608 77.2703C84.8444 76.8629 84.1212 76.291 83.5365 75.5906C82.9518 74.8902 82.5183 74.0764 82.2633 73.2004C82.0083 72.3244 81.9373 71.4051 82.0548 70.5003Z" fill="#CD7F32"/>
<path d="M31.182 70.5003C25.6051 69.5017 23.4003 70.1372 22.2719 71.1877C20.2357 73.0164 20.0152 74.9489 19.2371 76.0902C20.3524 76.4015 21.4938 77.9578 24.9566 77.9578C25.8678 77.9117 26.7597 77.6776 27.576 77.2703C28.3924 76.8629 29.1157 76.291 29.7003 75.5906C30.285 74.8902 30.7185 74.0764 30.9735 73.2004C31.2285 72.3244 31.2995 71.4051 31.182 70.5003Z" fill="#CD7F32"/>
<path d="M74.0548 75.5003C79.6317 74.5017 81.8365 75.1372 82.9649 76.1877C85.0011 78.0164 85.2216 79.9489 85.9998 81.0902C84.8844 81.4015 83.7431 82.9578 80.2802 82.9578C79.369 82.9117 78.4772 82.6776 77.6608 82.2703C76.8444 81.8629 76.1212 81.291 75.5365 80.5906C74.9518 79.8902 74.5183 79.0764 74.2633 78.2004C74.0083 77.3244 73.9373 76.4051 74.0548 75.5003Z" fill="#CD7F32"/>
<path d="M39.182 75.5003C33.6051 74.5017 31.4003 75.1372 30.2719 76.1877C28.2357 78.0164 28.0152 79.9489 27.2371 81.0902C28.3524 81.4015 29.4938 82.9578 32.9566 82.9578C33.8678 82.9117 34.7597 82.6776 35.576 82.2703C36.3924 81.8629 37.1157 81.291 37.7003 80.5906C38.285 79.8902 38.7185 79.0764 38.9735 78.2004C39.2285 77.3244 39.2995 76.4051 39.182 75.5003Z" fill="#CD7F32"/>
<path d="M65.0548 80.5003C70.6317 79.5017 72.8365 80.1372 73.9649 81.1877C76.0011 83.0164 76.2216 84.9489 76.9998 86.0902C75.8844 86.4015 74.7431 87.9578 71.2802 87.9578C70.369 87.9117 69.4772 87.6776 68.6608 87.2703C67.8444 86.8629 67.1212 86.291 66.5365 85.5906C65.9518 84.8902 65.5183 84.0764 65.2633 83.2004C65.0083 82.3244 64.9373 81.4051 65.0548 80.5003Z" fill="#CD7F32"/>
<path d="M48.182 80.5003C42.6051 79.5017 40.4003 80.1372 39.2719 81.1877C37.2357 83.0164 37.0152 84.9489 36.2371 86.0902C37.3524 86.4015 38.4938 87.9578 41.9566 87.9578C42.8678 87.9117 43.7597 87.6776 44.576 87.2703C45.3924 86.8629 46.1157 86.291 46.7003 85.5906C47.285 84.8902 47.7185 84.0764 47.9735 83.2004C48.2285 82.3244 48.2995 81.4051 48.182 80.5003Z" fill="#CD7F32"/>
<path d="M87.1997 45.8104C87.7506 40.8207 89.7285 39.102 91.0812 38.5229C93.4587 37.4963 95.162 38.0989 96.4682 37.8639C96.3379 38.8619 97.1925 40.5169 95.821 43.4859C95.4446 44.2411 94.9124 44.9079 94.2594 45.4423C93.6064 45.9767 92.8476 46.3666 92.0329 46.5862C91.2182 46.8059 90.3662 46.8503 89.5331 46.7166C88.7 46.5828 87.9047 46.274 87.1997 45.8104Z" fill="#CD7F32"/>
<path d="M26.0371 45.8104C25.4863 40.8207 23.5083 39.102 22.1557 38.5229C19.7781 37.4963 18.0748 38.0989 16.7686 37.8639C16.8989 38.8619 16.0444 40.5169 17.4158 43.4859C17.7922 44.2411 18.3245 44.9079 18.9774 45.4423C19.6304 45.9767 20.3892 46.3666 21.2039 46.5862C22.0186 46.8059 22.8706 46.8503 23.7037 46.7166C24.5368 46.5828 25.3321 46.274 26.0371 45.8104Z" fill="#CD7F32"/>
<path d="M87.1997 55.8104C87.7506 50.8207 89.7285 49.102 91.0812 48.5229C93.4587 47.4963 95.162 48.0989 96.4682 47.8639C96.3379 48.8619 97.1925 50.5169 95.821 53.4859C95.4446 54.2411 94.9124 54.9079 94.2594 55.4423C93.6064 55.9767 92.8476 56.3666 92.0329 56.5862C91.2182 56.8059 90.3662 56.8503 89.5331 56.7166C88.7 56.5828 87.9047 56.274 87.1997 55.8104Z" fill="#CD7F32"/>
<path d="M26.0371 55.8104C25.4863 50.8207 23.5083 49.102 22.1557 48.5229C19.7781 47.4963 18.0748 48.0989 16.7686 47.8639C16.8989 48.8619 16.0444 50.5169 17.4158 53.4859C17.7922 54.2411 18.3245 54.9079 18.9774 55.4423C19.6304 55.9767 20.3892 56.3666 21.2039 56.5862C22.0186 56.8059 22.8706 56.8503 23.7037 56.7166C24.5368 56.5828 25.3321 56.274 26.0371 55.8104Z" fill="#CD7F32"/>
<path d="M87.1997 65.8104C87.7506 60.8207 89.7285 59.102 91.0812 58.5229C93.4587 57.4963 95.162 58.0989 96.4682 57.8639C96.3379 58.8619 97.1925 60.5169 95.821 63.4859C95.4446 64.2411 94.9124 64.9079 94.2594 65.4423C93.6064 65.9767 92.8476 66.3666 92.0329 66.5862C91.2182 66.8059 90.3662 66.8503 89.5331 66.7166C88.7 66.5828 87.9047 66.274 87.1997 65.8104Z" fill="#CD7F32"/>
<path d="M26.0371 65.8104C25.4863 60.8207 23.5083 59.102 22.1557 58.5229C19.7781 57.4963 18.0748 58.0989 16.7686 57.8639C16.8989 58.8619 16.0444 60.5169 17.4158 63.4859C17.7922 64.2411 18.3245 64.9079 18.9774 65.4423C19.6304 65.9767 20.3892 66.3666 21.2039 66.5862C22.0186 66.8059 22.8706 66.8503 23.7037 66.7166C24.5368 66.5828 25.3321 66.274 26.0371 65.8104Z" fill="#CD7F32"/>
<path d="M54.4438 17.5205C56.0191 16.5835 57.9809 16.5835 59.5562 17.5205L83.135 31.5463C84.6503 32.4477 85.5788 34.0804 85.5788 35.8435V64.1565C85.5788 65.9196 84.6503 67.5523 83.135 68.4537L59.5562 82.4795C57.9809 83.4165 56.0191 83.4165 54.4438 82.4795L30.865 68.4537C29.3497 67.5523 28.4212 65.9196 28.4212 64.1565V35.8435C28.4212 34.0804 29.3497 32.4477 30.865 31.5463L54.4438 17.5205Z" fill="#712E00"/>
<path d="M54.4383 20.5283C56.0163 19.5868 57.9837 19.5868 59.5617 20.5283L80.5425 33.0453C82.0546 33.9475 82.9808 35.5785 82.9808 37.3392V62.6608C82.9808 64.4215 82.0546 66.0525 80.5425 66.9547L59.5617 79.4717C57.9837 80.4132 56.0163 80.4132 54.4383 79.4717L33.4575 66.9547C31.9454 66.0525 31.0192 64.4215 31.0192 62.6608V37.3392C31.0192 35.5785 31.9454 33.9475 33.4575 33.0453L54.4383 20.5283Z" fill="#CD7F32"/>
</g>
<path d="M42.9224 50.5405C42.9224 49.0652 44.1184 47.8691 45.5937 47.8691H66.9648C68.4401 47.8691 69.6362 49.0652 69.6362 50.5405C69.6362 52.0159 68.4401 53.2119 66.9648 53.2119H45.5937C44.1184 53.2119 42.9224 52.0159 42.9224 50.5405Z" fill="url(#paint0_linear_1923_3837)"/>
<path d="M42.9224 50.5405C42.9224 49.0652 44.1184 47.8691 45.5937 47.8691H66.9648C68.4401 47.8691 69.6362 49.0652 69.6362 50.5405C69.6362 52.0159 68.4401 53.2119 66.9648 53.2119H45.5937C44.1184 53.2119 42.9224 52.0159 42.9224 50.5405Z" fill="url(#paint1_radial_1923_3837)" fill-opacity="0.13"/>
<path d="M42.9224 50.5405C42.9224 49.0652 44.1184 47.8691 45.5937 47.8691H66.9648C68.4401 47.8691 69.6362 49.0652 69.6362 50.5405C69.6362 52.0159 68.4401 53.2119 66.9648 53.2119H45.5937C44.1184 53.2119 42.9224 52.0159 42.9224 50.5405Z" fill="url(#paint2_diamond_1923_3837)" fill-opacity="0.35"/>
<circle cx="68.1096" cy="49.3958" r="2.953" fill="#712E00" stroke="#9F5A2A" stroke-width="0.2"/>
<path d="M79.5585 41.5578V54.944C79.5585 55.2519 78.9202 55.5018 78.1337 55.5018C77.3473 55.5018 76.709 55.2519 76.709 54.944V42.1155H38.2411C37.4547 42.1155 36.8164 41.8656 36.8164 41.5578C36.8164 41.2499 37.4547 41 38.2411 41H78.1337C78.9202 41 79.5585 41.2499 79.5585 41.5578Z" fill="#56331B"/>
<path d="M79.7495 57.3149C79.7495 58.1048 79.1084 58.746 78.3184 58.746H66.8697C66.0797 58.746 65.4386 58.1048 65.4386 57.3149C65.4386 56.5249 66.0797 55.8838 66.8697 55.8838H78.3184C79.1084 55.8838 79.7495 56.5249 79.7495 57.3149ZM62.5764 55.8838H59.7142C58.9242 55.8838 58.2831 56.5249 58.2831 57.3149C58.2831 58.1048 58.9242 58.746 59.7142 58.746H62.5764C63.3663 58.746 64.0075 58.1048 64.0075 57.3149C64.0075 56.5249 63.3663 55.8838 62.5764 55.8838ZM55.4209 55.8838H38.2477C37.4578 55.8838 36.8167 56.5249 36.8167 57.3149C36.8167 58.1048 37.4578 58.746 38.2477 58.746H55.4209C56.2109 58.746 56.852 58.1048 56.852 57.3149C56.852 56.5249 56.2109 55.8838 55.4209 55.8838Z" fill="#712E00"/>
<path d="M70.1139 55.5423L69.9983 55.6796C69.9324 55.7584 69.8507 55.8221 69.7626 55.8695C69.5469 55.9854 69.2888 56.0027 69.0974 55.8945C68.8284 55.7421 68.7952 55.3985 69.0235 55.1273L69.948 54.029C69.9638 54.0103 69.9852 53.9994 70.0021 53.9831C70.0322 53.9531 70.0573 53.9209 70.0934 53.895C70.1032 53.8879 70.1141 53.8856 70.1242 53.879C70.1556 53.8585 70.1876 53.8449 70.2207 53.8289C70.2623 53.809 70.3029 53.7902 70.3454 53.7776C70.38 53.7674 70.4131 53.7628 70.448 53.7572C70.4921 53.7504 70.5339 53.7465 70.5765 53.7483C70.6096 53.7492 70.6404 53.753 70.6723 53.7588C70.7159 53.7666 70.7563 53.7798 70.7953 53.7973C70.812 53.8045 70.8318 53.8047 70.8479 53.8135C70.8588 53.8197 70.8631 53.8306 70.8737 53.8375C70.8856 53.8455 70.9015 53.8484 70.9125 53.8575L72.2524 54.9412C72.4867 55.1304 72.4623 55.4838 72.1983 55.731C71.9662 55.9489 71.6273 56.0102 71.3891 55.8941C71.0738 59.8447 65.3091 64.7683 65.0231 65.0099C64.9791 65.0492 64.9304 65.0813 64.8805 65.1082C64.6208 65.2478 64.3094 65.2378 64.1274 65.0668C63.9097 64.8633 63.9583 64.5071 64.2365 64.2722C64.3041 64.2148 70.426 58.9848 70.1139 55.5423Z" fill="#56331B"/>
<line x1="33.5" y1="48.1328" x2="40.1325" y2="48.1328" stroke="#712E00" stroke-opacity="0.38" stroke-linecap="round"/>
<line x1="35.0266" y1="50.4219" x2="41.6591" y2="50.4219" stroke="#712E00" stroke-opacity="0.38" stroke-linecap="round"/>
<line x1="33.5" y1="52.7119" x2="40.1325" y2="52.7119" stroke="#712E00" stroke-opacity="0.38" stroke-linecap="round"/>
<defs>
<filter id="filter0_d_1923_3837" x="0.623779" y="0.773438" width="111.989" height="105.185" filterUnits="userSpaceOnUse" color-interpolation-filters="sRGB">
<feFlood flood-opacity="0" result="BackgroundImageFix"/>
<feColorMatrix in="SourceAlpha" type="matrix" values="0 0 0 0 0 0 0 0 0 0 0 0 0 0 0 0 0 0 127 0" result="hardAlpha"/>
<feOffset dy="2"/>
<feGaussianBlur stdDeviation="8"/>
<feComposite in2="hardAlpha" operator="out"/>
<feColorMatrix type="matrix" values="0 0 0 0 0.803922 0 0 0 0 0.498039 0 0 0 0 0.196078 0 0 0 1 0"/>
<feBlend mode="normal" in2="BackgroundImageFix" result="effect1_dropShadow_1923_3837"/>
<feBlend mode="normal" in="SourceGraphic" in2="effect1_dropShadow_1923_3837" result="shape"/>
</filter>
<linearGradient id="paint0_linear_1923_3837" x1="56.2793" y1="47.8691" x2="56.2793" y2="53.2119" gradientUnits="userSpaceOnUse">
<stop offset="0.25" stop-color="#712E00"/>
<stop offset="1" stop-color="#C55000"/>
</linearGradient>
<radialGradient id="paint1_radial_1923_3837" cx="0" cy="0" r="1" gradientUnits="userSpaceOnUse" gradientTransform="translate(56.2793 50.5405) rotate(90) scale(2.67138 13.3569)">
<stop offset="0.567708" stop-opacity="0"/>
<stop offset="1" stop-opacity="0.64"/>
</radialGradient>
<radialGradient id="paint2_diamond_1923_3837" cx="0" cy="0" r="1" gradientUnits="userSpaceOnUse" gradientTransform="translate(56.1845 52.2769) rotate(-91.3543) scale(4.00819 6.59052)">
<stop stop-color="white"/>
<stop offset="0.645833" stop-color="#FFE72D" stop-opacity="0.28"/>
</radialGradient>
</defs>
</svg>
