<svg width="113" height="106" viewBox="0 0 113 106" fill="none" xmlns="http://www.w3.org/2000/svg">
<g filter="url(#filter0_d_1923_3220)">
<path d="M54.4998 19.4434C56.0468 18.5502 57.9528 18.5502 59.4998 19.4434L82.2126 32.5566C83.7596 33.4498 84.7126 35.1004 84.7126 36.8868V63.1133C84.7126 64.8996 83.7596 66.5502 82.2126 67.4434L59.4998 80.5566C57.9528 81.4498 56.0468 81.4498 54.4998 80.5566L31.7869 67.4434C30.2399 66.5502 29.2869 64.8996 29.2869 63.1133V36.8868C29.2869 35.1004 30.2399 33.4498 31.7869 32.5566L54.4998 19.4434Z" fill="white"/>
<path d="M54.7498 15.8764C56.1421 15.0725 57.8575 15.0725 59.2498 15.8764L85.4267 30.9896C86.819 31.7935 87.6767 33.2791 87.6767 34.8868V65.1133C87.6767 66.7209 86.819 68.2065 85.4267 69.0104L59.2498 84.1236C57.8575 84.9275 56.1421 84.9275 54.7498 84.1236L28.5728 69.0104C27.1805 68.2065 26.3228 66.7209 26.3228 65.1133V34.8867C26.3228 33.2791 27.1805 31.7935 28.5728 30.9896L54.7498 15.8764Z" stroke="white"/>
<path d="M82.0548 70.5003C87.6317 69.5017 89.8365 70.1372 90.9649 71.1877C93.0011 73.0164 93.2216 74.9489 93.9998 76.0902C92.8844 76.4015 91.7431 77.9578 88.2802 77.9578C87.369 77.9117 86.4772 77.6776 85.6608 77.2703C84.8444 76.8629 84.1212 76.291 83.5365 75.5906C82.9518 74.8902 82.5183 74.0764 82.2633 73.2004C82.0083 72.3244 81.9373 71.4051 82.0548 70.5003Z" fill="white"/>
<path d="M31.182 70.5003C25.6051 69.5017 23.4003 70.1372 22.2719 71.1877C20.2357 73.0164 20.0152 74.9489 19.2371 76.0902C20.3524 76.4015 21.4938 77.9578 24.9566 77.9578C25.8678 77.9117 26.7597 77.6776 27.576 77.2703C28.3924 76.8629 29.1157 76.291 29.7003 75.5906C30.285 74.8902 30.7185 74.0764 30.9735 73.2004C31.2285 72.3244 31.2995 71.4051 31.182 70.5003Z" fill="white"/>
<path d="M74.0548 75.5003C79.6317 74.5017 81.8365 75.1372 82.9649 76.1877C85.0011 78.0164 85.2216 79.9489 85.9998 81.0902C84.8844 81.4015 83.7431 82.9578 80.2802 82.9578C79.369 82.9117 78.4772 82.6776 77.6608 82.2703C76.8444 81.8629 76.1212 81.291 75.5365 80.5906C74.9518 79.8902 74.5183 79.0764 74.2633 78.2004C74.0083 77.3244 73.9373 76.4051 74.0548 75.5003Z" fill="white"/>
<path d="M39.182 75.5003C33.6051 74.5017 31.4003 75.1372 30.2719 76.1877C28.2357 78.0164 28.0152 79.9489 27.2371 81.0902C28.3524 81.4015 29.4938 82.9578 32.9566 82.9578C33.8678 82.9117 34.7597 82.6776 35.576 82.2703C36.3924 81.8629 37.1157 81.291 37.7003 80.5906C38.285 79.8902 38.7185 79.0764 38.9735 78.2004C39.2285 77.3244 39.2995 76.4051 39.182 75.5003Z" fill="white"/>
<path d="M65.0548 80.5003C70.6317 79.5017 72.8365 80.1372 73.9649 81.1877C76.0011 83.0164 76.2216 84.9489 76.9998 86.0902C75.8844 86.4015 74.7431 87.9578 71.2802 87.9578C70.369 87.9117 69.4772 87.6776 68.6608 87.2703C67.8444 86.8629 67.1212 86.291 66.5365 85.5906C65.9518 84.8902 65.5183 84.0764 65.2633 83.2004C65.0083 82.3244 64.9373 81.4051 65.0548 80.5003Z" fill="white"/>
<path d="M48.182 80.5003C42.6051 79.5017 40.4003 80.1372 39.2719 81.1877C37.2357 83.0164 37.0152 84.9489 36.2371 86.0902C37.3524 86.4015 38.4938 87.9578 41.9566 87.9578C42.8678 87.9117 43.7597 87.6776 44.576 87.2703C45.3924 86.8629 46.1157 86.291 46.7003 85.5906C47.285 84.8902 47.7185 84.0764 47.9735 83.2004C48.2285 82.3244 48.2995 81.4051 48.182 80.5003Z" fill="white"/>
<path d="M87.1997 45.8104C87.7506 40.8207 89.7285 39.102 91.0812 38.5229C93.4587 37.4963 95.162 38.0989 96.4682 37.8639C96.3379 38.8619 97.1925 40.5169 95.821 43.4859C95.4446 44.2411 94.9124 44.9079 94.2594 45.4423C93.6064 45.9767 92.8476 46.3666 92.0329 46.5862C91.2182 46.8059 90.3662 46.8503 89.5331 46.7166C88.7 46.5828 87.9047 46.274 87.1997 45.8104Z" fill="white"/>
<path d="M26.0371 45.8104C25.4863 40.8207 23.5083 39.102 22.1557 38.5229C19.7781 37.4963 18.0748 38.0989 16.7686 37.8639C16.8989 38.8619 16.0444 40.5169 17.4158 43.4859C17.7922 44.2411 18.3245 44.9079 18.9774 45.4423C19.6304 45.9767 20.3892 46.3666 21.2039 46.5862C22.0186 46.8059 22.8706 46.8503 23.7037 46.7166C24.5368 46.5828 25.3321 46.274 26.0371 45.8104Z" fill="white"/>
<path d="M87.1997 55.8104C87.7506 50.8207 89.7285 49.102 91.0812 48.5229C93.4587 47.4963 95.162 48.0989 96.4682 47.8639C96.3379 48.8619 97.1925 50.5169 95.821 53.4859C95.4446 54.2411 94.9124 54.9079 94.2594 55.4423C93.6064 55.9767 92.8476 56.3666 92.0329 56.5862C91.2182 56.8059 90.3662 56.8503 89.5331 56.7166C88.7 56.5828 87.9047 56.274 87.1997 55.8104Z" fill="white"/>
<path d="M26.0371 55.8104C25.4863 50.8207 23.5083 49.102 22.1557 48.5229C19.7781 47.4963 18.0748 48.0989 16.7686 47.8639C16.8989 48.8619 16.0444 50.5169 17.4158 53.4859C17.7922 54.2411 18.3245 54.9079 18.9774 55.4423C19.6304 55.9767 20.3892 56.3666 21.2039 56.5862C22.0186 56.8059 22.8706 56.8503 23.7037 56.7166C24.5368 56.5828 25.3321 56.274 26.0371 55.8104Z" fill="white"/>
<path d="M87.1997 65.8104C87.7506 60.8207 89.7285 59.102 91.0812 58.5229C93.4587 57.4963 95.162 58.0989 96.4682 57.8639C96.3379 58.8619 97.1925 60.5169 95.821 63.4859C95.4446 64.2411 94.9124 64.9079 94.2594 65.4423C93.6064 65.9767 92.8476 66.3666 92.0329 66.5862C91.2182 66.8059 90.3662 66.8503 89.5331 66.7166C88.7 66.5828 87.9047 66.274 87.1997 65.8104Z" fill="white"/>
<path d="M26.0371 65.8104C25.4863 60.8207 23.5083 59.102 22.1557 58.5229C19.7781 57.4963 18.0748 58.0989 16.7686 57.8639C16.8989 58.8619 16.0444 60.5169 17.4158 63.4859C17.7922 64.2411 18.3245 64.9079 18.9774 65.4423C19.6304 65.9767 20.3892 66.3666 21.2039 66.5862C22.0186 66.8059 22.8706 66.8503 23.7037 66.7166C24.5368 66.5828 25.3321 66.274 26.0371 65.8104Z" fill="white"/>
<path d="M54.7497 15.8764C56.142 15.0725 57.8574 15.0725 59.2497 15.8764L85.4266 30.9896C86.8189 31.7935 87.6766 33.2791 87.6766 34.8868V65.1133C87.6766 66.7209 86.8189 68.2065 85.4266 69.0104L59.2497 84.1236C57.8574 84.9275 56.142 84.9275 54.7497 84.1236L28.5728 69.0104C27.1804 68.2065 26.3228 66.7209 26.3228 65.1133V34.8867C26.3228 33.2791 27.1804 31.7935 28.5728 30.9896L54.7497 15.8764Z" fill="#434343" stroke="white"/>
<path d="M54.5 19.4434C56.047 18.5502 57.953 18.5502 59.5 19.4434L82.2128 32.5566C83.7598 33.4498 84.7128 35.1004 84.7128 36.8868V63.1133C84.7128 64.8996 83.7598 66.5502 82.2128 67.4434L59.5 80.5566C57.953 81.4498 56.047 81.4498 54.5 80.5566L31.7872 67.4434C30.2402 66.5502 29.2872 64.8996 29.2872 63.1133V36.8868C29.2872 35.1004 30.2402 33.4498 31.7872 32.5566L54.5 19.4434Z" fill="#D9D9D9"/>
<path d="M82.0548 70.5003C87.6317 69.5017 89.8365 70.1372 90.9649 71.1877C93.0011 73.0164 93.2216 74.9489 93.9998 76.0902C92.8844 76.4015 91.7431 77.9578 88.2802 77.9578C87.369 77.9117 86.4772 77.6776 85.6608 77.2703C84.8444 76.8629 84.1212 76.291 83.5365 75.5906C82.9518 74.8902 82.5183 74.0764 82.2633 73.2004C82.0083 72.3244 81.9373 71.4051 82.0548 70.5003Z" fill="white"/>
<path d="M31.182 70.5003C25.6051 69.5017 23.4003 70.1372 22.2719 71.1877C20.2357 73.0164 20.0152 74.9489 19.2371 76.0902C20.3524 76.4015 21.4938 77.9578 24.9566 77.9578C25.8678 77.9117 26.7597 77.6776 27.576 77.2703C28.3924 76.8629 29.1157 76.291 29.7003 75.5906C30.285 74.8902 30.7185 74.0764 30.9735 73.2004C31.2285 72.3244 31.2995 71.4051 31.182 70.5003Z" fill="white"/>
<path d="M74.0548 75.5003C79.6317 74.5017 81.8365 75.1372 82.9649 76.1877C85.0011 78.0164 85.2216 79.9489 85.9998 81.0902C84.8844 81.4015 83.7431 82.9578 80.2802 82.9578C79.369 82.9117 78.4772 82.6776 77.6608 82.2703C76.8444 81.8629 76.1212 81.291 75.5365 80.5906C74.9518 79.8902 74.5183 79.0764 74.2633 78.2004C74.0083 77.3244 73.9373 76.4051 74.0548 75.5003Z" fill="white"/>
<path d="M39.182 75.5003C33.6051 74.5017 31.4003 75.1372 30.2719 76.1877C28.2357 78.0164 28.0152 79.9489 27.2371 81.0902C28.3524 81.4015 29.4938 82.9578 32.9566 82.9578C33.8678 82.9117 34.7597 82.6776 35.576 82.2703C36.3924 81.8629 37.1157 81.291 37.7003 80.5906C38.285 79.8902 38.7185 79.0764 38.9735 78.2004C39.2285 77.3244 39.2995 76.4051 39.182 75.5003Z" fill="white"/>
<path d="M65.0548 80.5003C70.6317 79.5017 72.8365 80.1372 73.9649 81.1877C76.0011 83.0164 76.2216 84.9489 76.9998 86.0902C75.8844 86.4015 74.7431 87.9578 71.2802 87.9578C70.369 87.9117 69.4772 87.6776 68.6608 87.2703C67.8444 86.8629 67.1212 86.291 66.5365 85.5906C65.9518 84.8902 65.5183 84.0764 65.2633 83.2004C65.0083 82.3244 64.9373 81.4051 65.0548 80.5003Z" fill="white"/>
<path d="M48.182 80.5003C42.6051 79.5017 40.4003 80.1372 39.2719 81.1877C37.2357 83.0164 37.0152 84.9489 36.2371 86.0902C37.3524 86.4015 38.4938 87.9578 41.9566 87.9578C42.8678 87.9117 43.7597 87.6776 44.576 87.2703C45.3924 86.8629 46.1157 86.291 46.7003 85.5906C47.285 84.8902 47.7185 84.0764 47.9735 83.2004C48.2285 82.3244 48.2995 81.4051 48.182 80.5003Z" fill="white"/>
<path d="M87.1997 45.8104C87.7506 40.8207 89.7285 39.102 91.0812 38.5229C93.4587 37.4963 95.162 38.0989 96.4682 37.8639C96.3379 38.8619 97.1925 40.5169 95.821 43.4859C95.4446 44.2411 94.9124 44.9079 94.2594 45.4423C93.6064 45.9767 92.8476 46.3666 92.0329 46.5862C91.2182 46.8059 90.3662 46.8503 89.5331 46.7166C88.7 46.5828 87.9047 46.274 87.1997 45.8104Z" fill="white"/>
<path d="M26.0371 45.8104C25.4863 40.8207 23.5083 39.102 22.1557 38.5229C19.7781 37.4963 18.0748 38.0989 16.7686 37.8639C16.8989 38.8619 16.0444 40.5169 17.4158 43.4859C17.7922 44.2411 18.3245 44.9079 18.9774 45.4423C19.6304 45.9767 20.3892 46.3666 21.2039 46.5862C22.0186 46.8059 22.8706 46.8503 23.7037 46.7166C24.5368 46.5828 25.3321 46.274 26.0371 45.8104Z" fill="white"/>
<path d="M87.1997 55.8104C87.7506 50.8207 89.7285 49.102 91.0812 48.5229C93.4587 47.4963 95.162 48.0989 96.4682 47.8639C96.3379 48.8619 97.1925 50.5169 95.821 53.4859C95.4446 54.2411 94.9124 54.9079 94.2594 55.4423C93.6064 55.9767 92.8476 56.3666 92.0329 56.5862C91.2182 56.8059 90.3662 56.8503 89.5331 56.7166C88.7 56.5828 87.9047 56.274 87.1997 55.8104Z" fill="white"/>
<path d="M26.0371 55.8104C25.4863 50.8207 23.5083 49.102 22.1557 48.5229C19.7781 47.4963 18.0748 48.0989 16.7686 47.8639C16.8989 48.8619 16.0444 50.5169 17.4158 53.4859C17.7922 54.2411 18.3245 54.9079 18.9774 55.4423C19.6304 55.9767 20.3892 56.3666 21.2039 56.5862C22.0186 56.8059 22.8706 56.8503 23.7037 56.7166C24.5368 56.5828 25.3321 56.274 26.0371 55.8104Z" fill="white"/>
<path d="M87.1997 65.8104C87.7506 60.8207 89.7285 59.102 91.0812 58.5229C93.4587 57.4963 95.162 58.0989 96.4682 57.8639C96.3379 58.8619 97.1925 60.5169 95.821 63.4859C95.4446 64.2411 94.9124 64.9079 94.2594 65.4423C93.6064 65.9767 92.8476 66.3666 92.0329 66.5862C91.2182 66.8059 90.3662 66.8503 89.5331 66.7166C88.7 66.5828 87.9047 66.274 87.1997 65.8104Z" fill="white"/>
<path d="M26.0371 65.8104C25.4863 60.8207 23.5083 59.102 22.1557 58.5229C19.7781 57.4963 18.0748 58.0989 16.7686 57.8639C16.8989 58.8619 16.0444 60.5169 17.4158 63.4859C17.7922 64.2411 18.3245 64.9079 18.9774 65.4423C19.6304 65.9767 20.3892 66.3666 21.2039 66.5862C22.0186 66.8059 22.8706 66.8503 23.7037 66.7166C24.5368 66.5828 25.3321 66.274 26.0371 65.8104Z" fill="white"/>
</g>
<path d="M43.0283 58.5168H40.489C39.6669 58.5168 39 57.8499 39 57.0278V42.7644C39 41.9423 39.6669 41.2754 40.489 41.2754H43.0276C43.8503 41.2754 44.5172 41.9423 44.5172 42.7644V57.0271C44.5172 57.8499 43.8503 58.5168 43.0283 58.5168Z" fill="#6A6A6A"/>
<path d="M77.5109 68.172H74.9723C74.1496 68.172 73.4827 67.5051 73.4827 66.6831V52.4196C73.4827 51.5976 74.1496 50.9307 74.9716 50.9307H77.5103C78.333 50.9307 78.9999 51.5976 78.9999 52.4196V66.6824C78.9999 67.5051 78.333 68.172 77.5109 68.172Z" fill="#6A6A6A"/>
<path d="M68.4051 53.6895C68.4051 55.4558 66.9732 56.8878 65.2068 56.8878C63.4405 56.8878 62.0085 55.4558 62.0085 53.6895C62.0085 51.9231 63.4405 50.4912 65.2068 50.4912C66.9732 50.4912 68.4051 51.9231 68.4051 53.6895Z" fill="white" stroke="#6A6A6A" stroke-width="0.5"/>
<path d="M57.6208 32.3105C57.2401 32.3105 56.9312 32.6188 56.9312 33.0002V73.0002C56.9312 73.3816 57.2401 73.6899 57.6208 73.6899C58.0015 73.6899 58.3105 73.3816 58.3105 73.0002V33.0002C58.3105 32.6188 58.0015 32.3105 57.6208 32.3105Z" fill="#6A6A6A"/>
<path d="M49.8267 36.588H50.7387C51.3387 36.996 51.6387 37.516 51.6387 38.148C51.6387 38.532 51.5027 38.96 51.2307 39.432C51.1507 39.576 51.0107 39.8 50.8107 40.104L49.5747 42H47.7147L50.1507 38.148L50.1147 38.04H47.3427V33.6H51.2787V35.04H48.9387V36.744C49.1787 36.64 49.4747 36.588 49.8267 36.588ZM61.9604 42L64.3724 35.04H61.8524V33.6H66.1364V34.716L63.6524 42H61.9604Z" fill="#6A6A6A"/>
<defs>
<filter id="filter0_d_1923_3220" x="0.623779" y="0.773438" width="111.989" height="105.185" filterUnits="userSpaceOnUse" color-interpolation-filters="sRGB">
<feFlood flood-opacity="0" result="BackgroundImageFix"/>
<feColorMatrix in="SourceAlpha" type="matrix" values="0 0 0 0 0 0 0 0 0 0 0 0 0 0 0 0 0 0 127 0" result="hardAlpha"/>
<feOffset dy="2"/>
<feGaussianBlur stdDeviation="8"/>
<feComposite in2="hardAlpha" operator="out"/>
<feColorMatrix type="matrix" values="0 0 0 0 1 0 0 0 0 1 0 0 0 0 1 0 0 0 1 0"/>
<feBlend mode="normal" in2="BackgroundImageFix" result="effect1_dropShadow_1923_3220"/>
<feBlend mode="normal" in="SourceGraphic" in2="effect1_dropShadow_1923_3220" result="shape"/>
</filter>
</defs>
</svg>
