<svg width="113" height="106" viewBox="0 0 113 106" fill="none" xmlns="http://www.w3.org/2000/svg">
<g filter="url(#filter0_d_1923_3259)">
<path d="M55.4998 17.1754C56.428 16.6395 57.5716 16.6395 58.4998 17.1754L84.6767 32.2887C85.6049 32.8246 86.1767 33.815 86.1767 34.8868V65.1133C86.1767 66.185 85.6049 67.1754 84.6767 67.7113L58.4998 82.8246C57.5716 83.3605 56.428 83.3605 55.4998 82.8246L29.3228 67.7113C28.3946 67.1754 27.8228 66.185 27.8228 65.1133V34.8867C27.8228 33.815 28.3946 32.8246 29.3228 32.2887L55.4998 17.1754Z" stroke="#CD7F32" stroke-width="4"/>
<path d="M82.0548 70.5003C87.6317 69.5017 89.8365 70.1372 90.9649 71.1877C93.0011 73.0164 93.2216 74.9489 93.9998 76.0902C92.8844 76.4015 91.7431 77.9578 88.2802 77.9578C87.369 77.9117 86.4772 77.6776 85.6608 77.2703C84.8444 76.8629 84.1212 76.291 83.5365 75.5906C82.9518 74.8902 82.5183 74.0764 82.2633 73.2004C82.0083 72.3244 81.9373 71.4051 82.0548 70.5003Z" fill="#FFE72D"/>
<path d="M31.182 70.5003C25.6051 69.5017 23.4003 70.1372 22.2719 71.1877C20.2357 73.0164 20.0152 74.9489 19.2371 76.0902C20.3524 76.4015 21.4938 77.9578 24.9566 77.9578C25.8678 77.9117 26.7597 77.6776 27.576 77.2703C28.3924 76.8629 29.1157 76.291 29.7003 75.5906C30.285 74.8902 30.7185 74.0764 30.9735 73.2004C31.2285 72.3244 31.2995 71.4051 31.182 70.5003Z" fill="#FFE72D"/>
<path d="M74.0548 75.5003C79.6317 74.5017 81.8365 75.1372 82.9649 76.1877C85.0011 78.0164 85.2216 79.9489 85.9998 81.0902C84.8844 81.4015 83.7431 82.9578 80.2802 82.9578C79.369 82.9117 78.4772 82.6776 77.6608 82.2703C76.8444 81.8629 76.1212 81.291 75.5365 80.5906C74.9518 79.8902 74.5183 79.0764 74.2633 78.2004C74.0083 77.3244 73.9373 76.4051 74.0548 75.5003Z" fill="#FFE72D"/>
<path d="M39.182 75.5003C33.6051 74.5017 31.4003 75.1372 30.2719 76.1877C28.2357 78.0164 28.0152 79.9489 27.2371 81.0902C28.3524 81.4015 29.4938 82.9578 32.9566 82.9578C33.8678 82.9117 34.7597 82.6776 35.576 82.2703C36.3924 81.8629 37.1157 81.291 37.7003 80.5906C38.285 79.8902 38.7185 79.0764 38.9735 78.2004C39.2285 77.3244 39.2995 76.4051 39.182 75.5003Z" fill="#FFE72D"/>
<path d="M65.0548 80.5003C70.6317 79.5017 72.8365 80.1372 73.9649 81.1877C76.0011 83.0164 76.2216 84.9489 76.9998 86.0902C75.8844 86.4015 74.7431 87.9578 71.2802 87.9578C70.369 87.9117 69.4772 87.6776 68.6608 87.2703C67.8444 86.8629 67.1212 86.291 66.5365 85.5906C65.9518 84.8902 65.5183 84.0764 65.2633 83.2004C65.0083 82.3244 64.9373 81.4051 65.0548 80.5003Z" fill="#FFE72D"/>
<path d="M48.182 80.5003C42.6051 79.5017 40.4003 80.1372 39.2719 81.1877C37.2357 83.0164 37.0152 84.9489 36.2371 86.0902C37.3524 86.4015 38.4938 87.9578 41.9566 87.9578C42.8678 87.9117 43.7597 87.6776 44.576 87.2703C45.3924 86.8629 46.1157 86.291 46.7003 85.5906C47.285 84.8902 47.7185 84.0764 47.9735 83.2004C48.2285 82.3244 48.2995 81.4051 48.182 80.5003Z" fill="#FFE72D"/>
<path d="M87.1997 45.8104C87.7506 40.8207 89.7285 39.102 91.0812 38.5229C93.4587 37.4963 95.162 38.0989 96.4682 37.8639C96.3379 38.8619 97.1925 40.5169 95.821 43.4859C95.4446 44.2411 94.9124 44.9079 94.2594 45.4423C93.6064 45.9767 92.8476 46.3666 92.0329 46.5862C91.2182 46.8059 90.3662 46.8503 89.5331 46.7166C88.7 46.5828 87.9047 46.274 87.1997 45.8104Z" fill="#FFE72D"/>
<path d="M26.0371 45.8104C25.4863 40.8207 23.5083 39.102 22.1557 38.5229C19.7781 37.4963 18.0748 38.0989 16.7686 37.8639C16.8989 38.8619 16.0444 40.5169 17.4158 43.4859C17.7922 44.2411 18.3245 44.9079 18.9774 45.4423C19.6304 45.9767 20.3892 46.3666 21.2039 46.5862C22.0186 46.8059 22.8706 46.8503 23.7037 46.7166C24.5368 46.5828 25.3321 46.274 26.0371 45.8104Z" fill="#FFE72D"/>
<path d="M87.1997 55.8104C87.7506 50.8207 89.7285 49.102 91.0812 48.5229C93.4587 47.4963 95.162 48.0989 96.4682 47.8639C96.3379 48.8619 97.1925 50.5169 95.821 53.4859C95.4446 54.2411 94.9124 54.9079 94.2594 55.4423C93.6064 55.9767 92.8476 56.3666 92.0329 56.5862C91.2182 56.8059 90.3662 56.8503 89.5331 56.7166C88.7 56.5828 87.9047 56.274 87.1997 55.8104Z" fill="#FFE72D"/>
<path d="M26.0371 55.8104C25.4863 50.8207 23.5083 49.102 22.1557 48.5229C19.7781 47.4963 18.0748 48.0989 16.7686 47.8639C16.8989 48.8619 16.0444 50.5169 17.4158 53.4859C17.7922 54.2411 18.3245 54.9079 18.9774 55.4423C19.6304 55.9767 20.3892 56.3666 21.2039 56.5862C22.0186 56.8059 22.8706 56.8503 23.7037 56.7166C24.5368 56.5828 25.3321 56.274 26.0371 55.8104Z" fill="#FFE72D"/>
<path d="M87.1997 65.8104C87.7506 60.8207 89.7285 59.102 91.0812 58.5229C93.4587 57.4963 95.162 58.0989 96.4682 57.8639C96.3379 58.8619 97.1925 60.5169 95.821 63.4859C95.4446 64.2411 94.9124 64.9079 94.2594 65.4423C93.6064 65.9767 92.8476 66.3666 92.0329 66.5862C91.2182 66.8059 90.3662 66.8503 89.5331 66.7166C88.7 66.5828 87.9047 66.274 87.1997 65.8104Z" fill="#FFE72D"/>
<path d="M26.0371 65.8104C25.4863 60.8207 23.5083 59.102 22.1557 58.5229C19.7781 57.4963 18.0748 58.0989 16.7686 57.8639C16.8989 58.8619 16.0444 60.5169 17.4158 63.4859C17.7922 64.2411 18.3245 64.9079 18.9774 65.4423C19.6304 65.9767 20.3892 66.3666 21.2039 66.5862C22.0186 66.8059 22.8706 66.8503 23.7037 66.7166C24.5368 66.5828 25.3321 66.274 26.0371 65.8104Z" fill="#FFE72D"/>
<path d="M55.4998 17.1754C56.428 16.6395 57.5716 16.6395 58.4998 17.1754L84.6767 32.2887C85.6049 32.8246 86.1767 33.815 86.1767 34.8868V65.1133C86.1767 66.185 85.6049 67.1754 84.6767 67.7113L58.4998 82.8246C57.5716 83.3605 56.428 83.3605 55.4998 82.8246L29.3228 67.7113C28.3946 67.1754 27.8228 66.185 27.8228 65.1133V34.8867C27.8228 33.815 28.3946 32.8246 29.3228 32.2887L55.4998 17.1754Z" stroke="#CD7F32" stroke-width="4"/>
<path d="M82.0548 70.5003C87.6317 69.5017 89.8365 70.1372 90.9649 71.1877C93.0011 73.0164 93.2216 74.9489 93.9998 76.0902C92.8844 76.4015 91.7431 77.9578 88.2802 77.9578C87.369 77.9117 86.4772 77.6776 85.6608 77.2703C84.8444 76.8629 84.1212 76.291 83.5365 75.5906C82.9518 74.8902 82.5183 74.0764 82.2633 73.2004C82.0083 72.3244 81.9373 71.4051 82.0548 70.5003Z" fill="#CD7F32"/>
<path d="M31.182 70.5003C25.6051 69.5017 23.4003 70.1372 22.2719 71.1877C20.2357 73.0164 20.0152 74.9489 19.2371 76.0902C20.3524 76.4015 21.4938 77.9578 24.9566 77.9578C25.8678 77.9117 26.7597 77.6776 27.576 77.2703C28.3924 76.8629 29.1157 76.291 29.7003 75.5906C30.285 74.8902 30.7185 74.0764 30.9735 73.2004C31.2285 72.3244 31.2995 71.4051 31.182 70.5003Z" fill="#CD7F32"/>
<path d="M74.0548 75.5003C79.6317 74.5017 81.8365 75.1372 82.9649 76.1877C85.0011 78.0164 85.2216 79.9489 85.9998 81.0902C84.8844 81.4015 83.7431 82.9578 80.2802 82.9578C79.369 82.9117 78.4772 82.6776 77.6608 82.2703C76.8444 81.8629 76.1212 81.291 75.5365 80.5906C74.9518 79.8902 74.5183 79.0764 74.2633 78.2004C74.0083 77.3244 73.9373 76.4051 74.0548 75.5003Z" fill="#CD7F32"/>
<path d="M39.182 75.5003C33.6051 74.5017 31.4003 75.1372 30.2719 76.1877C28.2357 78.0164 28.0152 79.9489 27.2371 81.0902C28.3524 81.4015 29.4938 82.9578 32.9566 82.9578C33.8678 82.9117 34.7597 82.6776 35.576 82.2703C36.3924 81.8629 37.1157 81.291 37.7003 80.5906C38.285 79.8902 38.7185 79.0764 38.9735 78.2004C39.2285 77.3244 39.2995 76.4051 39.182 75.5003Z" fill="#CD7F32"/>
<path d="M65.0548 80.5003C70.6317 79.5017 72.8365 80.1372 73.9649 81.1877C76.0011 83.0164 76.2216 84.9489 76.9998 86.0902C75.8844 86.4015 74.7431 87.9578 71.2802 87.9578C70.369 87.9117 69.4772 87.6776 68.6608 87.2703C67.8444 86.8629 67.1212 86.291 66.5365 85.5906C65.9518 84.8902 65.5183 84.0764 65.2633 83.2004C65.0083 82.3244 64.9373 81.4051 65.0548 80.5003Z" fill="#CD7F32"/>
<path d="M48.182 80.5003C42.6051 79.5017 40.4003 80.1372 39.2719 81.1877C37.2357 83.0164 37.0152 84.9489 36.2371 86.0902C37.3524 86.4015 38.4938 87.9578 41.9566 87.9578C42.8678 87.9117 43.7597 87.6776 44.576 87.2703C45.3924 86.8629 46.1157 86.291 46.7003 85.5906C47.285 84.8902 47.7185 84.0764 47.9735 83.2004C48.2285 82.3244 48.2995 81.4051 48.182 80.5003Z" fill="#CD7F32"/>
<path d="M87.1997 45.8104C87.7506 40.8207 89.7285 39.102 91.0812 38.5229C93.4587 37.4963 95.162 38.0989 96.4682 37.8639C96.3379 38.8619 97.1925 40.5169 95.821 43.4859C95.4446 44.2411 94.9124 44.9079 94.2594 45.4423C93.6064 45.9767 92.8476 46.3666 92.0329 46.5862C91.2182 46.8059 90.3662 46.8503 89.5331 46.7166C88.7 46.5828 87.9047 46.274 87.1997 45.8104Z" fill="#CD7F32"/>
<path d="M26.0371 45.8104C25.4863 40.8207 23.5083 39.102 22.1557 38.5229C19.7781 37.4963 18.0748 38.0989 16.7686 37.8639C16.8989 38.8619 16.0444 40.5169 17.4158 43.4859C17.7922 44.2411 18.3245 44.9079 18.9774 45.4423C19.6304 45.9767 20.3892 46.3666 21.2039 46.5862C22.0186 46.8059 22.8706 46.8503 23.7037 46.7166C24.5368 46.5828 25.3321 46.274 26.0371 45.8104Z" fill="#CD7F32"/>
<path d="M87.1997 55.8104C87.7506 50.8207 89.7285 49.102 91.0812 48.5229C93.4587 47.4963 95.162 48.0989 96.4682 47.8639C96.3379 48.8619 97.1925 50.5169 95.821 53.4859C95.4446 54.2411 94.9124 54.9079 94.2594 55.4423C93.6064 55.9767 92.8476 56.3666 92.0329 56.5862C91.2182 56.8059 90.3662 56.8503 89.5331 56.7166C88.7 56.5828 87.9047 56.274 87.1997 55.8104Z" fill="#CD7F32"/>
<path d="M26.0371 55.8104C25.4863 50.8207 23.5083 49.102 22.1557 48.5229C19.7781 47.4963 18.0748 48.0989 16.7686 47.8639C16.8989 48.8619 16.0444 50.5169 17.4158 53.4859C17.7922 54.2411 18.3245 54.9079 18.9774 55.4423C19.6304 55.9767 20.3892 56.3666 21.2039 56.5862C22.0186 56.8059 22.8706 56.8503 23.7037 56.7166C24.5368 56.5828 25.3321 56.274 26.0371 55.8104Z" fill="#CD7F32"/>
<path d="M87.1997 65.8104C87.7506 60.8207 89.7285 59.102 91.0812 58.5229C93.4587 57.4963 95.162 58.0989 96.4682 57.8639C96.3379 58.8619 97.1925 60.5169 95.821 63.4859C95.4446 64.2411 94.9124 64.9079 94.2594 65.4423C93.6064 65.9767 92.8476 66.3666 92.0329 66.5862C91.2182 66.8059 90.3662 66.8503 89.5331 66.7166C88.7 66.5828 87.9047 66.274 87.1997 65.8104Z" fill="#CD7F32"/>
<path d="M26.0371 65.8104C25.4863 60.8207 23.5083 59.102 22.1557 58.5229C19.7781 57.4963 18.0748 58.0989 16.7686 57.8639C16.8989 58.8619 16.0444 60.5169 17.4158 63.4859C17.7922 64.2411 18.3245 64.9079 18.9774 65.4423C19.6304 65.9767 20.3892 66.3666 21.2039 66.5862C22.0186 66.8059 22.8706 66.8503 23.7037 66.7166C24.5368 66.5828 25.3321 66.274 26.0371 65.8104Z" fill="#CD7F32"/>
<path d="M54.4438 17.5205C56.0191 16.5835 57.9809 16.5835 59.5562 17.5205L83.135 31.5463C84.6503 32.4477 85.5788 34.0804 85.5788 35.8435V64.1565C85.5788 65.9196 84.6503 67.5523 83.135 68.4537L59.5562 82.4795C57.9809 83.4165 56.0191 83.4165 54.4438 82.4795L30.865 68.4537C29.3497 67.5523 28.4212 65.9196 28.4212 64.1565V35.8435C28.4212 34.0804 29.3497 32.4477 30.865 31.5463L54.4438 17.5205Z" fill="#712E00"/>
<path d="M54.4383 20.5283C56.0163 19.5868 57.9837 19.5868 59.5617 20.5283L80.5425 33.0453C82.0546 33.9475 82.9808 35.5785 82.9808 37.3392V62.6608C82.9808 64.4215 82.0546 66.0525 80.5425 66.9547L59.5617 79.4717C57.9837 80.4132 56.0163 80.4132 54.4383 79.4717L33.4575 66.9547C31.9454 66.0525 31.0192 64.4215 31.0192 62.6608V37.3392C31.0192 35.5785 31.9454 33.9475 33.4575 33.0453L54.4383 20.5283Z" fill="#CD7F32"/>
</g>
<path d="M43.0283 57.5168H40.489C39.6669 57.5168 39 56.8499 39 56.0278V41.7644C39 40.9423 39.6669 40.2754 40.489 40.2754H43.0276C43.8503 40.2754 44.5172 40.9423 44.5172 41.7644V56.0271C44.5172 56.8499 43.8503 57.5168 43.0283 57.5168Z" fill="#712E00"/>
<path d="M77.5109 67.172H74.9723C74.1496 67.172 73.4827 66.5051 73.4827 65.6831V51.4196C73.4827 50.5976 74.1496 49.9307 74.9716 49.9307H77.5103C78.333 49.9307 78.9999 50.5976 78.9999 51.4196V65.6824C78.9999 66.5051 78.333 67.172 77.5109 67.172Z" fill="#712E00"/>
<path d="M68.4051 52.6895C68.4051 54.4558 66.9732 55.8878 65.2068 55.8878C63.4405 55.8878 62.0085 54.4558 62.0085 52.6895C62.0085 50.9231 63.4405 49.4912 65.2068 49.4912C66.9732 49.4912 68.4051 50.9231 68.4051 52.6895Z" fill="#712E00" stroke="#6A6A6A" stroke-width="0.5"/>
<path d="M57.6208 31.3105C57.2401 31.3105 56.9312 31.6188 56.9312 32.0002V72.0002C56.9312 72.3816 57.2401 72.6899 57.6208 72.6899C58.0015 72.6899 58.3105 72.3816 58.3105 72.0002V32.0002C58.3105 31.6188 58.0015 31.3105 57.6208 31.3105Z" fill="#712E00"/>
<path d="M50.0062 37.184H48.8902C48.6982 37.584 48.6022 37.936 48.6022 38.24C48.6022 38.536 48.6382 38.812 48.7102 39.068C48.7822 39.324 48.8622 39.504 48.9502 39.608H49.9942C50.2102 39.232 50.3182 38.808 50.3182 38.336C50.3182 37.856 50.2142 37.472 50.0062 37.184ZM49.9222 35.792H50.5462C51.0022 36.024 51.3542 36.368 51.6022 36.824C51.8582 37.272 51.9862 37.732 51.9862 38.204C51.9862 39.332 51.5382 40.264 50.6422 41H48.3382C47.4262 40.352 46.9702 39.42 46.9702 38.204C46.9702 37.796 47.0302 37.356 47.1502 36.884C47.2782 36.412 47.4062 36.02 47.5342 35.708C47.6702 35.396 47.8542 35 48.0862 34.52L48.9502 32.6H50.6182L49.0582 36.068C49.3542 35.884 49.6422 35.792 49.9222 35.792ZM62.1889 41L64.6009 34.04H62.0809V32.6H66.3649V33.716L63.8809 41H62.1889Z" fill="#712E00"/>
<defs>
<filter id="filter0_d_1923_3259" x="0.623779" y="0.773438" width="111.989" height="105.185" filterUnits="userSpaceOnUse" color-interpolation-filters="sRGB">
<feFlood flood-opacity="0" result="BackgroundImageFix"/>
<feColorMatrix in="SourceAlpha" type="matrix" values="0 0 0 0 0 0 0 0 0 0 0 0 0 0 0 0 0 0 127 0" result="hardAlpha"/>
<feOffset dy="2"/>
<feGaussianBlur stdDeviation="8"/>
<feComposite in2="hardAlpha" operator="out"/>
<feColorMatrix type="matrix" values="0 0 0 0 0.803922 0 0 0 0 0.498039 0 0 0 0 0.196078 0 0 0 1 0"/>
<feBlend mode="normal" in2="BackgroundImageFix" result="effect1_dropShadow_1923_3259"/>
<feBlend mode="normal" in="SourceGraphic" in2="effect1_dropShadow_1923_3259" result="shape"/>
</filter>
</defs>
</svg>
