<svg width="113" height="106" viewBox="0 0 113 106" fill="none" xmlns="http://www.w3.org/2000/svg">
<g filter="url(#filter0_d_1923_3166)">
<path d="M55.4998 17.1754C56.428 16.6395 57.5716 16.6395 58.4998 17.1754L84.6767 32.2887C85.6049 32.8246 86.1767 33.815 86.1767 34.8868V65.1133C86.1767 66.185 85.6049 67.1754 84.6767 67.7113L58.4998 82.8246C57.5716 83.3605 56.428 83.3605 55.4998 82.8246L29.3228 67.7113C28.3946 67.1754 27.8228 66.185 27.8228 65.1133V34.8867C27.8228 33.815 28.3946 32.8246 29.3228 32.2887L55.4998 17.1754Z" stroke="#CD7F32" stroke-width="4"/>
<path d="M82.0548 70.5003C87.6317 69.5017 89.8365 70.1372 90.9649 71.1877C93.0011 73.0164 93.2216 74.9489 93.9998 76.0902C92.8844 76.4015 91.7431 77.9578 88.2802 77.9578C87.369 77.9117 86.4772 77.6776 85.6608 77.2703C84.8444 76.8629 84.1212 76.291 83.5365 75.5906C82.9518 74.8902 82.5183 74.0764 82.2633 73.2004C82.0083 72.3244 81.9373 71.4051 82.0548 70.5003Z" fill="#FFE72D"/>
<path d="M31.182 70.5003C25.6051 69.5017 23.4003 70.1372 22.2719 71.1877C20.2357 73.0164 20.0152 74.9489 19.2371 76.0902C20.3524 76.4015 21.4938 77.9578 24.9566 77.9578C25.8678 77.9117 26.7597 77.6776 27.576 77.2703C28.3924 76.8629 29.1157 76.291 29.7003 75.5906C30.285 74.8902 30.7185 74.0764 30.9735 73.2004C31.2285 72.3244 31.2995 71.4051 31.182 70.5003Z" fill="#FFE72D"/>
<path d="M74.0548 75.5003C79.6317 74.5017 81.8365 75.1372 82.9649 76.1877C85.0011 78.0164 85.2216 79.9489 85.9998 81.0902C84.8844 81.4015 83.7431 82.9578 80.2802 82.9578C79.369 82.9117 78.4772 82.6776 77.6608 82.2703C76.8444 81.8629 76.1212 81.291 75.5365 80.5906C74.9518 79.8902 74.5183 79.0764 74.2633 78.2004C74.0083 77.3244 73.9373 76.4051 74.0548 75.5003Z" fill="#FFE72D"/>
<path d="M39.182 75.5003C33.6051 74.5017 31.4003 75.1372 30.2719 76.1877C28.2357 78.0164 28.0152 79.9489 27.2371 81.0902C28.3524 81.4015 29.4938 82.9578 32.9566 82.9578C33.8678 82.9117 34.7597 82.6776 35.576 82.2703C36.3924 81.8629 37.1157 81.291 37.7003 80.5906C38.285 79.8902 38.7185 79.0764 38.9735 78.2004C39.2285 77.3244 39.2995 76.4051 39.182 75.5003Z" fill="#FFE72D"/>
<path d="M65.0548 80.5003C70.6317 79.5017 72.8365 80.1372 73.9649 81.1877C76.0011 83.0164 76.2216 84.9489 76.9998 86.0902C75.8844 86.4015 74.7431 87.9578 71.2802 87.9578C70.369 87.9117 69.4772 87.6776 68.6608 87.2703C67.8444 86.8629 67.1212 86.291 66.5365 85.5906C65.9518 84.8902 65.5183 84.0764 65.2633 83.2004C65.0083 82.3244 64.9373 81.4051 65.0548 80.5003Z" fill="#FFE72D"/>
<path d="M48.182 80.5003C42.6051 79.5017 40.4003 80.1372 39.2719 81.1877C37.2357 83.0164 37.0152 84.9489 36.2371 86.0902C37.3524 86.4015 38.4938 87.9578 41.9566 87.9578C42.8678 87.9117 43.7597 87.6776 44.576 87.2703C45.3924 86.8629 46.1157 86.291 46.7003 85.5906C47.285 84.8902 47.7185 84.0764 47.9735 83.2004C48.2285 82.3244 48.2995 81.4051 48.182 80.5003Z" fill="#FFE72D"/>
<path d="M87.1997 45.8104C87.7506 40.8207 89.7285 39.102 91.0812 38.5229C93.4587 37.4963 95.162 38.0989 96.4682 37.8639C96.3379 38.8619 97.1925 40.5169 95.821 43.4859C95.4446 44.2411 94.9124 44.9079 94.2594 45.4423C93.6064 45.9767 92.8476 46.3666 92.0329 46.5862C91.2182 46.8059 90.3662 46.8503 89.5331 46.7166C88.7 46.5828 87.9047 46.274 87.1997 45.8104Z" fill="#FFE72D"/>
<path d="M26.0371 45.8104C25.4863 40.8207 23.5083 39.102 22.1557 38.5229C19.7781 37.4963 18.0748 38.0989 16.7686 37.8639C16.8989 38.8619 16.0444 40.5169 17.4158 43.4859C17.7922 44.2411 18.3245 44.9079 18.9774 45.4423C19.6304 45.9767 20.3892 46.3666 21.2039 46.5862C22.0186 46.8059 22.8706 46.8503 23.7037 46.7166C24.5368 46.5828 25.3321 46.274 26.0371 45.8104Z" fill="#FFE72D"/>
<path d="M87.1997 55.8104C87.7506 50.8207 89.7285 49.102 91.0812 48.5229C93.4587 47.4963 95.162 48.0989 96.4682 47.8639C96.3379 48.8619 97.1925 50.5169 95.821 53.4859C95.4446 54.2411 94.9124 54.9079 94.2594 55.4423C93.6064 55.9767 92.8476 56.3666 92.0329 56.5862C91.2182 56.8059 90.3662 56.8503 89.5331 56.7166C88.7 56.5828 87.9047 56.274 87.1997 55.8104Z" fill="#FFE72D"/>
<path d="M26.0371 55.8104C25.4863 50.8207 23.5083 49.102 22.1557 48.5229C19.7781 47.4963 18.0748 48.0989 16.7686 47.8639C16.8989 48.8619 16.0444 50.5169 17.4158 53.4859C17.7922 54.2411 18.3245 54.9079 18.9774 55.4423C19.6304 55.9767 20.3892 56.3666 21.2039 56.5862C22.0186 56.8059 22.8706 56.8503 23.7037 56.7166C24.5368 56.5828 25.3321 56.274 26.0371 55.8104Z" fill="#FFE72D"/>
<path d="M87.1997 65.8104C87.7506 60.8207 89.7285 59.102 91.0812 58.5229C93.4587 57.4963 95.162 58.0989 96.4682 57.8639C96.3379 58.8619 97.1925 60.5169 95.821 63.4859C95.4446 64.2411 94.9124 64.9079 94.2594 65.4423C93.6064 65.9767 92.8476 66.3666 92.0329 66.5862C91.2182 66.8059 90.3662 66.8503 89.5331 66.7166C88.7 66.5828 87.9047 66.274 87.1997 65.8104Z" fill="#FFE72D"/>
<path d="M26.0371 65.8104C25.4863 60.8207 23.5083 59.102 22.1557 58.5229C19.7781 57.4963 18.0748 58.0989 16.7686 57.8639C16.8989 58.8619 16.0444 60.5169 17.4158 63.4859C17.7922 64.2411 18.3245 64.9079 18.9774 65.4423C19.6304 65.9767 20.3892 66.3666 21.2039 66.5862C22.0186 66.8059 22.8706 66.8503 23.7037 66.7166C24.5368 66.5828 25.3321 66.274 26.0371 65.8104Z" fill="#FFE72D"/>
<path d="M55.4998 17.1754C56.428 16.6395 57.5716 16.6395 58.4998 17.1754L84.6767 32.2887C85.6049 32.8246 86.1767 33.815 86.1767 34.8868V65.1133C86.1767 66.185 85.6049 67.1754 84.6767 67.7113L58.4998 82.8246C57.5716 83.3605 56.428 83.3605 55.4998 82.8246L29.3228 67.7113C28.3946 67.1754 27.8228 66.185 27.8228 65.1133V34.8867C27.8228 33.815 28.3946 32.8246 29.3228 32.2887L55.4998 17.1754Z" stroke="#CD7F32" stroke-width="4"/>
<path d="M82.0548 70.5003C87.6317 69.5017 89.8365 70.1372 90.9649 71.1877C93.0011 73.0164 93.2216 74.9489 93.9998 76.0902C92.8844 76.4015 91.7431 77.9578 88.2802 77.9578C87.369 77.9117 86.4772 77.6776 85.6608 77.2703C84.8444 76.8629 84.1212 76.291 83.5365 75.5906C82.9518 74.8902 82.5183 74.0764 82.2633 73.2004C82.0083 72.3244 81.9373 71.4051 82.0548 70.5003Z" fill="#CD7F32"/>
<path d="M31.182 70.5003C25.6051 69.5017 23.4003 70.1372 22.2719 71.1877C20.2357 73.0164 20.0152 74.9489 19.2371 76.0902C20.3524 76.4015 21.4938 77.9578 24.9566 77.9578C25.8678 77.9117 26.7597 77.6776 27.576 77.2703C28.3924 76.8629 29.1157 76.291 29.7003 75.5906C30.285 74.8902 30.7185 74.0764 30.9735 73.2004C31.2285 72.3244 31.2995 71.4051 31.182 70.5003Z" fill="#CD7F32"/>
<path d="M74.0548 75.5003C79.6317 74.5017 81.8365 75.1372 82.9649 76.1877C85.0011 78.0164 85.2216 79.9489 85.9998 81.0902C84.8844 81.4015 83.7431 82.9578 80.2802 82.9578C79.369 82.9117 78.4772 82.6776 77.6608 82.2703C76.8444 81.8629 76.1212 81.291 75.5365 80.5906C74.9518 79.8902 74.5183 79.0764 74.2633 78.2004C74.0083 77.3244 73.9373 76.4051 74.0548 75.5003Z" fill="#CD7F32"/>
<path d="M39.182 75.5003C33.6051 74.5017 31.4003 75.1372 30.2719 76.1877C28.2357 78.0164 28.0152 79.9489 27.2371 81.0902C28.3524 81.4015 29.4938 82.9578 32.9566 82.9578C33.8678 82.9117 34.7597 82.6776 35.576 82.2703C36.3924 81.8629 37.1157 81.291 37.7003 80.5906C38.285 79.8902 38.7185 79.0764 38.9735 78.2004C39.2285 77.3244 39.2995 76.4051 39.182 75.5003Z" fill="#CD7F32"/>
<path d="M65.0548 80.5003C70.6317 79.5017 72.8365 80.1372 73.9649 81.1877C76.0011 83.0164 76.2216 84.9489 76.9998 86.0902C75.8844 86.4015 74.7431 87.9578 71.2802 87.9578C70.369 87.9117 69.4772 87.6776 68.6608 87.2703C67.8444 86.8629 67.1212 86.291 66.5365 85.5906C65.9518 84.8902 65.5183 84.0764 65.2633 83.2004C65.0083 82.3244 64.9373 81.4051 65.0548 80.5003Z" fill="#CD7F32"/>
<path d="M48.182 80.5003C42.6051 79.5017 40.4003 80.1372 39.2719 81.1877C37.2357 83.0164 37.0152 84.9489 36.2371 86.0902C37.3524 86.4015 38.4938 87.9578 41.9566 87.9578C42.8678 87.9117 43.7597 87.6776 44.576 87.2703C45.3924 86.8629 46.1157 86.291 46.7003 85.5906C47.285 84.8902 47.7185 84.0764 47.9735 83.2004C48.2285 82.3244 48.2995 81.4051 48.182 80.5003Z" fill="#CD7F32"/>
<path d="M87.1997 45.8104C87.7506 40.8207 89.7285 39.102 91.0812 38.5229C93.4587 37.4963 95.162 38.0989 96.4682 37.8639C96.3379 38.8619 97.1925 40.5169 95.821 43.4859C95.4446 44.2411 94.9124 44.9079 94.2594 45.4423C93.6064 45.9767 92.8476 46.3666 92.0329 46.5862C91.2182 46.8059 90.3662 46.8503 89.5331 46.7166C88.7 46.5828 87.9047 46.274 87.1997 45.8104Z" fill="#CD7F32"/>
<path d="M26.0371 45.8104C25.4863 40.8207 23.5083 39.102 22.1557 38.5229C19.7781 37.4963 18.0748 38.0989 16.7686 37.8639C16.8989 38.8619 16.0444 40.5169 17.4158 43.4859C17.7922 44.2411 18.3245 44.9079 18.9774 45.4423C19.6304 45.9767 20.3892 46.3666 21.2039 46.5862C22.0186 46.8059 22.8706 46.8503 23.7037 46.7166C24.5368 46.5828 25.3321 46.274 26.0371 45.8104Z" fill="#CD7F32"/>
<path d="M87.1997 55.8104C87.7506 50.8207 89.7285 49.102 91.0812 48.5229C93.4587 47.4963 95.162 48.0989 96.4682 47.8639C96.3379 48.8619 97.1925 50.5169 95.821 53.4859C95.4446 54.2411 94.9124 54.9079 94.2594 55.4423C93.6064 55.9767 92.8476 56.3666 92.0329 56.5862C91.2182 56.8059 90.3662 56.8503 89.5331 56.7166C88.7 56.5828 87.9047 56.274 87.1997 55.8104Z" fill="#CD7F32"/>
<path d="M26.0371 55.8104C25.4863 50.8207 23.5083 49.102 22.1557 48.5229C19.7781 47.4963 18.0748 48.0989 16.7686 47.8639C16.8989 48.8619 16.0444 50.5169 17.4158 53.4859C17.7922 54.2411 18.3245 54.9079 18.9774 55.4423C19.6304 55.9767 20.3892 56.3666 21.2039 56.5862C22.0186 56.8059 22.8706 56.8503 23.7037 56.7166C24.5368 56.5828 25.3321 56.274 26.0371 55.8104Z" fill="#CD7F32"/>
<path d="M87.1997 65.8104C87.7506 60.8207 89.7285 59.102 91.0812 58.5229C93.4587 57.4963 95.162 58.0989 96.4682 57.8639C96.3379 58.8619 97.1925 60.5169 95.821 63.4859C95.4446 64.2411 94.9124 64.9079 94.2594 65.4423C93.6064 65.9767 92.8476 66.3666 92.0329 66.5862C91.2182 66.8059 90.3662 66.8503 89.5331 66.7166C88.7 66.5828 87.9047 66.274 87.1997 65.8104Z" fill="#CD7F32"/>
<path d="M26.0371 65.8104C25.4863 60.8207 23.5083 59.102 22.1557 58.5229C19.7781 57.4963 18.0748 58.0989 16.7686 57.8639C16.8989 58.8619 16.0444 60.5169 17.4158 63.4859C17.7922 64.2411 18.3245 64.9079 18.9774 65.4423C19.6304 65.9767 20.3892 66.3666 21.2039 66.5862C22.0186 66.8059 22.8706 66.8503 23.7037 66.7166C24.5368 66.5828 25.3321 66.274 26.0371 65.8104Z" fill="#CD7F32"/>
<path d="M54.4438 17.5205C56.0191 16.5835 57.9809 16.5835 59.5562 17.5205L83.135 31.5463C84.6503 32.4477 85.5788 34.0804 85.5788 35.8435V64.1565C85.5788 65.9196 84.6503 67.5523 83.135 68.4537L59.5562 82.4795C57.9809 83.4165 56.0191 83.4165 54.4438 82.4795L30.865 68.4537C29.3497 67.5523 28.4212 65.9196 28.4212 64.1565V35.8435C28.4212 34.0804 29.3497 32.4477 30.865 31.5463L54.4438 17.5205Z" fill="#712E00"/>
<path d="M54.4383 20.5283C56.0163 19.5868 57.9837 19.5868 59.5617 20.5283L80.5425 33.0453C82.0546 33.9475 82.9808 35.5785 82.9808 37.3392V62.6608C82.9808 64.4215 82.0546 66.0525 80.5425 66.9547L59.5617 79.4717C57.9837 80.4132 56.0163 80.4132 54.4383 79.4717L33.4575 66.9547C31.9454 66.0525 31.0192 64.4215 31.0192 62.6608V37.3392C31.0192 35.5785 31.9454 33.9475 33.4575 33.0453L54.4383 20.5283Z" fill="#CD7F32"/>
</g>
<path d="M56.2143 70.6315C60.4609 70.6315 64.5336 68.9445 67.5364 65.9417C70.5392 62.9389 72.2262 58.8662 72.2262 54.6196C72.2262 50.3729 70.5392 46.3002 67.5364 43.2974C64.5336 40.2946 60.4609 38.6077 56.2143 38.6077C51.9677 38.6077 47.895 40.2946 44.8922 43.2974C41.8893 46.3002 40.2024 50.3729 40.2024 54.6196C40.2024 58.8662 41.8893 62.9389 44.8922 65.9417C47.895 68.9445 51.9677 70.6315 56.2143 70.6315ZM56.2143 73.8338C51.1183 73.8338 46.2311 71.8095 42.6277 68.2061C39.0244 64.6027 37 59.7155 37 54.6196C37 49.5236 39.0244 44.6364 42.6277 41.033C46.2311 37.4296 51.1183 35.4053 56.2143 35.4053C61.3102 35.4053 66.1975 37.4296 69.8008 41.033C73.4042 44.6364 75.4286 49.5236 75.4286 54.6196C75.4286 59.7155 73.4042 64.6027 69.8008 68.2061C66.1975 71.8095 61.3102 73.8338 56.2143 73.8338Z" fill="#B35900"/>
<path d="M56.2142 41.8096C56.6389 41.8096 57.0461 41.9783 57.3464 42.2785C57.6467 42.5788 57.8154 42.9861 57.8154 43.4108L57.7898 54.6191C57.7898 55.0438 57.6211 55.451 57.3208 55.7513C57.0205 56.0516 56.6133 56.2203 56.1886 56.2203C55.7639 56.2203 55.3567 56.0516 55.0564 55.7513C54.7561 55.451 54.5874 55.0438 54.5874 54.6191L54.613 43.4108C54.613 42.9861 54.7817 42.5788 55.082 42.2785C55.3823 41.9783 55.7895 41.8096 56.2142 41.8096Z" fill="#B35900"/>
<path d="M53.0118 54.619C53.0118 55.4684 53.3492 56.2829 53.9498 56.8835C54.5503 57.484 55.3649 57.8214 56.2142 57.8214C57.0635 57.8214 57.8781 57.484 58.4786 56.8835C59.0792 56.2829 59.4166 55.4684 59.4166 54.619C59.4166 53.7697 59.0792 52.9552 58.4786 52.3546C57.8781 51.7541 57.0635 51.4167 56.2142 51.4167C55.3649 51.4167 54.5503 51.7541 53.9498 52.3546C53.3492 52.9552 53.0118 53.7697 53.0118 54.619ZM57.8154 32.2024V38.6071H54.613V32.2024H49.8094C49.3848 32.2024 48.9775 32.0337 48.6772 31.7334C48.3769 31.4331 48.2083 31.0259 48.2083 30.6012C48.2083 30.1765 48.3769 29.7693 48.6772 29.469C48.9775 29.1687 49.3848 29 49.8094 29H62.619C63.0436 29 63.4509 29.1687 63.7512 29.469C64.0515 29.7693 64.2202 30.1765 64.2202 30.6012C64.2202 31.0259 64.0515 31.4331 63.7512 31.7334C63.4509 32.0337 63.0436 32.2024 62.619 32.2024H57.8154Z" fill="#B35900"/>
<path d="M71.528 64.44L69.2393 66.9267C69.0796 67.1062 68.8839 67.25 68.665 67.3487C68.446 67.4475 68.2087 67.499 67.9685 67.5C67.7282 67.5009 67.4905 67.4512 67.2708 67.3542C67.0511 67.2571 66.8543 67.1148 66.6932 66.9366C66.5069 66.7368 66.3647 66.4974 66.2747 66.2364L65.6393 66.9267C65.4796 67.1062 65.2839 67.25 65.065 67.3487C64.846 67.4475 64.6087 67.499 64.3685 67.5C64.1282 67.5009 63.8905 67.4512 63.6708 67.3542C63.4511 67.2571 63.2543 67.1148 63.0932 66.9366C62.753 66.5721 62.5622 66.0771 62.5622 65.5596V60.4404C62.5622 59.3694 63.3677 58.5 64.3622 58.5C64.8536 58.5 65.3243 58.7169 65.6636 59.1003L66.2675 59.7825C66.5177 59.0355 67.1819 58.5 67.9613 58.5C68.4536 58.5 68.9243 58.7169 69.2636 59.1003L71.528 61.659V59.4C71.528 59.1613 71.6228 58.9324 71.7916 58.7636C71.9604 58.5948 72.1893 58.5 72.428 58.5C72.6667 58.5 72.8956 58.5948 73.0644 58.7636C73.2332 58.9324 73.328 59.1613 73.328 59.4V66.6C73.328 66.8387 73.2332 67.0676 73.0644 67.2364C72.8956 67.4052 72.6667 67.5 72.428 67.5C72.1893 67.5 71.9604 67.4052 71.7916 67.2364C71.6228 67.0676 71.528 66.8387 71.528 66.6V64.44ZM68 72C72.9707 72 77 67.9707 77 63C77 58.0293 72.9707 54 68 54C63.0293 54 59 58.0293 59 63C59 67.9707 63.0293 72 68 72ZM64.3613 65.5596L66.2882 63.4662L66.2846 62.613L64.3613 60.4404V65.5596ZM67.9613 65.5596L70.2716 63.0504L67.9613 60.4404V65.5596Z" fill="#712E00"/>
<defs>
<filter id="filter0_d_1923_3166" x="0.623779" y="0.773438" width="111.989" height="105.185" filterUnits="userSpaceOnUse" color-interpolation-filters="sRGB">
<feFlood flood-opacity="0" result="BackgroundImageFix"/>
<feColorMatrix in="SourceAlpha" type="matrix" values="0 0 0 0 0 0 0 0 0 0 0 0 0 0 0 0 0 0 127 0" result="hardAlpha"/>
<feOffset dy="2"/>
<feGaussianBlur stdDeviation="8"/>
<feComposite in2="hardAlpha" operator="out"/>
<feColorMatrix type="matrix" values="0 0 0 0 0.803922 0 0 0 0 0.498039 0 0 0 0 0.196078 0 0 0 1 0"/>
<feBlend mode="normal" in2="BackgroundImageFix" result="effect1_dropShadow_1923_3166"/>
<feBlend mode="normal" in="SourceGraphic" in2="effect1_dropShadow_1923_3166" result="shape"/>
</filter>
</defs>
</svg>
